<svg width="330" height="245" viewBox="0 0 330 245" fill="none" xmlns="http://www.w3.org/2000/svg">
<path d="M137.252 41.1662C139.648 35.6554 136.901 28.7825 132.459 24.6545C130.184 22.6746 127.399 21.3702 124.42 20.8888C121.441 20.4073 118.387 20.768 115.602 21.9301C113.166 22.8757 111.126 24.6231 109.818 26.8836C108.956 28.8052 108.665 30.9341 108.98 33.0163C109.295 35.0986 110.203 37.0464 111.595 38.6276C114.451 41.7483 118.203 43.911 122.337 44.8194C125.212 45.7103 128.263 45.8804 131.22 45.3148C132.692 45.0171 134.069 44.3652 135.231 43.4157C136.394 42.4662 137.307 41.2478 137.892 39.8659" fill="#263238"/>
<path d="M248.71 115.078C244.589 116.427 240.16 112.85 239.191 108.72C238.223 104.59 239.747 100.317 241.561 96.4526C243.374 92.5884 245.496 88.7447 245.805 84.5126C246.341 77.2954 241.54 70.8757 239.459 63.9447C235.112 49.5309 242.426 32.6432 234.823 19.5992C231.337 13.3222 225.799 8.41128 219.123 5.67604C215.469 4.16933 211.532 3.4555 207.577 3.58245C203.622 3.70939 199.74 4.67417 196.191 6.41206C191.353 3.39333 185.946 1.38342 180.3 0.504691C174.654 -0.374035 168.887 -0.103184 163.349 1.30077C157.843 2.75936 152.698 5.32735 148.235 8.84479C143.773 12.3622 140.087 16.7538 137.409 21.7459C133.886 28.4111 132.279 36.0576 128.076 42.3342C124.882 47.1593 120.082 51.4528 119.608 57.1774C119.01 64.4354 125.645 70.5281 126.304 77.7861C127.087 86.3526 119.464 94.8783 122.637 102.893C124.821 108.433 131.682 111.746 132.382 117.654C132.289 119.335 132.534 121.017 133.103 122.602C134.161 123.995 135.54 125.115 137.125 125.87C138.709 126.624 140.453 126.99 142.21 126.936C178.678 124.728 209.584 130.146 242.117 121.845C243.86 121.517 245.511 120.819 246.959 119.801C247.692 119.277 248.25 118.547 248.562 117.705C248.874 116.864 248.926 115.949 248.71 115.078Z" fill="#263238"/>
<line x1="0.453613" y1="223.156" x2="329.584" y2="223.156" stroke="#263238" stroke-width="1.5"/>
<path d="M147.963 51.8804C148.259 46.3687 150.31 41.0955 153.817 36.8287C157.324 32.5619 162.103 29.5244 167.459 28.1584L202.734 19.1822C217.906 17.5536 228.021 36.0995 229.07 51.2366C230.17 68.0528 230.853 85.7906 228.881 98.3397C224.898 123.589 205.427 126.834 205.427 126.834C205.427 126.834 205.427 132.654 205.427 140.027L205.035 140.961C196.008 162.107 166.169 163.08 155.726 142.564L147.874 52.2213C147.862 51.8047 147.925 52.5622 147.963 51.8804Z" fill="#FFBF9D"/>
<path d="M224.19 70.1864C224.197 71.032 223.873 71.8469 223.288 72.4576C222.702 73.0684 221.901 73.4267 221.054 73.4562C220.642 73.4907 220.226 73.4424 219.832 73.3144C219.439 73.1863 219.074 72.9811 218.761 72.7106C218.448 72.4402 218.192 72.11 218.008 71.7394C217.824 71.3688 217.717 70.9653 217.691 70.5526C217.684 69.707 218.008 68.8921 218.593 68.2814C219.179 67.6706 219.98 67.3123 220.827 67.2827C221.239 67.2483 221.655 67.2966 222.049 67.4246C222.442 67.5526 222.806 67.7579 223.12 68.0284C223.433 68.2989 223.689 68.6291 223.873 68.9997C224.057 69.3702 224.164 69.7737 224.19 70.1864Z" fill="#263238"/>
<path d="M225.239 61.1471C224.835 61.5763 222.356 59.7584 218.917 59.7836C215.478 59.8089 212.849 61.5511 212.457 61.1219C212.267 60.9325 212.684 60.175 213.797 59.3544C215.316 58.3057 217.121 57.7502 218.968 57.7637C220.782 57.7569 222.552 58.3224 224.025 59.3796C225.075 60.2002 225.441 60.9577 225.239 61.1471Z" fill="#263238"/>
<path d="M192.253 69.7443C192.26 70.5898 191.936 71.4048 191.351 72.0155C190.765 72.6262 189.964 72.9846 189.117 73.0141C188.705 73.0485 188.289 73.0003 187.895 72.8722C187.502 72.7442 187.137 72.5389 186.824 72.2685C186.511 71.998 186.255 71.6678 186.071 71.2972C185.887 70.9266 185.78 70.5231 185.754 70.1104C185.747 69.2649 186.071 68.45 186.656 67.8392C187.242 67.2285 188.043 66.8702 188.89 66.8406C189.302 66.8062 189.718 66.8544 190.112 66.9825C190.505 67.1105 190.87 67.3158 191.183 67.5863C191.496 67.8567 191.752 68.1869 191.936 68.5575C192.12 68.9281 192.227 69.3316 192.253 69.7443V69.7443Z" fill="#263238"/>
<path d="M191.924 61.1471C191.519 61.5637 189.041 59.7584 185.539 59.7836C182.036 59.8089 179.47 61.5511 179.078 61.1219C178.888 60.9325 179.293 60.175 180.418 59.3544C181.937 58.3057 183.743 57.7502 185.589 57.7637C187.403 57.7586 189.173 58.324 190.647 59.3796C191.759 60.2003 192.126 60.9577 191.924 61.1471Z" fill="#263238"/>
<path d="M202.86 88.4924C202.86 88.2904 205.022 87.9116 208.55 87.4571C209.447 87.3688 210.295 87.1794 210.446 86.5734C210.52 85.6525 210.309 84.7312 209.839 83.9348L207.172 77.1679C203.467 67.5352 200.85 59.6195 201.179 59.4932C201.507 59.367 204.883 67.0681 208.588 76.6629L211.116 83.4677C211.68 84.5375 211.846 85.772 211.584 86.9521C211.45 87.2588 211.249 87.5315 210.995 87.75C210.741 87.9685 210.441 88.1273 210.118 88.2146C209.623 88.3495 209.113 88.4216 208.6 88.4293C205.111 88.6186 202.86 88.6944 202.86 88.4924Z" fill="#263238"/>
<path d="M171.694 117.883C171.694 117.883 179.963 135.217 205.389 132.805V126.872C193.543 127.029 181.883 123.919 171.694 117.883V117.883Z" fill="#FF9A6C"/>
<path d="M190.824 48.5727C190.482 49.5196 187.031 49.0777 182.858 49.5827C178.686 50.0877 175.411 51.2113 174.868 50.3528C174.627 49.9488 175.196 49.0904 176.537 48.1309C178.327 47.0022 180.351 46.2932 182.455 46.0571C184.559 45.8209 186.69 46.0638 188.687 46.7674C190.217 47.3734 190.975 48.1183 190.824 48.5727Z" fill="#263238"/>
<path d="M224.101 50.5043C223.482 51.2997 221.067 50.5043 218.159 50.5043C215.251 50.5043 212.798 51.0472 212.229 50.2266C211.976 49.8226 212.368 49.0272 213.493 48.2823C214.938 47.3807 216.618 46.9259 218.321 46.9753C220.024 47.0247 221.674 47.5761 223.064 48.5601C224.025 49.3049 224.354 50.1129 224.101 50.5043Z" fill="#263238"/>
<path d="M151.439 70.2242C151.174 69.5046 137.911 64.7451 137.734 78.7333C137.57 92.3176 151.376 89.6538 151.401 89.2624C151.427 88.871 151.439 70.2242 151.439 70.2242Z" fill="#FFBF9D"/>
<path d="M147.229 84.0737C147.229 84.0737 146.989 84.2378 146.585 84.4146C146.012 84.6429 145.374 84.6429 144.802 84.4146C143.361 83.8717 142.16 81.5866 142.122 79.1374C142.096 77.9718 142.334 76.8154 142.817 75.7539C142.96 75.3251 143.206 74.9382 143.535 74.6276C143.864 74.317 144.264 74.0924 144.701 73.9738C144.975 73.9123 145.261 73.9434 145.515 74.0622C145.769 74.1811 145.976 74.3809 146.104 74.6304C146.281 75.0091 146.193 75.2868 146.269 75.3121C146.344 75.3373 146.559 75.0848 146.458 74.5293C146.386 74.1906 146.198 73.8873 145.927 73.6709C145.565 73.399 145.114 73.2728 144.663 73.3174C144.098 73.4192 143.569 73.6642 143.126 74.029C142.683 74.3938 142.342 74.866 142.134 75.4004C141.541 76.5733 141.245 77.8741 141.274 79.1879C141.274 81.9275 142.728 84.5029 144.701 85.0837C145.067 85.1962 145.455 85.224 145.834 85.1649C146.213 85.1059 146.573 84.9615 146.888 84.7428C147.229 84.4019 147.229 84.0989 147.229 84.0737Z" fill="#FF9A6C"/>
<path d="M109.463 184.819L68.8401 228.034C62.1391 235.167 57.2714 241.681 47.7636 244.169C41.1005 245.911 30.657 245.002 27.2054 240.621C22.4767 234.612 20.2262 222.29 25.3974 214.349C30.5685 206.408 66.9562 171.058 66.9562 171.058L109.463 184.819" fill="#FFBF9D"/>
<path d="M53.1747 181.057C53.1747 181.057 95.3911 131.038 111.461 131.038C111.461 131.038 121.576 148.776 121.942 158.446C122.309 168.117 89.4487 213.402 89.4487 213.402L53.1747 181.057Z" fill="#274DED"/>
<path d="M98.1604 197.318L111.575 130.924L154.993 130.482C170.986 148.548 187.334 161.489 205.945 140.708L251.664 158.661L239.779 223.135L101.865 223.047C96.5041 205.372 98.1604 197.318 98.1604 197.318Z" fill="#274DED"/>
<path d="M282.438 223.047C282.438 220.383 267.139 164.973 251.677 158.661L239.741 176.992L236.378 223.148L282.438 223.047Z" fill="#274DED"/>
<path d="M89.4615 213.402C89.879 213.021 90.2561 212.598 90.5868 212.139C91.2822 211.306 92.2558 210.094 93.4442 208.567C95.8212 205.524 99.0073 201.232 102.535 196.523C106.062 191.813 109.337 187.609 111.802 184.63C113.067 183.14 114.028 181.941 114.736 181.12C115.126 180.715 115.473 180.271 115.772 179.795C115.312 180.133 114.889 180.518 114.508 180.944C113.75 181.714 112.687 182.862 111.41 184.327C108.882 187.231 105.519 191.409 101.979 196.131C98.4384 200.853 95.3281 205.183 93.0523 208.289L90.3592 211.988C90.0127 212.428 89.7119 212.901 89.4615 213.402V213.402Z" fill="#263238"/>
<path d="M245.342 223.704C245.56 223.192 245.726 222.659 245.835 222.113C246.126 221.078 246.467 219.588 246.834 217.669C248.716 207.807 248.968 197.704 247.58 187.761C247.302 185.854 247.036 184.327 246.809 183.279C246.725 182.728 246.586 182.186 246.391 181.663C246.389 182.223 246.444 182.781 246.556 183.33C246.707 184.39 246.91 185.93 247.125 187.824C248.252 197.734 248.005 207.751 246.391 217.593C246.088 219.487 245.81 221.002 245.607 222.062C245.463 222.599 245.374 223.149 245.342 223.704V223.704Z" fill="#263238"/>
<path d="M192.29 88.8711C192.859 88.8711 192.72 92.6585 195.856 95.4107C198.991 98.163 203.037 97.9357 203.05 98.4659C203.05 98.7058 202.127 99.1603 200.42 99.135C198.206 99.0827 196.081 98.2561 194.414 96.7995C192.822 95.4032 191.838 93.4422 191.671 91.3329C191.57 89.7548 192.037 88.8459 192.29 88.8711Z" fill="#263238"/>
<path d="M54.5402 125.988L55.8045 109.576L59.1803 88.7826L64.4147 71.7517C64.4147 71.7517 65.4767 70.1357 67.5502 71.6633C69.6238 73.1909 66.6778 82.4702 66.6778 82.4702L65.5652 89.5653C65.5652 89.5653 66.2607 95.2086 66.7285 94.792C67.1963 94.3753 69.6238 84.8941 69.6238 84.8941L75.9455 64.6944C76.31 64.0885 76.8913 63.6433 77.5719 63.4488C78.2525 63.2543 78.9817 63.325 79.6121 63.6466C80.9902 64.24 81.6856 66.3988 81.1799 69.4414C80.6741 72.4839 78.765 77.5212 78.4363 79.2382C78.1075 80.9552 75.9076 90.9035 75.9076 90.9035L85.3775 68.4188C85.3775 68.4188 87.5015 61.0333 90.5359 62.4472C93.5704 63.8612 90.8773 69.0374 90.5359 71.3603C90.1946 73.6833 83.8602 88.9341 83.7591 93.3654C83.658 97.7967 84.6062 95.6757 84.6062 95.6757L89.2843 83.0509C91.3451 77.496 93.8865 74.4155 96.4278 74.2135C98.9691 74.0115 94.1267 87.0277 94.1267 87.0277L87.8935 105.081L88.2981 111.078L93.0267 106.217C93.0267 106.217 93.8992 99.2864 98.5899 96.8624C103.281 94.4384 104.052 97.8093 104.052 97.8093L92.9762 123.816C90.5739 128.008 77.1593 135.179 77.1593 135.179L72.0007 161.893L43.9703 157.234L54.5402 125.988Z" fill="#FFBF9D"/>
<path d="M65.3378 117.327C65.4642 117.479 66.9182 116.292 69.371 114.638C71.8239 112.984 75.579 110.851 79.9789 111.558C81.8023 111.781 83.4983 112.608 84.796 113.906L85.2133 114.361L85.6684 113.881C87.704 111.747 89.8281 109.917 91.1177 108.578C92.4073 107.24 93.166 106.331 93.0395 106.23C92.1823 106.758 91.3778 107.367 90.6373 108.048C88.5881 109.656 86.6216 111.367 84.7455 113.174H85.6305C84.1816 111.638 82.2406 110.655 80.1433 110.396C77.8895 110.08 75.5918 110.376 73.4928 111.255C71.8257 111.95 70.2605 112.867 68.84 113.982C67.4902 114.89 66.3057 116.021 65.3378 117.327V117.327Z" fill="#FF9A6C"/>
<path d="M61.2793 221.646L76.2617 138.41L53.5669 128.588L22.9445 220.333L61.2793 221.646Z" fill="#FFBF9D"/>
<path d="M59.1555 222.441C59.5787 221.351 59.9127 220.228 60.1543 219.083C60.7359 216.899 61.5198 213.743 62.4428 209.816C64.3013 201.976 66.6783 191.094 69.1184 179.05C71.5586 167.006 73.6322 156.06 75.0735 148.132L76.7171 138.739C76.9624 137.596 77.1147 136.435 77.1724 135.267C76.7903 136.374 76.4986 137.509 76.3 138.663L74.3149 147.993L67.9932 178.848L61.6715 209.665L59.7244 219.007C59.4431 220.135 59.2529 221.283 59.1555 222.441V222.441Z" fill="#FF9A6C"/>
<path d="M188.461 11.1865C175.198 13.4336 162.1 16.55 149.254 20.5155C147.213 20.9202 145.366 21.9848 144.002 23.5422C143.021 25.4012 142.676 27.5256 143.019 29.5956C143.667 42.1396 143.128 54.7161 141.408 67.1603C140.666 72.8559 140.928 78.6358 142.182 84.2426C144.462 94.8776 142.851 126.7 151.367 126.223C183.294 119.485 161.263 96.1215 157.978 85.1755C157.498 83.2973 157.493 81.3308 157.964 79.4503C158.435 77.5699 159.367 75.8336 160.677 74.3954C162.602 72.3223 165.322 70.8919 167.351 68.8188C169.466 66.6096 170.715 63.7244 170.872 60.6834C171.029 57.6424 170.085 54.6457 168.209 52.2339C166.618 50.5129 165.621 48.3346 165.364 46.0146C164.966 39.9819 170.992 38.9868 175.594 37.5356C185.219 34.4882 203.751 23.7164 200.989 14.263L188.461 11.1865Z" fill="#263238"/>
<path d="M132.427 36.7127C135.859 37.7538 139.413 38.3546 143.002 38.5001C151.684 38.4789 160.231 36.3881 167.911 32.4069C175.593 28.4005 182.676 23.3702 188.958 17.4584C191.416 15.2243 193.296 13.3963 194.638 12.0152C195.259 11.2745 195.951 10.5943 196.704 9.98413C196.18 10.7906 195.578 11.5456 194.907 12.2386C193.668 13.6197 191.85 15.6101 189.454 17.9255C183.263 24.064 176.16 29.2414 168.386 33.2803C160.566 37.3621 151.812 39.404 142.96 39.2109C140.285 39.0918 137.639 38.6205 135.091 37.8095C134.387 37.595 133.697 37.3372 133.026 37.0377C132.633 36.8752 132.406 36.7534 132.427 36.7127Z" fill="#455A64"/>
<path d="M193.847 4.99606C193.445 5.84074 192.952 6.63111 192.378 7.3506C190.928 9.39804 189.354 11.3388 187.664 13.1599C176.344 25.4023 161.065 32.4376 145.036 32.7882C142.645 32.8507 140.252 32.7405 137.874 32.4582C136.995 32.4075 136.125 32.245 135.282 31.974C135.282 31.754 139.017 32.3041 144.995 31.974C160.714 31.158 175.635 24.2688 187.031 12.5657C191.48 8.12076 193.684 4.86403 193.847 4.99606Z" fill="#455A64"/>
<path d="M236.699 24.896C236.156 24.9819 235.602 24.9819 235.058 24.896C233.562 24.8588 232.07 24.7371 230.589 24.5316C225.683 23.8555 220.909 22.4656 216.431 20.4088C211.98 18.3203 207.81 15.7122 204.012 12.6424C202.569 11.4727 201.422 10.4755 200.671 9.7468C199.919 9.01811 199.524 8.61539 199.563 8.55786C201.26 9.64121 202.891 10.8194 204.447 12.0863C208.325 14.9508 212.484 17.4366 216.866 19.5075C221.272 21.5094 225.924 22.9593 230.708 23.8221C234.287 24.5508 236.699 24.7234 236.699 24.896Z" fill="#455A64"/>
<path d="M214.916 33.1616C204.533 29.5328 199.918 19.9683 199.918 14.6196L208.488 15.6894L229.558 28.5261L235.985 41.0063V44.5721C236.257 49.2769 239.149 71.126 235.985 67.7496C225.629 56.6957 232.414 58.8352 229.558 44.5721C227.928 36.4344 222.058 35.6577 214.916 33.1616Z" fill="#263238" stroke="#263238"/>
</svg>
