<svg width="360" height="393" viewBox="0 0 360 393" fill="none" xmlns="http://www.w3.org/2000/svg">
<g clip-path="url(#clip0_3_15150)">
<path d="M134.853 160.855L111.184 125.684L119.77 41.745H120.469C124.058 41.6982 133.129 33.3174 134.453 30.5081C135.776 27.6989 132.952 6.58304 132.374 6.71413C126.613 8.39966 127.293 15.0013 127.293 15.0013L126.622 9.38288C124.916 1.18935 118.978 4.87878 118.978 4.87878C116.311 -0.299527 110.96 3.78319 110.96 3.78319C109.478 -0.608542 105.367 3.25881 105.367 3.25881C105.367 3.25881 105.367 1.8542 100.93 0.11249C98.4966 -0.823913 96.0075 2.50968 94.2549 5.73091C92.6679 8.69178 91.9319 12.0377 92.1294 15.3946L89.8268 39.7973L70.4365 138.859L122.641 212.835L156.565 178.347L134.853 160.855Z" fill="#FFBE9D"/>
<path d="M113.981 32.5587C114.599 31.4269 115.428 30.4254 116.423 29.6091C118.708 27.4869 121.411 25.8696 124.357 24.8615C125.531 24.4497 126.738 24.1365 127.964 23.9251L127.638 24.3184C127.638 21.6403 127.284 19.3461 127.209 17.6699C127.104 16.7867 127.139 15.8923 127.312 15.0199C127.529 15.8754 127.66 16.7507 127.703 17.6325C128.067 19.8427 128.307 22.0717 128.421 24.309V24.6461L128.086 24.7117C126.905 24.9379 125.743 25.2509 124.608 25.6481C121.757 26.6321 119.104 28.1228 116.778 30.0492C114.997 31.5193 114.065 32.643 113.981 32.5587Z" fill="#EB996E"/>
<path d="M99.6432 8.95204C99.9182 9.33839 100.117 9.77376 100.231 10.2349C100.737 11.4684 100.79 12.8426 100.38 14.1116C100.072 14.9731 99.1771 15.5162 99 16.256C98.9116 16.6877 98.9318 17.1346 99.0588 17.5565C99.1858 17.9783 99.4155 18.3617 99.7271 18.6719C100.105 19.0239 100.549 19.2958 101.034 19.4714C101.518 19.647 102.033 19.7226 102.547 19.6937C103.062 19.6649 103.565 19.5322 104.027 19.3035C104.489 19.0748 104.9 18.7549 105.237 18.3629C105.874 17.4462 106.23 16.3623 106.262 15.2447C106.346 14.1303 106.346 13.0067 106.337 11.9673C106.308 10.0884 106.174 8.21265 105.936 6.34884C105.869 5.11441 105.552 3.90672 105.003 2.79987C104.745 2.42878 104.458 2.07817 104.146 1.7511C104.146 1.7511 104.696 1.86347 105.274 2.61259C105.976 3.72887 106.404 4.99654 106.523 6.31138C106.846 8.16855 107.042 10.0457 107.11 11.9298C107.167 13.0528 107.167 14.1779 107.11 15.3009C107.066 16.5945 106.634 17.8446 105.87 18.8873C105.465 19.3706 104.965 19.7646 104.401 20.0446C103.837 20.3246 103.221 20.4845 102.593 20.5144C101.965 20.5443 101.337 20.4435 100.749 20.2183C100.161 19.9931 99.626 19.6483 99.1771 19.2057C98.7842 18.799 98.5016 18.298 98.3564 17.7505C98.2111 17.203 98.208 16.6272 98.3474 16.0781C98.519 15.6036 98.8002 15.1768 99.1678 14.8326C99.4454 14.5611 99.6754 14.2446 99.8483 13.8962C100.248 12.748 100.274 11.502 99.9229 10.3379C99.7762 9.88849 99.6823 9.42337 99.6432 8.95204Z" fill="#EB996E"/>
<path d="M105.227 18.8872C105.302 18.8872 105.376 19.243 105.777 19.73C106.351 20.4055 107.163 20.8316 108.042 20.9192C108.682 20.963 109.322 20.8485 109.908 20.5856C110.493 20.3228 111.005 19.9196 111.398 19.4116C112.408 18.1335 112.986 16.5658 113.048 14.9356C113.328 11.9046 112.904 8.84981 111.809 6.01165C110.998 3.81111 110.168 2.59378 110.28 2.51887C110.392 2.44396 111.37 3.577 112.349 5.78691C113.649 8.67524 114.173 11.8554 113.869 15.0105C113.801 16.8046 113.146 18.526 112.004 19.9079C111.524 20.488 110.906 20.9365 110.206 21.2116C109.507 21.4867 108.75 21.5794 108.005 21.481C107.511 21.4068 107.037 21.2283 106.616 20.9572C106.195 20.686 105.836 20.3284 105.563 19.9079C105.153 19.2992 105.19 18.8872 105.227 18.8872Z" fill="#EB996E"/>
<path d="M112.228 19.3461C112.294 19.3461 112.452 19.6083 112.872 20.0016C113.474 20.5263 114.223 20.8531 115.016 20.938C115.59 21.0195 116.175 20.9781 116.733 20.8168C117.29 20.6554 117.807 20.3776 118.251 20.0016C119.348 19.0277 120.082 17.7061 120.329 16.256C120.879 13.1565 119.845 10.2349 119.49 8.13737C119.178 7.01382 119 5.85711 118.959 4.69141C119.452 5.74915 119.818 6.86188 120.05 8.00627C120.329 9.04568 120.684 10.263 120.982 11.677C121.34 13.2313 121.391 14.8412 121.131 16.4152C120.842 18.0371 119.99 19.5035 118.726 20.5541C118.199 20.9766 117.586 21.2792 116.931 21.4409C116.276 21.6025 115.594 21.6195 114.932 21.4905C114.041 21.3364 113.232 20.8723 112.648 20.1795C112.256 19.7113 112.191 19.3555 112.228 19.3461Z" fill="#EB996E"/>
<path d="M120.366 18.625C120.432 18.625 120.506 18.9808 120.683 19.6176C120.91 20.4996 121.309 21.3274 121.858 22.0522C122.238 22.5502 122.75 22.9309 123.335 23.1511C123.92 23.3712 124.555 23.422 125.167 23.2977C126.491 22.9325 127.339 21.2469 127.218 19.552C127.169 16.4689 126.857 13.3956 126.286 10.3659C125.98 9.1165 125.746 7.85021 125.587 6.57349C126.196 7.72363 126.624 8.962 126.855 10.2442C127.601 13.2912 127.995 16.4144 128.029 19.552C128.16 21.4248 127.2 23.5692 125.354 24.0468C124.612 24.1817 123.848 24.0978 123.153 23.8053C122.458 23.5128 121.863 23.0242 121.438 22.3987C120.885 21.589 120.533 20.6577 120.413 19.6831C120.282 19.0089 120.32 18.6344 120.366 18.625Z" fill="#EB996E"/>
<path d="M99.1118 138.887C99.4654 138.046 99.9126 137.249 100.445 136.509C102.838 132.821 105.756 129.506 109.105 126.667C109.769 126.046 110.501 125.503 111.287 125.047C110.677 125.715 110.023 126.341 109.329 126.92C108.108 128.062 106.458 129.673 104.78 131.602C103.102 133.531 101.703 135.348 100.725 136.715C100.236 137.475 99.6975 138.2 99.1118 138.887Z" fill="#EB996E"/>
<path d="M182.723 196.748L133.884 153.242L93.8354 185.97L150.608 256.275L182.723 196.748Z" fill="#274DED"/>
<path d="M102.067 194.425C102.155 194.273 102.262 194.131 102.384 194.004L103.372 192.843C104.23 191.832 105.553 190.446 107.213 188.769C111.626 184.454 116.296 180.41 121.196 176.662C126.048 172.87 131.109 169.356 136.354 166.137C138.377 164.91 140.083 164.011 141.239 163.412C141.836 163.121 142.302 162.915 142.619 162.775C142.775 162.693 142.941 162.63 143.113 162.588C142.973 162.7 142.819 162.794 142.656 162.869L141.314 163.58C140.167 164.226 138.517 165.172 136.513 166.389C132.523 168.89 127.144 172.588 121.448 176.999C116.585 180.747 111.917 184.744 107.464 188.976C105.777 190.624 104.416 191.963 103.521 192.936L102.468 194.032C102.351 194.18 102.217 194.312 102.067 194.425Z" fill="#FAFAFA"/>
<path d="M147.196 165.472C147.057 165.596 146.904 165.702 146.739 165.79L145.397 166.614C144.222 167.317 142.526 168.356 140.456 169.667C136.317 172.289 130.705 176.091 124.813 180.707C118.922 185.324 113.888 189.874 110.355 193.274C108.583 194.969 107.166 196.364 106.206 197.347L105.078 198.461C104.953 198.599 104.812 198.722 104.659 198.826C104.757 198.67 104.872 198.525 105.004 198.396L106.066 197.216C106.999 196.195 108.369 194.763 110.112 193.03C119.226 184.003 129.349 176.066 140.279 169.377C142.377 168.103 144.092 167.101 145.304 166.446L146.693 165.697C146.851 165.602 147.02 165.527 147.196 165.472Z" fill="#FAFAFA"/>
<path d="M112.471 32.1468C110.719 30.7364 108.847 29.4831 106.877 28.4012C104.837 27.4615 102.719 26.7032 100.547 26.1351C101.22 26.0959 101.894 26.1686 102.542 26.3504C105.723 27.0328 108.674 28.5295 111.109 30.6954C111.639 31.1013 112.099 31.5916 112.471 32.1468Z" fill="#EB996E"/>
<path d="M113.953 43.5338C118.104 42.8823 121.452 42.2465 121.432 42.1137C121.411 41.9808 118.029 42.4012 113.879 43.0527C109.728 43.7041 106.38 44.3399 106.4 44.4727C106.421 44.6056 109.803 44.1852 113.953 43.5338Z" fill="#EB996E"/>
<path d="M154.887 114.279C155.62 104.897 159.842 96.1355 166.714 89.7382C173.585 83.341 182.602 79.7763 191.971 79.7534H193.901C214.718 80.9333 225.345 99.343 223.602 120.215L219.873 216.665H172.152L172.572 185.286C172.572 185.286 152.557 182.205 152.268 162.11C152.137 152.371 153.47 132.37 154.887 114.279Z" fill="#FFBE9D"/>
<path d="M172.413 185.23C181.705 185.218 190.797 182.523 198.608 177.467C198.608 177.467 192.474 191.944 172.506 190.174L172.413 185.23Z" fill="#EB996E"/>
<path d="M159.203 129.654C159.557 130.029 161.72 128.418 164.796 128.418C167.873 128.418 170.129 129.963 170.455 129.579C170.623 129.411 170.259 128.737 169.271 128.025C167.94 127.102 166.358 126.614 164.741 126.63C163.142 126.627 161.585 127.135 160.294 128.081C159.343 128.812 159.026 129.486 159.203 129.654Z" fill="#263238"/>
<path d="M189.678 128.109C190.032 128.484 192.195 126.873 195.271 126.873C198.348 126.873 200.604 128.418 200.93 128.034C201.088 127.866 200.734 127.192 199.746 126.48C198.415 125.557 196.833 125.069 195.215 125.085C193.617 125.082 192.06 125.591 190.769 126.536C189.827 127.267 189.491 127.941 189.678 128.109Z" fill="#263238"/>
<path d="M178.304 147.53C178.304 147.352 176.44 147.025 173.308 146.594C172.524 146.519 171.779 146.36 171.648 145.817C171.581 145.001 171.763 144.184 172.17 143.476L174.482 137.464C177.689 128.905 180.01 121.873 179.665 121.751C179.32 121.629 176.44 128.456 173.233 137.014L171.024 143.064C170.531 144.017 170.389 145.115 170.623 146.163C170.737 146.442 170.913 146.69 171.138 146.89C171.362 147.089 171.629 147.235 171.919 147.315C172.353 147.434 172.801 147.497 173.252 147.502C176.365 147.699 178.304 147.708 178.304 147.53Z" fill="#263238"/>
<path d="M187.366 149.647C186.863 149.647 186.863 152.971 184.019 155.359C181.176 157.746 177.615 157.381 177.587 157.849C177.587 158.055 178.379 158.496 179.88 158.533C181.834 158.562 183.735 157.899 185.25 156.66C186.699 155.463 187.628 153.747 187.841 151.875C187.963 150.461 187.627 149.628 187.366 149.647Z" fill="#263238"/>
<path d="M189.65 115.543C189.929 116.386 193.015 116.067 196.604 116.592C200.193 117.116 203.13 118.174 203.586 117.434C203.81 117.079 203.325 116.273 202.169 115.44C200.625 114.405 198.866 113.738 197.026 113.488C195.186 113.238 193.314 113.412 191.551 113.998C190.209 114.494 189.491 115.14 189.65 115.543Z" fill="#263238"/>
<path d="M158.476 117.022C159.147 117.715 161.729 116.947 164.843 116.872C167.957 116.798 170.604 117.266 171.201 116.526C171.462 116.17 171.042 115.468 169.877 114.822C168.269 114.015 166.479 113.644 164.684 113.745C162.897 113.781 161.15 114.291 159.622 115.224C158.532 115.955 158.177 116.685 158.476 117.022Z" fill="#263238"/>
<path d="M220.6 135.104C220.945 134.954 234.332 130.993 233.931 144.73C233.53 158.467 219.873 155.218 219.863 154.825C219.854 154.432 220.6 135.104 220.6 135.104Z" fill="#FFBE9D"/>
<path d="M222.995 149.75C223.061 149.75 223.229 149.927 223.629 150.124C224.189 150.385 224.827 150.419 225.41 150.218C226.874 149.731 228.16 147.465 228.3 144.983C228.36 143.811 228.159 142.641 227.713 141.556C227.592 141.128 227.371 140.736 227.07 140.41C226.769 140.084 226.395 139.835 225.979 139.683C225.706 139.602 225.415 139.62 225.154 139.733C224.893 139.845 224.68 140.047 224.552 140.301C224.356 140.676 224.44 140.957 224.366 140.975C224.291 140.994 224.077 140.732 224.207 140.17C224.293 139.833 224.49 139.536 224.767 139.327C225.151 139.055 225.626 138.944 226.09 139.018C226.648 139.147 227.164 139.416 227.588 139.801C228.012 140.187 228.331 140.675 228.514 141.219C229.06 142.428 229.304 143.752 229.223 145.077C229.055 147.886 227.563 150.386 225.568 150.901C225.197 150.998 224.809 151.009 224.433 150.935C224.057 150.86 223.703 150.702 223.396 150.471C223.051 150.087 222.949 149.778 222.995 149.75Z" fill="#EB996E"/>
<path d="M127.345 100.12C127.576 99.3214 128.105 98.6431 128.822 98.2272C130.411 97.4813 132.17 97.1751 133.916 97.3404C138.209 97.1838 142.411 96.0527 146.208 94.0319C144.84 93.4124 143.579 92.5777 142.472 91.5591C141.31 90.5095 140.459 89.1579 140.013 87.6534C139.566 86.1488 139.542 84.5497 139.943 83.0322C140.005 82.7465 140.133 82.4793 140.316 82.2514C140.498 82.0236 140.731 81.8413 140.995 81.719C141.878 81.4462 142.693 82.2989 143.27 82.981C144.06 84.0367 145.119 84.8586 146.335 85.3599C147.552 85.8612 148.88 86.0233 150.18 85.829C151.975 85.6912 153.716 85.1491 155.274 84.243L155.444 84.0554L157.481 81.9408C162.574 76.8246 166.836 73.2603 171.318 71.3844C177.888 68.6387 188.907 67.4279 195.817 69.1674C202.727 70.9069 208.958 76.4323 209.993 83.5097C213.813 80.1842 219.603 80.0989 224.322 81.9919H224.441C229.704 83.7996 232.727 89.3251 234.339 94.68C234.424 94.9699 234.509 95.2769 234.594 95.5668C236.387 98.3805 238.827 100.72 241.708 102.388C242.217 102.678 242.794 103.036 242.862 103.616C242.93 104.196 242.455 104.674 241.979 105.032C240.728 105.946 239.29 106.57 237.769 106.856C238.23 108.125 238.798 109.352 239.467 110.523C240.061 111.529 240.791 112.723 240.282 113.763C240.05 114.15 239.707 114.458 239.298 114.643C238.888 114.829 238.432 114.885 237.99 114.804C237.109 114.62 236.277 114.254 235.545 113.729L237.548 117.907C235.648 118.248 233.694 118.137 231.844 117.583C230.791 122.614 230.061 131.909 228.805 135.319C225.222 135.422 224.339 135.047 222.54 135.66C220.214 136.462 221.148 140.623 218.092 139.463C216.53 138.884 214.085 133 213.542 131.414C209.976 120.883 208.708 109.704 209.823 98.6365C207.622 96.3311 204.999 94.4726 202.099 93.1622L202.336 93.3668C196.785 91.508 190.452 89.6832 185.358 92.3436C181.318 94.4071 178.975 98.6877 175.97 102.098C173.44 105.214 170.282 107.755 166.702 109.554C163.123 111.353 159.205 112.369 155.206 112.535C154.493 118.538 154.374 128.344 154.153 133.938L149.264 122.853C148.873 122.205 148.551 121.54 148.228 120.892L148.126 120.687C147.649 119.603 147.116 118.544 146.53 117.515C145.92 118.194 145.067 118.601 144.158 118.647C143.249 118.694 142.358 118.375 141.683 117.762C141.008 117.15 140.602 116.292 140.556 115.379C140.51 114.466 140.827 113.572 141.437 112.894C141.912 112.241 142.485 111.666 143.135 111.188C142.46 111.86 141.624 112.345 140.708 112.596C139.791 112.847 138.826 112.856 137.905 112.621C136.992 112.354 136.192 111.791 135.63 111.02C135.068 110.249 134.776 109.313 134.798 108.357C134.865 107.713 135.1 107.098 135.478 106.574C135.857 106.051 136.366 105.636 136.955 105.373C134.5 105.595 132.036 105.079 129.875 103.889C128.262 103.173 126.887 101.877 127.345 100.12Z" fill="#263238"/>
<path d="M203.881 85.9143C204.595 86.4632 205.265 87.0676 205.884 87.722C207.467 89.6042 208.538 91.8663 208.991 94.2878C209.352 95.9693 209.54 97.6838 209.551 99.4039C209.551 101.229 209.45 103.19 209.348 105.27C209.213 107.44 209.213 109.616 209.348 111.785C209.426 112.933 209.591 114.073 209.84 115.196C210.024 116.409 210.515 117.554 211.266 118.521C211.616 118.902 212.058 119.185 212.548 119.344C213.039 119.502 213.563 119.53 214.068 119.425C215.022 119.203 215.875 118.669 216.495 117.907C217.561 116.401 218.2 114.633 218.346 112.791H217.938C218.555 114.285 219.384 115.681 220.4 116.935C221.378 118.098 222.765 118.837 224.271 118.999C224.972 119.066 225.677 118.936 226.309 118.624C226.895 118.313 227.374 117.831 227.684 117.242C227.965 116.719 228.106 116.131 228.091 115.537C228.059 114.966 227.831 114.423 227.446 114.002L227.242 114.19C228.433 115.531 229.89 116.606 231.521 117.345C231.952 117.537 232.394 117.702 232.845 117.839L233.32 117.959L232.879 117.771C232.59 117.652 232.149 117.481 231.589 117.208C229.979 116.443 228.541 115.358 227.361 114.019L227.157 114.207C227.488 114.619 227.683 115.126 227.713 115.655C227.744 116.184 227.609 116.709 227.327 117.157C227.046 117.682 226.614 118.11 226.088 118.385C225.514 118.666 224.872 118.778 224.237 118.709C222.831 118.543 221.543 117.841 220.638 116.748C219.688 115.544 218.911 114.212 218.329 112.791L218.04 112.16L217.921 112.842C217.787 114.578 217.201 116.248 216.224 117.686C215.641 118.356 214.852 118.812 213.983 118.982C213.554 119.073 213.11 119.05 212.693 118.916C212.276 118.781 211.901 118.539 211.606 118.214C210.912 117.308 210.457 116.24 210.281 115.111C210.037 113.987 209.879 112.847 209.806 111.7C209.676 109.547 209.676 107.389 209.806 105.236C209.908 103.173 210.027 101.195 209.976 99.3528C209.943 97.6302 209.733 95.9156 209.348 94.2366C208.858 91.7751 207.721 89.4902 206.054 87.6197C205.433 86.9296 204.698 86.3526 203.881 85.9143Z" fill="#455A64"/>
<path d="M142.897 105.97L143.05 106.106L143.542 106.464C143.811 106.662 144.095 106.838 144.391 106.993C144.779 107.229 145.182 107.44 145.596 107.624C148.264 108.802 151.181 109.294 154.085 109.056C158.403 108.718 162.531 107.13 165.97 104.486C170.137 101.243 173.603 97.1809 176.157 92.5483C177.566 90.1266 178.72 87.6538 179.977 85.3516C181.128 83.1185 182.591 81.0626 184.323 79.2463C185.887 77.5809 187.843 76.3376 190.01 75.6308C190.986 75.3479 192 75.2213 193.015 75.2557C193.95 75.2982 194.875 75.4645 195.766 75.7502C198.496 76.6577 200.787 78.563 202.184 81.0881C202.646 82.0335 202.999 83.0291 203.236 84.0555C203.246 83.9876 203.246 83.9186 203.236 83.8508L203.134 83.2369C202.963 82.4637 202.701 81.7137 202.353 81.0028C201.776 79.8902 201.019 78.8816 200.112 78.0184C198.904 76.8643 197.462 75.9859 195.885 75.4432C194.962 75.1348 194.003 74.9512 193.032 74.8975C191.978 74.8562 190.924 74.9829 189.909 75.2727C187.686 75.9588 185.672 77.1964 184.051 78.8711C182.279 80.7083 180.781 82.7934 179.603 85.0616C178.313 87.3639 177.175 89.8538 175.783 92.2413C173.289 96.8549 169.894 100.915 165.8 104.179C162.429 106.797 158.381 108.389 154.136 108.767C151.279 109.025 148.402 108.586 145.749 107.487C144.77 107.037 143.818 106.531 142.897 105.97Z" fill="#455A64"/>
<path d="M140.996 97.2381C141.209 97.4358 141.449 97.6023 141.709 97.7327C142.383 98.1331 143.087 98.4809 143.814 98.773C144.913 99.2241 146.049 99.5779 147.209 99.8303C150 100.453 152.886 100.511 155.698 100.001C156.854 99.792 157.99 99.4839 159.094 99.0799C159.836 98.8178 160.557 98.4985 161.25 98.1249C161.514 98.0063 161.759 97.8513 161.98 97.6645C161.98 97.6645 160.86 98.159 158.992 98.773C157.882 99.1253 156.747 99.3933 155.597 99.5745C152.819 100.031 149.983 99.973 147.226 99.404C146.101 99.1677 144.995 98.8485 143.916 98.4489C142.099 97.7838 141.047 97.1699 140.996 97.2381Z" fill="#455A64"/>
<path d="M119.835 391.445C119.835 391.033 119.835 394.376 119.835 391.445C119.835 367.847 128.859 314.66 128.859 314.66C129.876 307.168 150.478 212.058 150.478 212.058L172.851 202.076C174.421 205.552 177.293 208.267 180.842 209.63C184.392 210.994 188.334 210.897 191.813 209.361L221.075 196.448L263.025 219.708L271.705 271.679C271.705 271.679 243.738 336.459 244.67 341.141C245.602 345.823 238.517 372.979 238.517 372.979L238.76 391.613L119.835 391.445Z" fill="#274DED"/>
<g opacity="0.3">
<path d="M154.663 359.644C160.406 367.978 163.985 373.878 172.376 376.649C188.326 381.968 193.453 379.037 201.2 374.927C207.604 371.527 211.911 363.999 216.181 358.127C227.321 342.817 232.541 333.856 242.451 318.686L246.553 321.58C239.766 341.469 245.22 330.944 234.742 349.166C228.645 359.673 221.867 370.038 212.461 377.642C203.055 385.246 190.629 389.909 178.771 387.54C168.003 385.386 159.101 377.886 151.531 369.898C141.015 358.802 129.67 335.598 128.896 320.287C128.896 321.346 147.233 348.866 154.663 359.644Z" fill="black"/>
</g>
<path d="M138.899 266.098C138.9 265.946 138.922 265.794 138.965 265.648L139.235 264.384C139.487 263.288 139.813 261.706 140.167 259.702C140.941 255.769 141.864 250.338 142.731 244.251C143.598 238.165 144.325 232.696 144.866 228.726L145.537 224.044L145.751 222.77C145.767 222.619 145.805 222.471 145.863 222.33C145.884 222.479 145.884 222.631 145.863 222.78L145.742 224.063L145.22 228.745C144.763 232.734 144.111 238.24 143.225 244.298C142.339 250.357 141.361 255.825 140.512 259.749C140.083 261.715 139.701 263.288 139.393 264.375L139.039 265.62C139.018 265.786 138.971 265.947 138.899 266.098Z" fill="#263238"/>
<path d="M119.835 389.9C119.813 389.666 119.813 389.431 119.835 389.197L119.984 387.203L120.618 379.871L122.912 355.712L125.345 331.562L126.137 324.248L126.38 322.263C126.398 322.029 126.439 321.797 126.501 321.57C126.523 321.804 126.523 322.039 126.501 322.273L126.352 324.267L125.718 331.599L123.424 355.758L120.991 379.908L120.199 387.222L119.956 389.207C119.938 389.441 119.897 389.673 119.835 389.9Z" fill="#263238"/>
<path d="M209.273 261.912C209.041 261.934 208.807 261.934 208.574 261.912H206.579C204.845 261.912 202.338 261.818 199.233 261.706C193.034 261.463 184.467 261.041 174.995 260.18C166.935 259.57 158.925 258.419 151.018 256.734C148.615 256.205 146.267 255.446 144.008 254.468C143.183 254.097 142.414 253.612 141.724 253.026C141.724 252.979 142.507 253.597 144.092 254.29C146.364 255.192 148.709 255.894 151.102 256.387C159.021 257.979 167.028 259.089 175.079 259.711C184.504 260.573 193.062 261.051 199.252 261.378L206.588 261.743L208.583 261.846C208.815 261.847 209.046 261.869 209.273 261.912Z" fill="#FAFAFA"/>
<path d="M204.146 271.903C203.927 271.944 203.706 271.963 203.484 271.96L201.619 272.016C199.979 272.016 197.592 272.081 194.656 272.016C188.773 272.016 180.672 271.791 171.695 270.948C167.22 270.508 162.979 269.937 159.138 269.281C155.297 268.626 151.866 267.867 149.032 267.081C147.606 266.725 146.329 266.332 145.21 265.985C144.092 265.639 143.131 265.339 142.358 265.049L140.577 264.393C140.367 264.326 140.164 264.238 139.971 264.131C140.191 264.166 140.406 264.223 140.614 264.3L142.423 264.871C143.197 265.133 144.166 265.423 145.285 265.732C146.404 266.041 147.681 266.425 149.116 266.753C151.913 267.502 155.39 268.167 159.212 268.851C163.034 269.534 167.276 270.031 171.741 270.471C180.663 271.313 188.783 271.557 194.665 271.679L201.629 271.791H203.493C203.714 271.807 203.932 271.845 204.146 271.903Z" fill="#FAFAFA"/>
<path d="M165.747 189.238C165.794 189.313 164.358 190.268 162.251 192.047C161.022 193.102 159.849 194.221 158.737 195.399C156.011 198.291 153.682 201.534 151.81 205.044C151.047 206.477 150.359 207.949 149.75 209.455C148.715 212.03 148.268 213.697 148.184 213.678C148.226 213.274 148.311 212.875 148.436 212.489C148.711 211.419 149.044 210.366 149.433 209.333C150.002 207.795 150.666 206.294 151.419 204.838C153.267 201.263 155.626 197.979 158.42 195.09C159.56 193.911 160.771 192.804 162.046 191.775C162.899 191.078 163.789 190.428 164.712 189.828C165.036 189.596 165.383 189.398 165.747 189.238Z" fill="#263238"/>
<path d="M86.0142 229.971C86.0142 229.971 85.1938 226.095 85.7159 225.083C86.2976 224.263 87.0321 223.563 87.8787 223.023C87.8787 223.023 88.7456 216.834 90.1067 214.895C91.6449 212.723 97.6204 213.022 97.6204 213.022C97.6204 213.022 98.7018 211.58 99.5968 210.148C100.492 208.715 112.741 207.76 114.904 207.825C117.067 207.891 117.812 213.734 117.812 213.734C117.812 213.734 122.474 212.854 123.266 213.397C124.058 213.94 130.22 224.746 130.724 227.078C131.227 229.409 128.17 236.442 128.17 236.442C127.489 238.099 122.949 247.519 122.949 247.519L126.221 251.967L181.437 317.6C181.437 317.6 194.153 297.608 209.068 270.115C225.373 240.047 234.238 217.611 251.885 217.096L271.695 271.154C267.547 281.324 213.767 364.102 205.311 371.986C196.856 379.871 187.133 382.474 169.449 376.106C156.593 371.471 110.485 287.981 101.191 270.967L91.0669 254.805L83.5531 240.937C83.5531 240.937 83.4413 235.833 83.115 233.698C82.7887 231.563 86.0142 229.971 86.0142 229.971Z" fill="#FFBE9D"/>
<path d="M111.371 211.533C112.003 212.011 112.44 212.703 112.601 213.481C112.763 214.261 113.08 215 113.533 215.654C114.229 216.339 115.085 216.838 116.022 217.105C117.784 217.808 119.222 219.143 120.059 220.851C120.307 221.361 120.485 221.903 120.59 222.461C120.665 222.855 120.656 223.079 120.59 223.079C120.525 223.079 120.376 222.218 119.714 221C118.844 219.423 117.462 218.194 115.799 217.517C114.789 217.222 113.875 216.663 113.151 215.897C112.67 215.19 112.351 214.384 112.219 213.537C112.033 212.832 111.748 212.157 111.371 211.533Z" fill="#EB996E"/>
<path d="M114.913 216.609C114.913 216.534 115.277 216.693 115.78 216.609C116.104 216.528 116.404 216.369 116.652 216.146C116.901 215.922 117.091 215.641 117.207 215.326C117.442 214.656 117.556 213.948 117.542 213.238C117.542 212.676 117.542 212.301 117.598 212.301C117.654 212.301 117.794 212.629 117.878 213.238C117.996 214.01 117.915 214.8 117.645 215.532C117.503 215.925 117.252 216.27 116.922 216.526C116.591 216.781 116.195 216.937 115.78 216.974C115.165 216.965 114.857 216.646 114.913 216.609Z" fill="#EB996E"/>
<path d="M119.863 220.308C119.751 220.308 119.332 219.661 118.931 218.66C118.783 218.216 118.754 217.741 118.847 217.283C118.931 216.937 119.052 216.749 119.108 216.768C119.164 216.787 119.108 217.611 119.388 218.519C119.667 219.427 120.012 220.27 119.863 220.308Z" fill="#EB996E"/>
<path d="M96.8372 220.354C96.3644 219.141 96.1912 217.831 96.3324 216.537C96.4737 215.242 96.9251 214.001 97.6482 212.919C97.3106 214.128 97.0337 215.353 96.8185 216.59C96.7619 217.844 96.7681 219.101 96.8372 220.354Z" fill="#EB996E"/>
<path d="M88.438 227.48C88.0381 226.756 87.7904 225.956 87.7102 225.132C87.63 224.307 87.7191 223.475 87.9719 222.686C88.1108 224.286 88.2662 225.884 88.438 227.48Z" fill="#EB996E"/>
<path d="M86.7134 234.597C85.6315 233.249 85.1015 231.538 85.2311 229.812C85.7375 231.403 86.2316 232.998 86.7134 234.597Z" fill="#EB996E"/>
<path d="M179.19 348.295C179.303 347.888 179.456 347.492 179.647 347.115C179.815 346.741 180.01 346.291 180.215 345.748C180.42 345.205 180.682 344.606 180.905 343.875C181.469 342.272 181.939 340.637 182.313 338.978C183.225 334.91 183.539 330.73 183.245 326.571C183.126 324.874 182.908 323.185 182.593 321.514C182.481 320.793 182.313 320.156 182.192 319.641C182.071 319.126 181.949 318.592 181.837 318.199C181.704 317.798 181.61 317.383 181.558 316.963C181.75 317.343 181.903 317.742 182.015 318.152C182.154 318.536 182.304 319.014 182.453 319.576C182.602 320.138 182.798 320.774 182.928 321.448C183.296 323.127 183.551 324.829 183.693 326.543C184.044 330.745 183.73 334.977 182.76 339.081C182.364 340.752 181.856 342.394 181.241 343.997C180.998 344.69 180.709 345.289 180.486 345.823C180.262 346.357 180.038 346.806 179.842 347.171C179.664 347.568 179.445 347.944 179.19 348.295Z" fill="#EB996E"/>
<path d="M100.38 226.619C100.464 226.619 100.38 227.658 100.51 229.297C100.579 230.242 100.863 231.158 101.34 231.975C101.634 232.426 102.038 232.794 102.514 233.043C102.757 233.174 103.055 233.277 103.344 233.455C103.518 233.548 103.667 233.682 103.778 233.845C103.89 234.008 103.962 234.195 103.987 234.391C103.987 235.215 103.512 235.711 103.456 236.264C103.441 236.79 103.606 237.305 103.922 237.725C104.403 238.56 104.958 239.35 105.581 240.084C106.644 241.339 107.446 241.957 107.446 242.041C107.446 242.126 107.204 241.938 106.831 241.658C106.304 241.252 105.811 240.805 105.358 240.318C104.683 239.597 104.086 238.806 103.577 237.959C103.19 237.453 102.995 236.826 103.027 236.189C103.139 235.515 103.605 234.981 103.54 234.494C103.475 234.007 102.878 233.82 102.328 233.558C101.785 233.263 101.328 232.831 101.004 232.303C100.504 231.419 100.229 230.425 100.203 229.409C100.167 228.744 100.189 228.077 100.268 227.415C100.251 227.145 100.289 226.874 100.38 226.619Z" fill="#EB996E"/>
<path d="M94.5535 231.039C94.4257 231.745 94.4544 232.471 94.6374 233.164C94.8708 233.896 95.344 234.526 95.9798 234.953C96.2008 235.1 96.39 235.29 96.5358 235.512C96.6817 235.734 96.7811 235.983 96.8281 236.245C96.8646 236.783 96.8013 237.323 96.6416 237.837C96.4426 238.678 96.4127 239.549 96.5536 240.402C96.6944 241.254 97.0033 242.069 97.462 242.8C97.8832 243.393 98.3442 243.956 98.8417 244.486C98.8417 244.486 98.6273 244.42 98.3197 244.186C97.882 243.851 97.4984 243.449 97.1823 242.997C96.6495 242.243 96.2839 241.383 96.1102 240.475C95.9365 239.567 95.9588 238.633 96.1755 237.734C96.3222 237.278 96.3885 236.799 96.3713 236.32C96.3355 236.115 96.2582 235.92 96.1444 235.746C96.0306 235.572 95.8826 235.423 95.7094 235.309C95.0196 234.814 94.5246 234.091 94.3111 233.267C94.1697 232.721 94.1697 232.147 94.3111 231.601C94.4043 231.207 94.5348 231.029 94.5535 231.039Z" fill="#EB996E"/>
<path d="M259.212 217.405C259.212 217.405 280.421 226.188 276.291 258.822C275.951 261.533 275.15 264.165 273.923 266.603C267.696 278.945 246.394 321.177 246.105 321.851C245.816 322.525 196.697 287.036 196.697 287.036C196.697 287.036 225.345 202.713 259.212 217.405Z" fill="#274DED"/>
<path d="M275.62 263.288C275.62 263.288 275.62 263.391 275.498 263.579L275.098 264.412L273.522 267.624L267.519 279.694L246.301 322.001L246.189 322.235L245.975 322.085L208.76 295.866L196.548 287.26L196.371 287.139L196.474 286.951C199.792 281.015 202.831 275.153 205.535 269.403C208.238 263.654 210.588 258.016 213.114 252.801C215.64 247.585 218.222 242.744 220.73 238.296C222.939 234.091 225.767 230.246 229.12 226.89C231.791 224.045 234.949 221.705 238.442 219.98C241.096 218.757 243.93 217.976 246.833 217.667C248.647 217.452 250.481 217.452 252.295 217.667C252.911 217.742 253.386 217.826 253.694 217.901L254.16 218.013L253.684 217.948C253.367 217.892 252.901 217.826 252.286 217.761C250.477 217.582 248.654 217.607 246.851 217.835C243.967 218.174 241.156 218.977 238.526 220.214C235.086 221.95 231.98 224.287 229.353 227.115C226.042 230.463 223.252 234.292 221.075 238.474C218.586 242.931 216.013 247.763 213.515 252.979C211.016 258.194 208.658 263.822 205.973 269.59C203.288 275.359 200.23 281.23 196.912 287.176L196.837 286.858L209.049 295.463L246.245 321.683L245.919 321.767L267.286 279.516L273.392 267.53L275.032 264.356L275.461 263.541C275.564 263.363 275.62 263.288 275.62 263.288Z" fill="#263238"/>
<path d="M254.868 301.906C254.685 301.831 254.51 301.737 254.346 301.625L252.883 300.745L247.616 297.402L230.341 286.165C223.592 281.801 217.43 277.934 212.937 275.181L207.614 271.931L206.169 270.995C205.996 270.901 205.833 270.788 205.684 270.658C205.87 270.723 206.048 270.807 206.215 270.911L207.707 271.725C208.993 272.437 210.839 273.505 213.114 274.844C217.654 277.522 223.853 281.342 230.603 285.715C237.352 290.088 243.411 294.143 247.802 297.036L252.985 300.51L254.384 301.447C254.563 301.579 254.726 301.733 254.868 301.906Z" fill="#FAFAFA"/>
<path d="M253.694 306.035C253.508 305.967 253.33 305.88 253.162 305.773L251.68 304.93L246.273 301.765L228.514 291.156L210.802 280.425L205.47 277.129L204.034 276.192C203.86 276.095 203.698 275.979 203.549 275.846C203.735 275.914 203.913 276.002 204.081 276.108L205.563 276.951L210.979 280.116L228.738 290.725L246.45 301.447L251.783 304.743L253.218 305.68C253.389 305.781 253.548 305.9 253.694 306.035Z" fill="#FAFAFA"/>
<path d="M129.326 88.8271L129.018 89.8197C128.951 90.0408 128.831 90.2419 128.669 90.4052C128.506 90.5686 128.306 90.6891 128.086 90.7561L127.098 91.0652L128.095 91.4023C128.296 91.4717 128.478 91.5863 128.629 91.7371C128.779 91.888 128.893 92.0713 128.962 92.2731L129.316 93.2844L129.708 92.2263C129.782 92.0287 129.899 91.8504 130.05 91.7045C130.202 91.5586 130.384 91.4489 130.584 91.3835L131.516 91.0652L130.584 90.7468C130.39 90.681 130.212 90.5731 130.064 90.4307C129.916 90.2883 129.801 90.1149 129.727 89.9227L129.326 88.8271Z" fill="#051BAF"/>
<path d="M161.133 43.6644L160.825 44.657C160.758 44.8781 160.638 45.0792 160.476 45.2425C160.313 45.4058 160.113 45.5264 159.893 45.5934L158.905 45.9024L159.902 46.2395C160.103 46.309 160.286 46.4235 160.436 46.5744C160.586 46.7253 160.7 46.9086 160.769 47.1104L161.123 48.1217L161.515 47.0636C161.589 46.866 161.706 46.6877 161.857 46.5418C162.009 46.3959 162.192 46.2862 162.391 46.2208L163.324 45.9024L162.391 45.5841C162.197 45.5183 162.019 45.4104 161.871 45.268C161.723 45.1256 161.608 44.9521 161.534 44.76L161.133 43.6644Z" fill="#051BAF"/>
<path d="M296.781 193.742L296.474 194.734C296.407 194.955 296.287 195.157 296.124 195.32C295.962 195.483 295.761 195.604 295.541 195.671L294.553 195.98L295.551 196.317C295.752 196.386 295.934 196.501 296.084 196.652C296.235 196.803 296.349 196.986 296.418 197.188L296.772 198.199L297.163 197.141C297.237 196.943 297.354 196.765 297.506 196.619C297.658 196.473 297.84 196.364 298.04 196.298L298.972 195.98L298.04 195.661C297.845 195.596 297.668 195.488 297.52 195.345C297.371 195.203 297.256 195.03 297.182 194.837L296.781 193.742Z" fill="#051BAF"/>
<path d="M291.318 123.568L291.011 124.56C290.944 124.781 290.824 124.982 290.661 125.146C290.499 125.309 290.299 125.43 290.078 125.497L289.09 125.806L290.088 126.143C290.289 126.212 290.471 126.327 290.621 126.478C290.772 126.629 290.886 126.812 290.955 127.014L291.309 128.025L291.701 126.967C291.774 126.769 291.891 126.591 292.043 126.445C292.195 126.299 292.377 126.189 292.577 126.124L293.509 125.806L292.577 125.487C292.382 125.422 292.205 125.314 292.057 125.171C291.908 125.029 291.793 124.855 291.719 124.663L291.318 123.568Z" fill="#051BAF"/>
<path d="M138.368 49.9103L137.11 53.9743C136.833 54.8532 136.349 55.6522 135.7 56.3041C135.051 56.956 134.256 57.4416 133.381 57.7199L129.326 58.9934L133.4 60.3886C134.226 60.6705 134.977 61.1385 135.596 61.7569C136.215 62.3752 136.685 63.1276 136.97 63.9563L138.406 68.114L140 63.769C140.297 62.9566 140.774 62.2222 141.394 61.6207C142.014 61.0191 142.761 60.566 143.579 60.295L147.485 58.9934L143.635 57.6824C142.842 57.4137 142.117 56.9734 141.511 56.3926C140.905 55.8118 140.434 55.1045 140.13 54.3207L138.368 49.9103Z" fill="#051BAF"/>
<path d="M269.784 152.886L268.526 156.95C268.249 157.829 267.765 158.628 267.116 159.28C266.467 159.932 265.672 160.418 264.797 160.696L260.742 161.97L264.816 163.365C265.642 163.647 266.394 164.115 267.012 164.733C267.631 165.351 268.101 166.104 268.386 166.933L269.822 171.09L271.416 166.745C271.714 165.933 272.19 165.198 272.81 164.597C273.43 163.995 274.177 163.542 274.995 163.271L278.901 161.97L275.051 160.659C274.258 160.39 273.533 159.95 272.927 159.369C272.321 158.788 271.85 158.081 271.546 157.297L269.784 152.886Z" fill="#051BAF"/>
<path d="M65.7476 44.348L65.2256 46.0429C65.1115 46.4107 64.9103 46.7452 64.6391 47.0176C64.3679 47.29 64.0349 47.4922 63.6687 47.6067L61.9907 48.1311L63.6687 48.7023C64.0093 48.8188 64.319 49.0118 64.5742 49.2665C64.8294 49.5213 65.0235 49.8311 65.1417 50.1725L65.7383 51.8861L66.4002 50.0882C66.5231 49.7538 66.7193 49.4514 66.9742 49.2034C67.2292 48.9554 67.5364 48.7681 67.8731 48.6555L69.4858 48.1217L67.8917 47.5786C67.5649 47.4673 67.2662 47.2856 67.0166 47.0462C66.767 46.8069 66.5725 46.5156 66.4468 46.1927L65.7476 44.348Z" fill="#051BAF"/>
<path d="M252.063 184.078L251.54 185.754C251.426 186.122 251.225 186.457 250.954 186.729C250.683 187.001 250.35 187.204 249.984 187.318L248.306 187.842L249.984 188.414C250.324 188.53 250.634 188.723 250.889 188.978C251.144 189.233 251.338 189.542 251.457 189.884L252.053 191.597L252.715 189.8C252.838 189.465 253.034 189.163 253.289 188.915C253.544 188.667 253.851 188.48 254.188 188.367L255.801 187.833L254.207 187.29C253.88 187.179 253.581 186.997 253.332 186.758C253.082 186.518 252.887 186.227 252.762 185.904L252.063 184.078Z" fill="#051BAF"/>
</g>
<line x1="-3" y1="392.081" x2="377" y2="392.081" stroke="#263238" stroke-width="1.5"/>
<defs>
<clipPath id="clip0_3_15150">
<rect width="237" height="392.662" fill="white" transform="translate(62)"/>
</clipPath>
</defs>
</svg>
