<svg width="60" height="60" viewBox="0 0 60 60" fill="none" xmlns="http://www.w3.org/2000/svg">
<path d="M1.81577 0.999998C1.81577 0.723856 1.59191 0.499999 1.31577 0.5C1.03963 0.500001 0.815772 0.723859 0.815773 1L1.81577 0.999998ZM7.44345 32.6581L7.83176 32.3431L7.44345 32.6581ZM33.7847 36.6481L34.1282 37.0115L33.7847 36.6481ZM38.9678 20.941L39.4535 20.8223L38.9678 20.941ZM18.3556 22.1228L17.9047 21.9069L18.3556 22.1228ZM16.1686 36.6481L15.6695 36.6787C15.6707 36.6971 15.6728 36.7154 15.6759 36.7335L16.1686 36.6481ZM35.1664 54.6232L35.1047 55.1194L35.1664 54.6232ZM59.344 56.3628C59.5444 56.1728 59.5528 55.8563 59.3628 55.656L56.2665 52.3906C56.0765 52.1902 55.76 52.1818 55.5596 52.3718C55.3592 52.5618 55.3508 52.8783 55.5408 53.0787L58.2931 55.9812L55.3906 58.7335C55.1902 58.9235 55.1818 59.24 55.3718 59.4404C55.5618 59.6408 55.8783 59.6492 56.0787 59.4592L59.344 56.3628ZM0.799499 1.92204C0.790898 2.19805 1.00767 2.42877 1.28368 2.43737C1.55969 2.44597 1.79041 2.2292 1.79901 1.95319L0.799499 1.92204ZM1.668 4.79298C1.6819 4.51719 1.4696 4.28234 1.19381 4.26844C0.918017 4.25453 0.683172 4.46683 0.669268 4.74263L1.668 4.79298ZM0.581583 6.63527C0.570401 6.91119 0.785011 7.14392 1.06093 7.1551C1.33684 7.16629 1.56958 6.95168 1.58076 6.67576L0.581583 6.63527ZM1.50474 9.49287C1.50782 9.21674 1.28647 8.9904 1.01035 8.98732C0.734222 8.98424 0.507883 9.20559 0.504804 9.48172L1.50474 9.49287ZM0.507816 11.3829C0.511983 11.659 0.739194 11.8794 1.01531 11.8753C1.29142 11.8711 1.51187 11.6439 1.5077 11.3678L0.507816 11.3829ZM1.61481 14.1751C1.59748 13.8995 1.36001 13.6902 1.08442 13.7075C0.808817 13.7248 0.59945 13.9623 0.616779 14.2379L1.61481 14.1751ZM0.771175 16.1394C0.798729 16.4142 1.04381 16.6146 1.31857 16.587C1.59334 16.5594 1.79374 16.3144 1.76618 16.0396L0.771175 16.1394ZM2.13194 18.8145C2.08689 18.5421 1.82952 18.3577 1.55707 18.4028C1.28463 18.4478 1.10029 18.7052 1.14533 18.9777L2.13194 18.8145ZM1.50229 20.8573C1.56047 21.1272 1.82646 21.2989 2.09641 21.2407C2.36635 21.1825 2.53802 20.9165 2.47984 20.6466L1.50229 20.8573ZM3.17603 23.3484C3.09601 23.0841 2.81689 22.9347 2.5526 23.0147C2.2883 23.0947 2.13892 23.3739 2.21894 23.6381L3.17603 23.3484ZM2.82982 25.4573C2.92574 25.7162 3.21342 25.8484 3.47237 25.7524C3.73131 25.6565 3.86347 25.3688 3.76754 25.1099L2.82982 25.4573ZM4.86044 27.6663C4.73908 27.4183 4.43962 27.3156 4.19157 27.4369C3.94353 27.5583 3.84083 27.8578 3.96218 28.1058L4.86044 27.6663ZM4.86963 29.8035C5.00861 30.0421 5.31471 30.1229 5.55333 29.9839C5.79195 29.8449 5.87273 29.5388 5.73375 29.3002L4.86963 29.8035ZM7.26274 31.6126C7.09736 31.3914 6.78402 31.3462 6.56288 31.5116C6.34173 31.6769 6.29652 31.9903 6.46189 32.2114L7.26274 31.6126ZM7.72023 33.748C7.9056 33.9527 8.2218 33.9684 8.42648 33.783C8.63115 33.5976 8.64681 33.2814 8.46144 33.0767L7.72023 33.748ZM10.5712 35.0962C10.3594 34.919 10.0441 34.9469 9.86684 35.1587C9.68959 35.3704 9.71756 35.6858 9.9293 35.863L10.5712 35.0962ZM11.5412 37.1027C11.7667 37.262 12.0787 37.2083 12.238 36.9827C12.3973 36.7572 12.3436 36.4452 12.118 36.2859L11.5412 37.1027ZM14.6071 37.8268C14.3639 37.696 14.0607 37.7872 13.93 38.0305C13.7992 38.2737 13.8904 38.5769 14.1336 38.7076L14.6071 37.8268ZM15.9657 39.595C16.2192 39.7045 16.5135 39.5879 16.6231 39.3344C16.7326 39.0809 16.616 38.7866 16.3625 38.6771L15.9657 39.595ZM19.1138 39.648C18.8474 39.5751 18.5724 39.7319 18.4994 39.9982C18.4265 40.2646 18.5833 40.5396 18.8496 40.6125L19.1138 39.648ZM20.8477 41.0495C21.1203 41.0939 21.3772 40.9089 21.4216 40.6364C21.466 40.3638 21.2811 40.1069 21.0085 40.0625L20.8477 41.0495ZM23.8967 40.2758C23.6206 40.2809 23.4009 40.5089 23.406 40.785C23.4112 41.0611 23.6392 41.2807 23.9152 41.2756L23.8967 40.2758ZM25.9661 41.1016C26.2391 41.0597 26.4264 40.8045 26.3845 40.5316C26.3427 40.2586 26.0875 40.0713 25.8145 40.1132L25.9661 41.1016ZM28.5972 39.3801C28.3391 39.4784 28.2097 39.7674 28.308 40.0254C28.4064 40.2834 28.6953 40.4129 28.9534 40.3145L28.5972 39.3801ZM30.8227 39.4463C31.0644 39.3128 31.1522 39.0086 31.0187 38.7669C30.8852 38.5251 30.581 38.4374 30.3393 38.5709L30.8227 39.4463ZM32.7176 36.9301C32.5062 37.1078 32.4788 37.4232 32.6564 37.6346C32.834 37.846 33.1494 37.8734 33.3609 37.6958L32.7176 36.9301ZM34.7803 36.3802C34.9763 36.1857 34.9775 35.8692 34.783 35.6731C34.5885 35.4771 34.2719 35.4759 34.0759 35.6704L34.7803 36.3802ZM35.8606 33.7435C35.6826 33.9547 35.7095 34.2701 35.9206 34.4481C36.1318 34.6261 36.4472 34.5992 36.6252 34.3881L35.8606 33.7435ZM37.7443 32.9559C37.9055 32.7317 37.8544 32.4193 37.6302 32.2581C37.406 32.0969 37.0936 32.148 36.9324 32.3722L37.7443 32.9559ZM38.2861 30.167C38.1615 30.4134 38.2603 30.7142 38.5067 30.8388C38.7531 30.9634 39.0539 30.8647 39.1785 30.6183L38.2861 30.167ZM39.9009 28.9158C39.9902 28.6545 39.8507 28.3703 39.5894 28.281C39.3281 28.1917 39.0438 28.3312 38.9546 28.5925L39.9009 28.9158ZM39.4602 26.1151C39.4429 26.3907 39.6523 26.6281 39.9279 26.6454C40.2035 26.6626 40.4409 26.4532 40.4582 26.1776L39.4602 26.1151ZM40.391 24.3041C40.3544 24.0304 40.1027 23.8382 39.829 23.8749C39.5554 23.9116 39.3632 24.1632 39.3999 24.4369L40.391 24.3041ZM38.7586 21.9492C38.8474 22.2107 39.1313 22.3507 39.3928 22.262C39.6543 22.1732 39.7943 21.8893 39.7056 21.6278L38.7586 21.9492ZM39.0748 19.7381C38.9603 19.4868 38.6637 19.376 38.4124 19.4906C38.1612 19.6052 38.0504 19.9018 38.165 20.153L39.0748 19.7381ZM36.3813 17.811C36.5869 17.9953 36.9031 17.9779 37.0873 17.7723C37.2716 17.5666 37.2543 17.2505 37.0486 17.0662L36.3813 17.811ZM35.2577 15.7685C35.0193 15.6292 34.7131 15.7095 34.5738 15.9479C34.4345 16.1864 34.5148 16.4926 34.7532 16.6319L35.2577 15.7685ZM31.9559 15.4713C32.2227 15.5424 32.4967 15.3838 32.5678 15.117C32.6389 14.8502 32.4803 14.5762 32.2134 14.5051L31.9559 15.4713ZM30.0452 14.1291C29.7699 14.1066 29.5285 14.3114 29.506 14.5866C29.4834 14.8618 29.6883 15.1032 29.9635 15.1258L30.0452 14.1291ZM26.9507 15.3036C27.2211 15.2477 27.3951 14.9832 27.3393 14.7128C27.2834 14.4424 27.0189 14.2684 26.7485 14.3242L26.9507 15.3036ZM24.6398 14.9834C24.3858 15.0916 24.2676 15.3853 24.3758 15.6393C24.484 15.8934 24.7777 16.0116 25.0317 15.9034L24.6398 14.9834ZM22.4593 17.4777C22.6721 17.3018 22.7021 16.9866 22.5262 16.7738C22.3503 16.5609 22.0351 16.5309 21.8223 16.7068L22.4593 17.4777ZM20.2579 18.2448C20.0776 18.454 20.101 18.7697 20.3102 18.95C20.5194 19.1303 20.8351 19.1069 21.0154 18.8977L20.2579 18.2448ZM19.2785 21.4208C19.4118 21.179 19.3239 20.8748 19.0821 20.7415C18.8403 20.6081 18.5362 20.696 18.4028 20.9378L19.2785 21.4208ZM17.4954 22.8407C17.3927 23.097 17.5171 23.3881 17.7734 23.4908C18.0297 23.5936 18.3208 23.4691 18.4236 23.2128L17.4954 22.8407ZM17.559 25.9702C17.6239 25.7018 17.4589 25.4316 17.1905 25.3668C16.9221 25.3019 16.6519 25.4669 16.587 25.7353L17.559 25.9702ZM16.1846 27.7048C16.1383 27.977 16.3214 28.2353 16.5936 28.2816C16.8658 28.3279 17.1241 28.1448 17.1704 27.8726L16.1846 27.7048ZM16.8003 30.7731C16.8248 30.4981 16.6217 30.2552 16.3466 30.2308C16.0716 30.2063 15.8288 30.4094 15.8043 30.6845L16.8003 30.7731ZM15.672 32.678C15.6597 32.9539 15.8734 33.1875 16.1493 33.1997C16.4251 33.212 16.6587 32.9983 16.671 32.7225L15.672 32.678ZM16.6337 35.6554C16.628 35.3793 16.3996 35.1601 16.1235 35.1658C15.8474 35.1714 15.6282 35.3998 15.6339 35.6759L16.6337 35.6554ZM15.8875 37.6731C15.9559 37.9407 16.2283 38.102 16.4958 38.0336C16.7633 37.9651 16.9247 37.6927 16.8563 37.4252L15.8875 37.6731ZM17.6955 40.0352C17.5965 39.7774 17.3073 39.6487 17.0495 39.7476C16.7917 39.8466 16.6629 40.1358 16.7619 40.3936L17.6955 40.0352ZM17.5062 42.1445C17.6231 42.3947 17.9207 42.5027 18.1709 42.3857C18.421 42.2688 18.529 41.9712 18.412 41.721L17.5062 42.1445ZM19.7057 44.1373C19.562 43.9014 19.2544 43.8267 19.0186 43.9703C18.7827 44.1139 18.708 44.4215 18.8516 44.6574L19.7057 44.1373ZM19.9041 46.2444C20.0656 46.4684 20.3781 46.519 20.6021 46.3574C20.8261 46.1959 20.8767 45.8834 20.7151 45.6594L19.9041 46.2444ZM22.4493 47.7753C22.2611 47.5732 21.9447 47.562 21.7426 47.7502C21.5406 47.9384 21.5294 48.2548 21.7176 48.4569L22.4493 47.7753ZM23.0781 49.7945C23.2834 49.9791 23.5995 49.9624 23.7842 49.7571C23.9688 49.5518 23.9521 49.2356 23.7468 49.051L23.0781 49.7945ZM25.8935 50.7309C25.6648 50.5762 25.354 50.6361 25.1992 50.8648C25.0445 51.0935 25.1044 51.4044 25.3331 51.5592L25.8935 50.7309ZM26.9646 52.5558C27.2066 52.6887 27.5106 52.6002 27.6435 52.3581C27.7764 52.1161 27.6878 51.8121 27.4458 51.6792L26.9646 52.5558ZM29.9227 52.8256C29.6649 52.7268 29.3757 52.8557 29.2769 53.1136C29.1781 53.3714 29.3071 53.6606 29.5649 53.7594L29.9227 52.8256ZM31.3691 54.3624C31.6345 54.4388 31.9115 54.2855 31.9878 54.0201C32.0642 53.7547 31.9109 53.4777 31.6455 53.4014L31.3691 54.3624ZM34.3157 53.9965C34.0431 53.9523 33.7863 54.1374 33.7421 54.41C33.6979 54.6826 33.883 54.9394 34.1556 54.9836L34.3157 53.9965ZM36.068 55.2387C36.342 55.2725 36.5916 55.0778 36.6254 54.8037C36.6593 54.5296 36.4645 54.2801 36.1904 54.2462L36.068 55.2387ZM39.0305 54.5916C38.7563 54.5588 38.5075 54.7546 38.4748 55.0288C38.4421 55.303 38.6378 55.5518 38.912 55.5845L39.0305 54.5916ZM40.8171 55.8077C41.0914 55.8392 41.3393 55.6423 41.3707 55.3679C41.4022 55.0936 41.2053 54.8457 40.9309 54.8142L40.8171 55.8077ZM43.7715 55.1226C43.4967 55.095 43.2516 55.2953 43.224 55.5701C43.1964 55.8448 43.3968 56.09 43.6715 56.1176L43.7715 55.1226ZM45.5849 56.2925C45.8601 56.3146 46.1012 56.1093 46.1232 55.834C46.1453 55.5588 45.94 55.3178 45.6648 55.2957L45.5849 56.2925ZM48.4928 55.4433C48.2167 55.4382 47.9887 55.6578 47.9835 55.9339C47.9784 56.21 48.198 56.438 48.4741 56.4431L48.4928 55.4433ZM50.3977 56.4447C50.6738 56.4417 50.8953 56.2155 50.8923 55.9394C50.8894 55.6632 50.6632 55.4418 50.3871 55.4447L50.3977 56.4447ZM53.2569 55.42C52.9807 55.4205 52.7573 55.6447 52.7577 55.9209C52.7582 56.197 52.9824 56.4205 53.2586 56.42L53.2569 55.42ZM55.164 56.4279C55.4401 56.4306 55.6661 56.2089 55.6688 55.9328C55.6715 55.6567 55.4498 55.4307 55.1737 55.428L55.164 56.4279ZM58.0486 55.4762C57.7726 55.4698 57.5436 55.6885 57.5372 55.9646C57.5309 56.2406 57.7495 56.4696 58.0256 56.4759L58.0486 55.4762ZM0.815773 1C0.815774 1.28239 0.809844 1.59008 0.799499 1.92204L1.79901 1.95319C1.80957 1.61441 1.81577 1.29582 1.81577 0.999998L0.815773 1ZM0.669268 4.74263C0.639141 5.34019 0.608424 5.97292 0.581583 6.63527L1.58076 6.67576C1.60741 6.01831 1.63793 5.38941 1.668 4.79298L0.669268 4.74263ZM0.504804 9.48172C0.497912 10.0998 0.498029 10.7345 0.507816 11.3829L1.5077 11.3678C1.49806 10.7291 1.49794 10.1032 1.50474 9.49287L0.504804 9.48172ZM0.616779 14.2379C0.656166 14.8643 0.706938 15.4988 0.771175 16.1394L1.76618 16.0396C1.70327 15.4122 1.65347 14.79 1.61481 14.1751L0.616779 14.2379ZM1.14533 18.9777C1.2486 19.6022 1.36698 20.2294 1.50229 20.8573L2.47984 20.6466C2.34812 20.0354 2.23272 19.4241 2.13194 18.8145L1.14533 18.9777ZM2.21894 23.6381C2.40334 24.2472 2.6064 24.8542 2.82982 25.4573L3.76754 25.1099C3.55148 24.5267 3.35484 23.9389 3.17603 23.3484L2.21894 23.6381ZM3.96218 28.1058C4.2424 28.6785 4.54435 29.245 4.86963 29.8035L5.73375 29.3002C5.42102 28.7633 5.13041 28.2181 4.86044 27.6663L3.96218 28.1058ZM6.46189 32.2114C6.65363 32.4678 6.85132 32.7218 7.05513 32.973L7.83176 32.3431C7.6363 32.1021 7.44668 31.8585 7.26274 31.6126L6.46189 32.2114ZM7.05513 32.973C7.26527 33.2321 7.48722 33.4907 7.72023 33.748L8.46144 33.0767C8.24015 32.8324 8.03004 32.5875 7.83176 32.3431L7.05513 32.973ZM9.9293 35.863C10.4392 36.2898 10.9778 36.7048 11.5412 37.1027L12.118 36.2859C11.5769 35.9037 11.06 35.5054 10.5712 35.0962L9.9293 35.863ZM14.1336 38.7076C14.7276 39.0269 15.3394 39.3242 15.9657 39.595L16.3625 38.6771C15.7632 38.418 15.177 38.1331 14.6071 37.8268L14.1336 38.7076ZM18.8496 40.6125C19.5067 40.7925 20.1738 40.9397 20.8477 41.0495L21.0085 40.0625C20.3712 39.9586 19.7385 39.8192 19.1138 39.648L18.8496 40.6125ZM23.9152 41.2756C24.5979 41.2629 25.2826 41.2064 25.9661 41.1016L25.8145 40.1132C25.1768 40.211 24.5366 40.2639 23.8967 40.2758L23.9152 41.2756ZM28.9534 40.3145C29.5835 40.0743 30.2075 39.786 30.8227 39.4463L30.3393 38.5709C29.7652 38.888 29.1837 39.1565 28.5972 39.3801L28.9534 40.3145ZM33.3609 37.6958C33.6193 37.4787 33.8751 37.2507 34.1282 37.0115L33.4413 36.2848C33.2022 36.5107 32.9609 36.7257 32.7176 36.9301L33.3609 37.6958ZM34.1282 37.0115C34.3529 36.7991 34.5702 36.5887 34.7803 36.3802L34.0759 35.6704C33.8717 35.873 33.6603 36.0778 33.4413 36.2848L34.1282 37.0115ZM36.6252 34.3881C37.0377 33.8988 37.4096 33.4215 37.7443 32.9559L36.9324 32.3722C36.6135 32.8157 36.2575 33.2728 35.8606 33.7435L36.6252 34.3881ZM39.1785 30.6183C39.4769 30.0283 39.7147 29.4609 39.9009 28.9158L38.9546 28.5925C38.784 29.0919 38.5645 29.6166 38.2861 30.167L39.1785 30.6183ZM40.4582 26.1776C40.5006 25.4998 40.4676 24.8753 40.391 24.3041L39.3999 24.4369C39.4686 24.9498 39.4981 25.5087 39.4602 26.1151L40.4582 26.1776ZM39.7056 21.6278C39.5942 21.2996 39.5067 21.04 39.4535 20.8223L38.4821 21.0596C38.5479 21.3288 38.6516 21.6339 38.7586 21.9492L39.7056 21.6278ZM39.4535 20.8223C39.3633 20.453 39.2356 20.0907 39.0748 19.7381L38.165 20.153C38.3014 20.4522 38.4077 20.7552 38.4821 21.0596L39.4535 20.8223ZM37.0486 17.0662C36.5135 16.5868 35.9112 16.1504 35.2577 15.7685L34.7532 16.6319C35.3517 16.9816 35.8989 17.3788 36.3813 17.811L37.0486 17.0662ZM32.2134 14.5051C31.5131 14.3184 30.7865 14.1899 30.0452 14.1291L29.9635 15.1258C30.6436 15.1815 31.3113 15.2995 31.9559 15.4713L32.2134 14.5051ZM26.7485 14.3242C26.0402 14.4704 25.3341 14.6876 24.6398 14.9834L25.0317 15.9034C25.6632 15.6344 26.3057 15.4367 26.9507 15.3036L26.7485 14.3242ZM21.8223 16.7068C21.2794 17.1554 20.7562 17.6668 20.2579 18.2448L21.0154 18.8977C21.4779 18.3611 21.961 17.8895 22.4593 17.4777L21.8223 16.7068ZM18.4028 20.9378C18.2312 21.2489 18.0651 21.5718 17.9047 21.9069L18.8066 22.3387C18.959 22.0205 19.1164 21.7147 19.2785 21.4208L18.4028 20.9378ZM17.9047 21.9069C17.7591 22.211 17.6229 22.5228 17.4954 22.8407L18.4236 23.2128C18.5436 22.9136 18.6711 22.6218 18.8066 22.3387L17.9047 21.9069ZM16.587 25.7353C16.4288 26.3898 16.296 27.0504 16.1846 27.7048L17.1704 27.8726C17.2785 27.2378 17.4068 26.5999 17.559 25.9702L16.587 25.7353ZM15.8043 30.6845C15.7418 31.386 15.6997 32.0565 15.672 32.678L16.671 32.7225C16.6981 32.114 16.7393 31.4583 16.8003 30.7731L15.8043 30.6845ZM15.6339 35.6759C15.6403 35.9909 15.6492 36.2402 15.6564 36.4114C15.66 36.497 15.6633 36.5631 15.6656 36.6082C15.6668 36.6307 15.6678 36.648 15.6684 36.6598C15.6688 36.6657 15.669 36.6703 15.6692 36.6734C15.6693 36.675 15.6694 36.6763 15.6694 36.6771C15.6695 36.6776 15.6695 36.6779 15.6695 36.6782C15.6695 36.6783 15.6695 36.6784 15.6695 36.6785C15.6695 36.6786 15.6695 36.6786 15.6695 36.6787C15.6695 36.6787 15.6695 36.6787 15.6695 36.6787C15.6695 36.6787 15.6695 36.6787 16.1686 36.6481C16.6677 36.6176 16.6677 36.6176 16.6677 36.6176C16.6677 36.6176 16.6677 36.6176 16.6677 36.6176C16.6677 36.6176 16.6677 36.6176 16.6677 36.6176C16.6677 36.6176 16.6677 36.6176 16.6677 36.6176C16.6677 36.6175 16.6676 36.6173 16.6676 36.6171C16.6676 36.6165 16.6675 36.6157 16.6675 36.6145C16.6673 36.612 16.6671 36.6082 16.6668 36.6031C16.6662 36.5928 16.6654 36.577 16.6643 36.5561C16.6621 36.5141 16.659 36.4513 16.6555 36.369C16.6485 36.2045 16.6399 35.9625 16.6337 35.6554L15.6339 35.6759ZM16.1686 36.6481C15.6759 36.7335 15.6759 36.7335 15.6759 36.7335C15.6759 36.7336 15.676 36.7336 15.676 36.7336C15.676 36.7337 15.676 36.7337 15.676 36.7338C15.676 36.7339 15.676 36.7341 15.6761 36.7342C15.6761 36.7346 15.6762 36.735 15.6763 36.7355C15.6765 36.7365 15.6767 36.7378 15.677 36.7395C15.6776 36.7427 15.6784 36.7473 15.6794 36.7531C15.6816 36.7647 15.6846 36.7813 15.6888 36.8028C15.697 36.8456 15.7093 36.9079 15.7263 36.988C15.7602 37.1483 15.8126 37.3804 15.8875 37.6731L16.8563 37.4252C16.785 37.1469 16.7358 36.9285 16.7046 36.781C16.689 36.7073 16.6779 36.6513 16.6709 36.6145C16.6673 36.5961 16.6648 36.5825 16.6632 36.5738C16.6624 36.5694 16.6619 36.5664 16.6616 36.5645C16.6614 36.5636 16.6613 36.563 16.6612 36.5627C16.6612 36.5626 16.6612 36.5625 16.6612 36.5625C16.6612 36.5625 16.6612 36.5626 16.6612 36.5626C16.6612 36.5626 16.6612 36.5627 16.6612 36.5627C16.6612 36.5627 16.6613 36.5628 16.6613 36.5628C16.6613 36.5628 16.6613 36.5628 16.1686 36.6481ZM16.7619 40.3936C16.9716 40.9399 17.218 41.5282 17.5062 42.1445L18.412 41.721C18.1346 41.1277 17.8974 40.5612 17.6955 40.0352L16.7619 40.3936ZM18.8516 44.6574C19.1713 45.1824 19.5213 45.7138 19.9041 46.2444L20.7151 45.6594C20.3484 45.151 20.0127 44.6414 19.7057 44.1373L18.8516 44.6574ZM21.7176 48.4569C22.142 48.9125 22.5949 49.36 23.0781 49.7945L23.7468 49.051C23.2864 48.637 22.8545 48.2102 22.4493 47.7753L21.7176 48.4569ZM25.3331 51.5592C25.8501 51.9089 26.3935 52.2423 26.9646 52.5558L27.4458 51.6792C26.9023 51.3809 26.3853 51.0637 25.8935 50.7309L25.3331 51.5592ZM29.5649 53.7594C30.1432 53.9809 30.7443 54.1828 31.3691 54.3624L31.6455 53.4014C31.0481 53.2296 30.4742 53.0369 29.9227 52.8256L29.5649 53.7594ZM34.1556 54.9836C34.467 55.0341 34.7833 55.0794 35.1047 55.1194L35.2281 54.127C34.9189 54.0886 34.6147 54.045 34.3157 53.9965L34.1556 54.9836ZM35.1047 55.1194C35.4345 55.1604 35.7555 55.2001 36.068 55.2387L36.1904 54.2462C35.8783 54.2077 35.5576 54.168 35.2281 54.127L35.1047 55.1194ZM38.912 55.5845C39.5963 55.6662 40.2293 55.7404 40.8171 55.8077L40.9309 54.8142C40.345 54.7471 39.7135 54.6731 39.0305 54.5916L38.912 55.5845ZM43.6715 56.1176C44.3909 56.1898 45.02 56.2472 45.5849 56.2925L45.6648 55.2957C45.1079 55.251 44.4857 55.1943 43.7715 55.1226L43.6715 56.1176ZM48.4741 56.4431C49.1115 56.455 49.7208 56.4518 50.3977 56.4447L50.3871 55.4447C49.7127 55.4519 49.1151 55.4549 48.4928 55.4433L48.4741 56.4431ZM53.2586 56.42C53.8247 56.4191 54.4535 56.421 55.164 56.4279L55.1737 55.428C54.4592 55.421 53.8266 55.4191 53.2569 55.42L53.2586 56.42ZM58.0256 56.4759C58.3342 56.4831 58.6544 56.491 58.9867 56.4998L59.0133 55.5002C58.6798 55.4913 58.3585 55.4834 58.0486 55.4762L58.0256 56.4759Z" fill="#263238"/>
</svg>
