<svg width="320" height="278" viewBox="0 0 320 278" fill="none" xmlns="http://www.w3.org/2000/svg">
<mask id="mask0_2086_4688" style="mask-type:alpha" maskUnits="userSpaceOnUse" x="0" y="0" width="320" height="278">
<rect width="320" height="278" fill="#D9D9D9"/>
</mask>
<g mask="url(#mask0_2086_4688)">
<line x1="-14.6594" y1="267.735" x2="359.134" y2="267.735" stroke="#263238" stroke-width="1.5"/>
<path d="M142.268 29.5906H141.388C137.107 29.7681 133.05 31.5609 130.024 34.6121C126.997 37.6634 125.224 41.7494 125.055 46.057C124.733 54.3694 124.482 62.476 124.717 66.9209C125.205 76.1111 134.589 77.0206 134.589 77.0206C134.589 77.0206 134.589 80.1842 134.589 82.9207C135.564 84.5927 136.932 85.9987 138.572 87.0158C140.212 88.0328 142.075 88.6299 143.998 88.7548C145.92 88.8797 147.844 88.5285 149.601 87.7321C151.357 86.9356 152.893 85.7181 154.074 84.1861L155.198 82.7625L156.581 47.5439C156.99 37.9978 151.802 29.7567 142.268 29.5906Z" fill="#FFBF9D"/>
<path d="M139.889 63.9438C139.673 63.8956 139.368 65.2714 137.932 65.9879C136.496 66.7043 135.006 66.2127 134.951 66.4038C134.932 66.4891 135.231 66.747 135.87 66.906C136.703 67.1049 137.577 67.0122 138.339 66.6442C139.069 66.2873 139.624 65.666 139.887 64.9116C140.069 64.338 140.002 63.961 139.889 63.9438Z" fill="#263238"/>
<path d="M134.573 76.0173C138.911 75.8234 143.104 74.3125 146.654 71.6646C146.654 71.6646 144.013 79.252 134.63 78.7741L134.573 76.0173Z" fill="#FF9A6C"/>
<path d="M155.621 54.2201C155.763 54.1477 161.495 52.0547 161.577 58.4623C161.659 64.8698 155.197 63.8314 155.182 63.6462C155.167 63.4611 155.621 54.2201 155.621 54.2201Z" fill="#FFBF9D"/>
<path d="M157.333 61.1073C157.333 61.1073 157.446 61.1995 157.64 61.2917C157.9 61.406 158.189 61.406 158.449 61.2917C159.128 60.9966 159.686 59.7612 159.711 58.4428C159.723 57.8076 159.61 57.1773 159.379 56.5989C159.318 56.3696 159.208 56.1608 159.06 55.9905C158.912 55.8202 158.73 55.6936 158.53 55.6216C158.4 55.5838 158.262 55.5991 158.141 55.6648C158.02 55.7304 157.923 55.8424 157.867 55.9812C157.786 56.184 157.826 56.3315 157.794 56.35C157.761 56.3684 157.656 56.2301 157.705 55.9259C157.739 55.744 157.828 55.5812 157.956 55.4649C158.041 55.3868 158.14 55.3294 158.245 55.2961C158.351 55.2628 158.462 55.2544 158.57 55.2713C158.834 55.3322 159.079 55.467 159.285 55.6634C159.492 55.8597 159.652 56.1116 159.751 56.3961C160.029 57.0276 160.168 57.727 160.155 58.4336C160.155 59.9087 159.476 61.3009 158.538 61.6236C158.365 61.6822 158.184 61.6961 158.006 61.6642C157.828 61.6323 157.659 61.5554 157.511 61.4392C157.349 61.2548 157.276 61.1073 157.333 61.1073Z" fill="#FF9A6C"/>
<path d="M113.295 37.3885C113.398 37.0131 113.636 36.6943 113.958 36.4988C114.67 36.1482 115.459 36.0043 116.243 36.082C118.169 36.0084 120.055 35.4767 121.758 34.5269C121.145 34.2357 120.579 33.8434 120.082 33.3646C119.561 32.8713 119.179 32.236 118.979 31.5288C118.778 30.8217 118.768 30.07 118.947 29.3568C118.975 29.2225 119.033 29.0969 119.115 28.9898C119.197 28.8827 119.301 28.7971 119.42 28.7396C119.816 28.6113 120.181 29.0121 120.44 29.3328C120.795 29.8289 121.27 30.2152 121.816 30.4509C122.361 30.6865 122.958 30.7627 123.541 30.6714C124.346 30.6066 125.127 30.3518 125.826 29.9259L125.903 29.8377L126.817 28.8438C129.102 26.4391 131.014 24.7638 133.025 23.8821C135.974 22.5916 140.918 22.0225 144.018 22.84C147.119 23.6576 149.915 26.2547 150.379 29.5812C152.093 28.0182 154.691 27.9781 156.809 28.8678H156.862C159.224 29.7175 160.58 32.3146 161.304 34.8315C161.342 34.9678 161.38 35.1121 161.418 35.2483C162.222 36.5708 163.317 37.6705 164.61 38.4546C164.838 38.5909 165.097 38.7592 165.128 39.0317C165.158 39.3043 164.945 39.5287 164.732 39.697C164.17 40.1269 163.525 40.4199 162.843 40.5547C163.049 41.151 163.304 41.7276 163.604 42.2781C163.871 42.751 164.199 43.3121 163.97 43.8011C163.866 43.983 163.712 44.1274 163.528 44.2148C163.345 44.3021 163.14 44.3284 162.942 44.29C162.547 44.2037 162.173 44.0318 161.845 43.785L162.744 45.7489C161.891 45.9089 161.014 45.8567 160.184 45.5966C159.712 47.9612 159.384 52.3297 158.82 53.9329C157.213 53.981 156.817 53.8046 156.009 54.0932C154.965 54.4699 155.384 56.4258 154.013 55.8807C153.312 55.6082 152.215 52.8427 151.972 52.0973C150.372 47.1473 149.803 41.893 150.303 36.6911C149.315 35.6076 148.139 34.734 146.837 34.1181L146.944 34.2143C144.453 33.3406 141.611 32.4829 139.326 33.7334C137.513 34.7033 136.461 36.7152 135.113 38.3183C133.978 39.7827 132.561 40.9771 130.955 41.8227C129.348 42.6683 127.59 43.1459 125.796 43.2239C125.476 46.0454 125.423 50.6545 125.324 53.2836L123.13 48.0734C122.954 47.7688 122.81 47.4562 122.665 47.1516L122.619 47.0554C122.405 46.5459 122.166 46.0482 121.903 45.5645C121.629 45.8834 121.246 46.0748 120.839 46.0966C120.431 46.1184 120.031 45.9688 119.728 45.6807C119.425 45.3927 119.243 44.9897 119.223 44.5606C119.202 44.1314 119.344 43.7111 119.618 43.3923C119.831 43.0854 120.088 42.8151 120.38 42.5907C120.077 42.9065 119.702 43.1345 119.291 43.2525C118.879 43.3705 118.446 43.3745 118.033 43.264C117.623 43.1386 117.264 42.874 117.012 42.5116C116.76 42.1491 116.629 41.7091 116.639 41.2601C116.669 40.9574 116.774 40.6684 116.944 40.4222C117.114 40.1759 117.342 39.9811 117.607 39.8573C116.505 39.9619 115.399 39.7191 114.43 39.16C113.706 38.8233 113.089 38.2141 113.295 37.3885Z" fill="#263238"/>
<path d="M148.076 31.0168C148.386 31.2617 148.677 31.5313 148.946 31.8232C149.634 32.6627 150.099 33.6718 150.296 34.7519C150.453 35.502 150.535 36.2667 150.54 37.034C150.54 37.8479 150.495 38.7227 150.451 39.6508C150.393 40.6185 150.393 41.589 150.451 42.5567C150.485 43.0686 150.557 43.5772 150.665 44.0781C150.745 44.6191 150.958 45.1298 151.285 45.5614C151.436 45.7312 151.628 45.8575 151.842 45.9282C152.055 45.9988 152.282 46.0114 152.502 45.9646C152.916 45.8653 153.287 45.6273 153.557 45.2876C154.02 44.6157 154.297 43.8271 154.361 43.0055H154.184C154.451 43.6719 154.812 44.2946 155.253 44.854C155.678 45.3724 156.281 45.702 156.935 45.7744C157.24 45.8042 157.546 45.7462 157.82 45.6071C158.075 45.4684 158.283 45.2536 158.418 44.9909C158.54 44.7576 158.601 44.4953 158.595 44.2302C158.581 43.9754 158.482 43.7335 158.315 43.5456L158.226 43.6292C158.743 44.2274 159.377 44.7069 160.085 45.0365C160.272 45.1223 160.464 45.1959 160.661 45.2571L160.867 45.3104L160.675 45.2267C160.55 45.1735 160.358 45.0974 160.115 44.9757C159.415 44.6345 158.79 44.1506 158.278 43.5532L158.189 43.6368C158.333 43.8209 158.418 44.0467 158.431 44.2827C158.444 44.5186 158.385 44.753 158.263 44.9529C158.141 45.1871 157.953 45.3779 157.725 45.5006C157.475 45.6257 157.196 45.6758 156.92 45.6451C156.31 45.5711 155.75 45.2579 155.357 44.7703C154.944 44.2333 154.606 43.6392 154.353 43.0055L154.228 42.724L154.176 43.0283C154.118 43.8025 153.863 44.5474 153.439 45.1887C153.185 45.4875 152.843 45.6909 152.465 45.7668C152.279 45.8075 152.086 45.7973 151.904 45.7373C151.723 45.6772 151.56 45.5694 151.432 45.4245C151.131 45.02 150.933 44.5439 150.857 44.04C150.751 43.539 150.682 43.0304 150.65 42.5186C150.594 41.5585 150.594 40.5957 150.65 39.6356C150.694 38.7151 150.746 37.8327 150.724 37.0112C150.71 36.2428 150.618 35.478 150.451 34.7291C150.238 33.6311 149.744 32.6119 149.02 31.7775C148.75 31.4697 148.431 31.2124 148.076 31.0168Z" fill="#455A64"/>
<path d="M118.94 40.2065L119.012 40.2718L119.244 40.4435C119.37 40.5381 119.504 40.6228 119.643 40.6968C119.826 40.8099 120.016 40.9109 120.211 40.9992C121.468 41.5637 122.842 41.7996 124.21 41.6857C126.244 41.5233 128.188 40.7626 129.808 39.4954C131.771 37.9411 133.403 35.9945 134.606 33.7744C135.27 32.6139 135.814 31.4288 136.405 30.3255C136.948 29.2554 137.637 28.2701 138.453 27.3996C139.189 26.6015 140.111 26.0057 141.132 25.667C141.591 25.5314 142.069 25.4707 142.547 25.4872C142.987 25.5076 143.423 25.5873 143.843 25.7242C145.129 26.1591 146.208 27.0722 146.866 28.2823C147.084 28.7354 147.25 29.2125 147.361 29.7044C147.366 29.6719 147.366 29.6388 147.361 29.6063L147.313 29.3121C147.233 28.9415 147.109 28.5821 146.946 28.2414C146.674 27.7082 146.317 27.2249 145.89 26.8112C145.321 26.2581 144.642 25.8371 143.899 25.5771C143.464 25.4292 143.012 25.3413 142.555 25.3155C142.058 25.2958 141.562 25.3564 141.084 25.4953C140.037 25.8242 139.088 26.4172 138.325 27.2198C137.49 28.1003 136.784 29.0995 136.229 30.1866C135.622 31.2899 135.086 32.4831 134.43 33.6273C133.255 35.8383 131.656 37.7842 129.728 39.3483C128.14 40.6027 126.233 41.3657 124.234 41.5468C122.888 41.6707 121.533 41.4604 120.283 40.9338C119.822 40.7181 119.373 40.4752 118.94 40.2065Z" fill="#455A64"/>
<path d="M118.229 36.7242C118.323 36.8148 118.429 36.8911 118.543 36.9509C118.84 37.1344 119.15 37.2938 119.47 37.4277C119.954 37.6345 120.454 37.7967 120.965 37.9124C122.193 38.1976 123.463 38.2242 124.702 37.9905C125.211 37.8948 125.711 37.7536 126.197 37.5684C126.523 37.4483 126.841 37.3019 127.146 37.1307C127.262 37.0763 127.37 37.0052 127.467 36.9196C127.467 36.9196 126.974 37.1463 126.152 37.4277C125.663 37.5892 125.163 37.712 124.657 37.7951C123.434 38.0043 122.186 37.9778 120.972 37.7169C120.477 37.6087 119.989 37.4623 119.515 37.2792C118.715 36.9743 118.251 36.6929 118.229 36.7242Z" fill="#455A64"/>
<path d="M197.806 185.543C194.067 183.187 189.839 181.723 185.448 181.264C183.43 181.057 181.227 181.114 179.606 182.341C179.419 182.448 179.265 182.604 179.158 182.792C179.052 182.981 178.998 183.194 179.002 183.41C179.1 183.709 179.302 183.962 179.571 184.123C184.595 187.974 192.199 188.459 197.799 185.507" fill="#051BAF"/>
<path d="M197.493 185.193C194.631 183.085 191.961 180.727 189.513 178.147C187.069 175.551 185.353 172.353 184.538 168.877C184.325 167.821 184.254 166.609 184.936 165.768C191.332 170.76 196.306 177.178 197.521 185.207" fill="#051BAF"/>
<path d="M197.742 185.478C197.152 181.995 197.203 178.432 197.891 174.967C198.687 171.537 200.549 168.249 203.47 166.288C204.571 168.87 204.095 171.836 203.32 174.532C202.119 178.703 200.249 182.651 197.784 186.22" fill="#051BAF"/>
<path d="M203.953 196.71C200.165 197.173 196.846 199.177 194.046 201.745C191.198 204.336 189.213 207.745 188.361 211.507C192.071 211.279 195.226 208.655 197.507 205.702C199.788 202.75 201.373 199.527 203.903 196.767" fill="#051BAF"/>
<path d="M205.331 198.5C203.844 194.701 203.325 190.59 203.822 186.539C204.318 182.489 205.814 178.626 208.174 175.302C210.306 182.997 209.538 191.704 205.331 198.5Z" fill="#051BAF"/>
<path d="M213.567 208.348C210.107 208.133 206.66 208.943 203.655 210.679C200.65 212.415 198.22 214.999 196.669 218.111C196.462 218.531 196.278 219.066 196.555 219.437C196.702 219.579 196.88 219.683 197.076 219.74C197.272 219.797 197.478 219.806 197.678 219.765C201.011 219.551 203.96 217.54 206.397 215.251C208.835 212.962 210.952 210.316 213.646 208.334" fill="#051BAF"/>
<path d="M213.305 207.813C211.532 202.082 211.423 195.962 212.992 190.171C213.61 187.903 214.648 185.507 216.744 184.466C216.828 184.409 216.922 184.371 217.021 184.354C217.121 184.336 217.222 184.341 217.32 184.366C217.489 184.455 217.619 184.605 217.682 184.787C218.384 186.377 218.687 188.115 218.563 189.85C218.44 191.575 218.176 193.288 217.775 194.97C217.114 198.101 216.765 201.466 215.053 204.169C214.651 204.81 214.288 205.474 213.966 206.159C213.639 206.872 213.639 207.086 213.34 207.635" fill="#051BAF"/>
<path d="M235.114 211.072C233.501 204.904 235.213 197.43 239.086 192.374C239.371 192.003 239.747 191.604 240.216 191.661C240.927 191.725 241.112 192.681 241.083 193.401C240.789 199.744 238.721 205.876 235.114 211.094" fill="#051BAF"/>
<path d="M237.083 212.42C244.551 214.367 253.114 212.477 259.325 207.877C255.608 206.004 251.36 205.48 247.301 206.394C243.279 207.314 239.605 209.125 237.097 212.42" fill="#051BAF"/>
<path d="M238.774 208.298C242.959 201.459 250.975 196.988 258.963 196.582C258.039 199.841 255.374 202.379 252.361 203.905C249.348 205.431 245.965 206.102 242.668 206.758C241.382 207.007 239.612 207.286 238.774 208.305" fill="#051BAF"/>
<path d="M235.533 188.388C236.663 184.494 237.807 180.544 238.113 176.522C238.419 172.5 237.85 168.257 235.761 164.784C231.852 172.371 231.461 181.235 235.42 188.794" fill="#051BAF"/>
<path d="M248.687 181.713C253.256 173.384 262.573 166.738 272.003 165.796C268.364 174.889 258.444 181.913 248.687 181.713Z" fill="#051BAF"/>
<path d="M245.809 183.339C252.624 184.38 258.43 188.744 264.79 191.397C266.116 192.038 267.585 192.323 269.054 192.224C269.742 192.22 270.413 192.003 270.974 191.603C271.536 191.204 271.962 190.641 272.195 189.991C272.427 189.34 272.455 188.634 272.275 187.967C272.094 187.301 271.714 186.706 271.186 186.263C270.283 185.427 269.222 184.782 268.066 184.366C261.13 181.471 253.697 181.399 246.392 183.154" fill="#051BAF"/>
<path d="M241.865 188.145C243.407 188.587 243.933 189.393 245.155 190.434C249.321 193.988 254.248 196.528 259.553 197.858C260.1 197.994 260.825 198.051 261.095 197.551C261.365 197.052 261.031 196.589 260.725 196.204C258.411 193.482 255.409 191.437 252.034 190.285C248.708 189.044 245.83 187.546 241.865 187.867" fill="#051BAF"/>
<path d="M237.417 159.178C240.21 161.763 243.511 163.732 247.108 164.96C250.705 166.188 254.518 166.648 258.302 166.31C258.651 166.317 258.989 166.195 259.254 165.967C259.78 165.397 259.148 164.541 258.544 164.028C252.404 159.221 244.963 157.232 237.424 159.178" fill="#051BAF"/>
<path d="M242.696 157.246C246.395 154.517 250.684 152.704 255.214 151.954C259.744 151.204 264.386 151.539 268.762 152.932C265.479 156.176 260.945 157.923 256.34 158.401C251.76 158.82 247.142 158.429 242.696 157.246Z" fill="#051BAF"/>
<path d="M240.6 143.939C239.996 137.785 240.387 132.936 239.96 126.753C239.96 126.261 239.818 125.662 239.364 125.491C238.724 125.241 238.191 126.033 237.978 126.689C237.086 129.553 236.858 132.584 237.312 135.55C237.765 138.516 238.887 141.339 240.593 143.804" fill="#051BAF"/>
<path d="M240.159 144.617C244.317 142.035 247.429 138.669 250.314 134.711C252.318 131.959 254.01 128.657 253.555 125.277C250.712 125.22 248.062 126.782 246.228 128.928C244.479 131.155 243.208 133.721 242.497 136.466C241.687 139.176 241.119 141.957 240.159 144.61" fill="#051BAF"/>
<path d="M250.144 141.835C259.283 138.44 267.744 133.433 275.13 127.053C272.145 125.847 268.734 126.568 265.742 127.766C258.927 130.525 253.356 135.189 250.009 141.757" fill="#051BAF"/>
<path d="M242.959 147.983C247.571 148.489 252.254 148.817 256.831 148.054C261.407 147.291 265.579 145.508 269.786 143.732C270.153 143.628 270.467 143.389 270.667 143.062C270.734 142.867 270.74 142.656 270.684 142.457C270.628 142.258 270.513 142.081 270.354 141.95C270.032 141.693 269.655 141.515 269.253 141.429C264.683 140.145 259.751 140.716 255.253 142.271C250.971 143.737 246.853 145.649 242.966 147.975" fill="#051BAF"/>
<path d="M216.623 159.392C213.475 153.017 213.681 145.579 216.396 139.011C218.307 141.935 218.528 145.665 218.194 149.145C217.86 152.625 216.772 156.212 216.716 159.713" fill="#051BAF"/>
<path d="M204.052 153.031C200.112 152.98 196.204 153.753 192.578 155.303C188.953 156.852 185.689 159.144 182.996 162.031C186.919 162.651 190.955 161.632 194.523 159.892C198.09 158.152 201.259 155.691 204.4 153.26" fill="#051BAF"/>
<path d="M195.596 150.193C191.751 149.879 188.056 149.402 184.36 150.543C180.665 151.684 177.304 154.258 175.797 157.831C179.425 158.125 183.065 157.435 186.336 155.834C189.577 154.234 192.669 152.346 195.574 150.193" fill="#051BAF"/>
<path d="M208.11 150.322C204.649 148.047 201.103 145.729 197.074 144.788C193.044 143.847 188.383 144.545 185.576 147.59C188.837 149.509 192.789 149.73 196.569 149.73C200.35 149.73 204.983 149.687 208.543 150.949" fill="#051BAF"/>
<path d="M208.131 150.536C202.219 144.709 199.98 134.248 202.354 126.29C207.019 133.456 209.061 142.026 208.131 150.536Z" fill="#051BAF"/>
<path d="M224.39 133.998C225.506 131.395 226.288 128.664 227.29 126.019C228.203 123.332 229.605 120.839 231.426 118.666C233.284 116.484 235.924 115.124 238.774 114.88C237.865 118.893 236.131 122.672 233.684 125.976C231.236 129.279 228.129 132.033 224.561 134.063" fill="#051BAF"/>
<path d="M221.448 137.443C219.601 134.897 217.469 131.438 214.967 129.534C212.466 127.63 209.204 126.482 206.156 127.209C207.737 129.99 209.942 132.363 212.597 134.139C215.252 135.916 218.282 137.047 221.448 137.443Z" fill="#051BAF"/>
<path d="M222.038 134.212C220.83 131.132 219.608 128.015 219.125 124.735C218.642 121.455 218.933 117.96 220.603 115.101C223.85 121.255 224.867 127.866 222.209 134.284" fill="#051BAF"/>
<path d="M224.419 115.101C226.259 108.996 231.824 104.504 237.836 102.443C238.579 102.135 239.387 102.012 240.188 102.086C240.584 102.128 240.96 102.285 241.268 102.539C241.576 102.792 241.803 103.131 241.922 103.512C242.142 104.554 241.289 105.481 240.501 106.172C235.798 110.211 230.327 113.249 224.419 115.101Z" fill="#051BAF"/>
<path d="M224.483 110.109C224.717 106.172 224.959 102.186 226.238 98.4564C227.517 94.7268 229.969 91.2325 233.543 89.5995C234.154 93.5716 232.406 97.5294 230.296 100.945C228.185 104.361 225.648 107.591 224.383 111.407" fill="#051BAF"/>
<path d="M224.391 112.812C222.87 108.362 222.713 102.714 220.063 98.8415C218.208 96.1317 215.238 94.2847 213.667 91.418C212.704 94.1688 212.839 97.1867 214.044 99.8399C215.251 102.464 216.914 104.852 218.954 106.893C220.916 109.032 222.6 110.579 224.426 112.804" fill="#051BAF"/>
<path d="M224.419 243.783C224.298 243.783 224.199 214.117 224.192 177.527C224.184 140.937 224.27 111.264 224.391 111.264C224.511 111.264 224.611 140.923 224.618 177.527C224.625 214.131 224.561 243.783 224.419 243.783Z" fill="#051BAF"/>
<path d="M250.258 154.914C249.902 155.089 249.531 155.23 249.149 155.335L246.093 156.369C243.514 157.253 239.968 158.508 236.144 160.106C232.321 161.703 228.718 163.079 226.693 164.855C225.877 165.537 225.228 166.398 224.796 167.372C224.504 168.085 224.447 168.492 224.412 168.485C224.393 168.381 224.393 168.275 224.412 168.171C224.458 167.877 224.532 167.588 224.632 167.308C225.02 166.272 225.657 165.348 226.487 164.62C227.723 163.573 229.104 162.713 230.587 162.067C232.229 161.296 234.041 160.498 235.974 159.706C239.833 158.123 243.4 156.854 246.008 156.076C247.309 155.67 248.374 155.363 249.114 155.171C249.486 155.05 249.869 154.964 250.258 154.914Z" fill="#051BAF"/>
<path d="M258.721 134.041C258.631 134.166 258.526 134.278 258.409 134.376L257.463 135.268L253.91 138.498L242.121 149.031C237.516 153.138 233.543 157.068 230.786 160.027C229.408 161.503 228.32 162.73 227.581 163.593L226.721 164.577C226.629 164.699 226.521 164.809 226.402 164.905C226.471 164.769 226.557 164.642 226.657 164.527C226.835 164.292 227.098 163.935 227.453 163.493C228.164 162.602 229.209 161.354 230.566 159.842C234.125 155.941 237.887 152.233 241.837 148.731C246.456 144.631 250.656 140.944 253.711 138.291L257.343 135.168L258.345 134.334C258.457 134.22 258.584 134.122 258.721 134.041Z" fill="#051BAF"/>
<path d="M237.168 153.21C237.047 153.153 238.006 150.928 238.965 148.111C239.925 145.294 240.387 142.919 240.508 142.941C240.628 142.962 240.344 145.401 239.371 148.254C238.963 149.468 238.488 150.658 237.949 151.819C237.757 152.318 237.493 152.786 237.168 153.21Z" fill="#051BAF"/>
<path d="M224.447 171.166C224.183 170.915 223.945 170.638 223.737 170.339L221.917 168C220.39 166.017 218.279 163.286 215.92 160.298C213.56 157.31 211.379 154.593 209.808 152.689L207.954 150.386C207.711 150.116 207.497 149.822 207.314 149.509C207.595 149.738 207.853 149.996 208.081 150.279C208.558 150.792 209.226 151.548 210.043 152.497C211.677 154.386 213.887 157.046 216.261 160.034C218.634 163.022 220.702 165.789 222.166 167.822C222.877 168.834 223.481 169.661 223.872 170.239C224.095 170.527 224.288 170.838 224.447 171.166Z" fill="#051BAF"/>
<path d="M218.784 163.871C217.641 162.603 216.826 161.072 216.41 159.414C215.964 157.961 215.781 156.439 215.87 154.921H216.062C215.977 155.264 215.913 155.449 215.884 155.442C215.856 155.435 215.884 155.242 215.884 154.893H216.076C216.171 156.373 216.426 157.839 216.836 159.264C217.583 161.945 218.876 163.8 218.784 163.871Z" fill="#051BAF"/>
<path d="M211.464 154.636C210.954 154.247 210.398 153.923 209.808 153.673C208.318 153.23 206.751 153.106 205.21 153.31C203.648 153.431 202.098 153.681 200.577 154.058C199.954 154.255 199.317 154.407 198.673 154.515C199.241 154.175 199.856 153.923 200.499 153.766C202.022 153.295 203.593 152.999 205.182 152.882C206.782 152.667 208.411 152.843 209.929 153.395C210.568 153.619 211.11 154.057 211.464 154.636Z" fill="#051BAF"/>
<path d="M209.73 152.397C209.73 152.461 208.764 152.012 207.193 151.47C203.081 150.059 198.679 149.723 194.402 150.493C192.767 150.785 191.772 151.092 191.751 151.02C191.96 150.891 192.188 150.795 192.426 150.735C193.054 150.514 193.695 150.333 194.345 150.193C198.667 149.243 203.171 149.587 207.3 151.184C207.92 151.422 208.526 151.698 209.112 152.012C209.336 152.108 209.544 152.238 209.73 152.397Z" fill="#051BAF"/>
<path d="M224.38 142.93C224.494 142.901 223.85 139.965 222.943 136.373C222.035 132.781 221.206 129.892 221.092 129.921C220.978 129.95 221.621 132.886 222.529 136.478C223.437 140.07 224.266 142.959 224.38 142.93Z" fill="#051BAF"/>
<path d="M224.504 142.941C224.376 142.984 223.843 141.051 222.45 139.076C221.582 137.906 220.567 136.854 219.43 135.945C219.86 136.053 220.26 136.261 220.596 136.551C221.453 137.179 222.198 137.948 222.799 138.826C223.719 140.022 224.308 141.442 224.504 142.941Z" fill="#051BAF"/>
<path d="M224.419 227.966C224.376 227.966 224.284 227.253 223.95 225.991C223.46 224.218 222.799 222.499 221.974 220.856C219.935 216.67 216.218 211.357 211.492 206.038C209.155 203.356 206.88 200.825 204.955 198.4C203.225 196.268 201.662 194.005 200.279 191.633C199.352 190.039 198.563 188.369 197.919 186.641C197.699 186.02 197.543 185.535 197.457 185.214C197.399 185.048 197.358 184.876 197.337 184.701C197.372 184.701 197.592 185.414 198.047 186.591C198.745 188.293 199.569 189.94 200.513 191.518C201.924 193.854 203.501 196.085 205.232 198.193C207.165 200.589 209.439 203.107 211.784 205.795C216.517 211.129 220.226 216.492 222.216 220.771C223.023 222.44 223.648 224.193 224.078 225.998C224.191 226.49 224.279 226.987 224.341 227.488C224.383 227.644 224.409 227.804 224.419 227.966Z" fill="#051BAF"/>
<path d="M247.763 201.509C247.372 201.774 246.964 202.012 246.541 202.222C245.433 202.859 244.371 203.573 243.364 204.362C241.88 205.524 240.488 206.799 239.2 208.177C237.736 209.724 236.23 211.529 234.695 213.461C231.618 217.333 228.747 220.756 227.02 223.495C226.146 224.85 225.513 225.998 225.094 226.796C224.897 227.222 224.671 227.634 224.419 228.03C224.439 227.909 224.477 227.791 224.533 227.681C224.625 227.46 224.746 227.132 224.945 226.718C225.479 225.533 226.087 224.383 226.764 223.274C228.434 220.471 231.291 216.998 234.361 213.133C235.903 211.201 237.424 209.396 238.916 207.849C240.229 206.469 241.655 205.202 243.18 204.062C244.212 203.299 245.308 202.626 246.456 202.051C246.861 201.844 247.166 201.723 247.408 201.63C247.519 201.571 247.639 201.53 247.763 201.509Z" fill="#051BAF"/>
<path d="M248.218 210.095C247.366 210.285 246.502 210.411 245.631 210.473C243.554 210.688 241.502 211.094 239.499 211.685C237.518 212.333 235.661 213.312 234.005 214.581C232.74 215.565 232.144 216.378 232.087 216.328C232.178 216.107 232.308 215.904 232.47 215.729C232.874 215.224 233.326 214.761 233.821 214.345C235.458 212.976 237.342 211.935 239.371 211.279C241.399 210.673 243.49 210.302 245.603 210.174C246.47 210.067 247.346 210.041 248.218 210.095Z" fill="#051BAF"/>
<path d="M232.84 215.379C232.705 215.301 233.87 213.518 234.773 211.101C235.675 208.683 235.817 206.551 235.974 206.572C236.042 207.047 236.028 207.529 235.931 207.999C235.804 209.117 235.551 210.217 235.178 211.279C234.786 212.333 234.283 213.341 233.678 214.288C233.461 214.696 233.177 215.065 232.84 215.379Z" fill="#051BAF"/>
<path d="M255.324 178.461C255.196 178.551 255.058 178.625 254.912 178.682L253.697 179.239C253.164 179.467 252.517 179.759 251.792 180.144C251.068 180.529 250.208 180.914 249.319 181.449L247.898 182.255C247.408 182.54 246.925 182.875 246.413 183.196C245.375 183.831 244.331 184.623 243.222 185.407C238.473 188.968 234.33 193.279 230.957 198.172C230.203 199.313 229.464 200.39 228.867 201.452C228.562 201.98 228.242 202.479 227.979 202.978L227.226 204.405C226.721 205.31 226.366 206.18 226.011 206.929C225.655 207.678 225.385 208.355 225.172 208.869L224.66 210.11C224.609 210.258 224.54 210.399 224.454 210.53C224.479 210.376 224.521 210.225 224.582 210.081L225.016 208.812C225.201 208.255 225.449 207.592 225.79 206.836C226.131 206.08 226.465 205.196 226.956 204.276L227.666 202.814C227.922 202.308 228.235 201.802 228.54 201.267C229.123 200.19 229.862 199.128 230.616 197.944C233.992 192.992 238.183 188.651 243.009 185.108C244.139 184.316 245.191 183.539 246.249 182.918C246.775 182.597 247.266 182.269 247.763 181.991L249.184 181.207C250.087 180.686 250.954 180.315 251.7 179.952C252.446 179.588 253.121 179.317 253.647 179.11L254.898 178.632C255.033 178.558 255.176 178.501 255.324 178.461Z" fill="#051BAF"/>
<path d="M236.848 190.884C237.02 190.283 237.375 189.752 237.864 189.365C239.001 188.372 240.451 187.814 241.957 187.789C243.434 187.781 244.898 188.067 246.264 188.63C246.842 188.812 247.391 189.079 247.891 189.422C247.302 189.305 246.724 189.136 246.164 188.916C244.815 188.449 243.399 188.208 241.972 188.202C240.556 188.233 239.187 188.715 238.063 189.579C237.627 189.983 237.22 190.419 236.848 190.884Z" fill="#051BAF"/>
<path d="M234.083 193.743C233.963 193.679 235.007 192.146 235.249 189.95C235.49 187.753 234.858 186.027 234.986 185.985C235.234 186.308 235.4 186.688 235.469 187.09C235.975 189.007 235.739 191.045 234.808 192.795C234.446 193.437 234.126 193.772 234.083 193.743Z" fill="#051BAF"/>
<path d="M204.002 232.223C204.642 243.562 208.046 255.093 213.283 266.752H236.024C240.998 255.207 244.189 243.697 244.75 232.223H204.002Z" fill="#274DED"/>
<path d="M224.341 250.779C233.587 250.779 241.083 250.683 241.083 250.565C241.083 250.446 233.587 250.351 224.341 250.351C215.094 250.351 207.598 250.446 207.598 250.565C207.598 250.683 215.094 250.779 224.341 250.779Z" fill="white"/>
<path d="M224.874 254.886C233.543 254.886 240.572 254.79 240.572 254.672C240.572 254.554 233.543 254.458 224.874 254.458C216.204 254.458 209.176 254.554 209.176 254.672C209.176 254.79 216.204 254.886 224.874 254.886Z" fill="white"/>
<path d="M213.646 250.187C213.764 250.187 213.859 247.831 213.859 244.924C213.859 242.017 213.764 239.661 213.646 239.661C213.528 239.661 213.433 242.017 213.433 244.924C213.433 247.831 213.528 250.187 213.646 250.187Z" fill="white"/>
<path d="M225.847 250.558C225.965 250.558 226.06 248.118 226.06 245.109C226.06 242.1 225.965 239.661 225.847 239.661C225.729 239.661 225.634 242.1 225.634 245.109C225.634 248.118 225.729 250.558 225.847 250.558Z" fill="white"/>
<path d="M237.296 250.693C237.413 250.693 237.509 248.203 237.509 245.131C237.509 242.059 237.413 239.568 237.296 239.568C237.178 239.568 237.083 242.059 237.083 245.131C237.083 248.203 237.178 250.693 237.296 250.693Z" fill="white"/>
<path d="M224.412 239.875C235.26 239.875 244.054 239.779 244.054 239.661C244.054 239.543 235.26 239.447 224.412 239.447C213.564 239.447 204.77 239.543 204.77 239.661C204.77 239.779 213.564 239.875 224.412 239.875Z" fill="white"/>
<path d="M129.542 54.2528C129.538 54.5942 129.666 54.9238 129.901 55.1715C130.135 55.4193 130.456 55.5655 130.796 55.5792C130.962 55.5926 131.128 55.5725 131.286 55.5204C131.444 55.4682 131.59 55.3848 131.715 55.2753C131.84 55.1658 131.942 55.0322 132.015 54.8825C132.088 54.7328 132.131 54.5699 132.141 54.4035C132.145 54.062 132.016 53.7324 131.782 53.4847C131.548 53.237 131.226 53.0907 130.886 53.077C130.721 53.0637 130.554 53.0837 130.396 53.1359C130.238 53.1881 130.093 53.2714 129.967 53.3809C129.842 53.4905 129.74 53.624 129.667 53.7737C129.594 53.9234 129.551 54.0863 129.542 54.2528Z" fill="#263238"/>
<path d="M126.703 49.8814C126.861 50.0547 127.852 49.3236 129.257 49.3312C130.661 49.3387 131.683 50.0472 131.84 49.8738C131.998 49.7005 131.75 49.4894 131.307 49.1578C130.701 48.7355 129.979 48.5117 129.242 48.5172C128.511 48.5128 127.798 48.7425 127.206 49.1729C126.786 49.497 126.635 49.806 126.703 49.8814Z" fill="#263238"/>
<path d="M141.303 54.2528C141.301 54.593 141.431 54.9207 141.665 55.1668C141.899 55.4129 142.219 55.5581 142.558 55.5718C142.723 55.5851 142.89 55.5651 143.048 55.5129C143.206 55.4607 143.351 55.3774 143.477 55.2678C143.602 55.1583 143.704 55.0248 143.777 54.875C143.85 54.7253 143.893 54.5625 143.902 54.396C143.906 54.0546 143.778 53.7249 143.543 53.4772C143.309 53.2295 142.988 53.0832 142.648 53.0695C142.482 53.0562 142.315 53.0765 142.156 53.1291C141.998 53.1818 141.852 53.2658 141.727 53.3761C141.601 53.4864 141.499 53.6209 141.426 53.7714C141.354 53.922 141.312 54.0857 141.303 54.2528Z" fill="#263238"/>
<path d="M140.034 49.8814C140.199 50.0547 141.183 49.3237 142.588 49.3312C143.992 49.3387 145.014 50.0472 145.171 49.8739C145.329 49.7005 145.081 49.4895 144.638 49.1579C144.033 48.7329 143.311 48.5064 142.573 48.5097C141.842 48.5058 141.129 48.7355 140.537 49.1654C140.109 49.497 139.959 49.806 140.034 49.8814Z" fill="#263238"/>
<path d="M135.655 60.938C134.924 60.7072 134.167 60.568 133.402 60.5234C133.042 60.4857 132.704 60.4104 132.651 60.1692C132.622 59.7987 132.705 59.4279 132.892 59.1065L133.958 56.3706C135.46 52.4741 136.512 49.2785 136.354 49.2182C136.196 49.1579 134.852 52.2329 133.387 56.1596L132.366 58.9105C132.14 59.3436 132.074 59.8426 132.178 60.3199C132.23 60.4466 132.309 60.5599 132.411 60.6513C132.512 60.7427 132.633 60.8098 132.764 60.8475C132.962 60.901 133.167 60.9288 133.372 60.9304C134.13 61.029 134.897 61.0315 135.655 60.938Z" fill="#263238"/>
<path d="M140.477 44.794C140.613 45.1784 141.979 44.9975 143.662 45.201C145.344 45.4045 146.666 45.8567 146.854 45.5176C146.951 45.3518 146.719 44.99 146.185 44.6207C145.47 44.1648 144.661 43.8783 143.819 43.783C142.977 43.6877 142.125 43.786 141.326 44.0705C140.725 44.3117 140.417 44.6131 140.477 44.794Z" fill="#263238"/>
<path d="M127.176 45.5778C127.424 45.8944 128.393 45.5778 129.549 45.5778C130.706 45.5778 131.698 45.7964 131.923 45.4648C132.02 45.299 131.87 44.9824 131.442 44.7111C130.865 44.3482 130.194 44.1652 129.514 44.1853C128.833 44.2055 128.174 44.4278 127.619 44.8242C127.199 45.0653 127.064 45.4196 127.176 45.5778Z" fill="#263238"/>
<path d="M89.856 238.016L85.3271 267.546H90.5019L99.2292 238.016H89.856Z" fill="#263238"/>
<path d="M202.192 238.016L206.713 267.546H201.546L192.811 238.016H202.192Z" fill="#263238"/>
<path d="M66.3404 159.693C66.8135 173.531 67.6848 231.791 79.6942 242.975H89.4579C93.3484 242.975 93.1381 241.129 92.9879 237.232L90.1489 160.982C90.0945 159.515 89.5674 158.106 88.6468 156.965C86.6865 154.538 82.751 150.785 77.3809 151.147C74.4658 151.291 71.6453 152.231 69.2244 153.867C68.2958 154.518 67.545 155.393 67.041 156.411C66.5371 157.429 66.2961 158.557 66.3404 159.693Z" fill="#AEC2FC"/>
<path d="M201.516 243.827L89.4504 242.975V208.238H201.516V243.827Z" fill="#AEC2FC"/>
<path d="M201.065 208.238L88.8044 209.165V188.318L201.516 186.2L201.065 208.238Z" fill="#AEC2FC"/>
<path d="M68.4583 155.789C68.4583 155.789 69.2919 126.863 101.017 125.37C132.741 123.878 179.825 125.37 179.825 125.37C179.825 125.37 219.684 123.863 220.6 149.066L212.684 197.362H89.6306L68.4583 155.789Z" fill="#AEC2FC"/>
<path d="M225.317 162.768C224.476 182.711 222.643 241.189 208.794 243.835H198.549L201.726 158.404C201.726 158.404 206.488 150.069 214.434 150.604H214.674C217.672 150.856 220.455 152.264 222.44 154.533C224.424 156.801 225.456 159.753 225.317 162.768Z" fill="#AEC2FC"/>
<path d="M219.654 151.817L219.286 151.727L218.212 151.433L217.461 151.214L216.492 151.071C216.139 151.026 215.741 150.95 215.358 150.913H214.059C211.837 150.932 209.652 151.48 207.682 152.511L207.246 152.729L206.826 152.993L205.97 153.536C205.396 153.948 204.844 154.391 204.317 154.862C203.166 155.881 202.156 157.049 201.313 158.337V158.276L199.811 190.353C199.15 205.08 198.684 218.42 198.414 228.037L198.129 239.471L198.053 242.583V243.39C198.053 243.571 198.053 243.669 198.053 243.669C198.053 243.669 198.053 243.578 198.053 243.39C198.053 243.202 198.053 242.923 198.053 242.583C198.053 241.83 198.053 240.812 198.053 239.471C198.053 236.773 198.136 232.861 198.241 228.03C198.452 218.368 198.887 205.027 199.548 190.3C200.089 178.204 200.652 167.049 201.11 158.231C201.106 158.214 201.106 158.196 201.11 158.178C201.965 156.876 202.991 155.694 204.16 154.666C204.696 154.192 205.258 153.746 205.842 153.332L206.713 152.789L207.141 152.526L207.584 152.307C209.585 151.277 211.802 150.742 214.051 150.747L215.358 150.785C215.763 150.83 216.109 150.913 216.492 150.966L217.468 151.131L218.219 151.365L219.286 151.697L219.654 151.817Z" fill="#263238"/>
<path d="M68.4583 154.855L68.7887 154.734L69.7801 154.41L70.5312 154.176C70.8016 154.093 71.1095 154.048 71.4324 153.973L72.4839 153.747C72.8595 153.656 73.235 153.649 73.7006 153.588C75.7884 153.325 77.907 153.466 79.9419 154.003C82.6341 154.692 85.0832 156.116 87.0169 158.118C87.025 158.14 87.025 158.164 87.0169 158.186C87.4675 166.861 87.9707 177.985 88.3763 190.089C88.8645 204.409 89.1274 217.388 89.2776 226.779L89.4053 237.896C89.4053 239.2 89.4053 240.209 89.4053 240.91V241.664C89.4053 241.845 89.4053 241.935 89.4053 241.935C89.4053 241.935 89.4053 241.845 89.4053 241.672V240.918L89.3377 237.903L89.1124 226.786C88.9171 217.395 88.6091 204.432 88.121 190.104C87.7079 178 87.2347 166.876 86.8216 158.201V158.276C84.9212 156.298 82.5152 154.882 79.8668 154.184C77.8542 153.638 75.7569 153.48 73.6856 153.717C73.2575 153.769 72.8519 153.777 72.4764 153.86L71.4249 154.071C71.102 154.139 70.794 154.184 70.5237 154.259L69.7726 154.478L68.7737 154.764L68.4583 154.855Z" fill="#263238"/>
<path d="M89.6306 209.075H90.1864H91.8312H98.1401L121.355 209.135C140.958 209.21 168.034 209.421 197.963 208.992H199.202L199.045 209.143L199.36 198.591L199.518 193.428L199.593 190.881C199.593 190.466 199.631 190.022 199.593 189.622C199.574 189.221 199.463 188.829 199.27 188.477C199.07 188.121 198.797 187.811 198.47 187.568C198.143 187.325 197.768 187.155 197.37 187.067C196.956 186.997 196.535 186.974 196.116 186.999H194.831H189.747L179.9 187.067L145.87 187.421C136.189 187.519 128.363 187.565 122.955 187.565H116.729H115.107H114.558H115.107H116.729L122.955 187.519L145.87 187.278L179.9 186.856L189.747 186.781H194.831H196.116C196.558 186.755 197.001 186.781 197.437 186.856C197.868 186.933 198.278 187.098 198.642 187.341C199.006 187.583 199.317 187.898 199.555 188.265C199.77 188.655 199.893 189.088 199.916 189.532C199.916 189.976 199.916 190.383 199.916 190.813L199.841 193.36L199.691 198.523L199.375 209.075C199.373 209.115 199.356 209.154 199.326 209.182C199.297 209.21 199.258 209.225 199.218 209.225H197.978C168.071 209.655 140.988 209.414 121.37 209.278L98.1626 209.158L91.8537 209.112H90.2089L89.6306 209.075Z" fill="#263238"/>
<g opacity="0.2">
<path d="M88.812 209.165C114.536 214.758 126.778 214.335 150.692 214.75C172.157 215.119 195.755 211.238 199.18 208.932L88.812 209.165Z" fill="black"/>
</g>
<path d="M102.744 117.057C102.654 116.56 104.682 103.785 108.422 94.9819C109.789 91.7562 110.788 89.5102 112.177 88.1234C113.545 86.8019 115.121 85.717 116.841 84.9127L134.476 80.9182C134.476 80.9182 133.26 87.1662 144.803 86.4126C153.403 85.8548 154.883 79.5691 154.883 79.5691C154.883 79.5691 171.924 81.491 176.055 85.2896C180.186 89.0881 184.166 111.224 184.166 111.224L168.131 115.912L166.224 139.351L171.549 150.996C171.549 150.996 155.528 163.1 144.51 162.527C133.492 161.954 114.318 155.548 114.318 155.548L121.348 140.693L116.841 118.61L102.744 117.057Z" fill="#274DED"/>
<path d="M112.433 99.4286C112.522 99.673 112.587 99.9253 112.628 100.182L113.056 102.338C113.417 104.162 113.935 106.671 114.558 109.43C115.182 112.188 115.843 114.706 116.323 116.469L116.887 118.595C116.968 118.84 117.026 119.092 117.059 119.348C116.94 119.107 116.844 118.855 116.774 118.595C116.609 118.105 116.376 117.389 116.113 116.492C115.58 114.713 114.896 112.234 114.258 109.468C113.619 106.702 113.131 104.192 112.823 102.345C112.673 101.426 112.553 100.687 112.493 100.167C112.451 99.9233 112.43 99.6761 112.433 99.4286Z" fill="#263238"/>
<path d="M169.356 95.4567C169.679 95.4115 169.521 100.205 169.145 106.008C168.958 108.933 168.755 111.571 168.59 113.485L168.379 115.746C168.366 116.026 168.326 116.303 168.259 116.575C168.232 116.297 168.232 116.017 168.259 115.738L168.372 113.477L168.837 106.001L169.288 98.5242C169.397 97.5055 169.42 96.4793 169.356 95.4567Z" fill="#263238"/>
<path d="M156.309 138.522C156.014 138.697 155.705 138.848 155.386 138.974C155.085 139.11 154.71 139.276 154.274 139.442C153.839 139.608 153.343 139.819 152.772 139.999C151.459 140.452 150.123 140.835 148.769 141.145C145.45 141.908 142.048 142.245 138.645 142.147C137.258 142.108 135.874 141.995 134.499 141.808C133.913 141.74 133.387 141.635 132.922 141.56C132.456 141.484 132.065 141.401 131.742 141.318C131.406 141.259 131.074 141.173 130.751 141.062C131.092 141.083 131.431 141.131 131.765 141.205C132.088 141.266 132.516 141.333 132.952 141.394C133.387 141.454 133.943 141.544 134.529 141.597C135.7 141.733 137.097 141.831 138.652 141.869C142.032 141.933 145.407 141.599 148.709 140.874C150.211 140.535 151.585 140.165 152.704 139.796C153.268 139.63 153.771 139.442 154.207 139.283C154.642 139.125 155.025 138.989 155.333 138.869C155.649 138.728 155.975 138.612 156.309 138.522Z" fill="#263238"/>
<path d="M148.994 85.3196L150.985 109.664C151.022 110.061 150.901 110.458 150.648 110.766C150.394 111.074 150.029 111.268 149.633 111.307L134.664 112.897C134.467 112.92 134.267 112.903 134.076 112.848C133.885 112.793 133.706 112.7 133.551 112.576C133.396 112.451 133.267 112.296 133.172 112.121C133.077 111.946 133.017 111.754 132.997 111.555L130.068 86.126C130.041 85.9166 130.059 85.704 130.12 85.5019C130.181 85.2998 130.283 85.1128 130.42 84.9529C130.558 84.7931 130.727 84.6639 130.917 84.5739C131.108 84.4838 131.314 84.4349 131.525 84.4302L147.432 83.9177C147.823 83.9011 148.205 84.0383 148.497 84.3001C148.789 84.5619 148.967 84.9277 148.994 85.3196Z" fill="#263238"/>
<path d="M142.16 98.283C142.565 98.283 151.428 99.8958 151.428 99.8958L163.017 106.558L169.25 115.979L163.167 127.375L160.05 118.173C158.239 118.251 156.426 118.214 154.62 118.06C151.916 117.803 143.354 117.14 143.354 117.14L138.938 114.683C138.938 114.683 137.526 112.362 137.526 111.714C137.516 111.528 137.557 111.344 137.645 111.18C137.733 111.017 137.864 110.881 138.024 110.787C138.184 110.694 138.367 110.646 138.552 110.65C138.737 110.654 138.917 110.709 139.073 110.809C139.974 111.329 146.148 111.457 147.695 110.809C147.695 110.809 138.682 110.153 137.526 108.676C136.369 107.199 136.775 106.031 138.172 106.031C139.569 106.031 144.736 106.785 146.276 106.679C147.815 106.573 149.753 106.551 150.136 105.775C150.519 104.998 149.385 104.358 149.385 104.358L147.71 103.069C147.71 103.069 141.146 101.908 140.763 100.484C140.678 100.247 140.649 99.9933 140.676 99.743C140.704 99.4927 140.789 99.2522 140.924 99.0398C141.059 98.8274 141.24 98.6487 141.454 98.5175C141.669 98.3864 141.91 98.3061 142.16 98.283Z" fill="#FFBF9D"/>
<path d="M139.148 97.8233C139.148 97.8233 131.637 99.0518 131.149 99.5266C130.661 100.001 121.198 111.653 121.198 111.653L126.034 121.188L134.514 116.575C135.38 116.19 136.283 115.897 137.21 115.701C137.21 115.701 145.765 114.352 146.32 113.319C146.876 112.287 146.561 112.045 145.922 111.887C145.284 111.729 140.169 112.317 139.028 112.528C137.894 112.641 136.752 112.641 135.618 112.528C135.618 112.528 139.17 111.699 139.974 111.412C140.778 111.126 148.739 109.347 148.611 107.915C148.483 106.483 147.492 105.963 142.513 107.32C139.778 108.106 136.959 108.562 134.116 108.676L145.126 104.818C145.126 104.818 149.565 103.386 148.13 102.112C146.696 100.838 137.218 103.468 137.218 103.468L133.019 105.059L134.206 102.511C134.206 102.511 140.177 100.733 140.965 100.137C141.912 99.3835 142.047 98.7051 141.333 98.0946C140.62 97.4842 139.148 97.8233 139.148 97.8233Z" fill="#FFBF9D"/>
<path d="M103.578 117.148L116.413 118.467L118.216 116.13L121.22 111.653L126.034 121.188C126.034 121.188 124.285 126.855 123.338 129.991C120.815 138.379 116.706 147.762 111.659 147.325C105.606 146.76 101.144 139.555 101.28 134.89C101.37 130.616 103.578 117.148 103.578 117.148Z" fill="#FFBF9D"/>
<path d="M182.732 111.744L172.052 114.465L168.762 115.158L165.758 110.681L160.929 120.223C160.929 120.223 162.679 125.891 163.625 129.026C166.149 137.414 170.257 146.798 175.304 146.361C181.357 145.795 185.819 138.59 185.684 133.925C185.639 129.666 182.732 111.744 182.732 111.744Z" fill="#FFBF9D"/>
<path d="M121.198 111.653C121.198 111.653 121.28 111.533 121.453 111.314L122.204 110.342L125.208 106.626L129.962 100.785L130.713 99.9261L131.089 99.4889C131.258 99.3632 131.449 99.2711 131.652 99.2176C132.403 98.9915 133.199 98.8257 134.011 98.6524C135.633 98.3207 137.36 98.0117 139.17 97.7102C139.628 97.6049 140.101 97.5819 140.567 97.6424C140.814 97.6748 141.051 97.7568 141.266 97.8836C141.483 98.0217 141.663 98.2105 141.792 98.4338C141.855 98.5474 141.895 98.6727 141.909 98.8022C141.923 98.9317 141.911 99.0627 141.874 99.1875C141.783 99.4318 141.639 99.653 141.454 99.8356C141.28 100.024 141.08 100.187 140.86 100.318C140.638 100.435 140.41 100.541 140.177 100.635C138.322 101.388 136.339 101.976 134.281 102.602L134.364 102.526L133.177 105.074L133.004 104.885L137.203 103.295C139.005 102.813 140.853 102.368 142.775 102.021C143.744 101.837 144.722 101.704 145.705 101.622C146.204 101.58 146.707 101.58 147.207 101.622C147.465 101.643 147.718 101.704 147.958 101.803C148.095 101.86 148.219 101.946 148.32 102.055C148.421 102.164 148.497 102.294 148.544 102.436C148.572 102.584 148.564 102.738 148.519 102.883C148.475 103.027 148.395 103.158 148.288 103.265C148.108 103.461 147.903 103.633 147.68 103.777C147.242 104.069 146.78 104.322 146.298 104.531C145.337 104.938 144.353 105.232 143.376 105.594L137.413 107.681L134.176 108.812L134.123 108.511C136.752 108.391 139.361 107.989 141.904 107.312C143.139 106.96 144.393 106.678 145.659 106.468C146.3 106.353 146.956 106.353 147.597 106.468C147.942 106.531 148.252 106.719 148.468 106.996C148.659 107.284 148.761 107.622 148.761 107.968C148.747 108.158 148.661 108.336 148.521 108.465C148.408 108.585 148.282 108.691 148.145 108.782C147.885 108.957 147.612 109.111 147.327 109.242C146.771 109.498 146.202 109.724 145.622 109.92C144.48 110.319 143.369 110.674 142.212 110.952L140.537 111.397C139.996 111.54 139.441 111.736 138.892 111.864C137.796 112.151 136.722 112.407 135.663 112.618V112.354C136.899 112.5 138.149 112.482 139.381 112.302C140.597 112.128 141.792 111.993 142.956 111.88C143.534 111.827 144.112 111.774 144.683 111.736C144.968 111.736 145.254 111.736 145.539 111.736C145.687 111.724 145.835 111.724 145.982 111.736C146.128 111.77 146.269 111.821 146.403 111.887C146.479 111.923 146.548 111.974 146.603 112.038C146.659 112.101 146.701 112.176 146.726 112.256C146.768 112.409 146.768 112.571 146.726 112.724C146.688 112.861 146.637 112.995 146.576 113.123L146.486 113.312C146.447 113.383 146.396 113.447 146.335 113.5C145.876 113.804 145.368 114.029 144.833 114.163C142.956 114.693 141.05 115.119 139.125 115.437L137.818 115.663C137.403 115.722 136.991 115.807 136.587 115.919C135.825 116.091 135.088 116.359 134.394 116.718L128.205 120.049L126.583 120.909L126.162 121.127L126.019 121.195L126.154 121.112L126.56 120.879L128.205 119.982L134.296 116.628C135.806 115.927 137.419 115.479 139.073 115.301C140.985 114.973 142.878 114.54 144.743 114.005C145.239 113.872 145.711 113.661 146.14 113.379C146.183 113.346 146.218 113.305 146.245 113.259L146.335 113.085C146.391 112.969 146.436 112.848 146.471 112.724C146.546 112.475 146.471 112.256 146.275 112.151C146.158 112.094 146.034 112.051 145.907 112.023C145.777 112.013 145.647 112.013 145.517 112.023C145.239 112.023 144.961 112.023 144.676 112.023C144.112 112.023 143.534 112.113 142.956 112.173C141.799 112.294 140.605 112.43 139.396 112.603C138.152 112.787 136.889 112.807 135.64 112.663C135.611 112.656 135.585 112.639 135.566 112.615C135.547 112.591 135.537 112.562 135.537 112.531C135.537 112.501 135.547 112.471 135.566 112.447C135.585 112.424 135.611 112.407 135.64 112.4C136.692 112.151 137.773 111.887 138.862 111.608C139.411 111.48 139.936 111.292 140.5 111.141L142.175 110.689C143.301 110.38 144.428 110.056 145.562 109.656C146.132 109.462 146.691 109.239 147.237 108.985C147.498 108.859 147.749 108.713 147.988 108.548C148.213 108.39 148.483 108.171 148.483 107.968C148.472 107.7 148.389 107.439 148.243 107.214C148.069 106.995 147.82 106.847 147.545 106.8C146.941 106.693 146.323 106.693 145.72 106.8C144.453 107.009 143.199 107.291 141.964 107.644C139.397 108.33 136.763 108.737 134.108 108.857C134.072 108.859 134.036 108.847 134.008 108.824C133.98 108.801 133.961 108.769 133.954 108.733C133.948 108.697 133.955 108.66 133.973 108.629C133.992 108.598 134.021 108.575 134.056 108.563L137.293 107.425L143.264 105.338C144.24 104.983 145.231 104.682 146.163 104.29C146.625 104.098 147.07 103.866 147.492 103.597C147.693 103.467 147.877 103.312 148.04 103.137C148.115 103.068 148.172 102.982 148.206 102.886C148.24 102.79 148.25 102.687 148.236 102.587C148.115 102.187 147.612 102.029 147.139 101.991C146.652 101.95 146.162 101.95 145.674 101.991C144.702 102.071 143.734 102.202 142.775 102.383C140.868 102.73 139.02 103.137 137.225 103.649L133.027 105.232C133.001 105.243 132.972 105.246 132.945 105.24C132.918 105.234 132.893 105.22 132.874 105.199C132.855 105.179 132.843 105.152 132.839 105.125C132.836 105.097 132.841 105.068 132.854 105.044L134.048 102.504C134.056 102.486 134.067 102.47 134.081 102.457C134.096 102.444 134.112 102.434 134.131 102.428C136.181 101.81 138.164 101.2 140.004 100.484C140.229 100.393 140.455 100.295 140.665 100.182C140.865 100.063 141.047 99.9162 141.206 99.7452C141.379 99.6177 141.504 99.4348 141.56 99.2266C141.616 99.0184 141.6 98.7973 141.514 98.5996C141.405 98.4131 141.253 98.2552 141.072 98.1386C140.89 98.022 140.684 97.9502 140.47 97.9288C140.034 97.8696 139.592 97.8874 139.163 97.9816C137.353 98.2755 135.633 98.577 134.011 98.9011C133.199 99.0669 132.411 99.2327 131.675 99.4437C131.503 99.489 131.341 99.5629 131.194 99.6623L130.826 100.092L130.075 100.944L125.283 106.747L122.279 110.425L121.445 111.337C121.295 111.548 121.198 111.653 121.198 111.653Z" fill="#FF9A6C"/>
<path d="M114.069 121.969C118.517 116.175 122.053 111.425 121.967 111.359C121.882 111.293 118.207 115.936 113.759 121.729C109.312 127.523 105.775 132.273 105.861 132.339C105.946 132.405 109.621 127.762 114.069 121.969Z" fill="#FF9A6C"/>
<path d="M180.171 132.334C180.103 132.334 179.66 131.257 178.736 129.584C177.507 127.414 176.134 125.329 174.628 123.343C172.885 120.999 171.218 118.934 170.069 117.389C169.491 116.635 169.04 115.987 168.74 115.542C168.566 115.31 168.422 115.057 168.312 114.789C168.521 114.974 168.708 115.184 168.867 115.414L170.294 117.178C171.496 118.685 173.193 120.705 174.943 123.064C176.463 125.062 177.812 127.185 178.977 129.41C179.326 130.085 179.637 130.78 179.908 131.49C180.031 131.759 180.12 132.043 180.171 132.334Z" fill="#FF9A6C"/>
<path d="M104.457 234.836L100.836 223.169L119.598 217.652L122.715 230.698L104.457 234.836Z" fill="#FFBF9D"/>
<path d="M121.791 229.439L125.824 248.628L129.655 254.462C131.112 256.677 129.046 257.476 126.838 258.901L99.9351 276.71C99.9351 276.71 96.8858 274.841 98.3128 272.678C99.7399 270.515 109.308 252.231 109.308 252.231L104.457 234.798L121.791 229.439Z" fill="#274DED"/>
<path d="M122.805 227.457L123.556 232.288C123.608 232.645 123.528 233.008 123.329 233.308C123.131 233.609 122.829 233.825 122.482 233.916L106.109 238.129C105.76 238.219 105.391 238.176 105.072 238.009C104.753 237.842 104.507 237.563 104.381 237.225L102.744 232.763C102.675 232.572 102.646 232.369 102.659 232.167C102.672 231.964 102.726 231.767 102.82 231.587C102.913 231.407 103.043 231.248 103.2 231.121C103.358 230.994 103.54 230.901 103.735 230.849L121.01 226.259C121.207 226.209 121.412 226.201 121.612 226.236C121.812 226.271 122.002 226.347 122.171 226.46C122.34 226.572 122.484 226.719 122.593 226.891C122.702 227.063 122.774 227.256 122.805 227.457Z" fill="#274DED"/>
<path d="M105.456 238.363C106.33 238.32 107.199 238.204 108.054 238.016C109.646 237.745 111.81 237.308 114.243 236.697C116.676 236.087 118.749 235.408 120.296 234.858C121.048 234.579 121.671 234.346 122.084 234.165C122.309 234.091 122.521 233.984 122.715 233.848C121.864 234.046 121.026 234.298 120.206 234.602C118.667 235.084 116.526 235.717 114.145 236.32C111.764 236.923 109.579 237.406 108.002 237.752C107.14 237.896 106.289 238.1 105.456 238.363Z" fill="#AEC2FC"/>
<path d="M120.221 234.195C120.506 232.918 120.447 231.589 120.051 230.343C119.655 229.097 118.936 227.978 117.968 227.103C119.469 229.157 120.26 231.648 120.221 234.195Z" fill="#AEC2FC"/>
<path d="M114.401 236.501C114.174 233.768 113.531 231.087 112.493 228.55C113.018 231.226 113.655 233.879 114.401 236.501Z" fill="#AEC2FC"/>
<path d="M107.679 237.519C107.097 236.352 106.75 235.082 106.658 233.781C106.567 232.48 106.732 231.173 107.145 229.937C106.887 230.238 106.704 230.597 106.612 230.984C106.009 232.82 106.15 234.821 107.003 236.554C107.333 237.21 107.641 237.541 107.679 237.519Z" fill="#AEC2FC"/>
<path d="M124.788 260.024C124.848 260.024 124.562 259.436 124.307 258.516C123.965 257.278 123.9 255.979 124.117 254.713C124.334 253.446 124.827 252.244 125.561 251.191C126.117 250.377 126.575 249.947 126.53 249.902C126.055 250.184 125.647 250.567 125.336 251.025C124.505 252.079 123.95 253.325 123.723 254.65C123.496 255.974 123.604 257.335 124.036 258.607C124.183 259.128 124.439 259.611 124.788 260.024Z" fill="#AEC2FC"/>
<path d="M107.881 271.45C107.844 271.039 107.707 270.643 107.483 270.296C107.005 269.413 106.283 268.688 105.403 268.209C104.527 267.748 103.565 267.473 102.579 267.402C102.177 267.335 101.765 267.35 101.37 267.448C101.749 267.574 102.143 267.652 102.541 267.681C103.473 267.827 104.376 268.123 105.215 268.555C106.033 269.009 106.729 269.656 107.243 270.44C107.633 271.043 107.814 271.472 107.881 271.45Z" fill="#AEC2FC"/>
<path d="M140.748 166.409C140.748 166.409 108.347 152.156 101.79 151.659C91.5683 150.905 85.3045 155.194 85.7476 169.423C86.1908 183.653 99.1165 231.979 99.1165 231.979L124.307 228.045C124.307 228.045 122.444 210.793 119.583 197.566C117.104 186.087 118.246 187.889 118.246 187.889L149.302 187.286L140.748 166.409Z" fill="#263238"/>
<path d="M111.937 163.394C112.153 163.664 112.346 163.951 112.515 164.253C112.732 164.596 112.93 164.951 113.109 165.316L113.454 165.994L113.8 166.748C114.984 169.633 115.836 172.645 116.338 175.724C116.992 179.312 117.367 182.59 117.683 184.949L118.036 187.753C118.093 188.094 118.124 188.439 118.126 188.785C118.026 188.453 117.953 188.112 117.908 187.768C117.788 187.112 117.638 186.155 117.457 184.979C117.089 182.62 116.706 179.349 116.023 175.777C115.522 172.719 114.709 169.721 113.597 166.831L113.274 166.077L112.951 165.399C112.748 164.969 112.575 164.6 112.41 164.321C112.228 164.025 112.069 163.715 111.937 163.394Z" fill="#455A64"/>
<path d="M208.786 142.517C199.894 136.193 184.707 140.482 182.003 142.517C179.3 144.552 161.522 157.538 161.071 157.877C160.621 158.216 111.028 156.467 111.028 156.467L152.629 191.084C165.818 190.903 169.153 189.125 174.59 186.208C174.59 186.208 185.368 180.178 186.81 179.568C187.929 179.086 208.335 168.948 210.476 165.248C212.616 161.547 217.671 148.84 208.786 142.517Z" fill="#263238"/>
<path d="M155.439 173.908L140.275 185.967L133.68 187.972C131.179 188.725 132.268 190.625 133.027 193.134L142.28 223.772C142.28 223.772 145.78 224.284 146.035 221.729C146.291 219.174 150.542 199.179 150.542 199.179L165.225 188.989L155.439 173.908Z" fill="#274DED"/>
<path d="M155.438 173.908L155.611 174.157L156.122 174.91L158.082 177.865L165.352 188.914L165.412 189.004L165.322 189.064L150.662 199.284L150.722 199.194L148.033 212.187C147.567 214.448 147.102 216.808 146.651 219.197C146.538 219.792 146.433 220.395 146.328 220.998C146.276 221.307 146.253 221.586 146.185 221.91C146.162 222.074 146.117 222.233 146.05 222.385L145.953 222.618L145.817 222.829C145.415 223.362 144.828 223.723 144.173 223.839C143.543 223.974 142.896 224.002 142.257 223.922H142.152V223.817L142.055 223.5L134.965 199.985L133.372 194.709C133.109 193.85 132.869 193.006 132.621 192.185C132.295 191.374 132.099 190.517 132.043 189.645C132.043 189.417 132.09 189.192 132.18 188.983C132.27 188.774 132.403 188.587 132.569 188.431C132.903 188.159 133.289 187.959 133.703 187.843L135.956 187.15L140.26 185.854H140.222L151.39 177.066L154.394 174.699L155.146 174.096L155.408 173.9L155.138 174.126L154.387 174.767L151.383 177.194L140.357 186.035L136.061 187.354L133.808 188.054C133.432 188.161 133.082 188.343 132.779 188.59C132.64 188.721 132.529 188.88 132.454 189.056C132.379 189.233 132.341 189.423 132.343 189.615C132.405 190.454 132.598 191.278 132.914 192.057C133.192 192.886 133.44 193.73 133.665 194.589L135.273 199.865L142.385 223.357L142.483 223.674L142.347 223.561C142.946 223.635 143.552 223.609 144.143 223.485C144.718 223.387 145.236 223.075 145.592 222.611C145.867 222.089 146.021 221.512 146.043 220.923C146.148 220.32 146.253 219.717 146.366 219.114C146.816 216.725 147.289 214.388 147.755 212.097L150.466 199.103V199.043H150.511L165.21 188.876V189.034L158.082 177.978L156.152 174.963L155.649 174.209L155.438 173.908Z" fill="#263238"/>
<path d="M155.889 171.775L152.291 174.993C152.026 175.231 151.858 175.559 151.819 175.914C151.781 176.268 151.874 176.625 152.081 176.915L161.89 190.481C162.099 190.771 162.407 190.972 162.755 191.048C163.103 191.123 163.466 191.066 163.775 190.888L167.838 188.537C168.011 188.436 168.161 188.3 168.279 188.137C168.397 187.974 168.48 187.789 168.522 187.593C168.564 187.396 168.566 187.193 168.525 186.996C168.485 186.799 168.405 186.613 168.289 186.449L158.014 171.978C157.894 171.817 157.741 171.682 157.566 171.583C157.391 171.485 157.197 171.424 156.997 171.404C156.796 171.385 156.594 171.408 156.404 171.472C156.213 171.536 156.038 171.639 155.889 171.775Z" fill="#274DED"/>
<path d="M162.243 191.069C161.602 190.482 161.012 189.841 160.478 189.155C159.434 187.934 158.037 186.208 156.603 184.226C155.168 182.243 153.966 180.367 153.155 178.95C152.75 178.256 152.404 177.691 152.231 177.284C152.106 177.086 152.009 176.87 151.946 176.644C152.474 177.331 152.958 178.051 153.396 178.799C154.267 180.141 155.491 181.98 156.926 183.962C158.36 185.944 159.719 187.685 160.681 188.951C161.251 189.619 161.773 190.327 162.243 191.069Z" fill="#AEC2FC"/>
<path d="M153.628 178.52C154.214 177.369 155.095 176.394 156.18 175.696C157.264 174.998 158.515 174.602 159.802 174.548C158.614 174.924 157.471 175.43 156.392 176.056C155.385 176.774 154.458 177.601 153.628 178.52Z" fill="#AEC2FC"/>
<path d="M156.603 183.977C158.496 182.042 160.675 180.41 163.062 179.138C162.061 180.04 161 180.871 159.885 181.625C158.846 182.485 157.75 183.271 156.603 183.977Z" fill="#AEC2FC"/>
<path d="M161.086 189.019C162.264 188.501 163.329 187.754 164.218 186.821C165.107 185.888 165.804 184.789 166.269 183.585C166.275 183.979 166.187 184.37 166.013 184.723C165.315 186.504 163.948 187.939 162.206 188.718C161.862 188.906 161.478 189.009 161.086 189.019Z" fill="#AEC2FC"/>
<path d="M133.875 195.282C133.875 195.222 134.416 194.981 135.212 194.416C136.254 193.69 137.123 192.742 137.756 191.639C138.39 190.537 138.773 189.308 138.878 188.039C138.968 187.067 138.878 186.449 138.953 186.442C139.136 186.958 139.206 187.508 139.155 188.054C139.127 189.381 138.769 190.679 138.113 191.831C137.457 192.983 136.525 193.952 135.4 194.649C134.945 194.971 134.424 195.187 133.875 195.282Z" fill="#AEC2FC"/>
<path d="M139.546 214.712C139.833 214.423 140.186 214.209 140.575 214.087C141.495 213.717 142.502 213.623 143.474 213.815C144.432 214.022 145.337 214.424 146.133 214.999C146.734 215.436 147.056 215.752 147.026 215.805C146.656 215.661 146.306 215.471 145.982 215.24C145.182 214.759 144.309 214.411 143.399 214.207C142.489 214.031 141.551 214.081 140.665 214.35C140.303 214.503 139.929 214.624 139.546 214.712Z" fill="#AEC2FC"/>
<path d="M190.34 144.054C190.34 144.054 190.197 144.054 189.919 144.054C189.521 144.123 189.127 144.216 188.74 144.333C187.726 144.627 186.284 145.087 184.504 145.75C183.626 146.067 182.619 146.421 181.59 146.745C180.578 147.33 179.665 148.073 178.886 148.946C177.084 150.679 175.131 152.601 173.073 154.636C168.98 158.706 165.39 162.504 162.874 165.323C161.612 166.733 160.621 167.886 159.915 168.685L159.119 169.604C159.031 169.716 158.933 169.82 158.826 169.913C158.897 169.79 158.98 169.674 159.074 169.566L159.825 168.609C160.486 167.788 161.462 166.604 162.709 165.18C165.187 162.316 168.762 158.495 172.855 154.417C174.898 152.382 176.881 150.468 178.691 148.742C179.493 147.84 180.437 147.077 181.485 146.481C182.574 146.149 183.528 145.825 184.429 145.516C186.217 144.906 187.681 144.446 188.71 144.19C189.104 144.083 189.506 144.008 189.912 143.964C190.019 143.946 190.128 143.946 190.235 143.964L190.34 144.054Z" fill="#455A64"/>
<path d="M141.266 178.098C141.103 177.788 140.965 177.466 140.853 177.133C140.733 176.817 140.582 176.433 140.38 176.003C140.177 175.573 139.974 175.061 139.681 174.541C139.388 174.021 139.103 173.418 138.727 172.822C138.352 172.227 137.976 171.586 137.503 170.931C135.513 168.112 133.039 165.672 130.195 163.725C129.534 163.296 128.911 162.866 128.288 162.535C127.664 162.203 127.093 161.879 126.56 161.615C126.027 161.351 125.524 161.14 125.058 160.944C124.592 160.748 124.239 160.605 123.924 160.492C123.591 160.385 123.267 160.252 122.955 160.093C123.3 160.158 123.639 160.251 123.969 160.372C124.364 160.486 124.753 160.621 125.133 160.779C125.576 160.959 126.095 161.14 126.635 161.412C127.176 161.683 127.784 161.947 128.4 162.308C129.016 162.67 129.67 163.062 130.346 163.492C133.242 165.432 135.749 167.902 137.736 170.772C138.179 171.443 138.607 172.069 138.945 172.702C139.283 173.335 139.606 173.908 139.869 174.458C140.132 175.008 140.342 175.513 140.53 175.965C140.694 176.344 140.837 176.731 140.958 177.126C141.086 177.441 141.189 177.767 141.266 178.098Z" fill="#455A64"/>
</g>
</svg>
