<svg width="320" height="278" viewBox="0 0 320 278" fill="none" xmlns="http://www.w3.org/2000/svg">
<mask id="mask0_2086_4687" style="mask-type:alpha" maskUnits="userSpaceOnUse" x="0" y="0" width="320" height="278">
<rect width="320" height="278" fill="#D9D9D9"/>
</mask>
<g mask="url(#mask0_2086_4687)">
<path d="M14.4902 81.0134V86.08H13.9737V81.474H12.7803V81.0134H14.4902Z" fill="#263238"/>
<path d="M15.7192 83.5468C15.7192 81.9347 16.5742 80.978 17.7498 80.978C18.9254 80.978 19.7804 81.9347 19.7804 83.5468C19.7804 85.1589 18.9254 86.1155 17.7498 86.1155C16.5742 86.1155 15.7192 85.1589 15.7192 83.5468ZM19.2816 83.5468C19.2816 82.2004 18.676 81.4563 17.7854 81.4563C16.8948 81.4563 16.2892 82.2004 16.2892 83.5468C16.2892 84.8931 16.8948 85.6372 17.7854 85.6372C18.676 85.6372 19.2282 84.8931 19.2282 83.5468H19.2816Z" fill="#263238"/>
<path d="M16.5564 54.1574V54.618H12.994V54.246L15.1137 52.191C15.6837 51.6241 15.7905 51.2875 15.7905 50.9332C15.7905 50.5789 15.3808 49.9943 14.5971 49.9943C14.338 49.9825 14.0794 50.0271 13.8394 50.125C13.5995 50.2229 13.3839 50.3718 13.2078 50.5612L12.8337 50.3132C13.0594 50.0702 13.3358 49.8793 13.6435 49.7539C13.9512 49.6284 14.2828 49.5714 14.6149 49.5868C15.648 49.5868 16.3071 50.1006 16.3071 50.9509C16.2943 51.2591 16.2125 51.5606 16.0677 51.8334C15.9228 52.1061 15.7186 52.3433 15.4699 52.5276L13.6887 54.2991L16.5564 54.1574Z" fill="#263238"/>
<path d="M17.1084 52.0843C17.1084 50.4722 17.9634 49.5156 19.139 49.5156C20.3146 49.5156 21.1695 50.4722 21.1695 52.0843C21.1695 53.6964 20.3146 54.6531 19.139 54.6531C17.9634 54.6531 17.1084 53.6964 17.1084 52.0843ZM20.6708 52.0843C20.6708 50.738 20.0652 49.9939 19.1746 49.9939C18.284 49.9939 17.6784 50.738 17.6784 52.0843C17.6784 53.4307 18.284 54.1747 19.1746 54.1747C20.0652 54.1747 20.6708 53.4307 20.6708 52.0843Z" fill="#263238"/>
<path d="M16.4494 21.7027C16.4494 22.553 15.8259 23.1908 14.6682 23.1908C14.0135 23.1983 13.3791 22.9648 12.887 22.5353L13.1363 22.1279C13.5669 22.5225 14.1364 22.7325 14.7216 22.7125C15.5588 22.7125 16.0219 22.3227 16.0219 21.685C16.0219 21.0472 15.5944 20.6752 14.6503 20.6752H14.2941V20.2855L15.7013 18.5139H13.1007V18.0533H16.3781V18.4254L14.9353 20.1969C15.8972 20.3209 16.4494 20.8878 16.4494 21.7027Z" fill="#263238"/>
<path d="M17.1084 20.6221C17.1084 19.01 17.9634 18.0533 19.139 18.0533C20.3146 18.0533 21.1695 19.01 21.1695 20.6221C21.1695 22.2342 20.3146 23.1908 19.139 23.1908C17.9634 23.1908 17.1084 22.2342 17.1084 20.6221ZM20.6708 20.6221C20.6708 19.2757 20.0652 18.5317 19.1746 18.5317C18.284 18.5317 17.6784 19.2757 17.6784 20.6221C17.6784 21.9684 18.284 22.7125 19.1746 22.7125C20.0652 22.7125 20.6708 21.9684 20.6708 20.6221Z" fill="#263238"/>
<path d="M36.9509 100.146C36.9509 98.5339 37.8059 97.5773 38.9815 97.5773C40.1571 97.5773 41.0121 98.5339 41.0121 100.146C41.0121 101.758 40.1571 102.715 38.9815 102.715C37.8059 102.715 36.9509 101.687 36.9509 100.146ZM40.5133 100.146C40.5133 98.7996 39.9077 98.0556 39.0171 98.0556C38.1265 98.0556 37.5209 98.7996 37.5209 100.146C37.5209 101.492 38.1265 102.236 39.0171 102.236C39.9077 102.236 40.4777 101.492 40.4777 100.146H40.5133Z" fill="#263238"/>
<path d="M74.6057 97.6129V102.68H74.107V98.1444H72.9136V97.6129H74.6057Z" fill="#263238"/>
<path d="M114.291 102.219V102.68H110.728V102.308L112.848 100.253C113.418 99.6857 113.525 99.3491 113.525 98.9948C113.525 98.6405 113.115 98.0559 112.331 98.0559C112.072 98.044 111.814 98.0887 111.574 98.1866C111.334 98.2845 111.118 98.4333 110.942 98.6227L110.568 98.3039C110.794 98.0609 111.07 97.87 111.378 97.7446C111.686 97.6191 112.017 97.5621 112.349 97.5776C113.382 97.5776 114.041 98.0913 114.041 98.9416C114.029 99.2498 113.947 99.5513 113.802 99.8241C113.657 100.097 113.453 100.334 113.204 100.518L111.423 102.29L114.291 102.219Z" fill="#263238"/>
<path d="M151.821 101.227C151.821 102.077 151.198 102.715 150.04 102.715C149.385 102.724 148.75 102.49 148.259 102.059L148.508 101.652C148.938 102.047 149.508 102.257 150.093 102.237C150.93 102.237 151.393 101.847 151.393 101.209C151.393 100.571 150.966 100.199 150.022 100.199H149.666V99.9159L151.073 98.1444H148.472V97.6129H151.75V97.9849L150.307 99.7565C151.269 99.9159 151.821 100.412 151.821 101.227Z" fill="#263238"/>
<path d="M190.402 101.351H189.387V102.68H188.87V101.351H186.002V100.979L188.692 97.6307H189.28L186.679 100.89H188.888V99.7211H189.405V100.89H190.42L190.402 101.351Z" fill="#263238"/>
<path d="M227.148 101.192C227.148 102.06 226.542 102.733 225.367 102.733C224.712 102.742 224.077 102.508 223.586 102.077L223.728 101.688C224.152 102.081 224.716 102.291 225.296 102.272C226.151 102.272 226.614 101.847 226.614 101.245C226.614 100.642 226.204 100.182 224.833 100.182H223.746L224.013 97.6484H226.792V98.1445H224.458L224.28 99.7566H224.939C226.578 99.6857 227.148 100.288 227.148 101.192Z" fill="#263238"/>
<path d="M265.159 101.174C265.158 101.397 265.11 101.617 265.017 101.82C264.924 102.023 264.789 102.204 264.621 102.352C264.453 102.499 264.255 102.609 264.04 102.675C263.826 102.74 263.6 102.76 263.378 102.733C262.024 102.733 261.294 101.794 261.294 100.199C261.294 98.6049 262.238 97.5774 263.627 97.5774C264.049 97.562 264.467 97.6599 264.838 97.8608L264.625 98.286C264.327 98.1171 263.987 98.0372 263.645 98.0557C262.541 98.0557 261.864 98.7643 261.864 100.128C261.864 100.235 261.864 100.394 261.864 100.536C262.009 100.257 262.233 100.026 262.508 99.8716C262.783 99.7173 263.098 99.6465 263.413 99.6678C263.63 99.6403 263.849 99.6586 264.058 99.7214C264.267 99.7843 264.46 99.8902 264.625 100.032C264.79 100.174 264.922 100.35 265.014 100.546C265.106 100.743 265.156 100.957 265.159 101.174ZM264.642 101.174C264.642 100.5 264.144 100.075 263.36 100.075C263.201 100.058 263.041 100.073 262.888 100.12C262.736 100.167 262.594 100.244 262.472 100.346C262.351 100.449 262.251 100.576 262.18 100.718C262.109 100.86 262.068 101.015 262.06 101.174C262.06 101.723 262.523 102.254 263.413 102.254C263.571 102.28 263.732 102.271 263.886 102.229C264.04 102.186 264.183 102.111 264.305 102.008C264.427 101.906 264.525 101.778 264.593 101.634C264.66 101.489 264.695 101.333 264.696 101.174H264.642Z" fill="#263238"/>
<path d="M302.546 97.6128V97.9848L300.409 102.679H299.839L301.941 98.0734H299.322V99.0123H298.806V97.5951L302.546 97.6128Z" fill="#263238"/>
<path d="M302.814 83.7949C302.814 84.0606 243.927 84.2909 171.308 84.2909C98.6879 84.2909 39.7834 84.0783 39.7834 83.7949C39.7834 83.5114 98.6522 83.2988 171.308 83.2988C243.963 83.2988 302.814 83.5114 302.814 83.7949Z" fill="#263238"/>
<path d="M302.814 52.0845C302.814 52.3503 243.927 52.5806 171.308 52.5806C98.6879 52.5806 39.7834 52.368 39.7834 52.0845C39.7834 51.8011 98.6522 51.5885 171.308 51.5885C243.963 51.5885 302.814 51.8897 302.814 52.0845Z" fill="#263238"/>
<path d="M302.814 20.5511C302.814 20.8168 243.927 21.0471 171.308 21.0471C98.6879 21.0471 39.7834 20.8345 39.7834 20.5511C39.7834 20.2676 98.6522 20.0551 171.308 20.0551C243.963 20.0551 302.814 20.1968 302.814 20.5511Z" fill="#263238"/>
<path d="M304.506 69.7998C304.18 69.826 303.852 69.826 303.526 69.7998C302.574 69.7427 301.628 69.6183 300.694 69.4278C297.069 68.7503 293.682 67.1514 290.862 64.7864C288.87 63.0323 287.242 60.908 286.07 58.5329C284.654 55.7708 282.959 53.1591 281.012 50.7381C278.87 47.9044 275.875 45.8251 272.462 44.8035C270.595 44.3738 268.648 44.441 266.815 44.9984C264.883 45.6249 263.096 46.631 261.561 47.9568C258.337 50.6318 255.968 54.4406 252.833 57.8951C251.27 59.74 249.334 61.237 247.151 62.2885C244.802 63.3166 242.173 63.5288 239.688 62.8908C238.424 62.4764 237.264 61.7992 236.285 60.9042C235.305 60.0092 234.528 58.917 234.006 57.7002C232.912 55.2937 232.088 52.7748 231.548 50.1889C231.03 47.5863 230.272 45.0364 229.286 42.5714C228.811 41.3751 227.961 40.3626 226.863 39.6838C225.67 39.1201 224.353 38.8642 223.033 38.9397C220.232 39.2413 217.453 39.7266 214.715 40.3924C213.273 40.6899 211.806 40.8559 210.334 40.8884C208.802 40.9451 207.277 40.648 205.881 40.0203C204.458 39.3625 203.23 38.3494 202.318 37.0796C201.457 35.8231 200.729 34.4814 200.145 33.0759C198.952 30.2946 198.15 27.3716 197.064 24.5726C196.545 23.1762 195.876 21.8397 195.069 20.5867C194.271 19.3791 193.13 18.4354 191.791 17.8762C191.453 17.7699 191.114 17.6459 190.758 17.575L189.672 17.4688C188.97 17.4218 188.269 17.5625 187.641 17.8762C186.37 18.6362 185.325 19.7183 184.613 21.0118C183.077 23.739 181.881 26.6421 181.051 29.6569C180.142 32.6862 179.394 35.8041 178.664 38.922C177.453 44.1126 176.384 49.2855 175.101 54.352C174.451 56.8816 173.672 59.3768 172.768 61.8279C171.931 64.3313 170.592 66.6395 168.831 68.6129C167.847 69.6242 166.506 70.2151 165.091 70.2604C163.734 70.2242 162.411 69.8265 161.261 69.1089C159.116 67.7038 157.295 65.8622 155.918 63.7057C153.274 59.5951 151.099 55.2041 149.434 50.6141C147.653 46.2739 145.569 41.969 142.185 39.0283C140.539 37.6107 138.574 36.6082 136.457 36.1055C134.339 35.6029 132.131 35.615 130.019 36.1407C127.969 36.682 126.016 37.5366 124.23 38.674C122.45 39.7497 120.759 40.9641 119.171 42.3056C116.118 44.8629 113.298 47.6848 110.746 50.7381C106.908 54.5438 102.736 58.0003 98.278 61.0661C94.307 63.863 90.0134 66.1766 85.489 67.9574C81.5445 69.5791 77.2809 70.2879 73.0205 70.0301C69.4509 69.619 65.9455 68.7742 62.5826 67.5145C57.9139 65.8039 53.3825 63.743 49.0277 61.3496C47.5315 60.5347 46.3915 59.8792 45.6434 59.4186C44.8953 58.958 44.5212 58.6923 44.5212 58.6923L45.6968 59.3123L49.1167 61.0839C53.5003 63.384 58.0418 65.373 62.7073 67.0362C66.0412 68.2457 69.5101 69.0487 73.0383 69.4278C77.2325 69.6531 81.4232 68.9261 85.293 67.3019C89.7571 65.5114 93.9905 63.198 97.9039 60.4107C102.31 57.3555 106.435 53.917 110.23 50.1358C112.774 47.0543 115.587 44.2028 118.637 41.6147C120.251 40.2411 121.973 38.9971 123.785 37.8945C125.642 36.7047 127.672 35.8083 129.805 35.2372C132.059 34.6805 134.415 34.6732 136.673 35.216C138.931 35.7588 141.023 36.8357 142.772 38.3551C146.335 41.473 148.454 45.9018 150.289 50.2775C151.938 54.8055 154.089 59.1369 156.701 63.192C158.012 65.2355 159.742 66.9803 161.778 68.3117C162.783 68.9407 163.94 69.2894 165.127 69.3215C166.264 69.2878 167.347 68.8256 168.155 68.0283C169.804 66.1515 171.057 63.9648 171.842 61.5976C172.732 59.1812 173.499 56.7215 174.139 54.228C175.475 49.1969 176.544 44.024 177.702 38.8334C178.432 35.6978 179.198 32.5622 180.106 29.4975C180.928 26.412 182.124 23.4376 183.669 20.6398C184.466 19.1733 185.648 17.9489 187.089 17.0967C187.861 16.7122 188.72 16.5351 189.582 16.583L190.811 16.707C191.221 16.7956 191.613 16.9373 192.005 17.0613C193.534 17.6939 194.836 18.7676 195.745 20.1438C196.597 21.4571 197.302 22.8591 197.847 24.3246C198.952 27.1945 199.753 30.0998 200.911 32.8102C202.069 35.5207 203.529 38.1248 206.13 39.2763C208.792 40.2296 211.685 40.341 214.412 39.5952C217.197 38.9229 220.023 38.4376 222.873 38.1425C224.353 38.0595 225.831 38.3521 227.166 38.9929C228.43 39.7635 229.411 40.919 229.962 42.2879C230.969 44.8097 231.739 47.4192 232.26 50.0827C232.814 52.6041 233.644 55.0575 234.736 57.3991C235.202 58.5149 235.903 59.5188 236.79 60.3437C237.678 61.1686 238.733 61.7954 239.884 62.1822C242.185 62.7681 244.616 62.5748 246.795 61.633C248.885 60.6176 250.736 59.1749 252.227 57.3991C255.309 54.0332 257.714 50.2067 261.133 47.4431C262.743 46.0655 264.615 45.0233 266.637 44.3783C268.582 43.7967 270.646 43.7356 272.622 44.2012C276.182 45.2552 279.306 47.4235 281.528 50.3838C283.484 52.8499 285.179 55.5093 286.587 58.3203C287.688 60.6465 289.231 62.7397 291.129 64.4852C293.882 66.8482 297.19 68.4813 300.747 69.2329C301.67 69.4412 302.603 69.595 303.544 69.6935C304.185 69.7998 304.506 69.7998 304.506 69.7998Z" fill="#AEC2FC"/>
<path d="M38.1089 84.9992C39.0434 84.9992 39.8011 84.2457 39.8011 83.3163C39.8011 82.3868 39.0434 81.6333 38.1089 81.6333C37.1743 81.6333 36.4167 82.3868 36.4167 83.3163C36.4167 84.2457 37.1743 84.9992 38.1089 84.9992Z" fill="#051BAF"/>
<path d="M75.9239 84.9992C76.8584 84.9992 77.616 84.2457 77.616 83.3163C77.616 82.3868 76.8584 81.6333 75.9239 81.6333C74.9893 81.6333 74.2317 82.3868 74.2317 83.3163C74.2317 84.2457 74.9893 84.9992 75.9239 84.9992Z" fill="#051BAF"/>
<path d="M113.739 84.9992C114.673 84.9992 115.431 84.2457 115.431 83.3163C115.431 82.3868 114.673 81.6333 113.739 81.6333C112.804 81.6333 112.046 82.3868 112.046 83.3163C112.046 84.2457 112.804 84.9992 113.739 84.9992Z" fill="#051BAF"/>
<path d="M151.554 84.9992C152.488 84.9992 153.246 84.2457 153.246 83.3163C153.246 82.3868 152.488 81.6333 151.554 81.6333C150.619 81.6333 149.862 82.3868 149.862 83.3163C149.862 84.2457 150.619 84.9992 151.554 84.9992Z" fill="#051BAF"/>
<path d="M189.368 84.9992C190.303 84.9992 191.061 84.2457 191.061 83.3163C191.061 82.3868 190.303 81.6333 189.368 81.6333C188.434 81.6333 187.676 82.3868 187.676 83.3163C187.676 84.2457 188.434 84.9992 189.368 84.9992Z" fill="#051BAF"/>
<path d="M265.016 84.9992C265.951 84.9992 266.708 84.2457 266.708 83.3163C266.708 82.3868 265.951 81.6333 265.016 81.6333C264.082 81.6333 263.324 82.3868 263.324 83.3163C263.324 84.2457 264.082 84.9992 265.016 84.9992Z" fill="#051BAF"/>
<path d="M227.201 84.9992C228.136 84.9992 228.893 84.2457 228.893 83.3163C228.893 82.3868 228.136 81.6333 227.201 81.6333C226.267 81.6333 225.509 82.3868 225.509 83.3163C225.509 84.2457 226.267 84.9992 227.201 84.9992Z" fill="#051BAF"/>
<path d="M302.831 84.9992C303.766 84.9992 304.523 84.2457 304.523 83.3163C304.523 82.3868 303.766 81.6333 302.831 81.6333C301.897 81.6333 301.139 82.3868 301.139 83.3163C301.139 84.2457 301.897 84.9992 302.831 84.9992Z" fill="#051BAF"/>
<path d="M55.921 84.8757C56.5309 84.8757 57.0254 84.3839 57.0254 83.7773C57.0254 83.1707 56.5309 82.679 55.921 82.679C55.3111 82.679 54.8167 83.1707 54.8167 83.7773C54.8167 84.3839 55.3111 84.8757 55.921 84.8757Z" fill="#E0E0E0"/>
<path d="M93.8785 84.8757C94.4884 84.8757 94.9829 84.3839 94.9829 83.7773C94.9829 83.1707 94.4884 82.679 93.8785 82.679C93.2686 82.679 92.7742 83.1707 92.7742 83.7773C92.7742 84.3839 93.2686 84.8757 93.8785 84.8757Z" fill="#E0E0E0"/>
<path d="M131.836 84.8757C132.446 84.8757 132.94 84.3839 132.94 83.7773C132.94 83.1707 132.446 82.679 131.836 82.679C131.226 82.679 130.731 83.1707 130.731 83.7773C130.731 84.3839 131.226 84.8757 131.836 84.8757Z" fill="#E0E0E0"/>
<path d="M169.793 84.8757C170.403 84.8757 170.898 84.3839 170.898 83.7773C170.898 83.1707 170.403 82.679 169.793 82.679C169.183 82.679 168.689 83.1707 168.689 83.7773C168.689 84.3839 169.183 84.8757 169.793 84.8757Z" fill="#E0E0E0"/>
<path d="M207.751 84.8757C208.36 84.8757 208.855 84.3839 208.855 83.7773C208.855 83.1707 208.36 82.679 207.751 82.679C207.141 82.679 206.646 83.1707 206.646 83.7773C206.646 84.3839 207.141 84.8757 207.751 84.8757Z" fill="#E0E0E0"/>
<path d="M245.726 84.8757C246.336 84.8757 246.83 84.3839 246.83 83.7773C246.83 83.1707 246.336 82.679 245.726 82.679C245.116 82.679 244.622 83.1707 244.622 83.7773C244.622 84.3839 245.116 84.8757 245.726 84.8757Z" fill="#E0E0E0"/>
<path d="M283.683 84.8757C284.293 84.8757 284.788 84.3839 284.788 83.7773C284.788 83.1707 284.293 82.679 283.683 82.679C283.074 82.679 282.579 83.1707 282.579 83.7773C282.579 84.3839 283.074 84.8757 283.683 84.8757Z" fill="#E0E0E0"/>
<path d="M75.9236 73.9273C78.2157 73.9273 80.0739 72.0793 80.0739 69.7997C80.0739 67.52 78.2157 65.672 75.9236 65.672C73.6316 65.672 71.7734 67.52 71.7734 69.7997C71.7734 72.0793 73.6316 73.9273 75.9236 73.9273Z" fill="#051BAF"/>
<path d="M108.912 54.5648C111.204 54.5648 113.062 52.7168 113.062 50.4371C113.062 48.1575 111.204 46.3094 108.912 46.3094C106.62 46.3094 104.761 48.1575 104.761 50.4371C104.761 52.7168 106.62 54.5648 108.912 54.5648Z" fill="#051BAF"/>
<path d="M149.862 56.2829C152.154 56.2829 154.012 54.4349 154.012 52.1553C154.012 49.8756 152.154 48.0276 149.862 48.0276C147.57 48.0276 145.711 49.8756 145.711 52.1553C145.711 54.4349 147.57 56.2829 149.862 56.2829Z" fill="#051BAF"/>
<path d="M189.85 21.0827C192.142 21.0827 194 19.2347 194 16.9551C194 14.6754 192.142 12.8274 189.85 12.8274C187.558 12.8274 185.699 14.6754 185.699 16.9551C185.699 19.2347 187.558 21.0827 189.85 21.0827Z" fill="#051BAF"/>
<path d="M227.202 43.4748C229.494 43.4748 231.352 41.6268 231.352 39.3472C231.352 37.0675 229.494 35.2195 227.202 35.2195C224.909 35.2195 223.051 37.0675 223.051 39.3472C223.051 41.6268 224.909 43.4748 227.202 43.4748Z" fill="#051BAF"/>
<path d="M265.016 49.4448C267.308 49.4448 269.167 47.5968 269.167 45.3171C269.167 43.0375 267.308 41.1895 265.016 41.1895C262.724 41.1895 260.866 43.0375 260.866 45.3171C260.866 47.5968 262.724 49.4448 265.016 49.4448Z" fill="#051BAF"/>
<path d="M265.096 151.205C257.615 151.205 250.302 153.412 244.082 157.545C237.862 161.679 233.014 167.554 230.151 174.428C227.288 181.301 226.539 188.865 227.999 196.162C229.458 203.46 233.061 210.163 238.35 215.424C243.64 220.685 250.379 224.267 257.717 225.719C265.054 227.17 272.659 226.425 279.57 223.578C286.481 220.731 292.389 215.909 296.545 209.723C300.701 203.537 302.919 196.264 302.919 188.823C302.919 178.847 298.934 169.278 291.841 162.223C284.748 155.169 275.127 151.205 265.096 151.205ZM265.67 211.274C261.086 211.262 256.608 209.899 252.801 207.357C248.995 204.815 246.032 201.208 244.286 196.992C242.54 192.776 242.089 188.14 242.991 183.67C243.892 179.199 246.106 175.094 249.352 171.874C252.598 168.654 256.731 166.463 261.228 165.578C265.726 164.693 270.386 165.153 274.621 166.901C278.855 168.648 282.474 171.605 285.02 175.397C287.566 179.189 288.924 183.647 288.924 188.207C288.924 191.241 288.322 194.245 287.153 197.048C285.984 199.851 284.27 202.396 282.11 204.539C279.95 206.682 277.386 208.38 274.565 209.535C271.744 210.691 268.721 211.282 265.67 211.274Z" fill="#AEC2FC"/>
<path d="M265.686 151.22C265.686 155.223 265.686 160.61 265.686 165.124C269.337 165.125 272.936 165.983 276.191 167.628C279.446 169.273 282.265 171.658 284.419 174.591C286.573 177.523 288 180.919 288.586 184.503C289.172 188.088 288.899 191.759 287.79 195.218L301.406 198.905C302.95 193.372 303.199 187.56 302.136 181.916C301.072 176.272 298.723 170.945 295.269 166.344C291.815 161.742 287.348 157.988 282.209 155.369C277.071 152.75 271.398 151.336 265.625 151.235L265.686 151.22Z" fill="#274DED"/>
<path d="M242.478 188.207C242.478 183.749 243.778 179.387 246.218 175.649C248.659 171.91 252.136 168.955 256.23 167.14L250.42 154.17C243.584 157.049 237.751 161.867 233.648 168.021C229.545 174.175 227.354 181.394 227.348 188.778C227.348 189.305 227.348 189.832 227.348 190.283H242.478C242.508 189.636 242.478 188.929 242.478 188.207Z" fill="#AEC2FC"/>
<path d="M265.671 211.274C264.023 211.271 262.379 211.095 260.769 210.747C260.179 214.088 259.089 220.588 258.212 225.689C267.485 227.408 277.069 225.61 285.076 220.649C293.082 215.689 298.93 207.926 301.467 198.89L287.85 195.203C286.351 199.879 283.393 203.958 279.404 206.848C275.416 209.738 270.605 211.288 265.671 211.274Z" fill="#274DED"/>
<path d="M258.34 190.072H256.948V191.863H255.011V190.072H250.397V188.748L254.436 183.331H256.524L252.772 188.462H255.072V186.867H256.948V188.462H258.34V190.072Z" fill="#263238"/>
<path d="M258.93 187.62C258.93 184.806 260.443 183.211 262.606 183.211C264.77 183.211 266.283 184.806 266.283 187.62C266.283 190.433 264.77 192.028 262.606 192.028C260.443 192.028 258.93 190.403 258.93 187.62ZM264.286 187.62C264.286 185.679 263.605 184.881 262.606 184.881C261.608 184.881 260.942 185.694 260.942 187.62C260.942 189.546 261.623 190.358 262.606 190.358C263.59 190.358 264.286 189.531 264.286 187.62Z" fill="#263238"/>
<path d="M267.1 185.573C267.143 185.166 267.305 184.78 267.564 184.462C267.823 184.144 268.17 183.908 268.561 183.781C268.953 183.655 269.373 183.644 269.771 183.749C270.169 183.855 270.527 184.073 270.803 184.376C271.079 184.68 271.261 185.057 271.327 185.461C271.392 185.866 271.339 186.28 271.173 186.655C271.007 187.029 270.735 187.348 270.391 187.573C270.047 187.798 269.644 187.918 269.233 187.921C268.932 187.922 268.635 187.861 268.36 187.741C268.086 187.62 267.839 187.443 267.638 187.222C267.437 187 267.285 186.739 267.192 186.455C267.099 186.171 267.068 185.87 267.1 185.573ZM270.125 185.573C270.125 184.655 269.762 184.219 269.233 184.219C268.703 184.219 268.34 184.671 268.34 185.573C268.34 186.476 268.703 186.928 269.233 186.928C269.762 186.928 270.125 186.491 270.125 185.573ZM274.347 183.316H275.859L269.959 191.863H268.446L274.347 183.316ZM272.939 189.591C272.983 189.183 273.145 188.797 273.405 188.479C273.665 188.16 274.013 187.924 274.405 187.798C274.797 187.672 275.218 187.661 275.616 187.768C276.014 187.875 276.373 188.094 276.648 188.4C276.924 188.705 277.104 189.083 277.168 189.488C277.232 189.893 277.176 190.308 277.008 190.683C276.84 191.057 276.566 191.375 276.22 191.598C275.874 191.821 275.47 191.939 275.058 191.938C274.764 191.932 274.475 191.864 274.208 191.741C273.942 191.618 273.704 191.441 273.509 191.222C273.315 191.003 273.168 190.747 273.077 190.469C272.987 190.191 272.956 189.897 272.985 189.606L272.939 189.591ZM275.965 189.591C275.965 188.688 275.617 188.237 275.073 188.237C274.528 188.237 274.18 188.673 274.18 189.591C274.18 190.509 274.543 190.945 275.073 190.945C275.602 190.945 276.011 190.509 276.011 189.606L275.965 189.591Z" fill="#263238"/>
<path d="M56.5189 70.4477C58.1333 66.7499 56.2823 62.138 53.2901 59.3681C51.757 58.0395 49.881 57.1643 47.8741 56.8412C45.8673 56.5181 43.8096 56.7602 41.9338 57.5399C40.2927 58.1745 38.9181 59.347 38.037 60.8638C37.4561 62.1533 37.2601 63.5818 37.4723 64.979C37.6845 66.3762 38.296 67.6832 39.2339 68.7442C41.1582 70.8384 43.6858 72.2895 46.4707 72.8991C48.4079 73.4969 50.4631 73.6111 52.4551 73.2315C53.4467 73.0317 54.3743 72.5943 55.1576 71.9572C55.9409 71.3201 56.5562 70.5025 56.9503 69.5752" fill="#263238"/>
<path d="M131.607 120.044C128.83 120.95 125.846 118.549 125.194 115.777C124.541 113.006 125.569 110.139 126.79 107.546C128.011 104.953 129.441 102.374 129.649 99.534C130.01 94.6912 126.776 90.3834 125.374 85.7326C122.445 76.0607 127.373 64.7287 122.251 55.9759C119.902 51.7639 116.172 48.4686 111.674 46.6332C109.212 45.6222 106.56 45.1432 103.896 45.2284C101.231 45.3135 98.6159 45.9609 96.2253 47.1271C92.9658 45.1015 89.3233 43.7528 85.5195 43.1631C81.7158 42.5735 77.8304 42.7552 74.1 43.6973C70.3903 44.676 66.9244 46.3992 63.9178 48.7595C60.9113 51.1198 58.4287 54.0666 56.6245 57.4164C54.251 61.8888 53.1683 67.0198 50.3367 71.2316C48.1852 74.4693 44.9511 77.3503 44.6318 81.1916C44.2293 86.0619 48.6988 90.1502 49.1429 95.0205C49.6704 100.769 44.5346 106.49 46.6722 111.868C48.1436 115.585 52.7658 117.808 53.2377 121.773C53.175 122.9 53.3402 124.029 53.7235 125.093C54.436 126.027 55.3651 126.779 56.4327 127.285C57.5003 127.792 58.6752 128.037 59.8586 128.001C84.427 126.52 105.248 130.155 127.165 124.585C128.339 124.364 129.452 123.897 130.427 123.213C130.921 122.861 131.297 122.372 131.507 121.807C131.717 121.242 131.752 120.628 131.607 120.044Z" fill="#263238"/>
<path d="M63.7344 77.637C63.9342 73.9386 65.3159 70.4001 67.6783 67.537C70.0408 64.6739 73.2605 62.6357 76.8687 61.7191L100.633 55.6959C110.854 54.6031 117.669 67.0477 118.376 77.205C119.117 88.489 119.577 100.391 118.248 108.812C115.565 125.755 102.447 127.932 102.447 127.932C102.447 127.932 102.447 131.838 102.447 136.785L102.183 137.412C96.1017 151.601 75.9999 152.254 68.9642 138.488L63.6747 77.8658C63.6662 77.5862 63.7088 78.0945 63.7344 77.637Z" fill="#FFBF9D"/>
<path d="M115.088 89.9207C115.092 90.4881 114.874 91.0349 114.48 91.4448C114.085 91.8546 113.545 92.095 112.975 92.1148C112.697 92.1379 112.417 92.1056 112.152 92.0197C111.887 91.9337 111.641 91.796 111.43 91.6145C111.219 91.433 111.047 91.2115 110.923 90.9628C110.799 90.7141 110.727 90.4434 110.709 90.1664C110.705 89.599 110.923 89.0522 111.317 88.6424C111.712 88.2326 112.252 87.9922 112.822 87.9723C113.1 87.9492 113.38 87.9816 113.645 88.0675C113.91 88.1534 114.156 88.2912 114.367 88.4727C114.578 88.6542 114.75 88.8757 114.874 89.1244C114.998 89.3731 115.07 89.6438 115.088 89.9207Z" fill="#263238"/>
<path d="M115.795 83.8555C115.522 84.1435 113.853 82.9236 111.536 82.9406C109.219 82.9575 107.447 84.1266 107.183 83.8385C107.055 83.7115 107.337 83.2032 108.086 82.6525C109.109 81.9488 110.326 81.5761 111.57 81.5851C112.792 81.5805 113.984 81.9601 114.977 82.6695C115.684 83.2201 115.931 83.7284 115.795 83.8555Z" fill="#263238"/>
<path d="M93.5719 89.6244C93.5767 90.1917 93.3586 90.7386 92.9641 91.1484C92.5695 91.5582 92.0297 91.7986 91.4596 91.8185C91.1815 91.8416 90.9017 91.8092 90.6364 91.7233C90.3711 91.6374 90.1258 91.4996 89.9147 91.3181C89.7037 91.1366 89.5312 90.9151 89.4074 90.6664C89.2836 90.4177 89.211 90.147 89.1938 89.87C89.189 89.3027 89.4072 88.7559 89.8017 88.346C90.1963 87.9362 90.7361 87.6958 91.3063 87.6759C91.5843 87.6528 91.8641 87.6852 92.1294 87.7711C92.3947 87.857 92.64 87.9948 92.8511 88.1763C93.0621 88.3578 93.2346 88.5793 93.3584 88.828C93.4822 89.0767 93.5548 89.3474 93.5719 89.6244Z" fill="#263238"/>
<path d="M93.3505 83.8555C93.078 84.135 91.4085 82.9236 89.0491 82.9406C86.6897 82.9575 84.9606 84.1266 84.6965 83.8385C84.5688 83.7115 84.8413 83.2032 85.5994 82.6525C86.6226 81.9488 87.8392 81.5761 89.0832 81.5851C90.3052 81.5817 91.4972 81.9611 92.4902 82.6695C93.2398 83.2201 93.4868 83.7284 93.3505 83.8555Z" fill="#263238"/>
<path d="M100.718 102.204C100.718 102.069 102.175 101.815 104.551 101.51C105.156 101.45 105.727 101.323 105.829 100.917C105.879 100.299 105.736 99.6806 105.42 99.1462L103.623 94.6055C101.127 88.1417 99.364 82.8301 99.5855 82.7454C99.807 82.6607 102.081 87.8283 104.577 94.2666L106.28 98.8328C106.66 99.5506 106.772 100.379 106.596 101.171C106.505 101.377 106.369 101.56 106.198 101.706C106.027 101.853 105.825 101.959 105.608 102.018C105.274 102.109 104.931 102.157 104.585 102.162C102.235 102.289 100.718 102.34 100.718 102.204Z" fill="#263238"/>
<path d="M79.7221 121.926C79.7221 121.926 85.2927 133.557 102.422 131.939V127.958C94.4413 128.064 86.5862 125.976 79.7221 121.926Z" fill="#FF9A6C"/>
<path d="M92.6095 75.4177C92.3795 76.0531 90.0542 75.7566 87.2433 76.0954C84.4325 76.4343 82.2264 77.1883 81.8601 76.6122C81.6983 76.3411 82.0816 75.7651 82.9844 75.1212C84.1908 74.3639 85.554 73.8881 86.9717 73.7297C88.3893 73.5712 89.8247 73.7342 91.17 74.2063C92.2006 74.613 92.7117 75.1128 92.6095 75.4177Z" fill="#263238"/>
<path d="M115.028 76.7137C114.61 77.2474 112.984 76.7137 111.024 76.7137C109.065 76.7137 107.413 77.078 107.03 76.5273C106.859 76.2563 107.123 75.7225 107.881 75.2227C108.855 74.6177 109.986 74.3125 111.134 74.3457C112.281 74.3789 113.393 74.7489 114.329 75.4091C114.977 75.9089 115.198 76.4511 115.028 76.7137Z" fill="#263238"/>
<path d="M66.0767 89.9462C65.8978 89.4633 56.9627 86.2696 56.8434 95.656C56.7327 104.771 66.034 102.984 66.0511 102.721C66.0681 102.459 66.0767 89.9462 66.0767 89.9462Z" fill="#FFBF9D"/>
<path d="M93.5979 102.459C93.9812 102.459 93.8875 105 95.9998 106.847C98.1122 108.694 100.838 108.541 100.846 108.897C100.846 109.058 100.225 109.363 99.0748 109.346C97.5832 109.311 96.1514 108.756 95.0288 107.779C93.9563 106.842 93.2932 105.526 93.1805 104.111C93.1123 103.052 93.4275 102.442 93.5979 102.459Z" fill="#263238"/>
<path d="M91.0177 50.3308C82.0824 51.8386 73.2584 53.9298 64.6038 56.5907C63.2291 56.8623 61.9847 57.5767 61.0659 58.6217C60.405 59.8691 60.1725 61.2946 60.4034 62.6837C60.8401 71.1009 60.4768 79.54 59.3181 87.8903C58.8184 91.7121 58.9949 95.5906 59.8397 99.3528C61.376 106.489 60.2907 127.842 66.0273 127.522C87.5362 123.001 72.6942 107.324 70.4813 99.9788C70.158 98.7185 70.1548 97.399 70.472 96.1371C70.7892 94.8753 71.4169 93.7102 72.2996 92.7452C73.5963 91.3541 75.4287 90.3942 76.7959 89.0031C78.2207 87.5208 79.062 85.5847 79.168 83.5441C79.2739 81.5036 78.6376 79.4928 77.3738 77.8744C76.3019 76.7196 75.6305 75.2579 75.4568 73.7011C75.189 69.6531 79.2484 68.9853 82.3493 68.0116C88.833 65.9667 101.318 58.7386 99.4576 52.3952L91.0177 50.3308Z" fill="#263238"/>
<path d="M53.2682 67.4593C55.5804 68.1579 57.975 68.5611 60.3926 68.6587C66.2415 68.6445 71.9998 67.2415 77.1738 64.5701C82.3491 61.8817 87.1206 58.5062 91.353 54.5393C93.0089 53.0401 94.2751 51.8136 95.1796 50.8868C95.5976 50.3898 96.0636 49.9334 96.5711 49.5239C96.2181 50.0651 95.8127 50.5717 95.3605 51.0367C94.5256 51.9635 93.3011 53.2991 91.687 54.8528C87.5163 58.9718 82.7306 62.4459 77.4939 65.1561C72.2254 67.8951 66.3279 69.2652 60.3648 69.1357C58.5626 69.0558 56.7795 68.7395 55.0632 68.1953C54.5888 68.0514 54.1241 67.8784 53.6717 67.6774C53.4074 67.5684 53.2543 67.4866 53.2682 67.4593Z" fill="#455A64"/>
<path d="M94.6464 46.1769C94.3758 46.7437 94.0435 47.2741 93.6566 47.7569C92.6801 49.1307 91.6192 50.433 90.481 51.655C82.8549 59.8699 72.5615 64.5907 61.7631 64.826C60.1518 64.8679 58.5398 64.7939 56.9378 64.6045C56.3459 64.5705 55.7599 64.4615 55.1919 64.2797C55.1919 64.132 57.7076 64.5011 61.7356 64.2797C72.3251 63.7321 82.3774 59.1093 90.0548 51.2563C93.0517 48.2736 94.5364 46.0883 94.6464 46.1769Z" fill="#455A64"/>
<path d="M123.516 59.5298C123.149 59.5875 122.776 59.5875 122.41 59.5298C121.402 59.5049 120.397 59.4233 119.399 59.2853C116.094 58.8317 112.878 57.899 109.861 56.5188C106.863 55.1175 104.053 53.3674 101.495 51.3075C100.522 50.5225 99.7497 49.8534 99.2434 49.3645C98.7372 48.8755 98.4708 48.6053 98.4974 48.5667C99.6408 49.2936 100.739 50.0842 101.788 50.9343C104.4 52.8565 107.202 54.5245 110.154 55.914C113.123 57.2574 116.256 58.2303 119.479 58.8093C121.89 59.2982 123.516 59.414 123.516 59.5298Z" fill="#455A64"/>
<path d="M103.98 143.191L102.316 135.773L76.5198 149.784L79.8483 156.377L100.651 163.795L103.98 143.191Z" fill="#FFBF9D"/>
<path d="M143.079 209.305L124.04 221.592L122.302 240.727C122.302 240.727 127.904 243.387 136.127 235.9C144.349 228.414 155.059 213.387 155.059 213.387L143.079 209.305Z" fill="#FFBE9D"/>
<path d="M142.237 217.164L136.006 185.675L119.347 192.244L123.612 233.693L142.237 217.164Z" fill="#FFBE9D"/>
<path d="M187.361 177.311C187.244 176.975 187.041 176.676 186.771 176.442C186.501 176.209 186.175 176.05 185.824 175.981L173.791 173.681C173.269 173.59 172.734 173.609 172.22 173.737C171.706 173.865 171.226 174.1 170.809 174.425L134.709 202.696L136.194 204.332L148.975 208.201L187.548 177.843L187.361 177.311Z" fill="#263238"/>
<path d="M178.678 179.459C179.075 179.231 179.258 178.809 179.089 178.517C178.919 178.224 178.46 178.172 178.063 178.399C177.667 178.627 177.483 179.048 177.653 179.341C177.822 179.634 178.281 179.686 178.678 179.459Z" fill="white"/>
<path d="M187.562 177.883C186.77 177.843 185.983 177.741 185.209 177.577L178.831 176.46L174.432 175.662C174.067 175.572 173.687 175.564 173.319 175.64C172.951 175.716 172.605 175.874 172.306 176.101L170.261 177.723L161.022 184.97C154.457 190.103 148.481 194.704 144.135 198.015L138.961 201.925C138.347 202.419 137.694 202.864 137.009 203.255C137.559 202.685 138.153 202.161 138.787 201.685L143.814 197.616C148.08 194.199 154.003 189.531 160.567 184.399L169.846 177.191L171.945 175.582C172.315 175.31 172.74 175.122 173.191 175.032C173.641 174.943 174.106 174.953 174.553 175.064L178.938 175.955L185.275 177.284C186.052 177.423 186.817 177.624 187.562 177.883Z" fill="#455A64"/>
<path d="M170.448 186.566C170.448 186.566 169.485 186.034 167.988 188.627C166.49 191.22 161.971 198.561 161.971 198.561L157.599 193.946L150.62 192.617C150.62 192.617 148.708 193.468 149.524 194.558C150.987 195.825 152.593 196.919 154.31 197.816L155.901 203.321L148.427 196.021C148.427 196.021 145.178 195.781 145.432 197.896C145.686 200.01 149.778 207.696 149.778 207.696L145.419 205.848L141.194 200.835C141.194 200.835 139.536 200.356 139.67 201.952C139.803 203.547 143.681 210.409 143.681 210.409L149.283 215.914C149.283 215.914 153.04 216.872 153.762 215.914C154.293 215.147 154.741 214.327 155.099 213.467C155.099 213.467 157.225 213.6 157.907 212.789C158.392 212.072 158.72 211.261 158.869 210.409C158.869 210.409 161.744 211.978 162.693 210.409C163.682 208.392 164.328 206.226 164.605 203.999C164.739 202.59 170.488 191.034 170.488 190.622C170.488 190.21 172.641 186.42 170.448 186.566Z" fill="#FFBE9D"/>
<path d="M153.963 215.927C153.327 216.09 152.66 216.09 152.024 215.927C148.903 215.347 146.121 213.607 144.242 211.06C143.547 210.09 143.28 209.385 143.36 209.345C145.969 212.764 149.736 215.126 153.963 215.994V215.927Z" fill="#EB996E"/>
<path d="M153.187 213.002C153.027 213.121 152.051 212.097 151.141 210.635C150.484 209.802 150.059 208.811 149.911 207.762C150.099 207.669 150.861 208.826 151.756 210.262C152.652 211.699 153.348 212.869 153.187 213.002Z" fill="#EB996E"/>
<path d="M158.682 208.427C158.522 208.547 157.559 207.536 156.744 206.047C156.144 205.186 155.814 204.168 155.794 203.122C155.981 203.055 156.596 204.252 157.385 205.701C158.174 207.151 158.856 208.308 158.682 208.427Z" fill="#EB996E"/>
<path d="M163.99 205.036C163.539 204.008 163.185 202.939 162.934 201.845C162.462 200.827 162.086 199.767 161.811 198.68C162.626 199.512 163.245 200.514 163.622 201.614C163.999 202.713 164.124 203.882 163.99 205.036Z" fill="#EB996E"/>
<path d="M112.381 141.567C112.381 141.567 123.679 146.593 127.556 152.963C131.434 159.333 141.956 195.728 141.956 195.728L127.169 198.64L112.381 141.567Z" fill="#274DED"/>
<path d="M127.81 182.178C124.896 172.178 112.381 141.554 112.381 141.554L102.755 138.681C102.755 138.681 102.755 148.668 99.1982 149.32C95.6417 149.971 78.5145 150.077 70.118 139.293L68.5804 136.527L44.6611 151.766C40.65 154.2 34.8073 159.891 33.9649 171.527C33.1895 182.165 31.8926 210.316 31.8926 210.316L55.277 209.504L57.189 219.903L55.5712 232.15C55.5712 232.15 52.3356 249.437 54.2342 252.097C55.5188 253.704 57.3768 254.756 59.4218 255.035L122.262 250.195L124.347 215.768C124.347 215.768 130.725 192.178 127.81 182.178Z" fill="#274DED"/>
<path d="M36.4117 210.329C36.4117 210.329 34.1655 231.858 36.6657 241.738C39.2462 251.95 44.3269 251.804 48.6321 252.11C52.9373 252.416 120.537 217.164 120.537 217.164L113.036 203.866L62.1226 219.212L62.5906 209.332L36.4117 210.329Z" fill="#FFBE9D"/>
<path d="M112.608 204.305L124.802 189.106L135.819 186.566L149.189 188.029C149.334 188.649 149.25 189.299 148.953 189.863C148.656 190.427 148.166 190.866 147.571 191.101L152.278 191.367C152.404 191.708 152.459 192.072 152.439 192.435C152.418 192.799 152.323 193.154 152.159 193.48C151.995 193.805 151.765 194.093 151.484 194.327C151.203 194.56 150.877 194.734 150.526 194.837L153.882 195.422C153.441 196.395 152.686 197.194 151.736 197.693C150.787 198.192 149.698 198.361 148.641 198.175C145.349 197.729 142.03 197.507 138.707 197.51L132.129 201.114L141.929 200.715L149.042 202.045C149.042 202.045 149.978 203.853 148.374 204.292C145.78 204.513 143.172 204.513 140.579 204.292L131.22 206.725C131.22 206.725 129.201 212.736 127.998 214.066C126.794 215.395 120.069 217.137 120.069 217.137L112.608 204.305Z" fill="#FFBE9D"/>
<path d="M152.345 191.38C151.127 191.457 149.904 191.412 148.695 191.247C146.448 191.074 143.346 190.781 139.937 190.409L136.661 190.05H136.795C134.255 190.768 132.049 191.38 130.471 191.752C129.643 192.02 128.786 192.19 127.917 192.257C128.689 191.852 129.505 191.54 130.351 191.326C131.902 190.821 134.081 190.143 136.608 189.385H136.742L140.031 189.717C143.453 190.09 146.542 190.462 148.775 190.768C149.982 190.854 151.178 191.059 152.345 191.38Z" fill="#EB996E"/>
<path d="M153.16 195.276C152.05 195.323 150.938 195.247 149.844 195.05C147.812 194.824 145.018 194.452 141.929 193.999L138.854 193.534H139.028C136.52 194.606 133.937 195.495 131.3 196.194C133.706 194.897 136.204 193.777 138.774 192.843H138.854H138.948L142.023 193.281C145.111 193.733 147.892 194.172 149.911 194.531C151.018 194.659 152.108 194.909 153.16 195.276Z" fill="#EB996E"/>
<path d="M120.109 217.164C120.457 217.021 120.815 216.901 121.179 216.805C121.887 216.579 122.944 216.26 124.281 215.768C124.949 215.528 125.684 215.236 126.473 214.877C126.88 214.695 127.269 214.477 127.636 214.225C127.99 213.916 128.272 213.535 128.465 213.108C129.477 211.028 130.335 208.877 131.033 206.672V206.552H131.153L140.512 204.066H140.606C142.21 204.159 143.908 204.239 145.66 204.239C146.555 204.263 147.45 204.2 148.334 204.053C148.504 204.027 148.663 203.952 148.789 203.836C148.915 203.719 149.004 203.568 149.042 203.401C149.084 203.007 149.009 202.61 148.828 202.257L149.056 202.43L141.929 201.1H142.009L132.209 201.513H130.698L132.035 200.795L138.613 197.178H138.694H138.787C141.274 197.178 143.895 197.284 146.555 197.55C147.291 197.63 148.013 197.723 148.748 197.843C149.405 197.981 150.083 197.981 150.74 197.843C151.374 197.657 151.961 197.34 152.461 196.911C152.961 196.482 153.364 195.952 153.642 195.356L153.909 195.848L150.553 195.263L149.323 195.05L150.486 194.585C151.104 194.372 151.623 193.942 151.943 193.375C152.21 192.807 152.244 192.158 152.037 191.566L152.345 191.792L147.638 191.513L146.301 191.433L147.451 190.861C147.965 190.626 148.391 190.235 148.668 189.744C148.92 189.267 149 188.718 148.895 188.189L149.189 188.441L135.819 186.939H135.926L124.896 189.425L125.029 189.332L115.991 200.396L113.504 203.255L112.849 204.013C112.702 204.186 112.622 204.265 112.608 204.252C112.657 204.146 112.72 204.048 112.796 203.959L113.397 203.162L115.764 200.103L124.615 188.893V188.827H124.708L135.712 186.247H135.819L149.189 187.683H149.43V187.909C149.586 188.602 149.491 189.327 149.163 189.957C148.818 190.571 148.29 191.064 147.652 191.367L147.518 190.715L152.224 190.981H152.465L152.532 191.194C152.671 191.579 152.733 191.987 152.712 192.396C152.691 192.805 152.589 193.205 152.411 193.574C152.01 194.293 151.359 194.841 150.58 195.117L150.513 194.438L153.869 195.023L154.337 195.103L154.136 195.515C153.816 196.213 153.347 196.832 152.764 197.333C152.18 197.833 151.494 198.202 150.754 198.414C149.995 198.574 149.212 198.574 148.454 198.414C147.745 198.295 147.037 198.202 146.315 198.122C143.641 197.856 141.087 197.776 138.627 197.749H138.801L132.222 201.353L132.035 200.688L141.836 200.303H141.916L149.029 201.632H149.189V201.765C149.435 202.245 149.528 202.788 149.457 203.321C149.392 203.603 149.246 203.86 149.037 204.06C148.828 204.261 148.565 204.397 148.28 204.451C147.366 204.604 146.439 204.667 145.512 204.638C143.734 204.638 142.036 204.531 140.418 204.425H140.512L131.153 206.805L131.313 206.659C130.588 208.877 129.694 211.038 128.639 213.122C128.414 213.588 128.09 214.001 127.69 214.332C127.302 214.591 126.89 214.813 126.46 214.996C125.658 215.356 124.896 215.621 124.227 215.848C122.89 216.3 121.807 216.579 121.085 216.765L120.256 216.965L120.109 217.164Z" fill="#EB996E"/>
<path d="M31.2107 210.329C31.4249 210.275 31.645 210.249 31.8658 210.249L33.7778 210.129L40.9041 209.797L65.3047 208.866L64.9704 209.212C65.064 205.808 64.9705 202.177 64.81 198.454C64.5025 192.297 63.9677 186.486 63.62 181.087C63.4329 178.428 63.3527 175.875 63.1387 173.508C62.9603 171.323 62.6206 169.154 62.1226 167.019C61.4275 163.915 60.1334 160.975 58.3121 158.362C56.9751 156.54 55.999 155.702 56.0525 155.702C56.311 155.864 56.5489 156.056 56.7611 156.274C57.4023 156.872 57.9926 157.521 58.526 158.216C60.4664 160.808 61.8541 163.767 62.6039 166.912C63.1405 169.066 63.5115 171.258 63.7136 173.468C63.9543 175.848 64.0613 178.388 64.2618 181.048C64.6496 186.367 65.1977 192.244 65.5186 198.414C65.7058 202.151 65.7593 205.808 65.6523 209.225V209.558H65.3181L40.9175 210.236L33.7911 210.369H31.8792C31.6556 210.383 31.431 210.37 31.2107 210.329Z" fill="#263238"/>
<path d="M116.325 281.085C114.794 278.443 112.451 276.36 109.64 275.141L109.266 251.206L59.4485 255.035C59.4485 255.035 41.6394 279.21 41.6394 288.878C41.6394 298.545 41.6394 317.853 63.1253 331.776L112.969 296.338C112.969 296.338 118.946 285.54 116.325 281.085Z" fill="#263238"/>
<path d="M155.54 342.76L112.381 299.144L97.6875 252.097L122.315 250.208L125.324 275.687" fill="#263238"/>
<path d="M81.1618 254.091C81.3686 254.576 81.5081 255.086 81.5763 255.607C81.8517 257.007 82.0259 258.425 82.0977 259.849C82.2154 261.974 82.0626 264.105 81.6431 266.192C81.1217 268.769 80.0751 271.213 78.568 273.373C77.0601 275.556 74.9982 277.304 72.5915 278.439C70.6153 279.333 68.447 279.726 66.2808 279.583C64.8283 279.487 63.4099 279.103 62.1092 278.452C61.7586 278.276 61.4232 278.072 61.1065 277.841C60.8925 277.681 60.7856 277.588 60.799 277.575C62.5098 278.452 64.3861 278.964 66.3075 279.077C68.3788 279.144 70.4364 278.72 72.3107 277.841C74.5846 276.722 76.5319 275.042 77.9663 272.961C80.5227 269.085 81.7859 264.506 81.5763 259.876C81.5094 256.299 81.028 254.118 81.1618 254.091Z" fill="#263238"/>
<path d="M116.138 271.378C115.458 272.114 114.658 272.729 113.772 273.2C109.64 275.748 104.888 277.127 100.027 277.189C99.0291 277.262 98.0258 277.168 97.0591 276.91C103.803 276.827 110.397 274.924 116.138 271.405V271.378Z" fill="#455A64"/>
<path d="M113.371 254.291C113.371 254.224 114.226 253.985 115.309 254.796C115.624 255.04 115.877 255.353 116.049 255.711C116.22 256.068 116.306 256.461 116.299 256.857C116.292 257.354 116.146 257.839 115.877 258.257C115.607 258.676 115.225 259.011 114.775 259.224C114.306 259.41 113.791 259.45 113.299 259.338C112.808 259.227 112.361 258.969 112.02 258.599C111.741 258.297 111.561 257.918 111.504 257.512C111.446 257.106 111.515 256.692 111.699 256.325C111.808 256.087 111.963 255.872 112.156 255.694C112.349 255.516 112.575 255.378 112.822 255.288C113.17 255.182 113.384 255.288 113.384 255.288C113.384 255.288 112.568 255.501 112.181 256.538C112.07 256.811 112.043 257.111 112.103 257.399C112.162 257.688 112.306 257.952 112.515 258.16C112.77 258.41 113.093 258.582 113.444 258.655C113.794 258.728 114.159 258.7 114.494 258.573C114.823 258.412 115.103 258.168 115.305 257.864C115.507 257.56 115.624 257.208 115.644 256.844C115.659 256.537 115.608 256.231 115.492 255.946C115.377 255.661 115.2 255.405 114.975 255.195C114.106 254.397 113.357 254.411 113.371 254.291Z" fill="#455A64"/>
<path d="M120.911 284.583C120.816 282.988 121.134 281.395 121.837 279.958C122.539 278.521 123.602 277.288 124.922 276.378C125.07 276.538 123.585 278 122.489 280.274C121.393 282.548 121.125 284.609 120.911 284.583Z" fill="#455A64"/>
<path d="M83.8224 256.445C83.8184 256.839 83.7507 257.229 83.6219 257.602C83.3639 258.641 83.015 259.655 82.579 260.634C81.9442 262.092 81.1696 263.486 80.2659 264.796C78.0418 268.022 75.1233 270.716 71.7223 272.681C70.3413 273.479 68.8861 274.143 67.377 274.663C66.3644 275.023 65.322 275.294 64.2618 275.474C63.8786 275.576 63.4813 275.617 63.0852 275.593C63.0852 275.461 64.703 275.155 67.1899 274.184C68.6399 273.608 70.0396 272.914 71.3747 272.11C74.651 270.131 77.4893 267.512 79.7177 264.41C80.6246 263.148 81.4251 261.814 82.111 260.421C83.2742 257.987 83.7021 256.365 83.8224 256.445Z" fill="#455A64"/>
<line x1="-0.369873" y1="267.25" x2="321.37" y2="267.25" stroke="#263238" stroke-width="1.5"/>
</g>
</svg>
