<svg width="320" height="278" viewBox="0 0 320 278" fill="none" xmlns="http://www.w3.org/2000/svg">
<mask id="mask0_2086_4272" style="mask-type:alpha" maskUnits="userSpaceOnUse" x="0" y="0" width="320" height="278">
<rect width="320" height="278" fill="#D9D9D9"/>
</mask>
<g mask="url(#mask0_2086_4272)">
<path d="M190.617 133.198C189.666 129.416 190.916 125.484 191.58 121.64C192.547 116.037 192.249 110.299 192.033 104.612C191.817 98.9251 191.701 93.16 193.012 87.6288C194.322 82.0976 197.225 76.728 201.925 73.592C206.625 70.456 213.316 70.0215 217.812 73.4638L215.6 88.0577C217.661 108.612 217.375 129.337 214.748 149.825C208.641 150.836 202.436 151.121 196.263 150.672C194.997 150.577 193.526 150.321 192.945 149.19C192.232 147.815 193.316 146.244 193.758 144.734C194.344 142.779 193.758 140.662 192.968 138.796C192.177 136.93 191.115 135.159 190.617 133.198Z" fill="#263238"/>
<path d="M209.506 77.2293C211.283 75.3962 213.48 74.0322 215.904 73.2577C216.873 72.878 217.932 72.7985 218.945 73.0293C219.935 73.3301 220.787 74.2826 220.67 75.3131L214.765 83.9413C213.598 85.0554 211.674 84.9161 210.214 84.2087C209.108 83.6517 208.036 82.7437 207.759 81.5127C207.4 79.9531 208.389 78.3934 209.506 77.2293Z" fill="#AEC2FC"/>
<path d="M254.705 101.437C253.499 89.0603 242.894 79.2457 230.342 79.7136C217.021 80.2316 206.935 91.5112 207.87 104.512L212.946 156.805C213.046 157.816 213.478 158.764 214.173 159.501C217.889 163.467 223.911 166.068 228.898 165.973C233.731 165.879 238.337 163.879 242.003 160.96C242.612 160.474 243.084 159.836 243.37 159.108C243.657 158.381 243.748 157.59 243.634 156.816L242.02 145.185C242.017 145.175 242.017 145.164 242.019 145.154C242.022 145.143 242.026 145.134 242.032 145.125C242.039 145.117 242.047 145.11 242.056 145.105C242.065 145.1 242.076 145.097 242.086 145.096C243.175 145.006 244.252 144.802 245.299 144.489C248.229 143.258 255.512 139.014 256.314 127.127C256.579 123.228 255.761 112.288 254.705 101.437Z" fill="#FFBE9D"/>
<path d="M240.455 121.072C240.455 120.955 241.688 120.626 243.734 120.181C244.254 120.081 244.74 119.936 244.796 119.574C244.79 119.033 244.618 118.508 244.304 118.07L242.39 114.26C239.72 108.829 237.734 104.345 237.967 104.233C238.199 104.122 240.532 108.444 243.203 113.875L245.056 117.724C245.31 118.281 245.708 118.933 245.514 119.735C245.454 119.926 245.352 120.1 245.215 120.245C245.078 120.39 244.91 120.501 244.724 120.571C244.44 120.674 244.145 120.742 243.845 120.771C241.738 121.061 240.477 121.189 240.455 121.072Z" fill="#263238"/>
<path d="M252.797 110.377C252.62 110.717 250.945 109.659 248.926 109.999C246.908 110.338 245.609 111.814 245.354 111.547C245.222 111.43 245.354 110.851 245.907 110.171C246.605 109.316 247.588 108.744 248.672 108.562C249.771 108.396 250.892 108.635 251.829 109.236C252.592 109.715 252.908 110.221 252.797 110.377Z" fill="#263238"/>
<path d="M232.548 111.67C232.305 111.982 230.679 110.712 228.456 110.773C226.233 110.834 224.652 112.132 224.398 111.831C224.276 111.698 224.508 111.141 225.199 110.539C226.105 109.771 227.245 109.339 228.428 109.316C229.612 109.292 230.767 109.679 231.702 110.411C232.41 110.985 232.67 111.53 232.548 111.67Z" fill="#263238"/>
<path d="M242.009 145.146C242.009 145.146 234.146 146.489 223.695 141.47C223.695 141.47 227.776 151.558 242.529 148.862L242.009 145.146Z" fill="#EB996E"/>
<path d="M240.394 125.924C239.704 125.706 238.97 125.665 238.26 125.806C237.55 125.947 236.886 126.265 236.33 126.731C235.919 127.056 235.577 127.461 235.325 127.921C235.072 128.381 234.914 128.888 234.859 129.411C234.808 129.91 234.914 130.413 235.161 130.85C235.408 131.286 235.783 131.634 236.236 131.845C237.259 132.235 238.492 131.667 239.266 130.775C239.987 129.833 240.515 128.755 240.82 127.606C240.941 127.303 241.005 126.98 241.008 126.653C241.009 126.498 240.964 126.346 240.878 126.217C240.792 126.088 240.67 125.987 240.527 125.929" fill="#EB996E"/>
<path d="M233.549 108.155C233.073 108.5 231.519 107.113 229.363 105.982C227.206 104.852 225.232 104.284 225.243 103.688C225.243 103.409 225.829 103.17 226.775 103.17C228.016 103.209 229.231 103.543 230.319 104.144C231.416 104.726 232.362 105.558 233.084 106.573C233.643 107.369 233.77 107.988 233.549 108.155Z" fill="#263238"/>
<path d="M250.834 102.49C250.773 103.119 249.142 103.771 247.516 104.997C245.891 106.222 244.752 107.537 244.121 107.397C243.839 107.319 243.773 106.785 244.121 105.977C244.613 104.909 245.376 103.99 246.333 103.314C247.264 102.606 248.365 102.16 249.524 102.022C250.37 101.966 250.845 102.195 250.834 102.49Z" fill="#263238"/>
<path d="M231.741 76.8561C230.392 75.185 228.285 74.6893 226.023 74.706C216.8 74.7672 207.604 81.8358 203.756 90.3025C199.907 98.7691 201.434 110.188 206.449 117.986L209.921 118.042C216.894 116.493 225.625 94.8589 233.776 82.3928C234.788 80.7997 232.891 78.2876 231.741 76.8561Z" fill="#263238"/>
<path d="M211.508 113.525C211.281 113.441 202.44 111.452 203.297 120.354C204.154 129.255 212.846 126.553 212.841 126.297C212.835 126.041 211.508 113.525 211.508 113.525Z" fill="#FFBE9D"/>
<path d="M209.816 123.189C209.777 123.189 209.672 123.311 209.424 123.456C209.072 123.649 208.66 123.697 208.273 123.59C207.306 123.334 206.377 121.919 206.178 120.32C206.081 119.56 206.155 118.787 206.393 118.059C206.454 117.775 206.583 117.51 206.768 117.287C206.953 117.063 207.189 116.889 207.455 116.778C207.627 116.712 207.817 116.71 207.991 116.771C208.165 116.832 208.312 116.953 208.406 117.112C208.55 117.351 208.511 117.529 208.555 117.541C208.6 117.552 208.732 117.374 208.622 117.011C208.551 116.795 208.408 116.611 208.218 116.488C207.957 116.326 207.643 116.274 207.344 116.343C206.988 116.451 206.666 116.649 206.407 116.918C206.149 117.187 205.963 117.518 205.868 117.88C205.566 118.688 205.466 119.559 205.575 120.415C205.802 122.203 206.88 123.79 208.19 124.041C208.435 124.088 208.686 124.078 208.927 124.014C209.167 123.949 209.39 123.831 209.578 123.668C209.822 123.406 209.849 123.2 209.816 123.189Z" fill="#EB996E"/>
<path d="M214.748 109.965C214.721 109.837 216.872 109.737 219.907 108.294C223.824 106.324 227.09 103.251 229.307 99.4486C231.475 95.6102 232.919 91.4006 233.565 87.0327C233.842 85.3617 234.002 83.9914 234.118 83.05C234.142 82.5565 234.211 82.0662 234.323 81.5851C234.374 82.0776 234.374 82.5742 234.323 83.0667C234.284 84.0192 234.185 85.4007 233.952 87.094C233.408 91.5444 231.989 95.841 229.778 99.7327C227.09 104.272 223.181 107.308 220.046 108.645C218.81 109.203 217.51 109.602 216.175 109.831C215.809 109.898 215.44 109.942 215.069 109.965C214.881 109.982 214.748 109.982 214.748 109.965Z" fill="#263238"/>
<path d="M213.631 142.228C213.723 142.137 213.801 142.034 213.864 141.921C214.077 141.618 214.262 141.295 214.417 140.958C214.973 139.717 215.232 138.363 215.174 137.003C215.134 136.06 214.948 135.13 214.621 134.246C214.197 133.272 213.684 132.339 213.089 131.461C212.536 130.53 212.066 129.372 212.57 128.313C213.073 127.255 214.118 126.503 214.781 125.289C214.951 124.978 215.04 124.629 215.04 124.275C215.04 123.921 214.951 123.572 214.781 123.261C214.421 122.727 214.003 122.234 213.537 121.791C213.179 121.367 212.933 120.858 212.824 120.313C212.714 119.767 212.745 119.202 212.912 118.671C213.198 117.671 213.655 116.729 214.262 115.886C214.795 115.124 215.263 114.317 215.661 113.474C215.969 112.856 216.119 112.171 216.099 111.479C216.079 110.788 215.888 110.113 215.545 109.514C215.346 109.196 215.07 108.933 214.743 108.751C214.635 108.682 214.515 108.634 214.389 108.612C214.805 108.851 215.156 109.19 215.412 109.598C215.712 110.177 215.869 110.821 215.869 111.475C215.869 112.128 215.712 112.772 215.412 113.352C215.002 114.169 214.527 114.952 213.991 115.691C213.348 116.56 212.863 117.537 212.559 118.577C212.403 119.157 212.364 119.763 212.442 120.359C212.542 120.983 212.821 121.564 213.244 122.03C213.676 122.45 214.065 122.913 214.405 123.412C214.546 123.662 214.62 123.945 214.62 124.233C214.62 124.521 214.546 124.804 214.405 125.055C213.853 126.135 212.747 126.904 212.194 128.102C211.931 128.693 211.878 129.358 212.044 129.984C212.2 130.557 212.439 131.103 212.752 131.605C213.347 132.47 213.863 133.388 214.295 134.346C214.612 135.194 214.799 136.087 214.848 136.992C214.93 138.322 214.719 139.653 214.229 140.891C213.891 141.765 213.598 142.205 213.631 142.228Z" fill="#263238"/>
<path d="M185.365 141.286C185.321 141.403 185.503 141.671 186.073 141.843C186.494 141.93 186.929 141.925 187.349 141.829C187.768 141.733 188.163 141.548 188.506 141.286C189.022 140.923 189.452 140.449 189.766 139.899C189.958 139.57 190.105 139.216 190.203 138.847C190.3 138.467 190.358 138.079 190.374 137.688C190.361 135.984 189.905 134.314 189.053 132.842C188.273 131.327 187.361 129.851 187.178 128.453C186.996 127.054 187.449 125.45 188.367 123.662C189.285 121.874 190.579 119.914 191.508 117.446C192.409 114.999 192.981 112.442 193.211 109.843C193.725 104.618 193.36 99.8163 193.526 95.6554C193.596 92.0192 194.273 88.4207 195.528 85.0108C196.388 82.7445 197.706 80.6828 199.399 78.956C200.023 78.3656 200.505 77.881 200.886 77.569C201.268 77.2571 201.4 77.012 201.345 76.8616C201.29 76.7112 201.008 76.7224 200.505 76.8282C199.778 77.005 199.081 77.2884 198.437 77.6693C196.066 79.1428 194.152 81.2532 192.907 83.7631C191.098 87.3835 190.028 91.3326 189.761 95.3769C189.379 99.833 189.617 104.623 189.136 109.369C188.941 111.623 188.475 113.846 187.748 115.987C187.079 117.97 185.912 119.841 184.983 121.974C184.487 123.061 184.116 124.201 183.877 125.372C183.623 126.586 183.623 127.84 183.877 129.054C184.14 130.125 184.571 131.146 185.155 132.079C185.658 132.914 186.161 133.622 186.592 134.268C187.354 135.276 187.877 136.446 188.124 137.688C188.156 137.926 188.165 138.167 188.152 138.406C188.14 138.611 188.103 138.813 188.041 139.008C187.924 139.382 187.736 139.73 187.488 140.033C186.515 141.203 185.453 140.974 185.365 141.286Z" fill="#263238"/>
<path d="M239.266 132.029C239.266 132.068 239.062 132.112 238.713 132.19C238.178 132.307 237.634 132.374 237.087 132.391C236.901 132.389 236.715 132.363 236.535 132.313C236.329 132.263 236.131 132.188 235.943 132.09C235.732 131.979 235.544 131.827 235.39 131.644C234.952 131.036 234.647 130.341 234.494 129.606C234.488 129.458 234.5 129.31 234.527 129.166L234.61 128.787C234.672 128.527 234.748 128.27 234.837 128.018C235.013 127.496 235.3 127.019 235.677 126.62C236.041 126.258 236.479 125.98 236.96 125.807C237.75 125.532 238.595 125.458 239.421 125.589C240.798 125.812 241.566 126.146 241.555 126.213C241.544 126.28 240.704 126.107 239.382 125.996C238.632 125.932 237.876 126.037 237.17 126.302C236.769 126.462 236.405 126.705 236.103 127.015C235.788 127.361 235.549 127.769 235.401 128.213C235.317 128.445 235.245 128.681 235.185 128.92L235.102 129.277C235.082 129.376 235.073 129.477 235.075 129.578C235.128 130.007 235.273 130.419 235.5 130.786C235.629 131.148 235.872 131.458 236.192 131.667C236.482 131.84 236.807 131.946 237.143 131.978C237.79 132.023 238.343 131.978 238.724 131.978C239.106 131.978 239.266 131.99 239.266 132.029Z" fill="#263238"/>
<path d="M251.603 149.814L239.399 154.148C239.399 154.148 240.803 166.113 240.864 165.366C240.925 164.62 251.603 149.814 251.603 149.814Z" fill="#FFBE9D"/>
<path d="M239.266 132.029C239.266 132.068 239.062 132.112 238.713 132.19C238.178 132.307 237.634 132.374 237.087 132.391C236.901 132.389 236.715 132.363 236.535 132.313C236.329 132.263 236.131 132.188 235.943 132.09C235.732 131.979 235.544 131.827 235.39 131.644C234.952 131.036 234.647 130.341 234.494 129.606C234.488 129.458 234.5 129.31 234.527 129.166L234.61 128.787C234.672 128.527 234.748 128.27 234.837 128.018C235.013 127.496 235.3 127.019 235.677 126.62C236.041 126.258 236.479 125.98 236.96 125.807C237.75 125.532 238.595 125.458 239.421 125.589C240.798 125.812 241.566 126.146 241.555 126.213C241.544 126.28 240.704 126.107 239.382 125.996C238.632 125.932 237.876 126.037 237.17 126.302C236.769 126.462 236.405 126.705 236.103 127.015C235.788 127.361 235.549 127.769 235.401 128.213C235.317 128.445 235.245 128.681 235.185 128.92L235.102 129.277C235.082 129.376 235.073 129.477 235.075 129.578C235.128 130.007 235.273 130.419 235.5 130.786C235.629 131.148 235.872 131.458 236.192 131.667C236.482 131.84 236.807 131.946 237.143 131.978C237.79 132.023 238.343 131.978 238.724 131.978C239.106 131.978 239.266 131.99 239.266 132.029Z" fill="#263238"/>
<path d="M257.829 91.0718L252.476 101.098L282.739 120.382L291.697 104.379L257.829 91.0718Z" fill="#FFBE9D"/>
<path d="M190.955 133.544C190.955 133.544 197.187 93.873 198.652 89.8068C200.117 85.7405 209.772 75.3243 215.633 76.611C221.494 77.8977 225.647 83.5682 225.99 92.3245C226.333 101.081 214.848 164.007 214.848 164.007C214.848 164.007 198.038 177.019 191.569 169.065C185.099 161.111 187.029 153.056 190.955 133.544Z" fill="#AEC2FC"/>
<path d="M202.534 157.039C202.534 157.039 231.508 165.427 233.621 164.987C242.495 163.132 251.603 149.814 251.603 149.814L257.298 148.199C257.298 148.199 267.124 179.615 263.989 196.058C260.853 212.501 257.187 222.271 257.187 222.271L262.357 268.286H177.955L195.168 218.472L190.64 167.817L202.534 157.039Z" fill="#AEC2FC"/>
<path d="M279.985 120.755L284.248 124.654L255.694 149.107L262.009 185.809C262.009 185.809 286.521 162.414 296.231 152.817C311.625 137.577 317.187 126.715 315.711 122.632C313.234 115.798 291.254 102.301 291.254 102.301L279.985 120.755Z" fill="#AEC2FC"/>
<path d="M213.659 182.907C213.598 182.907 213.134 181.932 212.658 180.222C212.385 179.218 212.173 178.199 212.023 177.169C211.651 174.642 211.634 172.075 211.973 169.544C212.11 168.513 212.31 167.492 212.57 166.486C213.023 164.77 213.471 163.768 213.532 163.79C213.72 163.834 212.244 168.001 212.305 173.359C212.365 178.718 213.847 182.862 213.659 182.907Z" fill="#263238"/>
<path d="M242.435 193.184C242.539 193.587 242.587 194.003 242.578 194.42C242.624 195.551 242.574 196.684 242.429 197.807C241.969 201.547 240.602 205.116 238.448 208.198C236.295 211.281 233.422 213.782 230.082 215.481C229.08 215.996 228.037 216.425 226.963 216.762C226.578 216.912 226.174 217.007 225.763 217.046C225.73 216.94 227.422 216.489 229.894 215.119C233.107 213.361 235.874 210.878 237.978 207.866C240.082 204.853 241.467 201.392 242.025 197.751C242.468 194.955 242.324 193.184 242.435 193.184Z" fill="#263238"/>
<path d="M272.897 166.603C272.963 166.664 272.134 167.628 270.895 169.26C267.664 173.508 265.122 178.246 263.364 183.297C262.684 185.235 262.341 186.46 262.258 186.438C262.175 186.416 262.396 185.157 262.982 183.168C264.549 177.981 267.134 173.164 270.585 169.004C271.901 167.422 272.847 166.553 272.897 166.603Z" fill="#263238"/>
<path d="M263.983 193.93C263.751 194.004 263.512 194.052 263.27 194.075C262.8 194.142 262.109 194.27 261.207 194.353C258.67 194.636 256.118 194.768 253.566 194.749C249.779 194.706 245.998 194.445 242.241 193.969C238 193.479 233.361 192.688 228.5 192.008C220.171 190.962 211.742 191.027 203.43 192.203C200.239 192.654 197.684 193.172 195.921 193.551L193.891 194.002C193.657 194.069 193.416 194.11 193.172 194.125C193.392 194.023 193.622 193.944 193.858 193.891C194.317 193.757 194.964 193.551 195.865 193.334C197.618 192.883 200.167 192.303 203.363 191.802C207.107 191.215 210.884 190.867 214.671 190.761C216.811 190.699 219.056 190.722 221.384 190.822C223.712 190.922 226.112 191.139 228.572 191.44C233.466 192.12 238.072 192.927 242.302 193.445C246.04 193.942 249.802 194.242 253.571 194.342C256.789 194.398 259.394 194.281 261.191 194.13C262.092 194.08 262.783 193.991 263.259 193.958C263.499 193.923 263.741 193.914 263.983 193.93Z" fill="white"/>
<path d="M286.007 163.205C285.891 163.205 285.924 161.35 285.393 158.437L285.167 157.323C285.084 156.927 284.956 156.526 284.851 156.103C284.652 155.256 284.332 154.382 284.016 153.457C282.553 149.47 280.295 145.826 277.381 142.751C276.69 142.066 276.054 141.392 275.385 140.841C275.059 140.562 274.755 140.284 274.434 140.022L273.516 139.32C271.149 137.56 269.474 136.786 269.529 136.68C269.944 136.801 270.343 136.971 270.718 137.187L271.343 137.487C271.564 137.604 271.802 137.755 272.056 137.905C272.641 138.236 273.207 138.599 273.754 138.991L274.71 139.676C275.042 139.916 275.357 140.206 275.695 140.484C276.415 141.084 277.105 141.72 277.763 142.389C280.78 145.48 283.088 149.199 284.525 153.284C284.835 154.173 285.101 155.076 285.321 155.991C285.421 156.42 285.537 156.833 285.609 157.239L285.802 158.403C285.914 159.069 285.989 159.74 286.029 160.414C286.029 160.709 286.079 160.971 286.09 161.244C286.101 161.517 286.09 161.729 286.09 161.94C286.11 162.364 286.082 162.788 286.007 163.205Z" fill="white"/>
<path d="M223.363 114.043C223.044 114.272 222.697 114.46 222.329 114.6C221.92 114.809 221.499 114.995 221.069 115.157C220.566 115.34 220.002 115.574 219.355 115.753C218.708 115.931 218.005 116.165 217.226 116.31C216.446 116.454 215.617 116.633 214.737 116.777C210.896 117.323 206.986 117.134 203.214 116.22C202.351 115.992 201.555 115.786 200.781 115.519C200.007 115.251 199.338 115.006 198.718 114.75C198.099 114.494 197.552 114.221 197.06 113.992C196.646 113.799 196.244 113.584 195.854 113.346C195.502 113.174 195.173 112.957 194.875 112.7C194.925 112.605 196.374 113.424 198.862 114.371C199.487 114.6 200.167 114.856 200.919 115.067C201.671 115.279 202.473 115.496 203.325 115.708C207.043 116.55 210.878 116.739 214.66 116.265C215.528 116.137 216.358 116.031 217.115 115.858C217.873 115.686 218.586 115.535 219.227 115.363C221.832 114.627 223.325 113.942 223.363 114.043Z" fill="white"/>
<path d="M198.094 88.8765C198.196 88.5326 198.349 88.2059 198.547 87.9073C199.047 87.0676 199.619 86.2736 200.256 85.5344C201.848 83.6406 204.536 81.4849 207.698 79.5075C208.484 79.0062 209.258 78.5271 210.01 78.0704C210.735 77.6119 211.497 77.2151 212.288 76.8839C213.023 76.577 213.809 76.4144 214.605 76.4049C215.294 76.4092 215.979 76.5297 216.629 76.7614C217.547 77.0961 218.42 77.5452 219.228 78.0982C219.54 78.2713 219.826 78.491 220.074 78.7499C219.734 78.6405 219.411 78.487 219.111 78.2932C218.281 77.8378 217.409 77.4647 216.507 77.1792C215.895 76.9907 215.256 76.9023 214.616 76.9174C213.884 76.9486 213.164 77.1167 212.493 77.4131C211.726 77.7455 210.986 78.1384 210.281 78.5884L208.008 80.0144C205.294 81.6317 202.792 83.5853 200.56 85.8296C198.907 87.5842 198.182 88.9267 198.094 88.8765Z" fill="#263238"/>
<path d="M259.521 114.633C259.182 114.768 258.804 114.768 258.465 114.633C258.08 114.453 257.763 114.152 257.563 113.775C257.435 113.528 257.358 113.258 257.338 112.98C257.318 112.702 257.355 112.423 257.447 112.16C257.675 111.503 258.02 110.893 258.465 110.361C259.007 109.734 259.487 109.055 259.897 108.333C260.115 107.917 260.246 107.46 260.284 106.991C260.31 106.494 260.216 105.999 260.008 105.548C259.55 104.654 258.902 103.872 258.111 103.259C257.358 102.682 256.692 101.997 256.137 101.226C255.695 100.475 255.49 99.6064 255.551 98.7357C255.623 97.0646 256.176 95.5384 256.203 94.196C256.31 93.134 256.069 92.0661 255.518 91.1547C255.356 90.9167 255.156 90.7077 254.926 90.5364C254.766 90.425 254.677 90.3749 254.666 90.3916C254.934 90.6488 255.173 90.9346 255.379 91.2438C255.86 92.1415 256.053 93.1668 255.932 94.1793C255.871 95.466 255.291 96.9644 255.191 98.719C255.118 99.6682 255.336 100.617 255.816 101.437C256.388 102.248 257.077 102.967 257.862 103.571C258.608 104.147 259.221 104.878 259.659 105.715C259.836 106.102 259.921 106.525 259.907 106.95C259.893 107.376 259.779 107.792 259.576 108.166C259.186 108.872 258.73 109.54 258.216 110.16C257.756 110.732 257.407 111.386 257.187 112.087C257.094 112.385 257.063 112.7 257.096 113.01C257.129 113.321 257.226 113.621 257.381 113.892C257.617 114.299 257.984 114.613 258.421 114.783C258.697 114.887 259.001 114.887 259.278 114.783C259.37 114.756 259.454 114.704 259.521 114.633Z" fill="#263238"/>
<path d="M249.916 80.0589C245.492 76.3436 238.52 72.0545 231.171 76.299C230.364 78.6886 233.139 81.1841 235.335 82.5488C238.558 84.5484 241.295 85.8073 243.435 87.2611C247.759 90.2077 253.344 95.3267 254.732 101.771C254.821 102.178 255.136 102.184 255.534 102.056C256.048 101.888 256.844 99.042 256.911 95.4103C257.054 87.6677 254.367 83.7742 249.916 80.0589Z" fill="#263238"/>
<path d="M49.3107 101.66L41.6634 115.029L39.9547 124.537L25.3568 148.082L23.3828 151.268L38.5171 161.896C38.5171 161.896 48.0223 140.172 49.0784 138.106C50.1346 136.039 54.4365 134.708 54.4365 134.708L61.2654 122.593L49.3107 101.66Z" fill="#FFBE9D"/>
<path d="M50.7208 132.24C50.6378 132.24 50.7208 131.182 50.8977 129.5C51.1515 127.329 51.1756 125.137 50.9696 122.96C50.7408 120.799 50.0013 118.725 48.8131 116.911C47.8731 115.541 47.0105 114.923 47.0768 114.839C47.1432 114.756 47.3312 114.934 47.7127 115.223C48.2477 115.643 48.7271 116.13 49.1393 116.672C50.4848 118.493 51.3177 120.646 51.5502 122.905C51.769 125.134 51.6853 127.383 51.3014 129.589C51.036 131.232 50.7927 132.251 50.7208 132.24Z" fill="#EB996E"/>
<path d="M67.1709 154.098L130.97 165.238C130.97 165.238 77.1129 170.936 77.0908 170.19C77.0687 169.443 67.1709 154.098 67.1709 154.098Z" fill="#FFBE9D"/>
<path d="M121.675 126.854C121.52 122.955 119.215 119.54 117.495 116.042C114.99 110.946 113.657 105.359 112.264 99.8442C110.871 94.3298 109.355 88.7707 106.541 83.8356C103.726 78.9004 99.43 74.5891 94.0277 72.9292C88.6254 71.2693 82.1006 72.7621 78.7607 77.3463L84.9704 90.7147C88.7834 111.014 94.8947 130.806 103.185 149.703C109.326 148.932 115.356 147.436 121.15 145.247C122.339 144.796 123.677 144.133 123.915 142.879C124.213 141.353 122.731 140.156 121.885 138.858C120.779 137.153 120.719 134.959 120.973 132.937C121.227 130.915 121.747 128.893 121.675 126.854Z" fill="#263238"/>
<path d="M87.8126 78.6107C85.5944 77.3603 83.1048 76.6792 80.5634 76.6277C79.5277 76.5409 78.4898 76.7678 77.583 77.2794C76.7204 77.8364 76.1675 79.0062 76.5711 79.9643L84.6663 86.5482C86.104 87.2946 87.9066 86.5983 89.0899 85.501C90.0189 84.6543 90.7488 83.4735 90.6879 82.2146C90.5939 80.6048 89.206 79.3961 87.8126 78.6107Z" fill="#AEC2FC"/>
<path d="M51.1135 114.728C48.7856 102.512 56.1896 90.0742 68.3656 86.9549C81.2881 83.6462 94.1331 91.5781 96.8978 104.317L106.757 155.914C106.95 156.911 108.875 161.233 108.416 162.141C105.966 167.004 98.8498 167.928 94.0391 169.265C89.3777 170.558 84.3956 169.95 80.066 168.224C79.3448 167.932 78.7127 167.454 78.2331 166.838C77.7536 166.222 77.4436 165.49 77.3345 164.714L75.6037 153.101C75.6032 153.09 75.6004 153.08 75.5954 153.07C75.5905 153.061 75.5835 153.053 75.5751 153.046C75.5666 153.04 75.5569 153.036 75.5465 153.033C75.5362 153.031 75.5255 153.031 75.5153 153.034C74.446 153.26 73.3564 153.373 72.2639 153.374C69.1066 153.028 60.9284 151.04 56.8089 139.872C55.4487 136.162 53.1816 125.434 51.1135 114.728Z" fill="#FFBE9D"/>
<path d="M70.472 129.483C70.472 129.366 69.1615 129.411 67.0769 129.567C66.5239 129.617 66.0428 129.617 65.888 129.288C65.7422 128.768 65.7596 128.216 65.9378 127.706L66.7008 123.506C67.7349 117.535 68.3597 112.672 68.1275 112.633C67.8952 112.594 66.8557 117.407 65.8217 123.378C65.5784 124.864 65.348 126.267 65.1305 127.589C65.0475 128.207 64.8429 128.937 65.2576 129.65C65.371 129.813 65.5194 129.947 65.6918 130.044C65.8642 130.14 66.0561 130.196 66.253 130.207C66.5545 130.227 66.8573 130.208 67.1543 130.151C69.2168 129.851 70.4886 129.589 70.472 129.483Z" fill="#263238"/>
<path d="M62.7974 121.117C62.5485 120.827 61.1385 122.231 59.0871 122.337C57.0356 122.442 55.4763 121.284 55.2662 121.607C55.1611 121.752 55.421 122.286 56.1011 122.832C56.9759 123.518 58.0691 123.859 59.1755 123.79C60.2835 123.712 61.326 123.233 62.1117 122.442C62.7255 121.791 62.919 121.234 62.7974 121.117Z" fill="#263238"/>
<path d="M82.1672 116.081C81.8077 115.92 80.9562 117.802 78.9545 118.788C76.9528 119.774 74.9567 119.345 74.8737 119.746C74.824 119.925 75.2885 120.303 76.1787 120.515C77.3343 120.774 78.5429 120.625 79.6026 120.094C80.6624 119.562 81.5091 118.681 82.0013 117.596C82.3607 116.778 82.3386 116.148 82.1672 116.081Z" fill="#263238"/>
<path d="M75.7637 153.012C75.7637 153.012 83.6819 152.053 92.2914 144.255C92.2914 144.255 91.2186 155.095 76.3111 156.727L75.7637 153.012Z" fill="#EB996E"/>
<path d="M81.6308 110.89C81.4594 110.333 79.3913 110.478 76.9971 110.066C74.6028 109.653 72.684 108.896 72.3357 109.375C72.1809 109.603 72.4905 110.144 73.2425 110.723C74.2537 111.449 75.4207 111.924 76.6487 112.11C77.8757 112.322 79.135 112.242 80.3258 111.876C81.2327 111.57 81.7027 111.157 81.6308 110.89Z" fill="#263238"/>
<path d="M60.1487 112.065C59.5515 111.87 58.3129 113.123 56.5545 114.148C54.7961 115.173 53.1373 115.725 53.0267 116.343C52.988 116.633 53.4469 116.9 54.3151 116.9C55.4896 116.868 56.6345 116.522 57.6328 115.897C58.6448 115.314 59.4845 114.47 60.0657 113.452C60.4473 112.7 60.4252 112.165 60.1487 112.065Z" fill="#263238"/>
<path d="M66.3802 84.593C67.2097 82.6268 69.0842 81.5295 71.2517 80.8945C80.0989 78.321 90.9202 82.4708 96.9861 89.4669C103.052 96.4631 104.816 107.849 102.2 116.761L98.8827 117.808C91.7607 118.315 77.3176 100.061 65.9655 90.425C64.5666 89.2441 65.6614 86.3031 66.3802 84.593Z" fill="#263238"/>
<path d="M49.8637 92.8592C53.0819 88.0243 58.534 81.9249 66.7785 83.8968C68.2217 85.9577 66.2698 89.1439 64.5667 91.0767C62.0397 93.912 59.7671 95.9061 58.1304 97.9113C54.8127 101.972 50.9033 108.495 51.3844 115.056C51.412 115.469 51.1134 115.569 50.6932 115.558C50.1402 115.558 48.5864 113.04 47.5026 109.575C45.1526 102.195 46.6345 97.6885 49.8637 92.8592Z" fill="#263238"/>
<path d="M96.1069 113.992C96.3005 113.848 104.219 109.414 105.905 118.198C107.592 126.982 98.4901 126.871 98.4293 126.62C98.3685 126.369 96.1069 113.992 96.1069 113.992Z" fill="#FFBE9D"/>
<path d="M100.453 122.754C100.486 122.721 100.624 122.832 100.906 122.899C101.297 122.985 101.705 122.915 102.046 122.704C102.903 122.186 103.395 120.56 103.151 118.972C103.029 118.216 102.74 117.496 102.305 116.867C102.171 116.608 101.977 116.387 101.739 116.221C101.501 116.055 101.227 115.95 100.94 115.914C100.756 115.902 100.575 115.955 100.426 116.064C100.278 116.173 100.172 116.331 100.127 116.51C100.055 116.778 100.127 116.945 100.127 116.967C100.127 116.989 99.9111 116.856 99.9111 116.482C99.9176 116.255 100.002 116.037 100.149 115.864C100.354 115.636 100.64 115.498 100.945 115.48C101.317 115.482 101.681 115.579 102.005 115.764C102.328 115.948 102.599 116.213 102.792 116.532C103.309 117.221 103.65 118.026 103.787 118.878C104.069 120.66 103.489 122.487 102.3 123.1C102.079 123.214 101.836 123.276 101.588 123.283C101.34 123.29 101.094 123.24 100.868 123.139C100.508 122.966 100.425 122.777 100.453 122.754Z" fill="#EB996E"/>
<path d="M48.3101 94.9035C48.3101 94.9703 49.3109 94.9982 50.9145 94.8534C55.1053 94.4526 59.1952 93.3217 63.002 91.5113C64.4562 90.8039 65.2967 90.2636 65.2635 90.2079C65.2304 90.1522 64.3235 90.5476 62.8471 91.1548C59.0048 92.756 54.9828 93.8783 50.8702 94.4969C49.3109 94.7085 48.3046 94.8144 48.3101 94.9035Z" fill="#455A64"/>
<path d="M46.3028 101.682C46.9455 101.867 47.618 101.924 48.2823 101.849C51.5193 101.714 54.6245 100.521 57.1295 98.4516C57.674 98.063 58.138 97.5711 58.4953 97.0034C58.3847 96.8641 56.2338 99.0643 52.7889 100.345C49.344 101.627 46.2917 101.504 46.3028 101.682Z" fill="#455A64"/>
<path d="M98.5564 92.3134C98.5232 92.2019 96.6874 92.8314 93.613 93.2102C91.8133 93.4259 90.0005 93.5116 88.1886 93.4664C85.9637 93.3855 83.7468 93.1528 81.5532 92.7701C79.3802 92.3665 77.2343 91.827 75.1279 91.1548C73.4039 90.5859 71.7129 89.9202 70.0629 89.1606C67.2428 87.8572 65.6393 86.8045 65.5674 86.8936C65.9068 87.198 66.2775 87.465 66.6733 87.6901C67.1126 87.9896 67.5666 88.2666 68.0335 88.5201C68.5865 88.8264 69.1892 89.1829 69.897 89.5171C71.5397 90.3346 73.2334 91.0435 74.9675 91.6394C77.0979 92.3471 79.2744 92.9055 81.4813 93.3104C83.6958 93.6984 85.9359 93.92 88.1831 93.9733C90.0186 93.9959 91.853 93.8692 93.6683 93.5945C94.3663 93.4992 95.0585 93.3654 95.7419 93.1934C96.2628 93.0904 96.7763 92.9527 97.2791 92.7812C97.7202 92.6715 98.1483 92.5146 98.5564 92.3134Z" fill="#455A64"/>
<path d="M66.6128 89.8793C66.8696 90.2797 67.166 90.653 67.4975 90.9933C67.8449 91.4243 68.214 91.837 68.6034 92.2299C69.0679 92.6866 69.5656 93.2436 70.1959 93.7728C71.6223 95.072 73.1475 96.2565 74.7578 97.3154C76.7383 98.6009 78.8295 99.7046 81.0061 100.613C83.1962 101.491 85.4618 102.164 87.7742 102.624C89.6779 102.991 91.6091 103.196 93.547 103.237C94.3654 103.287 95.1063 103.237 95.7588 103.203C96.3138 103.19 96.8676 103.145 97.4177 103.069C97.8921 103.043 98.3627 102.969 98.8222 102.847C98.8222 102.735 96.7984 102.991 93.5581 102.847C91.6613 102.754 89.7741 102.517 87.9124 102.139C85.6477 101.656 83.4279 100.98 81.277 100.117C79.1313 99.2209 77.0635 98.1458 75.0951 96.9032C73.4922 95.8774 71.9623 94.7402 70.5166 93.4999C68.0118 91.3609 66.6957 89.8068 66.6128 89.8793Z" fill="#455A64"/>
<path d="M91.9986 111.486C91.9986 111.352 89.9029 111.876 86.5797 111.352C82.2605 110.588 78.255 108.575 75.0507 105.559C71.8903 102.498 69.32 98.874 67.4697 94.8701C66.7343 93.3439 66.1979 92.085 65.8109 91.2049C65.6489 90.738 65.4453 90.2869 65.2026 89.8569C65.2892 90.3453 65.4263 90.8233 65.6118 91.2829C65.9159 92.1853 66.4025 93.4831 67.0993 95.0428C68.8732 99.1553 71.4428 102.871 74.6581 105.971C78.5287 109.553 83.1182 111.352 86.5023 111.742C87.839 111.926 89.1933 111.939 90.5333 111.781C90.9052 111.742 91.2745 111.681 91.6392 111.597C91.888 111.542 92.0041 111.503 91.9986 111.486Z" fill="#263238"/>
<path d="M50.3833 128.754C50.7484 128.781 51.1103 128.668 51.3952 128.436C51.7126 128.153 51.93 127.774 52.0145 127.355C52.0678 127.083 52.0649 126.802 52.006 126.531C51.947 126.26 51.8332 126.004 51.6717 125.779C51.2681 125.215 50.766 124.73 50.1898 124.347C49.4945 123.9 48.8444 123.385 48.2489 122.81C47.924 122.473 47.6701 122.073 47.5024 121.635C47.337 121.167 47.2877 120.666 47.3587 120.175C47.5455 119.188 47.9458 118.254 48.5309 117.44C49.0911 116.673 49.5364 115.826 49.8525 114.928C50.0659 114.082 50.0176 113.19 49.7142 112.372C49.1613 110.767 48.2157 109.486 47.8121 108.205C47.4116 107.219 47.3417 106.127 47.613 105.097C47.7006 104.822 47.8333 104.564 48.0056 104.334C48.1328 104.183 48.1991 104.111 48.2102 104.117C48.0263 104.441 47.878 104.785 47.7678 105.142C47.5668 106.14 47.6769 107.177 48.083 108.11C48.5033 109.325 49.4765 110.578 50.0736 112.255C50.4113 113.144 50.4692 114.116 50.2395 115.04C49.9183 115.98 49.4579 116.867 48.8737 117.669C48.3261 118.435 47.9488 119.311 47.7678 120.237C47.7062 120.658 47.7436 121.089 47.8771 121.493C48.0106 121.897 48.2364 122.265 48.5364 122.565C49.1109 123.13 49.7367 123.639 50.4054 124.086C51.0061 124.503 51.5238 125.03 51.9316 125.64C52.1051 125.899 52.2233 126.192 52.2785 126.5C52.3337 126.808 52.3248 127.124 52.2523 127.428C52.1392 127.884 51.8761 128.289 51.5058 128.575C51.2732 128.759 50.9826 128.852 50.6874 128.837C50.5801 128.84 50.4745 128.81 50.3833 128.754Z" fill="#263238"/>
<path d="M103.234 112.984C103.216 112.827 103.216 112.668 103.234 112.511C103.234 112.204 103.29 111.748 103.301 111.163C103.369 109.515 103.338 107.866 103.207 106.222C103.021 103.786 102.576 101.377 101.879 99.0365C101.038 96.1713 99.7581 93.4558 98.0862 90.9876C97.2097 89.7257 96.2053 88.559 95.0893 87.5063C94.0371 86.5353 92.9009 85.661 91.6941 84.8939C89.6353 83.604 87.4273 82.5733 85.1196 81.8247C83.5641 81.3113 81.9799 80.8909 80.3752 80.5658C79.8223 80.4377 79.3633 80.3709 79.0647 80.304C78.9096 80.2828 78.7575 80.2435 78.6113 80.1871C78.7688 80.1796 78.9265 80.1908 79.0813 80.2205C79.3855 80.2595 79.8389 80.304 80.4084 80.4043C82.0341 80.6618 83.6397 81.0341 85.2136 81.5183C87.5584 82.2475 89.8012 83.2751 91.8877 84.5764C93.1205 85.3464 94.281 86.2283 95.3547 87.2111C96.4972 88.2816 97.524 89.471 98.418 90.7592C100.117 93.2678 101.407 96.034 102.239 98.953C102.927 101.312 103.35 103.741 103.5 106.194C103.608 107.851 103.596 109.513 103.466 111.168C103.428 111.753 103.356 112.204 103.323 112.511C103.312 112.672 103.282 112.831 103.234 112.984Z" fill="#455A64"/>
<path d="M102.156 142.1C102.043 142.041 101.939 141.966 101.846 141.877C101.564 141.645 101.303 141.387 101.067 141.108C100.184 140.078 99.5529 138.853 99.2255 137.532C98.997 136.623 98.9111 135.683 98.9711 134.747C99.101 133.684 99.3287 132.636 99.6512 131.617C99.9167 130.569 100.044 129.322 99.2642 128.453C98.4845 127.584 97.268 127.16 96.2948 126.186C96.049 125.935 95.8696 125.626 95.773 125.287C95.6764 124.949 95.6657 124.591 95.7419 124.247C95.9327 123.643 96.1866 123.06 96.4994 122.509C96.7245 122.001 96.8173 121.443 96.7689 120.888C96.7205 120.334 96.5326 119.801 96.2229 119.34C95.6674 118.461 94.9638 117.686 94.1438 117.051C93.4166 116.473 92.7396 115.834 92.12 115.14C91.6518 114.635 91.3153 114.022 91.1406 113.354C90.9659 112.686 90.9585 111.985 91.1192 111.313C91.2205 110.952 91.4107 110.623 91.6722 110.355C91.7573 110.258 91.8606 110.178 91.9763 110.121C91.6453 110.469 91.4042 110.894 91.274 111.358C91.1514 112 91.1849 112.663 91.3717 113.29C91.5585 113.916 91.8931 114.488 92.3468 114.956C92.969 115.623 93.644 116.238 94.365 116.794C95.2356 117.441 95.9846 118.239 96.5768 119.15C96.8887 119.661 97.0973 120.229 97.1906 120.822C97.2771 121.455 97.1751 122.101 96.8975 122.676C96.6007 123.207 96.358 123.767 96.1732 124.347C96.1115 124.628 96.1229 124.921 96.2062 125.196C96.2895 125.471 96.4419 125.72 96.6487 125.918C97.4947 126.793 98.7776 127.211 99.6236 128.208C100.04 128.7 100.276 129.321 100.293 129.968C100.303 130.561 100.226 131.152 100.066 131.722C99.7392 132.722 99.5023 133.749 99.3582 134.792C99.287 135.697 99.3541 136.608 99.5572 137.493C99.8453 138.782 100.412 139.992 101.216 141.036C101.775 141.738 102.184 142.072 102.156 142.1Z" fill="#263238"/>
<path d="M128.991 133.098C129.068 133.198 128.991 133.51 128.466 133.822C128.083 134.025 127.663 134.142 127.232 134.167C126.8 134.192 126.369 134.124 125.966 133.967C125.367 133.767 124.82 133.436 124.363 132.998C124.087 132.736 123.847 132.438 123.649 132.112C123.449 131.776 123.284 131.419 123.157 131.048C122.692 129.415 122.657 127.687 123.058 126.035C123.379 124.364 123.837 122.693 123.611 121.289C123.384 119.886 122.505 118.504 121.122 117.034C119.74 115.563 117.937 114.076 116.362 111.971C114.808 109.881 113.538 107.592 112.585 105.164C110.622 100.301 109.621 95.611 108.283 91.6506C107.193 88.1833 105.531 84.9257 103.367 82.0142C101.912 80.0871 100.076 78.4845 97.976 77.3074C97.2129 76.923 96.5936 76.6 96.1623 76.405C95.731 76.2101 95.5043 75.9984 95.5209 75.848C95.5375 75.6976 95.8029 75.614 96.3171 75.5806C97.061 75.5439 97.8061 75.6171 98.5289 75.7979C101.209 76.5404 103.631 78.0197 105.524 80.0702C108.286 83.0355 110.428 86.5305 111.822 90.3471C113.448 94.5248 114.587 99.1703 116.362 103.587C117.19 105.695 118.271 107.692 119.58 109.536C120.78 111.246 122.427 112.711 123.943 114.483C124.732 115.379 125.416 116.364 125.983 117.418C126.564 118.511 126.912 119.714 127.006 120.95C127.057 122.051 126.931 123.153 126.635 124.214C126.392 125.161 126.082 125.98 125.872 126.726C125.427 127.91 125.255 129.18 125.369 130.441C125.406 130.678 125.466 130.912 125.546 131.138C125.614 131.334 125.707 131.522 125.823 131.695C126.04 132.02 126.318 132.3 126.641 132.519C127.868 133.371 128.82 132.848 128.991 133.098Z" fill="#263238"/>
<path d="M79.7836 133.995C79.7449 134.073 79.3081 133.889 78.5892 133.778C77.6605 133.619 76.7061 133.728 75.8369 134.094C74.9677 134.46 74.2194 135.067 73.679 135.844C73.2477 136.44 73.0763 136.88 72.9934 136.852C72.9104 136.825 72.9602 136.334 73.3362 135.621C73.844 134.695 74.6492 133.97 75.6197 133.565C76.5902 133.16 77.6685 133.1 78.6777 133.393C79.4352 133.605 79.8168 133.934 79.7836 133.995Z" fill="#263238"/>
<path d="M83.0406 118.877C83.1069 118.911 83.0406 119.223 82.7752 119.657C82.4108 120.213 81.9192 120.672 81.3418 120.996C80.7643 121.319 80.1181 121.498 79.4575 121.518C78.9487 121.518 78.6557 121.401 78.6612 121.328C78.6612 121.161 79.8556 121.184 81.0721 120.487C82.2886 119.791 82.9023 118.794 83.0406 118.877Z" fill="#EB996E"/>
<path d="M60.9723 124.67C61.022 124.721 60.8838 124.993 60.5078 125.305C60.0051 125.701 59.4085 125.958 58.777 126.049C58.1456 126.141 57.5014 126.065 56.9081 125.829C56.4602 125.634 56.2445 125.411 56.2832 125.35C56.3606 125.2 57.3891 125.684 58.6941 125.478C59.9991 125.272 60.8561 124.576 60.9723 124.67Z" fill="#EB996E"/>
<path d="M55.6588 136.524C55.5759 136.524 55.3492 135.41 54.9953 133.566C54.6414 131.722 54.1437 129.205 53.53 126.425C52.9162 123.646 52.2969 121.145 51.8711 119.334C51.4453 117.524 51.1467 116.399 51.2297 116.377C51.3126 116.354 51.7163 117.435 52.2637 119.228C52.8111 121.022 53.4968 123.512 54.1161 126.308C54.7354 129.104 55.1667 131.65 55.4211 133.505C55.6754 135.36 55.7362 136.513 55.6588 136.524Z" fill="#EB996E"/>
<path d="M88.2107 119.401C87.9639 119.127 87.6518 118.92 87.3039 118.8C86.3236 118.414 85.2472 118.352 84.2295 118.621L84.5723 118.827L85.8054 120.042C86.1508 120.44 86.5873 120.748 87.0772 120.938C87.3237 121.027 87.5935 121.025 87.8385 120.932C88.0835 120.839 88.2879 120.662 88.4153 120.432C88.4744 120.257 88.4866 120.07 88.4506 119.889C88.4147 119.708 88.332 119.539 88.2107 119.401Z" fill="#AEC2FC"/>
<path d="M87.6576 123.679C87.6451 123.366 87.5538 123.061 87.3922 122.793C86.9649 122.007 86.3008 121.377 85.4956 120.994L85.6062 121.317L85.75 122.782C85.7584 123.23 85.8741 123.67 86.0873 124.063C86.2004 124.255 86.3774 124.401 86.5868 124.474C86.7963 124.548 87.0248 124.544 87.2319 124.464C87.3657 124.383 87.4756 124.268 87.5505 124.13C87.6253 123.992 87.6623 123.836 87.6576 123.679Z" fill="#AEC2FC"/>
<path d="M77.5207 165.186C77.6779 165.163 77.4666 162.72 77.0488 159.729C76.6309 156.737 76.1646 154.33 76.0074 154.353C75.8501 154.375 76.0614 156.818 76.4793 159.81C76.8972 162.801 77.3634 165.208 77.5207 165.186Z" fill="#EB996E"/>
<path d="M127.786 268.286L125.358 227.897L136.655 183.892L130.97 165.238C130.97 165.238 86.7842 169.299 84.5835 169.527C77.5112 170.251 67.1711 154.098 67.1711 154.098H61.4259C61.4259 154.098 55.7803 153.329 50.2674 158.264C44.7544 163.199 35.1718 171.488 35.1718 171.488L42.3602 157.323L21.0439 147.413C21.0439 147.413 8.25418 170.251 4.74294 178.289C2.42055 183.592 -1.20681 192.938 7.08192 201.89C12.1525 207.365 27.1209 209.281 31.9647 207.677C35.2824 206.563 45.7885 200.753 52.1916 197.15C52.2414 198.002 52.3188 198.821 52.4294 199.623C54.7131 216.205 57.876 226.153 57.876 226.153L52.1142 268.286H127.786Z" fill="#AEC2FC"/>
<path d="M34.0161 175.032C38.6996 165.367 42.3807 157.476 42.238 157.405C42.0953 157.335 38.1829 165.113 33.4993 174.778C28.8158 184.443 25.1347 192.334 25.2774 192.405C25.4201 192.475 29.3326 184.697 34.0161 175.032Z" fill="#263238"/>
<path d="M58.8489 227.178C58.5719 226.585 58.3408 225.97 58.1578 225.34C57.743 224.143 57.1956 222.399 56.5542 220.227C55.2714 215.888 53.712 209.822 52.4126 203.032C51.1132 196.242 50.328 190.025 49.9133 185.513C49.7031 183.285 49.5704 181.431 49.5151 180.166C49.4519 179.513 49.439 178.855 49.4764 178.2C49.6127 178.842 49.6996 179.494 49.7363 180.149C49.8635 181.408 50.057 183.23 50.2893 185.474C50.8035 189.964 51.6551 196.153 52.949 202.926C54.2429 209.699 55.7137 215.737 56.9191 220.121C57.5053 222.304 58.0251 224.065 58.3458 225.279C58.5617 225.898 58.7299 226.533 58.8489 227.178Z" fill="#263238"/>
<path d="M130.971 165.238C130.971 165.238 141.654 172.858 144.241 182.89C146.829 192.922 160.399 268.286 160.399 268.286H136.677L119.69 206.457L130.971 165.238Z" fill="#455A64"/>
<path d="M129.267 209.242C129.013 209.338 128.75 209.409 128.482 209.454C127.962 209.566 127.205 209.761 126.21 209.928C123.406 210.445 120.576 210.8 117.733 210.992C113.515 211.279 109.283 211.279 105.065 210.992C99.8987 210.645 94.7591 209.973 89.6762 208.981C78.8605 206.858 69.3442 203.806 62.5042 201.55C59.0814 200.436 56.3277 199.456 54.4311 198.765L52.247 197.974C51.9889 197.894 51.739 197.79 51.5005 197.662C51.7679 197.704 52.0309 197.771 52.2857 197.863L54.4975 198.553L62.6258 201.149C69.4935 203.305 79.0042 206.285 89.7812 208.39C94.8381 209.382 99.949 210.07 105.087 210.451C109.283 210.759 113.494 210.798 117.694 210.568C121.283 210.362 124.169 210.011 126.16 209.694C127.155 209.56 127.924 209.398 128.449 209.326C128.719 209.272 128.993 209.244 129.267 209.242Z" fill="white"/>
<path d="M149.71 212.685C149.71 212.785 148.14 212.83 145.64 213.18C145.015 213.27 144.33 213.375 143.605 213.526C142.881 213.676 142.107 213.843 141.294 214.033C137.781 214.912 134.396 216.247 131.225 218.004C130.501 218.422 129.804 218.806 129.185 219.213C128.565 219.62 127.979 219.993 127.459 220.327C125.386 221.775 124.202 222.822 124.142 222.744C124.359 222.442 124.615 222.17 124.905 221.937C125.159 221.686 125.458 221.38 125.878 221.073C126.298 220.767 126.707 220.366 127.227 219.993C127.747 219.62 128.3 219.191 128.936 218.784C129.572 218.377 130.246 217.949 130.976 217.514C134.163 215.677 137.6 214.32 141.178 213.487C142.002 213.309 142.787 213.13 143.528 213.025C144.269 212.919 144.96 212.813 145.596 212.746C146.232 212.679 146.807 212.646 147.31 212.618C147.813 212.59 148.25 212.579 148.61 212.584C148.979 212.568 149.349 212.601 149.71 212.685Z" fill="white"/>
<path d="M44.334 200.33C44.2345 200.33 44.052 198.904 43.5046 196.643C43.1804 195.324 42.7892 194.022 42.3324 192.744C41.2103 189.608 39.682 186.636 37.7871 183.904C37.0131 182.788 36.1825 181.714 35.2988 180.684C33.7838 178.93 32.7276 177.949 32.794 177.899C33.0934 178.062 33.3673 178.268 33.6068 178.512C33.8612 178.718 34.1598 178.985 34.4915 179.314C34.8233 179.642 35.2159 179.999 35.5974 180.428C36.5495 181.433 37.436 182.499 38.2516 183.62C40.2263 186.361 41.7809 189.386 42.8632 192.593C43.305 193.898 43.6633 195.23 43.9359 196.581C44.0686 197.138 44.135 197.695 44.2069 198.147C44.2788 198.598 44.323 199.01 44.3451 199.333C44.389 199.664 44.3853 200 44.334 200.33Z" fill="white"/>
<path d="M197.043 131.466C197.662 127.617 196.08 123.807 195.085 120.036C193.642 114.538 193.426 108.796 193.166 103.114C192.906 97.4325 192.514 91.6785 190.733 86.2754C188.953 80.8723 185.596 75.7868 180.631 73.0741C175.665 70.3614 168.975 70.5118 164.794 74.3385L168.234 88.6873C167.95 109.343 170.019 129.962 174.399 150.143C180.572 150.616 186.778 150.356 192.89 149.369C194.14 149.168 195.583 148.784 196.069 147.603C196.661 146.171 195.45 144.695 194.875 143.253C194.123 141.359 194.504 139.198 195.151 137.27C195.798 135.343 196.716 133.488 197.043 131.466Z" fill="#263238"/>
<path d="M173.41 77.3854C171.483 75.7148 169.177 74.5478 166.697 73.9876C165.7 73.6947 164.639 73.7083 163.65 74.0266C162.693 74.4109 161.919 75.4358 162.129 76.4496L168.765 84.5263C170.026 85.5457 171.928 85.2226 173.321 84.3927C174.399 83.7465 175.367 82.7216 175.533 81.4906C175.738 79.8975 174.621 78.4381 173.41 77.3854Z" fill="#274DED"/>
<path d="M130.468 105.437C130.6 92.9986 140.321 82.2983 152.873 81.6855C166.188 81.0394 177.203 91.3943 177.396 104.429L176.844 156.966C176.827 157.98 176.477 158.96 175.848 159.752C172.486 164.024 166.713 167.149 161.737 167.488C156.91 167.817 152.154 166.224 148.25 163.662C147.602 163.231 147.077 162.635 146.73 161.935C146.382 161.235 146.224 160.455 146.271 159.674L146.868 147.971C146.87 147.96 146.869 147.95 146.866 147.939C146.863 147.929 146.858 147.92 146.851 147.912C146.844 147.904 146.836 147.898 146.826 147.893C146.817 147.889 146.807 147.887 146.796 147.887C145.704 147.892 144.615 147.784 143.545 147.564C140.52 146.589 132.895 143.002 131.076 131.227C130.473 127.311 130.346 116.343 130.468 105.437Z" fill="#FFBE9D"/>
<path d="M146.348 123.752C146.348 123.635 145.082 123.417 143.031 123.15C142.478 123.094 142.008 122.994 141.925 122.637C141.883 122.098 142.009 121.559 142.284 121.095L143.86 117.129C146.072 111.486 147.642 106.846 147.415 106.762C147.189 106.679 145.204 111.185 143.031 116.828L141.515 120.816C141.311 121.406 140.962 122.08 141.233 122.86C141.31 123.045 141.427 123.21 141.577 123.343C141.726 123.475 141.904 123.571 142.096 123.623C142.387 123.701 142.686 123.743 142.986 123.746C145.043 123.857 146.343 123.868 146.348 123.752Z" fill="#263238"/>
<path d="M136.677 114.433C136.674 114.93 136.864 115.408 137.207 115.765C137.551 116.123 138.019 116.33 138.513 116.343C138.754 116.364 138.998 116.337 139.229 116.263C139.46 116.188 139.675 116.068 139.859 115.91C140.044 115.751 140.196 115.557 140.305 115.339C140.415 115.121 140.48 114.883 140.498 114.639C140.502 114.142 140.313 113.662 139.971 113.304C139.629 112.946 139.161 112.737 138.667 112.723C138.425 112.7 138.18 112.727 137.948 112.802C137.716 112.876 137.501 112.997 137.315 113.156C137.13 113.315 136.978 113.51 136.868 113.729C136.759 113.949 136.693 114.188 136.677 114.433Z" fill="#263238"/>
<path d="M134.15 107.865C134.36 108.188 135.931 106.991 137.988 107.152C140.045 107.314 141.427 108.673 141.681 108.383C141.803 108.255 141.615 107.693 141.018 107.058C140.241 106.262 139.203 105.779 138.098 105.699C136.988 105.628 135.89 105.965 135.007 106.646C134.316 107.197 134.051 107.732 134.15 107.865Z" fill="#263238"/>
<path d="M156.207 115.196C156.204 115.693 156.395 116.171 156.738 116.529C157.081 116.886 157.55 117.093 158.043 117.106C158.285 117.128 158.528 117.1 158.759 117.026C158.991 116.951 159.205 116.831 159.39 116.673C159.574 116.514 159.726 116.32 159.836 116.102C159.945 115.884 160.011 115.646 160.028 115.402C160.033 114.905 159.843 114.426 159.501 114.067C159.159 113.709 158.691 113.5 158.198 113.486C157.955 113.464 157.71 113.491 157.478 113.565C157.246 113.639 157.031 113.76 156.845 113.919C156.66 114.078 156.508 114.273 156.398 114.493C156.289 114.712 156.224 114.951 156.207 115.196Z" fill="#263238"/>
<path d="M153.586 108.105C153.857 108.395 155.361 106.991 157.584 106.852C159.807 106.712 161.488 107.871 161.72 107.548C161.831 107.403 161.549 106.868 160.808 106.334C159.839 105.647 158.666 105.316 157.485 105.396C156.303 105.476 155.184 105.962 154.316 106.774C153.664 107.414 153.453 107.977 153.586 108.105Z" fill="#263238"/>
<path d="M146.873 147.876C146.873 147.876 154.819 148.528 164.8 142.618C164.8 142.618 161.604 153.023 146.674 151.63L146.873 147.876Z" fill="#EB996E"/>
<path d="M151.053 100.284C151.241 100.841 153.304 100.619 155.715 100.953C158.126 101.287 160.061 101.972 160.393 101.51C160.542 101.276 160.216 100.747 159.436 100.195C158.401 99.5042 157.219 99.0691 155.986 98.9253C154.753 98.7543 153.497 98.8764 152.32 99.2818C151.429 99.5937 150.976 100.023 151.053 100.284Z" fill="#263238"/>
<path d="M133.851 103.209C134.294 103.66 135.969 103.131 137.998 103.047C140.028 102.964 141.753 103.248 142.135 102.752C142.3 102.512 142.018 102.056 141.261 101.638C140.209 101.12 139.039 100.891 137.871 100.975C136.706 101.017 135.572 101.371 134.587 102C133.885 102.507 133.658 102.986 133.851 103.209Z" fill="#263238"/>
<path d="M151.225 78.9451C152.425 77.1849 154.482 76.4831 156.755 76.3048C165.95 75.564 175.721 81.797 180.277 89.8738C184.833 97.9505 184.303 109.481 179.978 117.686L176.528 118.048C169.45 117.117 158.889 96.324 149.693 84.5988C148.527 83.1394 150.186 80.4713 151.225 78.9451Z" fill="#263238"/>
<path d="M133.392 83.7187C137.501 79.6302 144.059 74.7452 151.745 78.338C152.751 80.6496 150.208 83.3511 148.134 84.9275C145.098 87.2001 142.477 88.6929 140.47 90.3305C136.417 93.6448 131.297 99.2428 130.467 105.777C130.418 106.189 130.097 106.222 129.693 106.133C129.14 106.011 128.128 103.242 127.752 99.6327C126.939 91.9292 129.284 87.8128 133.392 83.7187Z" fill="#263238"/>
<path d="M174.538 113.709C174.759 113.608 183.385 110.857 183.307 119.797C183.23 128.737 174.327 126.804 174.311 126.548C174.294 126.292 174.538 113.709 174.538 113.709Z" fill="#FFBE9D"/>
<path d="M177.042 123.183C177.081 123.156 177.197 123.295 177.457 123.417C177.824 123.578 178.238 123.59 178.613 123.451C179.553 123.111 180.36 121.624 180.415 120.008C180.445 119.244 180.305 118.483 180.006 117.78C179.926 117.5 179.78 117.244 179.579 117.033C179.379 116.822 179.131 116.664 178.856 116.572C178.679 116.522 178.49 116.536 178.322 116.613C178.154 116.689 178.018 116.822 177.938 116.989C177.817 117.24 177.872 117.418 177.822 117.435C177.772 117.452 177.634 117.285 177.706 116.917C177.757 116.696 177.882 116.499 178.06 116.36C178.306 116.177 178.614 116.099 178.917 116.143C179.281 116.219 179.62 116.388 179.901 116.634C180.181 116.879 180.395 117.194 180.521 117.546C180.891 118.323 181.068 119.18 181.035 120.042C180.963 121.841 180.028 123.518 178.74 123.88C178.501 123.947 178.251 123.959 178.007 123.915C177.763 123.872 177.532 123.774 177.33 123.629C177.07 123.401 177.042 123.2 177.042 123.183Z" fill="#EB996E"/>
<path d="M131.479 85.412C131.479 85.4789 132.442 85.7072 134.045 85.8911C138.233 86.3349 142.465 86.0428 146.553 85.0277C148.118 84.6266 149.047 84.2701 149.03 84.2033C149.014 84.1365 148.04 84.3481 146.47 84.6489C142.388 85.4422 138.224 85.7303 134.073 85.5067C132.48 85.4176 131.491 85.3285 131.479 85.412Z" fill="#455A64"/>
<path d="M128.167 91.6561C128.759 91.9645 129.405 92.1537 130.069 92.2131C133.265 92.728 136.541 92.1826 139.403 90.659C140.014 90.3869 140.566 89.9971 141.029 89.5116C140.946 89.3501 138.402 91.0768 134.769 91.6561C131.136 92.2354 128.195 91.4779 128.167 91.6561Z" fill="#455A64"/>
<path d="M181.228 92.9764C181.228 92.865 179.298 93.1045 176.207 92.8594C174.402 92.7103 172.61 92.431 170.844 92.0239C168.687 91.4982 166.568 90.8264 164.501 90.0131C162.443 89.1727 160.44 88.2035 158.502 87.111C156.926 86.2081 155.401 85.2169 153.935 84.1421C151.43 82.2984 150.064 80.9392 149.981 81.0172C150.253 81.3835 150.562 81.7197 150.904 82.0199C151.277 82.4016 151.668 82.7641 152.077 83.106C152.547 83.5182 153.077 83.9861 153.708 84.454C155.156 85.5867 156.676 86.623 158.259 87.5566C160.21 88.6866 162.237 89.6786 164.324 90.5255C166.418 91.35 168.569 92.0166 170.761 92.5196C172.556 92.9103 174.379 93.1543 176.213 93.2493C176.916 93.2884 177.622 93.2884 178.325 93.2493C178.858 93.2533 179.39 93.2217 179.918 93.1546C180.359 93.141 180.799 93.0813 181.228 92.9764Z" fill="#455A64"/>
<path d="M150.407 84.1698C150.577 84.6158 150.792 85.0432 151.048 85.4454C151.311 85.9391 151.599 86.4188 151.911 86.8825C152.276 87.4395 152.657 88.069 153.166 88.7151C154.306 90.2732 155.565 91.7389 156.932 93.0988C158.617 94.7574 160.448 96.2599 162.4 97.5884C164.373 98.8928 166.461 100.012 168.638 100.93C170.418 101.663 172.257 102.245 174.134 102.668C174.925 102.88 175.666 102.964 176.307 103.081C176.856 103.181 177.409 103.25 177.966 103.287C178.436 103.356 178.912 103.376 179.387 103.348C179.387 103.237 177.38 103.086 174.228 102.29C172.388 101.817 170.586 101.207 168.837 100.463C166.703 99.5266 164.654 98.4085 162.71 97.1205C160.784 95.8101 158.969 94.34 157.285 92.7256C155.919 91.398 154.646 89.976 153.476 88.47C151.485 85.8966 150.501 84.1141 150.407 84.1698Z" fill="#455A64"/>
<path d="M156.738 76.2992C156.738 76.2435 156.052 76.1098 154.952 76.3271C153.522 76.6567 152.217 77.3934 151.192 78.4493C150.897 78.7515 150.632 79.0817 150.401 79.4352C150.198 79.7723 150.033 80.131 149.909 80.5047C149.66 81.1037 149.46 81.7222 149.312 82.354C149.074 83.468 149.312 84.1699 149.351 84.1532C149.389 84.1365 149.351 83.468 149.688 82.4543C149.886 81.8569 150.116 81.2711 150.379 80.6997C150.504 80.361 150.664 80.0363 150.855 79.7305C151.074 79.4125 151.32 79.1143 151.59 78.8392C152.556 77.8579 153.744 77.1277 155.051 76.7114C156.063 76.4051 156.738 76.3939 156.738 76.2992Z" fill="#455A64"/>
<path d="M171.004 110.439C171.004 110.305 168.869 110.4 165.718 109.219C161.639 107.603 158.114 104.828 155.571 101.231C153.08 97.5984 151.279 93.5324 150.257 89.2388C149.837 87.5956 149.56 86.2476 149.378 85.3396C149.311 84.8497 149.2 84.3668 149.046 83.897C149.035 84.3938 149.076 84.8904 149.168 85.3786C149.29 86.3256 149.505 87.6903 149.881 89.3613C150.803 93.7572 152.587 97.9234 155.129 101.616C158.198 105.899 162.356 108.584 165.591 109.648C166.864 110.096 168.189 110.381 169.533 110.495C169.901 110.529 170.27 110.542 170.639 110.534C170.871 110.472 171.004 110.461 171.004 110.439Z" fill="#263238"/>
<path d="M126.801 119.006C127.152 119.106 127.528 119.068 127.852 118.9C128.219 118.688 128.509 118.362 128.676 117.97C128.786 117.715 128.843 117.44 128.843 117.162C128.843 116.884 128.786 116.609 128.676 116.354C128.391 115.719 127.994 115.141 127.504 114.65C126.91 114.071 126.375 113.435 125.906 112.75C125.654 112.354 125.485 111.911 125.408 111.447C125.339 110.956 125.39 110.455 125.557 109.988C125.936 109.057 126.514 108.223 127.249 107.542C127.95 106.903 128.553 106.164 129.041 105.348C129.417 104.562 129.546 103.68 129.411 102.819C129.196 101.148 128.515 99.6884 128.372 98.3627C128.175 97.3155 128.322 96.232 128.792 95.2769C128.937 95.0241 129.124 94.7981 129.345 94.6084C129.5 94.4859 129.583 94.4302 129.588 94.4413C129.344 94.7218 129.131 95.0281 128.952 95.3548C128.559 96.2923 128.463 97.329 128.676 98.3237C128.847 99.5993 129.549 101.02 129.782 102.78C129.942 103.726 129.807 104.699 129.395 105.565C128.894 106.422 128.267 107.197 127.537 107.865C126.845 108.503 126.298 109.284 125.933 110.155C125.79 110.555 125.742 110.984 125.792 111.407C125.843 111.83 125.992 112.235 126.226 112.589C126.676 113.258 127.187 113.882 127.752 114.455C128.25 114.966 128.651 115.564 128.936 116.221C129.054 116.51 129.112 116.82 129.106 117.133C129.099 117.445 129.028 117.753 128.897 118.037C128.696 118.461 128.359 118.804 127.94 119.011C127.675 119.146 127.371 119.18 127.083 119.106C126.982 119.099 126.884 119.065 126.801 119.006Z" fill="#263238"/>
<path d="M181.72 114.171C181.734 114.014 181.765 113.858 181.814 113.708C181.881 113.408 182.019 112.973 182.146 112.405C182.539 110.804 182.834 109.18 183.031 107.542C183.322 105.117 183.354 102.667 183.125 100.234C182.867 97.2571 182.151 94.3386 181.001 91.5838C180.391 90.1701 179.637 88.8242 178.751 87.5677C177.912 86.4049 176.972 85.32 175.942 84.3258C174.186 82.6558 172.234 81.208 170.13 80.0145C168.7 79.1972 167.223 78.4663 165.707 77.8254C165.154 77.5859 164.75 77.43 164.474 77.3074C164.324 77.2556 164.181 77.1865 164.048 77.1013C164.203 77.126 164.356 77.169 164.501 77.2294C164.789 77.3297 165.226 77.4634 165.768 77.6806C167.309 78.2682 168.808 78.9643 170.252 79.7639C172.409 80.9384 174.408 82.3853 176.202 84.0696C177.257 85.0727 178.22 86.1709 179.077 87.3504C179.985 88.6278 180.756 89.9982 181.377 91.4389C182.544 94.2327 183.261 97.1962 183.501 100.218C183.706 102.676 183.635 105.15 183.291 107.592C183.068 109.238 182.728 110.865 182.273 112.461C182.124 113.018 181.963 113.458 181.869 113.747C181.835 113.894 181.785 114.036 181.72 114.171Z" fill="#455A64"/>
<path d="M174.897 142.484C174.897 142.484 174.797 142.395 174.637 142.2C174.407 141.914 174.204 141.609 174.029 141.286C173.36 140.093 172.981 138.757 172.923 137.387C172.879 136.449 172.982 135.509 173.227 134.602C173.564 133.588 173.993 132.607 174.51 131.672C174.974 130.703 175.345 129.506 174.759 128.492C174.173 127.478 173.056 126.821 172.298 125.673C172.102 125.38 171.982 125.041 171.95 124.689C171.918 124.336 171.975 123.981 172.116 123.657C172.428 123.103 172.799 122.583 173.221 122.108C173.543 121.655 173.744 121.126 173.806 120.573C173.868 120.019 173.788 119.459 173.575 118.944C173.204 117.971 172.667 117.07 171.988 116.282C171.398 115.565 170.869 114.799 170.407 113.993C170.047 113.404 169.837 112.734 169.798 112.044C169.758 111.354 169.89 110.664 170.18 110.038C170.35 109.704 170.601 109.418 170.91 109.208C171.012 109.128 171.128 109.069 171.253 109.035C170.859 109.309 170.539 109.677 170.318 110.105C170.072 110.709 169.973 111.364 170.032 112.015C170.091 112.666 170.305 113.293 170.656 113.842C171.133 114.628 171.673 115.373 172.27 116.07C172.98 116.882 173.542 117.813 173.929 118.822C174.133 119.387 174.223 119.987 174.195 120.588C174.155 121.227 173.928 121.839 173.542 122.348C173.147 122.804 172.799 123.298 172.503 123.824C172.387 124.086 172.341 124.375 172.368 124.66C172.395 124.946 172.495 125.22 172.657 125.456C173.315 126.481 174.488 127.127 175.118 128.297C175.43 128.863 175.539 129.52 175.428 130.157C175.325 130.738 175.139 131.301 174.875 131.828C174.357 132.742 173.923 133.7 173.575 134.691C173.325 135.565 173.209 136.473 173.232 137.382C173.267 138.707 173.592 140.008 174.184 141.192C174.593 142.05 174.93 142.456 174.897 142.484Z" fill="#263238"/>
<path d="M202.97 139.058C203.026 139.17 202.865 139.454 202.312 139.666C201.898 139.787 201.462 139.817 201.035 139.755C200.607 139.692 200.198 139.538 199.835 139.303C199.288 138.986 198.818 138.55 198.458 138.028C198.239 137.717 198.062 137.378 197.933 137.02C197.805 136.659 197.714 136.285 197.662 135.906C197.527 134.206 197.836 132.501 198.558 130.959C199.205 129.383 199.984 127.829 200.051 126.42C200.117 125.01 199.498 123.456 198.458 121.752C197.419 120.047 195.92 118.215 194.792 115.836C193.685 113.478 192.894 110.981 192.442 108.411C191.48 103.253 191.43 98.4574 190.905 94.3076C190.523 90.6921 189.54 87.1671 187.996 83.8803C186.951 81.7005 185.47 79.7622 183.645 78.1876C182.97 77.6305 182.434 77.2183 182.041 76.9398C181.649 76.6613 181.488 76.4107 181.521 76.277C181.555 76.1433 181.848 76.1099 182.356 76.1712C183.094 76.2842 183.811 76.5057 184.485 76.8284C186.962 78.0882 189.043 80.0167 190.496 82.3986C192.615 85.8593 194.022 89.7142 194.632 93.7339C195.395 98.1566 195.572 102.936 196.457 107.62C196.845 109.848 197.5 112.019 198.408 114.087C199.243 116.003 200.57 117.769 201.726 119.808C202.321 120.845 202.796 121.948 203.142 123.094C203.495 124.281 203.599 125.53 203.446 126.759C203.277 127.849 202.935 128.904 202.434 129.884C202.008 130.759 201.566 131.505 201.19 132.19C200.519 133.262 200.099 134.474 199.962 135.733C199.951 135.973 199.962 136.214 199.995 136.452C200.024 136.652 200.078 136.849 200.156 137.036C200.303 137.4 200.519 137.731 200.792 138.011C201.82 139.097 202.86 138.774 202.97 139.058Z" fill="#263238"/>
<path d="M153.935 128.637C153.935 128.815 152.115 128.854 149.964 129.366C147.814 129.879 146.221 130.737 146.133 130.597C146.044 130.458 147.576 129.327 149.832 128.804C152.088 128.28 153.946 128.475 153.935 128.637Z" fill="#263238"/>
<path d="M134.531 157.334L151.971 155.869L176.837 156.972L193.454 160.03L167.05 175.515L147.409 172.975L134.531 157.334Z" fill="#FFBE9D"/>
<path d="M134.288 157.34C134.288 157.34 120.464 160.559 115.798 165.261C111.131 169.962 106.287 186.778 105.291 191.73C104.296 196.682 101.117 238.486 103.08 244.424C105.043 250.362 112.679 255.308 121.747 257.285C130.816 259.263 146.077 260.75 146.077 260.75L153.691 236.503L128.084 229.574L134.288 157.34Z" fill="#274DED"/>
<path d="M164.43 231.557L185.779 232.426C185.779 232.426 191.795 225.691 193.299 216.935C194.803 208.179 194.134 201.946 194.134 201.946L200.15 161.84C200.15 161.84 208.677 161.506 212.188 171.945C215.699 182.383 212.536 213.064 212.188 221.118C211.906 227.663 208.456 243.031 203.457 252.033C201.323 255.882 197.607 257.775 195.306 257.904C187.615 258.332 165.552 254.795 165.552 254.795L164.446 232.231" fill="#274DED"/>
<path d="M134.288 157.34C134.288 157.34 148.488 164.247 168.51 163.3C188.533 162.353 189.036 159.027 189.036 159.027L201.273 161.974L198.193 223.803L192.204 250.233L197.258 268.565L109.029 268.286L120.453 235.183L134.288 157.34Z" fill="#274DED"/>
<path d="M167.908 230.197C168.249 230.094 168.599 230.022 168.953 229.98C169.644 229.869 170.656 229.724 171.961 229.579C174.565 229.267 178.336 229.117 182.843 228.465L182.644 228.682C182.937 222.733 182.948 215.314 183.236 207.299C183.424 202.246 183.788 197.434 184.341 193.089C184.842 189.236 185.607 185.422 186.631 181.676C187.329 179.152 188.19 176.678 189.207 174.267C189.567 173.415 189.876 172.763 190.092 172.329C190.187 172.1 190.306 171.882 190.446 171.677C190.387 171.919 190.304 172.154 190.197 172.379C190.015 172.83 189.738 173.493 189.412 174.356C188.481 176.787 187.683 179.268 187.023 181.787C186.063 185.53 185.345 189.331 184.872 193.167C184.319 197.495 183.982 202.285 183.766 207.326C183.479 215.331 183.429 222.75 183.07 228.71V228.905H182.882C178.331 229.535 174.56 229.618 171.955 229.847C170.65 229.947 169.633 230.053 168.942 230.119C168.6 230.174 168.254 230.2 167.908 230.197Z" fill="#263238"/>
<path d="M122.643 209.476C122.526 209.087 122.457 208.685 122.439 208.279C122.345 207.505 122.24 206.379 122.14 204.987C121.941 202.202 121.808 198.342 121.913 194.086C122.018 189.83 122.35 185.976 122.688 183.207C122.853 181.821 123.014 180.706 123.152 179.938C123.191 179.533 123.28 179.134 123.417 178.751C123.454 179.156 123.441 179.564 123.379 179.966L123.097 183.252C122.864 186.037 122.599 189.858 122.494 194.103C122.389 198.347 122.455 202.191 122.549 204.97L122.665 208.268C122.707 208.67 122.7 209.076 122.643 209.476Z" fill="#263238"/>
<path d="M164.236 253.069C164.061 253.152 163.875 253.21 163.683 253.241C163.329 253.336 162.809 253.464 162.135 253.626C160.78 253.932 158.817 254.361 156.384 254.807C150.028 255.975 143.613 256.797 137.169 257.269C133.392 257.536 129.798 257.725 126.503 257.72C123.592 257.757 120.69 257.395 117.877 256.645C116.794 256.331 115.742 255.917 114.736 255.408C113.984 255.009 113.268 254.545 112.596 254.021L111.888 253.42C111.695 253.23 111.54 253.063 111.413 252.929C111.274 252.804 111.153 252.659 111.053 252.5C111.215 252.595 111.364 252.711 111.496 252.846L111.999 253.291L112.729 253.848C113.412 254.329 114.131 254.756 114.88 255.124C115.881 255.586 116.921 255.959 117.987 256.238C120.788 256.924 123.665 257.239 126.547 257.174C129.804 257.174 133.403 256.945 137.169 256.678C144.695 256.121 151.474 255.191 156.356 254.389C158.8 253.993 160.78 253.626 162.135 253.392C162.815 253.264 163.346 253.174 163.705 253.119C163.879 253.079 164.058 253.062 164.236 253.069Z" fill="#263238"/>
<path d="M188.179 235.021C188.013 235.077 187.438 233.105 185.795 231.3C184.153 229.496 182.29 228.688 182.367 228.515C182.367 228.448 182.92 228.549 183.65 228.916C185.612 229.916 187.133 231.616 187.919 233.684C188.201 234.481 188.25 235.005 188.179 235.021Z" fill="#263238"/>
<g opacity="0.3">
<path d="M104.429 235.239C109.14 238.681 114.144 242.24 119.911 242.864C123.998 243.304 128.101 242.235 132.203 242.352C137.656 242.508 142.848 244.758 147.559 247.532C152.27 250.306 156.649 253.631 161.449 256.249C166.647 259.09 172.353 261.09 178.248 261.569C184.142 262.048 190.225 260.95 195.345 257.965C188.156 258.834 178.613 258.561 171.103 256.11C162.743 253.381 161.311 251.175 156.506 248.468C150.279 244.959 144.794 240.085 138.175 237.416C132.557 235.162 126.408 234.607 120.481 235.818C117.523 236.425 114.365 237.455 111.6 236.236C110.373 235.679 109.344 234.743 108.1 234.241C106.856 233.74 105.148 233.891 104.523 235.088" fill="black"/>
</g>
<path d="M170.811 217.821C170.508 217.924 170.19 217.978 169.871 217.982C169.504 218.03 169.135 218.054 168.765 218.054C168.271 218.08 167.776 218.08 167.283 218.054C166.683 218.03 166.085 217.972 165.491 217.882C164.844 217.815 164.17 217.659 163.456 217.509C160.363 216.774 157.456 215.395 154.924 213.459C154.371 213.002 153.818 212.579 153.343 212.122C152.896 211.719 152.471 211.291 152.071 210.841C151.734 210.486 151.414 210.115 151.114 209.727C150.876 209.439 150.656 209.136 150.457 208.819C150.255 208.568 150.095 208.286 149.981 207.984C150.069 207.922 150.838 209.042 152.364 210.579C152.746 210.964 153.171 211.376 153.658 211.782C154.145 212.189 154.676 212.612 155.24 213.052C157.744 214.887 160.572 216.225 163.572 216.996C164.264 217.158 164.922 217.325 165.552 217.414C166.182 217.503 166.763 217.598 167.299 217.653C169.456 217.832 170.805 217.715 170.811 217.821Z" fill="#263238"/>
<path d="M208.422 239.784C208.319 240.478 208.143 241.16 207.897 241.817C207.493 243.109 206.88 244.964 206.023 247.226C205.566 248.469 205.044 249.687 204.458 250.874C203.259 253.111 201.512 255.003 199.382 256.368C197.253 257.732 194.812 258.526 192.293 258.672C188.839 258.824 185.378 258.684 181.947 258.255C178.79 257.876 175.97 257.363 173.62 256.84C171.27 256.316 169.401 255.781 168.118 255.369C167.476 255.169 167.012 254.99 166.652 254.868C166.477 254.82 166.31 254.746 166.155 254.651C166.839 254.78 167.514 254.949 168.179 255.157C169.472 255.503 171.353 255.971 173.708 256.439C176.064 256.907 178.867 257.374 182.002 257.725C185.405 258.12 188.833 258.243 192.254 258.093C195.655 257.903 198.878 256.504 201.35 254.144C202.424 253.121 203.338 251.939 204.06 250.64C204.655 249.478 205.192 248.286 205.669 247.07C206.57 244.842 207.245 243.003 207.709 241.739L208.262 240.28C208.297 240.109 208.35 239.942 208.422 239.784Z" fill="#263238"/>
<path d="M111.296 200.185C111.296 200.185 123.766 209.922 124.186 211.053C124.606 212.183 128.808 218.812 132.309 221.636C135.809 224.46 167.908 231.061 167.908 231.061L166.066 254.183C166.066 254.183 139.729 238.146 131.888 238.586C124.048 239.026 117.882 240.563 114.52 239.433C111.158 238.302 102.72 232.943 102.72 232.943C102.72 232.943 101.266 229.975 102.847 228.565C102.847 228.565 101.885 225.463 102.106 224.053C102.106 224.053 100.829 220.817 102.073 219.536C102.073 219.536 101.769 214.74 104.434 214.74C107.1 214.74 112.137 215.587 114.52 215.448C115.168 215.443 115.804 215.273 116.368 214.952C116.932 214.632 117.406 214.171 117.744 213.615C117.744 213.615 117.744 212.345 115.781 210.936C113.818 209.526 106.392 203.711 111.296 200.185Z" fill="#FFBE9D"/>
<path d="M109.029 224.148C108.974 224.288 107.138 223.625 105.159 222.305C103.179 220.984 101.808 219.575 101.913 219.464C102.018 219.352 103.511 220.539 105.474 221.82C107.437 223.101 109.123 223.992 109.029 224.148Z" fill="#EB996E"/>
<path d="M109.582 229.173C109.549 229.312 107.37 228.71 105.092 227.073C102.814 225.435 101.553 223.541 101.675 223.458C101.797 223.374 103.24 225.034 105.43 226.599C107.619 228.164 109.66 229.011 109.582 229.173Z" fill="#EB996E"/>
<path d="M110.174 233.116C110.174 233.261 108.034 232.927 105.839 231.523C103.644 230.12 102.405 228.365 102.521 228.287C102.637 228.209 104.02 229.713 106.137 231.033C108.255 232.353 110.224 232.944 110.174 233.116Z" fill="#EB996E"/>
<path d="M121.797 191.039C121.797 191.229 118.225 190.421 113.856 190.961C109.488 191.502 106.226 193.083 106.154 192.905C106.121 192.844 106.895 192.348 108.25 191.791C111.818 190.361 115.696 189.898 119.497 190.449C120.951 190.683 121.808 190.972 121.797 191.039Z" fill="white"/>
<path d="M182.6 195.317C182.415 195.406 182.22 195.472 182.019 195.512L180.321 195.963C179.58 196.158 178.663 196.381 177.612 196.604C176.561 196.827 175.35 197.111 174.001 197.35C172.652 197.59 171.187 197.874 169.578 198.108C167.969 198.342 166.288 198.576 164.496 198.798C160.907 199.2 156.943 199.511 152.779 199.64C148.615 199.768 144.634 199.64 141.029 199.456C139.226 199.328 137.512 199.227 135.92 199.049C134.327 198.871 132.834 198.721 131.496 198.542C130.158 198.364 128.925 198.169 127.852 197.985C126.779 197.801 125.861 197.651 125.087 197.495L123.368 197.139C123.164 197.11 122.966 197.055 122.776 196.977C122.982 196.966 123.188 196.981 123.39 197.022L125.126 197.267C125.878 197.384 126.785 197.523 127.891 197.657C128.997 197.79 130.18 197.98 131.54 198.113C132.9 198.247 134.377 198.431 135.964 198.548C137.551 198.665 139.281 198.787 141.062 198.899C144.656 199.066 148.615 199.144 152.768 199.038C156.921 198.932 160.863 198.615 164.446 198.247C166.232 198.035 167.935 197.852 169.517 197.612C171.098 197.373 172.575 197.155 173.94 196.927C175.306 196.699 176.495 196.465 177.557 196.27C178.618 196.075 179.536 195.885 180.277 195.713L181.997 195.367C182.195 195.326 182.397 195.309 182.6 195.317Z" fill="white"/>
<path d="M211.585 193.596C211.524 193.691 210.28 192.694 207.941 191.78C204.868 190.649 201.595 190.175 198.331 190.387C195.061 190.63 191.822 191.181 188.654 192.031C186.199 192.643 184.678 193.028 184.656 192.95C184.977 192.766 185.321 192.628 185.679 192.538C186.348 192.309 187.338 191.981 188.543 191.641C191.718 190.665 194.992 190.054 198.303 189.819C201.645 189.596 204.994 190.143 208.096 191.418C209.026 191.815 209.912 192.31 210.739 192.894C211.055 193.083 211.341 193.319 211.585 193.596Z" fill="white"/>
<g opacity="0.3">
<path d="M150.407 208.491L150.578 208.992C151.341 213.86 154.598 218.333 159.116 220.227C163.633 222.121 169.268 221.185 172.718 217.698C168.513 218.543 164.153 218.119 160.185 216.482C156.217 214.844 152.816 212.065 150.407 208.491Z" fill="black"/>
</g>
<g opacity="0.3">
<path d="M194.504 235.372C193.769 233.361 191.85 232.063 189.97 231.055C187.534 229.749 184.971 228.696 182.323 227.914L182.389 228.671C185.345 230.795 187.827 233.518 189.677 236.664C190.39 237.879 191.303 239.338 192.707 239.277C193.122 239.236 193.517 239.078 193.847 238.821C194.177 238.564 194.428 238.218 194.571 237.823C194.842 237.025 194.819 236.154 194.504 235.372Z" fill="black"/>
</g>
<line x1="-1.84033" y1="267.666" x2="322.319" y2="267.666" stroke="#263238" stroke-width="1.5"/>
</g>
</svg>
