<svg width="328" height="323" viewBox="0 0 328 323" fill="none" xmlns="http://www.w3.org/2000/svg">
<g clip-path="url(#clip0_3_14695)">
<line x1="-10.6594" y1="313.735" x2="363.134" y2="313.735" stroke="#263238" stroke-width="1.5"/>
<path d="M146.268 75.5906H145.388C141.107 75.7681 137.05 77.5609 134.024 80.6121C130.997 83.6634 129.224 87.7494 129.055 92.057C128.733 100.369 128.482 108.476 128.717 112.921C129.205 122.111 138.589 123.021 138.589 123.021C138.589 123.021 138.589 126.184 138.589 128.921C139.564 130.593 140.932 131.999 142.572 133.016C144.212 134.033 146.075 134.63 147.998 134.755C149.92 134.88 151.844 134.529 153.601 133.732C155.357 132.936 156.893 131.718 158.074 130.186L159.198 128.763L160.581 93.5439C160.99 83.9978 155.802 75.7567 146.268 75.5906Z" fill="#FFBF9D"/>
<path d="M143.889 109.944C143.673 109.896 143.368 111.271 141.932 111.988C140.496 112.704 139.006 112.213 138.951 112.404C138.932 112.489 139.231 112.747 139.87 112.906C140.703 113.105 141.577 113.012 142.339 112.644C143.069 112.287 143.624 111.666 143.887 110.912C144.069 110.338 144.002 109.961 143.889 109.944Z" fill="#263238"/>
<path d="M138.573 122.017C142.911 121.823 147.104 120.312 150.654 117.665C150.654 117.665 148.013 125.252 138.63 124.774L138.573 122.017Z" fill="#FF9A6C"/>
<path d="M159.621 100.22C159.763 100.148 165.495 98.0547 165.577 104.462C165.659 110.87 159.197 109.831 159.182 109.646C159.167 109.461 159.621 100.22 159.621 100.22Z" fill="#FFBF9D"/>
<path d="M161.333 107.107C161.333 107.107 161.446 107.199 161.64 107.292C161.9 107.406 162.189 107.406 162.449 107.292C163.128 106.997 163.686 105.761 163.711 104.443C163.723 103.808 163.61 103.177 163.379 102.599C163.318 102.37 163.208 102.161 163.06 101.991C162.912 101.82 162.73 101.694 162.53 101.622C162.4 101.584 162.262 101.599 162.141 101.665C162.02 101.73 161.923 101.842 161.867 101.981C161.786 102.184 161.826 102.332 161.794 102.35C161.761 102.368 161.656 102.23 161.705 101.926C161.739 101.744 161.828 101.581 161.956 101.465C162.041 101.387 162.14 101.329 162.245 101.296C162.351 101.263 162.462 101.254 162.57 101.271C162.834 101.332 163.079 101.467 163.285 101.663C163.492 101.86 163.652 102.112 163.751 102.396C164.029 103.028 164.168 103.727 164.155 104.434C164.155 105.909 163.476 107.301 162.538 107.624C162.365 107.682 162.184 107.696 162.006 107.664C161.828 107.632 161.659 107.555 161.511 107.439C161.349 107.255 161.276 107.107 161.333 107.107Z" fill="#FF9A6C"/>
<path d="M117.295 83.3885C117.398 83.0131 117.636 82.6943 117.958 82.4988C118.67 82.1482 119.459 82.0043 120.243 82.082C122.169 82.0084 124.055 81.4767 125.758 80.5269C125.145 80.2357 124.579 79.8434 124.082 79.3646C123.561 78.8713 123.179 78.236 122.979 77.5288C122.778 76.8217 122.768 76.07 122.947 75.3568C122.975 75.2225 123.033 75.0969 123.115 74.9898C123.197 74.8827 123.301 74.7971 123.42 74.7396C123.816 74.6113 124.181 75.0121 124.44 75.3328C124.795 75.8289 125.27 76.2152 125.816 76.4509C126.361 76.6865 126.958 76.7627 127.541 76.6714C128.346 76.6066 129.127 76.3518 129.826 75.9259L129.903 75.8377L130.817 74.8438C133.102 72.4391 135.014 70.7638 137.025 69.8821C139.974 68.5916 144.918 68.0225 148.018 68.84C151.119 69.6576 153.915 72.2547 154.379 75.5812C156.093 74.0182 158.691 73.9781 160.809 74.8678H160.862C163.224 75.7175 164.58 78.3146 165.304 80.8315C165.342 80.9678 165.38 81.1121 165.418 81.2483C166.222 82.5708 167.317 83.6705 168.61 84.4546C168.838 84.5909 169.097 84.7592 169.128 85.0317C169.158 85.3043 168.945 85.5287 168.732 85.697C168.17 86.1269 167.525 86.4199 166.843 86.5547C167.049 87.151 167.304 87.7276 167.604 88.2781C167.871 88.751 168.199 89.3121 167.97 89.8011C167.866 89.983 167.712 90.1274 167.528 90.2148C167.345 90.3021 167.14 90.3284 166.942 90.29C166.547 90.2037 166.173 90.0318 165.845 89.785L166.744 91.7489C165.891 91.9089 165.014 91.8567 164.184 91.5966C163.712 93.9612 163.384 98.3297 162.82 99.9329C161.213 99.981 160.817 99.8046 160.009 100.093C158.965 100.47 159.384 102.426 158.013 101.881C157.312 101.608 156.215 98.8427 155.972 98.0973C154.372 93.1473 153.803 87.893 154.303 82.6911C153.315 81.6076 152.139 80.734 150.837 80.1181L150.944 80.2143C148.453 79.3406 145.611 78.4829 143.326 79.7334C141.513 80.7033 140.461 82.7152 139.113 84.3183C137.978 85.7827 136.561 86.9771 134.955 87.8227C133.348 88.6683 131.59 89.1459 129.796 89.2239C129.476 92.0454 129.423 96.6545 129.324 99.2836L127.13 94.0734C126.954 93.7688 126.81 93.4562 126.665 93.1516L126.619 93.0554C126.405 92.5459 126.166 92.0482 125.903 91.5645V91.5645C125.629 91.8834 125.246 92.0748 124.839 92.0966C124.431 92.1184 124.031 91.9688 123.728 91.6807C123.425 91.3927 123.243 90.9897 123.223 90.5606C123.202 90.1314 123.344 89.7111 123.618 89.3923C123.831 89.0854 124.088 88.8151 124.38 88.5907C124.077 88.9065 123.702 89.1345 123.291 89.2525C122.879 89.3705 122.446 89.3745 122.033 89.264C121.623 89.1386 121.264 88.874 121.012 88.5116C120.76 88.1491 120.629 87.7091 120.639 87.2601C120.669 86.9574 120.774 86.6684 120.944 86.4222C121.114 86.1759 121.342 85.9811 121.607 85.8573C120.505 85.9619 119.399 85.7191 118.43 85.16C117.706 84.8233 117.089 84.2141 117.295 83.3885Z" fill="#263238"/>
<path d="M152.076 77.0168C152.386 77.2617 152.677 77.5313 152.946 77.8232C153.634 78.6627 154.099 79.6718 154.296 80.7519C154.453 81.502 154.535 82.2667 154.54 83.034C154.54 83.8479 154.495 84.7227 154.451 85.6508C154.393 86.6185 154.393 87.589 154.451 88.5567C154.485 89.0686 154.557 89.5772 154.665 90.0781C154.745 90.6191 154.958 91.1298 155.285 91.5614C155.436 91.7312 155.628 91.8575 155.842 91.9282C156.055 91.9988 156.282 92.0114 156.502 91.9646C156.916 91.8653 157.287 91.6273 157.557 91.2876C158.02 90.6157 158.297 89.8271 158.361 89.0055H158.184C158.451 89.6719 158.812 90.2946 159.253 90.854C159.678 91.3724 160.281 91.702 160.935 91.7744C161.24 91.8042 161.546 91.7462 161.82 91.6071C162.075 91.4684 162.283 91.2536 162.418 90.9909C162.54 90.7576 162.601 90.4953 162.595 90.2302C162.581 89.9754 162.482 89.7335 162.315 89.5456L162.226 89.6292C162.743 90.2274 163.377 90.7069 164.085 91.0365C164.272 91.1223 164.464 91.1959 164.661 91.2571L164.867 91.3104L164.675 91.2267C164.55 91.1735 164.358 91.0974 164.115 90.9757C163.415 90.6345 162.79 90.1506 162.278 89.5532L162.189 89.6368C162.333 89.8209 162.418 90.0467 162.431 90.2827C162.444 90.5186 162.385 90.753 162.263 90.9529C162.141 91.1871 161.953 91.3779 161.725 91.5006C161.475 91.6257 161.196 91.6758 160.92 91.6451C160.31 91.5711 159.75 91.2579 159.357 90.7703C158.944 90.2333 158.606 89.6392 158.353 89.0055L158.228 88.724L158.176 89.0283C158.118 89.8025 157.863 90.5474 157.439 91.1887C157.185 91.4875 156.843 91.6909 156.465 91.7668C156.279 91.8075 156.086 91.7973 155.904 91.7373C155.723 91.6772 155.56 91.5694 155.432 91.4245C155.131 91.02 154.933 90.5439 154.857 90.04C154.751 89.539 154.682 89.0304 154.65 88.5186C154.594 87.5585 154.594 86.5957 154.65 85.6356C154.694 84.7151 154.746 83.8327 154.724 83.0112C154.71 82.2428 154.618 81.478 154.451 80.7291C154.238 79.6311 153.744 78.6119 153.02 77.7775C152.75 77.4697 152.431 77.2124 152.076 77.0168V77.0168Z" fill="#455A64"/>
<path d="M122.94 86.2065L123.012 86.2718L123.244 86.4435C123.37 86.5381 123.504 86.6228 123.643 86.6968C123.826 86.8099 124.016 86.9109 124.211 86.9992C125.468 87.5637 126.842 87.7996 128.21 87.6857C130.244 87.5233 132.188 86.7626 133.808 85.4954C135.771 83.9411 137.403 81.9945 138.606 79.7744C139.27 78.6139 139.814 77.4288 140.405 76.3255C140.948 75.2554 141.637 74.2701 142.453 73.3996C143.189 72.6015 144.111 72.0057 145.132 71.667C145.591 71.5314 146.069 71.4707 146.547 71.4872C146.987 71.5076 147.423 71.5873 147.843 71.7242C149.129 72.1591 150.208 73.0722 150.866 74.2823C151.084 74.7354 151.25 75.2125 151.361 75.7044C151.366 75.6719 151.366 75.6388 151.361 75.6063L151.313 75.3121C151.233 74.9415 151.109 74.5821 150.946 74.2414C150.674 73.7082 150.317 73.2249 149.89 72.8112C149.321 72.2581 148.642 71.8371 147.899 71.5771C147.464 71.4292 147.012 71.3413 146.555 71.3155C146.058 71.2958 145.562 71.3564 145.084 71.4953C144.037 71.8242 143.088 72.4172 142.325 73.2198C141.49 74.1003 140.784 75.0995 140.229 76.1866C139.622 77.2899 139.086 78.4831 138.43 79.6273C137.255 81.8383 135.656 83.7842 133.728 85.3483C132.14 86.6027 130.233 87.3657 128.234 87.5468C126.888 87.6707 125.533 87.4604 124.283 86.9338C123.822 86.7181 123.373 86.4752 122.94 86.2065V86.2065Z" fill="#455A64"/>
<path d="M122.229 82.7242C122.323 82.8148 122.429 82.8911 122.543 82.9509C122.84 83.1344 123.15 83.2938 123.47 83.4277C123.954 83.6345 124.454 83.7967 124.965 83.9124C126.193 84.1976 127.463 84.2242 128.702 83.9905C129.211 83.8948 129.711 83.7536 130.197 83.5684C130.523 83.4483 130.841 83.3019 131.146 83.1307C131.262 83.0763 131.37 83.0052 131.467 82.9196C131.467 82.9196 130.974 83.1463 130.152 83.4277C129.663 83.5892 129.163 83.712 128.657 83.7951C127.434 84.0043 126.186 83.9778 124.972 83.7169C124.477 83.6087 123.989 83.4623 123.515 83.2792C122.715 82.9743 122.251 82.6929 122.229 82.7242Z" fill="#455A64"/>
<path d="M201.806 231.543C198.067 229.187 193.839 227.723 189.448 227.264C187.43 227.057 185.227 227.114 183.606 228.341C183.419 228.448 183.265 228.604 183.158 228.792C183.052 228.981 182.998 229.194 183.002 229.41C183.1 229.709 183.302 229.962 183.571 230.123C188.595 233.974 196.199 234.459 201.799 231.507" fill="#051BAF"/>
<path d="M201.493 231.193C198.631 229.085 195.961 226.727 193.513 224.147C191.069 221.551 189.353 218.353 188.538 214.877C188.325 213.821 188.254 212.609 188.936 211.768C195.332 216.76 200.306 223.178 201.521 231.207" fill="#051BAF"/>
<path d="M201.742 231.478C201.152 227.995 201.203 224.432 201.891 220.967C202.687 217.537 204.549 214.249 207.47 212.288C208.571 214.87 208.095 217.836 207.32 220.532C206.119 224.703 204.249 228.651 201.784 232.22" fill="#051BAF"/>
<path d="M207.953 242.71C204.165 243.173 200.846 245.177 198.046 247.745C195.198 250.336 193.213 253.745 192.361 257.507C196.071 257.279 199.226 254.655 201.507 251.702C203.788 248.75 205.373 245.527 207.903 242.767" fill="#051BAF"/>
<path d="M209.331 244.5C207.844 240.701 207.325 236.59 207.822 232.539C208.318 228.489 209.814 224.626 212.174 221.302C214.306 228.997 213.538 237.704 209.331 244.5Z" fill="#051BAF"/>
<path d="M217.567 254.348C214.107 254.133 210.66 254.943 207.655 256.679C204.65 258.415 202.22 260.999 200.669 264.111C200.462 264.531 200.278 265.066 200.555 265.437C200.702 265.579 200.88 265.683 201.076 265.74C201.272 265.797 201.478 265.806 201.678 265.765C205.011 265.551 207.96 263.54 210.397 261.251C212.835 258.962 214.952 256.316 217.646 254.334" fill="#051BAF"/>
<path d="M217.305 253.813C215.532 248.082 215.423 241.962 216.992 236.171C217.61 233.903 218.648 231.507 220.744 230.466C220.828 230.409 220.922 230.371 221.021 230.354C221.121 230.336 221.222 230.341 221.32 230.366C221.489 230.455 221.619 230.605 221.682 230.787C222.384 232.377 222.687 234.115 222.563 235.85C222.44 237.575 222.176 239.288 221.775 240.97C221.114 244.101 220.765 247.466 219.053 250.169C218.651 250.81 218.288 251.474 217.966 252.159C217.639 252.872 217.639 253.086 217.34 253.635" fill="#051BAF"/>
<path d="M239.114 257.072C237.501 250.904 239.213 243.43 243.086 238.374C243.371 238.003 243.747 237.604 244.216 237.661C244.927 237.725 245.112 238.681 245.083 239.401C244.789 245.744 242.721 251.876 239.114 257.094" fill="#051BAF"/>
<path d="M241.083 258.42C248.551 260.367 257.114 258.477 263.325 253.877C259.608 252.004 255.36 251.48 251.301 252.394C247.279 253.314 243.605 255.125 241.097 258.42" fill="#051BAF"/>
<path d="M242.774 254.298C246.959 247.459 254.975 242.988 262.963 242.582C262.039 245.841 259.374 248.379 256.361 249.905C253.348 251.431 249.965 252.102 246.668 252.758C245.382 253.007 243.612 253.286 242.774 254.305" fill="#051BAF"/>
<path d="M239.533 234.388C240.663 230.494 241.807 226.544 242.113 222.522C242.419 218.5 241.85 214.257 239.761 210.784C235.852 218.371 235.461 227.235 239.42 234.794" fill="#051BAF"/>
<path d="M252.687 227.713C257.256 219.384 266.573 212.738 276.003 211.796C272.364 220.889 262.444 227.913 252.687 227.713" fill="#051BAF"/>
<path d="M249.809 229.339C256.624 230.38 262.43 234.744 268.79 237.397C270.116 238.038 271.585 238.323 273.054 238.224C273.742 238.22 274.413 238.003 274.974 237.603C275.536 237.204 275.962 236.641 276.195 235.991C276.427 235.34 276.455 234.634 276.275 233.967C276.094 233.301 275.714 232.706 275.186 232.263C274.283 231.427 273.222 230.782 272.066 230.366C265.13 227.471 257.697 227.399 250.392 229.154" fill="#051BAF"/>
<path d="M245.865 234.145C247.407 234.587 247.933 235.393 249.155 236.434C253.321 239.988 258.248 242.528 263.553 243.858C264.1 243.994 264.825 244.051 265.095 243.551C265.365 243.052 265.031 242.589 264.725 242.204C262.411 239.482 259.409 237.437 256.034 236.285C252.708 235.044 249.83 233.546 245.865 233.867" fill="#051BAF"/>
<path d="M241.417 205.178C244.21 207.763 247.511 209.732 251.108 210.96C254.705 212.188 258.518 212.648 262.302 212.31C262.651 212.317 262.989 212.195 263.254 211.967C263.78 211.397 263.148 210.541 262.544 210.028C256.404 205.221 248.963 203.232 241.424 205.178" fill="#051BAF"/>
<path d="M246.696 203.246C250.395 200.517 254.684 198.704 259.214 197.954C263.744 197.204 268.386 197.539 272.762 198.932C269.479 202.176 264.945 203.923 260.34 204.401C255.76 204.82 251.142 204.429 246.696 203.246" fill="#051BAF"/>
<path d="M244.6 189.939C243.996 183.785 244.387 178.936 243.96 172.753C243.96 172.261 243.818 171.662 243.364 171.491C242.724 171.241 242.191 172.033 241.978 172.689C241.086 175.553 240.858 178.584 241.312 181.55C241.765 184.516 242.887 187.339 244.593 189.804" fill="#051BAF"/>
<path d="M244.159 190.617C248.317 188.035 251.429 184.669 254.314 180.711C256.318 177.959 258.01 174.657 257.555 171.277C254.712 171.22 252.062 172.782 250.228 174.928C248.479 177.155 247.208 179.721 246.497 182.466C245.687 185.176 245.119 187.957 244.159 190.61" fill="#051BAF"/>
<path d="M254.144 187.835C263.283 184.44 271.744 179.433 279.13 173.053C276.145 171.847 272.734 172.568 269.742 173.766C262.927 176.525 257.356 181.189 254.009 187.757" fill="#051BAF"/>
<path d="M246.959 193.983C251.571 194.489 256.254 194.817 260.831 194.054C265.407 193.291 269.579 191.508 273.786 189.732C274.153 189.628 274.467 189.389 274.667 189.062C274.734 188.867 274.74 188.656 274.684 188.457C274.628 188.258 274.513 188.081 274.354 187.95C274.032 187.693 273.655 187.515 273.253 187.429C268.683 186.145 263.751 186.716 259.253 188.271C254.971 189.737 250.853 191.649 246.966 193.975" fill="#051BAF"/>
<path d="M220.623 205.392C217.475 199.017 217.681 191.579 220.396 185.011C222.307 187.935 222.528 191.665 222.194 195.145C221.86 198.625 220.772 202.212 220.716 205.713" fill="#051BAF"/>
<path d="M208.052 199.031C204.112 198.98 200.204 199.753 196.578 201.303C192.953 202.852 189.689 205.144 186.996 208.031C190.919 208.651 194.955 207.632 198.523 205.892C202.09 204.152 205.259 201.691 208.4 199.26" fill="#051BAF"/>
<path d="M199.596 196.193C195.751 195.879 192.056 195.402 188.36 196.543C184.665 197.684 181.304 200.258 179.797 203.831C183.425 204.125 187.065 203.435 190.336 201.834C193.577 200.234 196.669 198.346 199.574 196.193" fill="#051BAF"/>
<path d="M212.11 196.322C208.649 194.047 205.103 191.729 201.074 190.788C197.044 189.847 192.383 190.545 189.576 193.59C192.837 195.509 196.789 195.73 200.569 195.73C204.35 195.73 208.983 195.687 212.543 196.949" fill="#051BAF"/>
<path d="M212.131 196.536C206.219 190.709 203.98 180.248 206.354 172.29C211.019 179.456 213.061 188.026 212.131 196.536Z" fill="#051BAF"/>
<path d="M228.39 179.998C229.506 177.395 230.288 174.664 231.29 172.019C232.203 169.332 233.605 166.839 235.426 164.666C237.284 162.484 239.924 161.124 242.774 160.88C241.865 164.893 240.131 168.672 237.684 171.976C235.236 175.279 232.129 178.033 228.561 180.063" fill="#051BAF"/>
<path d="M225.448 183.443C223.601 180.897 221.469 177.438 218.967 175.534C216.466 173.63 213.204 172.482 210.156 173.209C211.737 175.99 213.942 178.363 216.597 180.139C219.252 181.916 222.282 183.047 225.448 183.443" fill="#051BAF"/>
<path d="M226.038 180.212C224.83 177.132 223.608 174.015 223.125 170.735C222.642 167.455 222.933 163.96 224.603 161.101C227.85 167.255 228.867 173.866 226.209 180.284" fill="#051BAF"/>
<path d="M228.419 161.101C230.259 154.996 235.824 150.504 241.836 148.443C242.579 148.135 243.387 148.012 244.188 148.086C244.584 148.128 244.96 148.285 245.268 148.539C245.576 148.792 245.803 149.131 245.922 149.512C246.142 150.554 245.289 151.481 244.501 152.172C239.798 156.211 234.327 159.249 228.419 161.101" fill="#051BAF"/>
<path d="M228.483 156.109C228.717 152.172 228.959 148.186 230.238 144.456C231.517 140.727 233.969 137.233 237.543 135.599C238.154 139.572 236.406 143.529 234.296 146.945C232.185 150.361 229.648 153.591 228.383 157.407" fill="#051BAF"/>
<path d="M228.391 158.812C226.87 154.362 226.713 148.714 224.063 144.842C222.208 142.132 219.238 140.285 217.667 137.418C216.704 140.169 216.839 143.187 218.044 145.84C219.251 148.464 220.914 150.852 222.954 152.893C224.916 155.032 226.6 156.579 228.426 158.804" fill="#051BAF"/>
<path d="M228.419 289.783C228.298 289.783 228.199 260.117 228.192 223.527C228.184 186.937 228.27 157.264 228.391 157.264C228.511 157.264 228.611 186.923 228.618 223.527C228.625 260.131 228.561 289.783 228.419 289.783Z" fill="#051BAF"/>
<path d="M254.258 200.914C253.902 201.089 253.531 201.23 253.149 201.335L250.093 202.369C247.514 203.253 243.968 204.508 240.144 206.106C236.321 207.703 232.718 209.079 230.693 210.855C229.877 211.537 229.228 212.398 228.796 213.372C228.504 214.085 228.447 214.492 228.412 214.485C228.393 214.381 228.393 214.275 228.412 214.171C228.458 213.877 228.532 213.588 228.632 213.308C229.02 212.272 229.657 211.348 230.487 210.62C231.723 209.573 233.104 208.713 234.587 208.067C236.229 207.296 238.041 206.498 239.974 205.706C243.833 204.123 247.4 202.854 250.008 202.076C251.309 201.67 252.374 201.363 253.114 201.171C253.486 201.05 253.869 200.964 254.258 200.914V200.914Z" fill="#051BAF"/>
<path d="M262.721 180.041C262.631 180.166 262.526 180.278 262.409 180.376L261.463 181.268L257.91 184.498L246.121 195.031C241.516 199.138 237.543 203.068 234.786 206.027C233.408 207.503 232.32 208.73 231.581 209.593L230.721 210.577C230.629 210.699 230.521 210.809 230.402 210.905C230.471 210.769 230.557 210.642 230.657 210.527C230.835 210.292 231.098 209.935 231.453 209.493C232.164 208.602 233.209 207.354 234.566 205.842C238.125 201.941 241.887 198.233 245.837 194.731C250.456 190.631 254.656 186.944 257.711 184.291L261.343 181.168L262.345 180.334C262.457 180.22 262.584 180.122 262.721 180.041V180.041Z" fill="#051BAF"/>
<path d="M241.168 199.21C241.047 199.153 242.006 196.928 242.965 194.111C243.925 191.294 244.387 188.919 244.508 188.941C244.628 188.962 244.344 191.401 243.371 194.254C242.963 195.468 242.488 196.658 241.949 197.819C241.757 198.318 241.493 198.786 241.168 199.21Z" fill="#051BAF"/>
<path d="M228.447 217.166C228.183 216.915 227.945 216.638 227.737 216.339L225.917 214C224.39 212.017 222.279 209.286 219.92 206.298C217.56 203.31 215.379 200.593 213.808 198.689L211.954 196.386C211.711 196.116 211.497 195.822 211.314 195.509C211.595 195.738 211.853 195.996 212.081 196.279C212.558 196.792 213.226 197.548 214.043 198.497C215.677 200.386 217.887 203.046 220.261 206.034C222.634 209.022 224.702 211.789 226.166 213.822C226.877 214.834 227.481 215.661 227.872 216.239C228.095 216.527 228.288 216.838 228.447 217.166Z" fill="#051BAF"/>
<path d="M222.784 209.871C221.641 208.603 220.826 207.072 220.41 205.414C219.964 203.961 219.781 202.439 219.87 200.921H220.062C219.977 201.264 219.913 201.449 219.884 201.442C219.856 201.435 219.884 201.242 219.884 200.893H220.076C220.171 202.373 220.426 203.839 220.836 205.264C221.583 207.945 222.876 209.8 222.784 209.871Z" fill="#051BAF"/>
<path d="M215.464 200.636C214.954 200.247 214.398 199.923 213.808 199.673C212.318 199.23 210.751 199.106 209.21 199.31C207.648 199.431 206.098 199.681 204.577 200.058C203.954 200.255 203.317 200.407 202.673 200.515C203.241 200.175 203.856 199.923 204.499 199.766C206.022 199.295 207.593 198.999 209.182 198.882C210.782 198.667 212.411 198.843 213.929 199.395C214.568 199.619 215.11 200.057 215.464 200.636Z" fill="#051BAF"/>
<path d="M213.73 198.397C213.73 198.461 212.764 198.012 211.193 197.47C207.081 196.059 202.679 195.723 198.402 196.493C196.767 196.785 195.772 197.092 195.751 197.02C195.96 196.891 196.188 196.795 196.426 196.735C197.054 196.514 197.695 196.333 198.345 196.193C202.667 195.243 207.171 195.587 211.3 197.184C211.92 197.422 212.526 197.698 213.112 198.012C213.336 198.108 213.544 198.238 213.73 198.397Z" fill="#051BAF"/>
<path d="M228.38 188.93C228.494 188.901 227.85 185.965 226.943 182.373C226.035 178.781 225.206 175.892 225.092 175.921C224.978 175.95 225.621 178.886 226.529 182.478C227.437 186.07 228.266 188.959 228.38 188.93Z" fill="#051BAF"/>
<path d="M228.504 188.941C228.376 188.984 227.843 187.051 226.45 185.076C225.582 183.906 224.567 182.854 223.43 181.945C223.86 182.053 224.26 182.261 224.596 182.551C225.453 183.179 226.198 183.948 226.799 184.826C227.719 186.022 228.308 187.442 228.504 188.941V188.941Z" fill="#051BAF"/>
<path d="M228.419 273.966C228.376 273.966 228.284 273.253 227.95 271.991C227.46 270.218 226.799 268.499 225.974 266.856C223.935 262.67 220.218 257.357 215.492 252.038C213.155 249.356 210.88 246.825 208.955 244.4C207.225 242.268 205.662 240.005 204.279 237.633C203.352 236.039 202.563 234.369 201.919 232.641C201.699 232.02 201.543 231.535 201.457 231.214C201.399 231.048 201.358 230.876 201.337 230.701C201.372 230.701 201.592 231.414 202.047 232.591C202.745 234.293 203.569 235.94 204.513 237.518C205.924 239.854 207.501 242.085 209.232 244.193C211.165 246.589 213.439 249.107 215.784 251.795C220.517 257.129 224.226 262.492 226.216 266.771C227.023 268.44 227.648 270.193 228.078 271.998C228.191 272.49 228.279 272.987 228.341 273.488C228.383 273.644 228.409 273.804 228.419 273.966Z" fill="#051BAF"/>
<path d="M251.763 247.509C251.372 247.774 250.964 248.012 250.541 248.222C249.433 248.859 248.371 249.573 247.364 250.362C245.88 251.524 244.488 252.799 243.2 254.177C241.736 255.724 240.23 257.529 238.695 259.461C235.618 263.333 232.747 266.756 231.02 269.495C230.146 270.85 229.513 271.998 229.094 272.796C228.897 273.222 228.671 273.634 228.419 274.03C228.439 273.909 228.477 273.791 228.533 273.681C228.625 273.46 228.746 273.132 228.945 272.718C229.479 271.533 230.087 270.383 230.764 269.274C232.434 266.471 235.291 262.998 238.361 259.133C239.903 257.201 241.424 255.396 242.916 253.849C244.229 252.469 245.655 251.202 247.18 250.062C248.212 249.299 249.308 248.626 250.456 248.051C250.861 247.844 251.166 247.723 251.408 247.63C251.519 247.571 251.639 247.53 251.763 247.509Z" fill="#051BAF"/>
<path d="M252.218 256.095C251.366 256.285 250.502 256.411 249.631 256.473C247.554 256.688 245.502 257.094 243.499 257.685C241.518 258.333 239.661 259.312 238.005 260.581C236.74 261.565 236.144 262.378 236.087 262.328C236.178 262.107 236.308 261.904 236.47 261.729C236.874 261.224 237.326 260.761 237.821 260.345C239.458 258.976 241.342 257.935 243.371 257.279C245.399 256.673 247.49 256.302 249.603 256.174C250.47 256.067 251.346 256.041 252.218 256.095Z" fill="#051BAF"/>
<path d="M236.84 261.379C236.705 261.301 237.87 259.518 238.773 257.101C239.675 254.683 239.817 252.551 239.974 252.572C240.042 253.047 240.028 253.529 239.931 253.999C239.804 255.117 239.551 256.217 239.178 257.279C238.786 258.333 238.283 259.341 237.678 260.288C237.461 260.696 237.177 261.065 236.84 261.379V261.379Z" fill="#051BAF"/>
<path d="M259.324 224.461C259.196 224.551 259.058 224.625 258.912 224.682L257.697 225.239C257.164 225.467 256.517 225.759 255.792 226.144C255.068 226.529 254.208 226.914 253.319 227.449L251.898 228.255C251.408 228.54 250.925 228.875 250.413 229.196C249.375 229.831 248.331 230.623 247.222 231.407C242.473 234.968 238.33 239.279 234.957 244.172C234.203 245.313 233.464 246.39 232.867 247.452C232.562 247.98 232.242 248.479 231.979 248.978L231.226 250.405C230.721 251.31 230.366 252.18 230.011 252.929C229.655 253.678 229.385 254.355 229.172 254.869L228.66 256.11C228.609 256.258 228.54 256.399 228.454 256.53C228.479 256.376 228.521 256.225 228.582 256.081L229.016 254.812C229.201 254.255 229.449 253.592 229.79 252.836C230.131 252.08 230.465 251.196 230.956 250.276L231.666 248.814C231.922 248.308 232.235 247.802 232.54 247.267C233.123 246.19 233.862 245.128 234.616 243.944C237.992 238.992 242.183 234.651 247.009 231.108C248.139 230.316 249.191 229.539 250.249 228.918C250.775 228.597 251.266 228.269 251.763 227.991L253.184 227.207C254.087 226.686 254.954 226.315 255.7 225.952C256.446 225.588 257.121 225.317 257.647 225.11L258.898 224.632C259.033 224.558 259.176 224.501 259.324 224.461V224.461Z" fill="#051BAF"/>
<path d="M240.848 236.884C241.02 236.283 241.375 235.752 241.864 235.365C243.001 234.372 244.451 233.814 245.957 233.789C247.434 233.781 248.898 234.067 250.264 234.63C250.842 234.812 251.391 235.079 251.891 235.422C251.302 235.305 250.724 235.136 250.164 234.916C248.815 234.449 247.399 234.208 245.972 234.202C244.556 234.233 243.187 234.715 242.063 235.579C241.627 235.983 241.22 236.419 240.848 236.884V236.884Z" fill="#051BAF"/>
<path d="M238.083 239.743C237.963 239.679 239.007 238.146 239.249 235.95C239.49 233.753 238.858 232.027 238.986 231.985C239.234 232.308 239.4 232.688 239.469 233.09C239.975 235.007 239.739 237.045 238.808 238.795C238.446 239.437 238.126 239.772 238.083 239.743Z" fill="#051BAF"/>
<path d="M208.002 278.223C208.642 289.562 212.046 301.093 217.283 312.752H240.024C244.998 301.207 248.189 289.697 248.75 278.223H208.002Z" fill="#274DED"/>
<path d="M228.341 296.779C237.587 296.779 245.083 296.683 245.083 296.565C245.083 296.446 237.587 296.351 228.341 296.351C219.094 296.351 211.598 296.446 211.598 296.565C211.598 296.683 219.094 296.779 228.341 296.779Z" fill="white"/>
<path d="M228.874 300.886C237.543 300.886 244.572 300.79 244.572 300.672C244.572 300.554 237.543 300.458 228.874 300.458C220.204 300.458 213.176 300.554 213.176 300.672C213.176 300.79 220.204 300.886 228.874 300.886Z" fill="white"/>
<path d="M217.646 296.187C217.764 296.187 217.859 293.831 217.859 290.924C217.859 288.017 217.764 285.661 217.646 285.661C217.528 285.661 217.433 288.017 217.433 290.924C217.433 293.831 217.528 296.187 217.646 296.187Z" fill="white"/>
<path d="M229.847 296.558C229.965 296.558 230.06 294.118 230.06 291.109C230.06 288.1 229.965 285.661 229.847 285.661C229.729 285.661 229.634 288.1 229.634 291.109C229.634 294.118 229.729 296.558 229.847 296.558Z" fill="white"/>
<path d="M241.296 296.693C241.413 296.693 241.509 294.203 241.509 291.131C241.509 288.059 241.413 285.568 241.296 285.568C241.178 285.568 241.083 288.059 241.083 291.131C241.083 294.203 241.178 296.693 241.296 296.693Z" fill="white"/>
<path d="M228.412 285.875C239.26 285.875 248.054 285.779 248.054 285.661C248.054 285.543 239.26 285.447 228.412 285.447C217.564 285.447 208.77 285.543 208.77 285.661C208.77 285.779 217.564 285.875 228.412 285.875Z" fill="white"/>
<path d="M255.061 66.0348H198.352V6.71045H255.061V66.0348ZM198.388 66.0348H255.025V6.7461H198.388V66.0348Z" fill="#E0E0E0"/>
<path d="M133.542 100.253C133.538 100.594 133.666 100.924 133.901 101.172C134.135 101.419 134.456 101.566 134.796 101.579C134.962 101.593 135.128 101.573 135.286 101.52C135.444 101.468 135.59 101.385 135.715 101.275C135.84 101.166 135.942 101.032 136.015 100.883C136.088 100.733 136.131 100.57 136.141 100.403C136.145 100.062 136.016 99.7324 135.782 99.4847C135.548 99.237 135.226 99.0907 134.886 99.077C134.721 99.0637 134.554 99.0837 134.396 99.1359C134.238 99.1881 134.093 99.2714 133.967 99.3809C133.842 99.4905 133.74 99.624 133.667 99.7737C133.594 99.9234 133.551 100.086 133.542 100.253V100.253Z" fill="#263238"/>
<path d="M130.703 95.8814C130.861 96.0547 131.852 95.3236 133.257 95.3312C134.661 95.3387 135.683 96.0472 135.84 95.8738C135.998 95.7005 135.75 95.4894 135.307 95.1578C134.701 94.7355 133.979 94.5117 133.242 94.5172C132.511 94.5128 131.798 94.7425 131.206 95.1729C130.786 95.497 130.635 95.806 130.703 95.8814Z" fill="#263238"/>
<path d="M145.303 100.253C145.301 100.593 145.431 100.921 145.665 101.167C145.899 101.413 146.219 101.558 146.558 101.572C146.723 101.585 146.89 101.565 147.048 101.513C147.206 101.461 147.351 101.377 147.477 101.268C147.602 101.158 147.704 101.025 147.777 100.875C147.85 100.725 147.893 100.562 147.902 100.396C147.906 100.055 147.778 99.7249 147.543 99.4772C147.309 99.2295 146.988 99.0832 146.648 99.0695C146.482 99.0562 146.315 99.0765 146.156 99.1291C145.998 99.1818 145.852 99.2658 145.727 99.3761C145.601 99.4864 145.499 99.6209 145.426 99.7714C145.354 99.922 145.312 100.086 145.303 100.253V100.253Z" fill="#263238"/>
<path d="M144.034 95.8814C144.199 96.0547 145.183 95.3237 146.588 95.3312C147.992 95.3387 149.014 96.0472 149.171 95.8739C149.329 95.7005 149.081 95.4895 148.638 95.1579C148.033 94.7329 147.311 94.5064 146.573 94.5097C145.842 94.5058 145.129 94.7355 144.537 95.1654C144.109 95.497 143.959 95.806 144.034 95.8814Z" fill="#263238"/>
<path d="M139.655 106.938C138.924 106.707 138.167 106.568 137.402 106.523C137.042 106.486 136.704 106.41 136.651 106.169C136.622 105.799 136.705 105.428 136.892 105.107L137.958 102.371C139.46 98.4741 140.512 95.2785 140.354 95.2182C140.196 95.1579 138.852 98.2329 137.387 102.16L136.366 104.911C136.14 105.344 136.074 105.843 136.178 106.32C136.23 106.447 136.309 106.56 136.411 106.651C136.512 106.743 136.633 106.81 136.764 106.848C136.962 106.901 137.167 106.929 137.372 106.93C138.13 107.029 138.897 107.032 139.655 106.938V106.938Z" fill="#263238"/>
<path d="M144.477 90.794C144.613 91.1784 145.979 90.9975 147.662 91.201C149.344 91.4045 150.666 91.8567 150.854 91.5176C150.951 91.3518 150.719 90.99 150.185 90.6207C149.47 90.1648 148.661 89.8783 147.819 89.783C146.977 89.6877 146.125 89.786 145.326 90.0705C144.725 90.3117 144.417 90.6131 144.477 90.794Z" fill="#263238"/>
<path d="M131.176 91.5778C131.424 91.8944 132.393 91.5778 133.549 91.5778C134.706 91.5778 135.698 91.7964 135.923 91.4648C136.02 91.299 135.87 90.9824 135.442 90.7111C134.865 90.3482 134.194 90.1652 133.514 90.1853C132.833 90.2055 132.174 90.4278 131.619 90.8242C131.199 91.0653 131.064 91.4196 131.176 91.5778Z" fill="#263238"/>
<path d="M93.856 284.016L89.3271 313.546H94.5019L103.229 284.016H93.856Z" fill="#263238"/>
<path d="M206.192 284.016L210.713 313.546H205.546L196.811 284.016H206.192Z" fill="#263238"/>
<path d="M70.3404 205.693C70.8135 219.531 71.6848 277.791 83.6942 288.975H93.4579C97.3484 288.975 97.1381 287.129 96.9879 283.232L94.1489 206.982C94.0945 205.515 93.5674 204.106 92.6468 202.965C90.6865 200.538 86.751 196.785 81.3809 197.147C78.4658 197.291 75.6453 198.231 73.2244 199.867C72.2958 200.518 71.545 201.393 71.041 202.411C70.5371 203.429 70.2961 204.557 70.3404 205.693V205.693Z" fill="#AEC2FC"/>
<path d="M205.516 289.827L93.4504 288.975V254.238H205.516V289.827Z" fill="#AEC2FC"/>
<path d="M205.065 254.238L92.8044 255.165V234.318L205.516 232.2L205.065 254.238Z" fill="#AEC2FC"/>
<path d="M72.4583 201.789C72.4583 201.789 73.2919 172.863 105.017 171.37C136.741 169.878 183.825 171.37 183.825 171.37C183.825 171.37 223.684 169.863 224.6 195.066L216.684 243.362H93.6306L72.4583 201.789Z" fill="#AEC2FC"/>
<path d="M229.317 208.768C228.476 228.711 226.643 287.189 212.794 289.835H202.549L205.726 204.404C205.726 204.404 210.488 196.069 218.434 196.604H218.674C221.672 196.856 224.455 198.264 226.44 200.533C228.424 202.801 229.456 205.753 229.317 208.768V208.768Z" fill="#AEC2FC"/>
<path d="M223.654 197.817L223.286 197.727L222.212 197.433L221.461 197.214L220.492 197.071C220.139 197.026 219.741 196.95 219.358 196.913H218.059C215.837 196.932 213.652 197.48 211.682 198.511L211.246 198.729L210.826 198.993L209.97 199.536C209.396 199.948 208.844 200.391 208.317 200.862C207.166 201.881 206.156 203.049 205.313 204.337V204.276L203.811 236.353C203.15 251.08 202.684 264.42 202.414 274.037L202.129 285.471L202.053 288.583V289.39C202.053 289.571 202.053 289.669 202.053 289.669C202.053 289.669 202.053 289.578 202.053 289.39C202.053 289.202 202.053 288.923 202.053 288.583C202.053 287.83 202.053 286.812 202.053 285.471C202.053 282.773 202.136 278.861 202.241 274.03C202.452 264.368 202.887 251.027 203.548 236.3C204.089 224.204 204.652 213.049 205.11 204.231C205.106 204.214 205.106 204.196 205.11 204.178C205.965 202.876 206.991 201.694 208.16 200.666C208.696 200.192 209.258 199.746 209.842 199.332L210.713 198.789L211.141 198.526L211.584 198.307C213.585 197.277 215.802 196.742 218.051 196.747L219.358 196.785C219.763 196.83 220.109 196.913 220.492 196.966L221.468 197.131L222.219 197.365L223.286 197.697L223.654 197.817Z" fill="#263238"/>
<path d="M72.4583 200.855L72.7887 200.734L73.7801 200.41L74.5312 200.176C74.8016 200.093 75.1095 200.048 75.4324 199.973L76.4839 199.747C76.8595 199.656 77.235 199.649 77.7006 199.588C79.7884 199.325 81.907 199.466 83.9419 200.003C86.6341 200.692 89.0832 202.116 91.0169 204.118C91.025 204.14 91.025 204.164 91.0169 204.186V204.186C91.4675 212.861 91.9707 223.985 92.3763 236.089C92.8645 250.409 93.1274 263.388 93.2776 272.779L93.4053 283.896C93.4053 285.199 93.4053 286.209 93.4053 286.91V287.664C93.4053 287.845 93.4053 287.935 93.4053 287.935C93.4053 287.935 93.4053 287.845 93.4053 287.672V286.918L93.3377 283.903L93.1124 272.786C92.9171 263.395 92.6091 250.432 92.121 236.104C91.7079 224 91.2347 212.876 90.8216 204.201V204.276C88.9212 202.298 86.5152 200.882 83.8668 200.184C81.8542 199.638 79.7569 199.48 77.6856 199.717C77.2575 199.769 76.8519 199.777 76.4764 199.86L75.4249 200.071C75.102 200.139 74.794 200.184 74.5237 200.259L73.7726 200.478L72.7737 200.764L72.4583 200.855Z" fill="#263238"/>
<path d="M93.6306 255.075H94.1864H95.8312H102.14L125.355 255.135C144.958 255.21 172.034 255.421 201.963 254.992H203.202L203.045 255.143L203.36 244.591L203.518 239.428L203.593 236.881C203.593 236.466 203.631 236.022 203.593 235.622C203.574 235.221 203.463 234.829 203.27 234.477C203.07 234.121 202.797 233.811 202.47 233.568C202.143 233.325 201.768 233.155 201.37 233.067C200.956 232.997 200.535 232.974 200.116 232.999H198.831H193.747L183.9 233.067L149.87 233.421C140.189 233.519 132.363 233.565 126.955 233.565H120.729H119.107H118.558H119.107H120.729L126.955 233.519L149.87 233.278L183.9 232.856L193.747 232.781H198.831H200.116C200.558 232.755 201.001 232.781 201.437 232.856C201.868 232.933 202.278 233.098 202.642 233.341C203.006 233.583 203.317 233.898 203.555 234.265C203.77 234.655 203.893 235.088 203.916 235.532C203.916 235.976 203.916 236.383 203.916 236.813L203.841 239.36L203.691 244.523L203.375 255.075C203.373 255.115 203.356 255.154 203.326 255.182C203.297 255.21 203.258 255.225 203.218 255.225H201.978C172.071 255.655 144.988 255.414 125.37 255.278L102.163 255.158L95.8537 255.112H94.2089L93.6306 255.075Z" fill="#263238"/>
<g opacity="0.2">
<path d="M92.812 255.165C118.536 260.758 130.778 260.335 154.692 260.75C176.157 261.119 199.755 257.238 203.18 254.932L92.812 255.165Z" fill="black"/>
</g>
<path d="M106.744 163.057C106.654 162.56 108.682 149.785 112.422 140.982C113.789 137.756 114.788 135.51 116.177 134.123C117.545 132.802 119.121 131.717 120.841 130.913L138.476 126.918C138.476 126.918 137.26 133.166 148.803 132.413C157.403 131.855 158.883 125.569 158.883 125.569C158.883 125.569 175.924 127.491 180.055 131.29C184.186 135.088 188.166 157.224 188.166 157.224L172.131 161.912L170.224 185.351L175.549 196.996C175.549 196.996 159.528 209.1 148.51 208.527C137.492 207.954 118.318 201.548 118.318 201.548L125.348 186.693L120.841 164.61L106.744 163.057Z" fill="#274DED"/>
<path d="M116.433 145.429C116.522 145.673 116.587 145.925 116.628 146.182L117.056 148.338C117.417 150.162 117.935 152.671 118.558 155.43C119.182 158.188 119.843 160.706 120.323 162.469L120.887 164.595C120.968 164.84 121.026 165.092 121.059 165.348C120.94 165.107 120.844 164.855 120.774 164.595C120.609 164.105 120.376 163.389 120.113 162.492C119.58 160.713 118.896 158.234 118.258 155.468C117.619 152.702 117.131 150.192 116.823 148.345C116.673 147.426 116.553 146.687 116.493 146.167C116.451 145.923 116.43 145.676 116.433 145.429V145.429Z" fill="#263238"/>
<path d="M173.356 141.457C173.679 141.412 173.521 146.205 173.145 152.008C172.958 154.933 172.755 157.571 172.59 159.485L172.379 161.746C172.366 162.026 172.326 162.303 172.259 162.575C172.232 162.297 172.232 162.017 172.259 161.738L172.372 159.477L172.837 152.001L173.288 144.524C173.397 143.505 173.42 142.479 173.356 141.457V141.457Z" fill="#263238"/>
<path d="M160.309 184.522C160.014 184.697 159.705 184.848 159.386 184.974C159.085 185.11 158.71 185.276 158.274 185.442C157.839 185.608 157.343 185.819 156.772 185.999C155.459 186.452 154.123 186.835 152.769 187.145C149.45 187.908 146.048 188.245 142.645 188.147C141.258 188.108 139.874 187.995 138.499 187.808C137.913 187.74 137.387 187.635 136.922 187.56C136.456 187.484 136.065 187.401 135.742 187.318C135.406 187.259 135.074 187.173 134.751 187.062C135.092 187.083 135.431 187.131 135.765 187.205C136.088 187.266 136.516 187.333 136.952 187.394C137.387 187.454 137.943 187.544 138.529 187.597C139.7 187.733 141.097 187.831 142.652 187.869C146.032 187.933 149.407 187.599 152.709 186.874C154.211 186.535 155.585 186.165 156.704 185.796C157.268 185.63 157.771 185.442 158.207 185.283C158.642 185.125 159.025 184.989 159.333 184.869C159.649 184.728 159.975 184.612 160.309 184.522V184.522Z" fill="#263238"/>
<path d="M152.994 131.32L154.985 155.664C155.022 156.061 154.901 156.458 154.648 156.766C154.394 157.074 154.029 157.268 153.633 157.307L138.664 158.897C138.467 158.92 138.267 158.903 138.076 158.848C137.885 158.793 137.706 158.7 137.551 158.576C137.396 158.451 137.267 158.296 137.172 158.121C137.077 157.946 137.017 157.754 136.997 157.555L134.068 132.126C134.041 131.917 134.059 131.704 134.12 131.502C134.181 131.3 134.283 131.113 134.42 130.953C134.558 130.793 134.727 130.664 134.917 130.574C135.108 130.484 135.314 130.435 135.525 130.43L151.432 129.918C151.823 129.901 152.205 130.038 152.497 130.3C152.789 130.562 152.967 130.928 152.994 131.32V131.32Z" fill="#263238"/>
<path d="M146.16 144.283C146.565 144.283 155.428 145.896 155.428 145.896L167.017 152.558L173.25 161.979L167.167 173.375L164.05 164.173C162.239 164.251 160.426 164.214 158.62 164.06C155.916 163.803 147.354 163.14 147.354 163.14L142.938 160.683C142.938 160.683 141.526 158.362 141.526 157.714C141.516 157.528 141.557 157.344 141.645 157.18C141.733 157.017 141.864 156.881 142.024 156.787C142.184 156.694 142.367 156.646 142.552 156.65C142.737 156.654 142.917 156.709 143.073 156.809C143.974 157.329 150.148 157.457 151.695 156.809C151.695 156.809 142.682 156.153 141.526 154.676C140.369 153.199 140.775 152.031 142.172 152.031C143.569 152.031 148.736 152.785 150.276 152.679C151.815 152.573 153.753 152.551 154.136 151.775C154.519 150.998 153.385 150.358 153.385 150.358L151.71 149.069C151.71 149.069 145.146 147.908 144.763 146.484C144.678 146.247 144.649 145.993 144.676 145.743C144.704 145.493 144.789 145.252 144.924 145.04C145.059 144.827 145.24 144.649 145.454 144.518C145.669 144.386 145.91 144.306 146.16 144.283V144.283Z" fill="#FFBF9D"/>
<path d="M143.148 143.823C143.148 143.823 135.637 145.052 135.149 145.527C134.661 146.001 125.198 157.653 125.198 157.653L130.034 167.188L138.514 162.575C139.38 162.19 140.283 161.897 141.21 161.701C141.21 161.701 149.765 160.352 150.32 159.319C150.876 158.287 150.561 158.045 149.922 157.887C149.284 157.729 144.169 158.317 143.028 158.528C141.894 158.641 140.752 158.641 139.618 158.528C139.618 158.528 143.17 157.699 143.974 157.412C144.778 157.126 152.739 155.347 152.611 153.915C152.483 152.483 151.492 151.963 146.513 153.32C143.778 154.106 140.959 154.562 138.116 154.676L149.126 150.818C149.126 150.818 153.565 149.386 152.13 148.112C150.696 146.838 141.218 149.468 141.218 149.468L137.019 151.059L138.206 148.511C138.206 148.511 144.177 146.733 144.965 146.137C145.912 145.383 146.047 144.705 145.333 144.095C144.62 143.484 143.148 143.823 143.148 143.823Z" fill="#FFBF9D"/>
<path d="M107.578 163.148L120.413 164.467L122.216 162.13L125.22 157.653L130.034 167.188C130.034 167.188 128.285 172.855 127.338 175.991C124.815 184.379 120.706 193.762 115.659 193.325C109.606 192.76 105.144 185.555 105.28 180.89C105.37 176.616 107.578 163.148 107.578 163.148Z" fill="#FFBF9D"/>
<path d="M186.732 157.744L176.052 160.465L172.762 161.158L169.758 156.681L164.929 166.223C164.929 166.223 166.679 171.891 167.625 175.026C170.149 183.414 174.257 192.798 179.304 192.361C185.357 191.795 189.819 184.59 189.684 179.925C189.639 175.666 186.732 157.744 186.732 157.744Z" fill="#FFBF9D"/>
<path d="M125.198 157.653C125.198 157.653 125.28 157.533 125.453 157.314L126.204 156.342L129.208 152.626L133.962 146.785L134.713 145.926L135.089 145.489C135.258 145.363 135.449 145.271 135.652 145.218C136.403 144.992 137.199 144.826 138.011 144.652C139.633 144.321 141.36 144.012 143.17 143.71C143.628 143.605 144.101 143.582 144.567 143.642C144.814 143.675 145.051 143.757 145.266 143.884C145.483 144.022 145.663 144.211 145.792 144.434C145.855 144.547 145.895 144.673 145.909 144.802C145.923 144.932 145.911 145.063 145.874 145.187C145.783 145.432 145.639 145.653 145.454 145.836C145.28 146.024 145.08 146.187 144.86 146.318C144.638 146.435 144.41 146.541 144.177 146.635C142.322 147.388 140.339 147.976 138.281 148.602L138.364 148.526L137.177 151.074L137.004 150.885L141.203 149.295C143.005 148.813 144.853 148.368 146.775 148.021C147.744 147.837 148.722 147.704 149.705 147.622C150.204 147.58 150.707 147.58 151.207 147.622C151.465 147.643 151.718 147.704 151.958 147.803C152.095 147.86 152.219 147.946 152.32 148.055C152.421 148.164 152.497 148.294 152.544 148.436C152.572 148.584 152.564 148.738 152.519 148.883C152.475 149.027 152.395 149.158 152.288 149.265C152.108 149.461 151.903 149.633 151.68 149.777C151.242 150.069 150.78 150.322 150.298 150.531C149.337 150.938 148.353 151.232 147.376 151.594L141.413 153.681L138.176 154.812L138.123 154.511C140.752 154.391 143.361 153.989 145.904 153.312C147.139 152.96 148.393 152.678 149.659 152.468C150.3 152.353 150.956 152.353 151.597 152.468C151.942 152.531 152.252 152.719 152.468 152.996C152.659 153.284 152.761 153.622 152.761 153.968C152.747 154.158 152.661 154.336 152.521 154.465C152.408 154.585 152.282 154.691 152.145 154.782C151.885 154.957 151.612 155.111 151.327 155.242C150.771 155.498 150.202 155.724 149.622 155.92C148.48 156.319 147.369 156.674 146.212 156.952L144.537 157.397C143.996 157.54 143.441 157.736 142.892 157.864C141.796 158.151 140.722 158.407 139.663 158.618V158.354C140.899 158.5 142.149 158.482 143.381 158.302C144.597 158.128 145.792 157.993 146.956 157.88C147.534 157.827 148.112 157.774 148.683 157.736C148.968 157.736 149.254 157.736 149.539 157.736C149.687 157.724 149.835 157.724 149.982 157.736C150.128 157.77 150.269 157.821 150.403 157.887C150.479 157.923 150.548 157.974 150.603 158.038C150.659 158.101 150.701 158.176 150.726 158.256C150.768 158.409 150.768 158.571 150.726 158.724C150.688 158.861 150.637 158.995 150.576 159.123L150.486 159.312C150.447 159.383 150.396 159.447 150.335 159.5C149.876 159.804 149.368 160.029 148.833 160.163C146.956 160.693 145.05 161.119 143.125 161.437L141.818 161.663C141.403 161.722 140.991 161.807 140.587 161.919C139.825 162.091 139.088 162.359 138.394 162.718L132.205 166.049L130.583 166.909L130.162 167.127L130.019 167.195L130.154 167.112L130.56 166.879L132.205 165.982L138.296 162.628C139.806 161.927 141.419 161.479 143.073 161.301C144.985 160.973 146.878 160.54 148.743 160.005C149.239 159.872 149.711 159.661 150.14 159.379C150.183 159.346 150.218 159.305 150.245 159.259L150.335 159.085C150.391 158.969 150.436 158.848 150.471 158.724C150.546 158.475 150.471 158.256 150.275 158.151C150.158 158.094 150.034 158.051 149.907 158.023C149.777 158.013 149.647 158.013 149.517 158.023C149.239 158.023 148.961 158.023 148.676 158.023C148.112 158.023 147.534 158.113 146.956 158.173C145.799 158.294 144.605 158.43 143.396 158.603C142.152 158.787 140.889 158.807 139.64 158.663C139.611 158.656 139.585 158.639 139.566 158.615C139.547 158.591 139.537 158.562 139.537 158.531C139.537 158.501 139.547 158.471 139.566 158.447C139.585 158.424 139.611 158.407 139.64 158.4C140.692 158.151 141.773 157.887 142.862 157.608C143.411 157.48 143.936 157.292 144.5 157.141L146.175 156.689C147.301 156.38 148.428 156.056 149.562 155.656C150.132 155.462 150.691 155.239 151.237 154.985C151.498 154.859 151.749 154.713 151.988 154.548C152.213 154.39 152.483 154.171 152.483 153.968C152.472 153.7 152.389 153.439 152.243 153.214C152.069 152.995 151.82 152.847 151.545 152.8C150.941 152.693 150.323 152.693 149.72 152.8C148.453 153.009 147.199 153.291 145.964 153.644C143.397 154.33 140.763 154.737 138.108 154.857C138.072 154.859 138.036 154.847 138.008 154.824C137.98 154.801 137.961 154.769 137.954 154.733C137.948 154.697 137.955 154.66 137.973 154.629C137.992 154.598 138.021 154.575 138.056 154.563L141.293 153.425L147.264 151.338C148.24 150.983 149.231 150.682 150.163 150.29C150.625 150.098 151.07 149.866 151.492 149.597C151.693 149.467 151.877 149.312 152.04 149.137C152.115 149.068 152.172 148.982 152.206 148.886C152.24 148.79 152.25 148.687 152.236 148.587C152.115 148.187 151.612 148.029 151.139 147.991C150.652 147.95 150.162 147.95 149.674 147.991C148.702 148.071 147.734 148.202 146.775 148.383C144.868 148.73 143.02 149.137 141.225 149.649L137.027 151.232C137.001 151.243 136.972 151.246 136.945 151.24C136.918 151.234 136.893 151.22 136.874 151.199C136.855 151.179 136.843 151.152 136.839 151.125C136.836 151.097 136.841 151.068 136.854 151.044L138.048 148.504C138.056 148.486 138.067 148.47 138.081 148.457C138.096 148.444 138.112 148.434 138.131 148.428C140.181 147.81 142.164 147.2 144.004 146.484C144.229 146.393 144.455 146.295 144.665 146.182C144.865 146.063 145.047 145.916 145.206 145.745C145.379 145.618 145.504 145.435 145.56 145.227C145.616 145.018 145.6 144.797 145.514 144.6C145.405 144.413 145.253 144.255 145.072 144.139C144.89 144.022 144.684 143.95 144.47 143.929C144.034 143.87 143.592 143.887 143.163 143.982V143.982C141.353 144.276 139.633 144.577 138.011 144.901C137.199 145.067 136.411 145.233 135.675 145.444C135.503 145.489 135.341 145.563 135.194 145.662L134.826 146.092L134.075 146.944L129.283 152.747L126.279 156.425L125.445 157.337C125.295 157.548 125.198 157.653 125.198 157.653Z" fill="#FF9A6C"/>
<path d="M118.069 167.969C122.517 162.175 126.053 157.425 125.967 157.359C125.882 157.293 122.207 161.936 117.759 167.729C113.312 173.523 109.775 178.273 109.861 178.339C109.946 178.405 113.621 173.762 118.069 167.969Z" fill="#FF9A6C"/>
<path d="M184.171 178.334C184.103 178.334 183.66 177.257 182.736 175.584C181.507 173.414 180.134 171.329 178.628 169.343C176.885 166.999 175.218 164.934 174.069 163.389C173.491 162.635 173.04 161.987 172.74 161.542C172.566 161.31 172.422 161.057 172.312 160.789C172.521 160.974 172.708 161.184 172.867 161.414L174.294 163.178C175.496 164.685 177.193 166.705 178.943 169.064C180.463 171.062 181.812 173.185 182.977 175.41C183.326 176.085 183.637 176.78 183.908 177.49C184.031 177.759 184.12 178.043 184.171 178.334V178.334Z" fill="#FF9A6C"/>
<path d="M108.457 280.836L104.836 269.169L123.598 263.652L126.715 276.698L108.457 280.836Z" fill="#FFBF9D"/>
<path d="M125.791 275.439L129.824 294.628L133.655 300.462C135.112 302.677 133.046 303.476 130.838 304.901L103.935 322.71C103.935 322.71 100.886 320.841 102.313 318.678C103.74 316.515 113.308 298.231 113.308 298.231L108.457 280.798L125.791 275.439Z" fill="#274DED"/>
<path d="M126.805 273.457L127.556 278.288C127.608 278.645 127.528 279.008 127.329 279.308C127.131 279.609 126.829 279.825 126.482 279.916L110.109 284.129C109.76 284.219 109.391 284.176 109.072 284.009C108.753 283.842 108.507 283.563 108.381 283.225L106.744 278.763C106.675 278.572 106.646 278.369 106.659 278.167C106.672 277.964 106.726 277.767 106.82 277.587C106.913 277.407 107.043 277.248 107.2 277.121C107.358 276.994 107.54 276.901 107.735 276.849L125.01 272.259C125.207 272.209 125.412 272.201 125.612 272.236C125.812 272.271 126.002 272.347 126.171 272.46C126.34 272.572 126.484 272.719 126.593 272.891C126.702 273.063 126.774 273.256 126.805 273.457V273.457Z" fill="#274DED"/>
<path d="M109.456 284.363C110.33 284.32 111.199 284.204 112.054 284.016C113.646 283.745 115.81 283.308 118.243 282.697C120.676 282.087 122.749 281.408 124.296 280.858C125.048 280.579 125.671 280.346 126.084 280.165C126.309 280.091 126.521 279.984 126.715 279.848C125.864 280.046 125.026 280.298 124.206 280.602C122.667 281.084 120.526 281.717 118.145 282.32C115.764 282.923 113.579 283.406 112.002 283.752C111.14 283.896 110.289 284.1 109.456 284.363V284.363Z" fill="#AEC2FC"/>
<path d="M124.221 280.195C124.506 278.918 124.447 277.589 124.051 276.343C123.655 275.097 122.936 273.978 121.968 273.103C123.469 275.157 124.26 277.648 124.221 280.195V280.195Z" fill="#AEC2FC"/>
<path d="M118.401 282.501C118.174 279.768 117.531 277.087 116.493 274.55C117.018 277.226 117.655 279.879 118.401 282.501V282.501Z" fill="#AEC2FC"/>
<path d="M111.679 283.519C111.097 282.352 110.75 281.082 110.658 279.781C110.567 278.48 110.732 277.173 111.145 275.937C110.887 276.238 110.704 276.597 110.612 276.984C110.009 278.82 110.15 280.821 111.003 282.554C111.333 283.21 111.641 283.541 111.679 283.519Z" fill="#AEC2FC"/>
<path d="M128.788 306.024C128.848 306.024 128.562 305.436 128.307 304.516C127.965 303.278 127.9 301.979 128.117 300.713C128.334 299.446 128.827 298.244 129.561 297.191C130.117 296.377 130.575 295.947 130.53 295.902C130.055 296.184 129.647 296.567 129.336 297.025C128.505 298.079 127.95 299.325 127.723 300.65C127.496 301.974 127.604 303.335 128.036 304.607C128.183 305.128 128.439 305.611 128.788 306.024V306.024Z" fill="#AEC2FC"/>
<path d="M111.881 317.45C111.844 317.039 111.707 316.643 111.483 316.296C111.005 315.413 110.283 314.688 109.403 314.209C108.527 313.748 107.565 313.473 106.579 313.402C106.177 313.335 105.765 313.35 105.37 313.448C105.749 313.574 106.143 313.652 106.541 313.681C107.473 313.827 108.376 314.123 109.215 314.555C110.033 315.009 110.729 315.656 111.243 316.44C111.633 317.043 111.814 317.472 111.881 317.45Z" fill="#AEC2FC"/>
<path d="M144.748 212.409C144.748 212.409 112.347 198.156 105.79 197.659C95.5683 196.905 89.3045 201.194 89.7476 215.423C90.1908 229.653 103.116 277.979 103.116 277.979L128.307 274.045C128.307 274.045 126.444 256.793 123.583 243.566C121.104 232.087 122.246 233.889 122.246 233.889L153.302 233.286L144.748 212.409Z" fill="#263238"/>
<path d="M115.937 209.394C116.153 209.664 116.346 209.951 116.515 210.253C116.732 210.596 116.93 210.951 117.109 211.316L117.454 211.994L117.8 212.748C118.984 215.633 119.836 218.645 120.338 221.724C120.992 225.312 121.367 228.59 121.683 230.949L122.036 233.753C122.093 234.094 122.124 234.439 122.126 234.785C122.026 234.453 121.953 234.112 121.908 233.768C121.788 233.112 121.638 232.155 121.457 230.979C121.089 228.62 120.706 225.349 120.023 221.777C119.522 218.719 118.709 215.721 117.597 212.831L117.274 212.077L116.951 211.399C116.748 210.969 116.575 210.6 116.41 210.321C116.228 210.025 116.069 209.715 115.937 209.394V209.394Z" fill="#455A64"/>
<path d="M212.786 188.517C203.894 182.193 188.707 186.482 186.003 188.517C183.3 190.552 165.522 203.538 165.071 203.877C164.621 204.216 115.028 202.467 115.028 202.467L156.629 237.084C169.818 236.903 173.153 235.125 178.59 232.208C178.59 232.208 189.368 226.178 190.81 225.568C191.929 225.086 212.335 214.948 214.476 211.248C216.616 207.547 221.671 194.84 212.786 188.517Z" fill="#263238"/>
<path d="M159.439 219.908L144.275 231.967L137.68 233.972C135.179 234.725 136.268 236.625 137.027 239.134L146.28 269.772C146.28 269.772 149.78 270.284 150.035 267.729C150.291 265.174 154.542 245.179 154.542 245.179L169.225 234.989L159.439 219.908Z" fill="#274DED"/>
<path d="M159.438 219.908L159.611 220.157L160.122 220.91L162.082 223.865L169.352 234.914L169.412 235.004L169.322 235.064L154.662 245.284L154.722 245.194L152.033 258.187C151.567 260.448 151.102 262.808 150.651 265.197C150.538 265.792 150.433 266.395 150.328 266.998C150.276 267.307 150.253 267.586 150.185 267.91C150.162 268.074 150.117 268.233 150.05 268.385L149.953 268.618L149.817 268.829C149.415 269.362 148.828 269.723 148.173 269.839C147.543 269.974 146.896 270.002 146.257 269.922H146.152V269.817L146.055 269.5L138.965 245.985L137.372 240.709C137.109 239.85 136.869 239.006 136.621 238.185C136.295 237.374 136.099 236.517 136.043 235.645C136.043 235.417 136.09 235.192 136.18 234.983C136.27 234.774 136.403 234.587 136.569 234.431C136.903 234.159 137.289 233.959 137.703 233.843L139.956 233.15L144.26 231.854H144.222L155.39 223.066L158.394 220.699L159.146 220.096L159.408 219.9L159.138 220.126L158.387 220.767L155.383 223.194L144.357 232.035L140.061 233.354L137.808 234.054C137.432 234.161 137.082 234.343 136.779 234.59C136.64 234.721 136.529 234.88 136.454 235.056C136.379 235.233 136.341 235.423 136.343 235.615C136.405 236.454 136.598 237.278 136.914 238.057C137.192 238.886 137.44 239.73 137.665 240.589L139.273 245.865L146.385 269.357L146.483 269.674L146.347 269.561C146.946 269.635 147.552 269.609 148.143 269.485C148.718 269.387 149.236 269.075 149.592 268.611C149.867 268.089 150.021 267.512 150.043 266.923C150.148 266.32 150.253 265.717 150.366 265.114C150.816 262.725 151.289 260.388 151.755 258.097L154.466 245.103V245.043H154.511L169.21 234.876V235.034L162.082 223.978L160.152 220.963L159.649 220.209L159.438 219.908Z" fill="#263238"/>
<path d="M159.889 217.775L156.291 220.993C156.026 221.231 155.858 221.559 155.819 221.914C155.781 222.268 155.874 222.625 156.081 222.915L165.89 236.481C166.099 236.771 166.407 236.972 166.755 237.048C167.103 237.123 167.466 237.066 167.775 236.888L171.838 234.537C172.011 234.436 172.161 234.3 172.279 234.137C172.397 233.974 172.48 233.789 172.522 233.593C172.564 233.396 172.566 233.193 172.525 232.996C172.485 232.799 172.405 232.613 172.289 232.449L162.014 217.978C161.894 217.817 161.741 217.682 161.566 217.583C161.391 217.485 161.197 217.424 160.997 217.404C160.796 217.385 160.594 217.408 160.404 217.472C160.213 217.536 160.038 217.639 159.889 217.775V217.775Z" fill="#274DED"/>
<path d="M166.243 237.069C165.602 236.482 165.012 235.841 164.478 235.155C163.434 233.934 162.037 232.208 160.603 230.226C159.168 228.243 157.966 226.367 157.155 224.95C156.75 224.256 156.404 223.691 156.231 223.284C156.106 223.086 156.009 222.87 155.946 222.644C156.474 223.331 156.958 224.051 157.396 224.799C158.267 226.141 159.491 227.98 160.926 229.962C162.36 231.944 163.719 233.685 164.681 234.951C165.251 235.619 165.773 236.327 166.243 237.069Z" fill="#AEC2FC"/>
<path d="M157.628 224.52C158.214 223.369 159.095 222.394 160.18 221.696C161.264 220.998 162.515 220.602 163.802 220.548C162.614 220.924 161.471 221.43 160.392 222.056C159.385 222.774 158.458 223.601 157.628 224.52Z" fill="#AEC2FC"/>
<path d="M160.603 229.977C162.496 228.042 164.675 226.41 167.062 225.138C166.061 226.04 165 226.871 163.885 227.625C162.846 228.485 161.75 229.271 160.603 229.977V229.977Z" fill="#AEC2FC"/>
<path d="M165.086 235.019C166.264 234.501 167.329 233.754 168.218 232.821C169.107 231.888 169.804 230.789 170.269 229.585C170.275 229.979 170.187 230.37 170.013 230.723C169.315 232.504 167.948 233.939 166.206 234.718C165.862 234.906 165.478 235.009 165.086 235.019V235.019Z" fill="#AEC2FC"/>
<path d="M137.875 241.282C137.875 241.222 138.416 240.981 139.212 240.416C140.254 239.69 141.123 238.742 141.756 237.639C142.39 236.537 142.773 235.308 142.878 234.039C142.968 233.067 142.878 232.449 142.953 232.442C143.136 232.958 143.206 233.508 143.155 234.054C143.127 235.381 142.769 236.679 142.113 237.831C141.457 238.983 140.525 239.952 139.4 240.649C138.945 240.971 138.424 241.187 137.875 241.282Z" fill="#AEC2FC"/>
<path d="M143.546 260.712C143.833 260.423 144.186 260.209 144.575 260.087C145.495 259.717 146.502 259.623 147.474 259.815C148.432 260.022 149.337 260.424 150.133 260.999C150.734 261.436 151.056 261.752 151.026 261.805C150.656 261.661 150.306 261.471 149.982 261.24C149.182 260.759 148.309 260.411 147.399 260.207C146.489 260.031 145.551 260.081 144.665 260.35C144.303 260.503 143.929 260.624 143.546 260.712V260.712Z" fill="#AEC2FC"/>
<path d="M194.34 190.054C194.34 190.054 194.197 190.054 193.919 190.054C193.521 190.123 193.127 190.216 192.74 190.333C191.726 190.627 190.284 191.087 188.504 191.75C187.626 192.067 186.619 192.421 185.59 192.745C184.578 193.33 183.665 194.073 182.886 194.946C181.084 196.679 179.131 198.601 177.073 200.636C172.98 204.706 169.39 208.504 166.874 211.323C165.612 212.733 164.621 213.886 163.915 214.685L163.119 215.604C163.031 215.716 162.933 215.82 162.826 215.913C162.897 215.79 162.98 215.674 163.074 215.566L163.825 214.609C164.486 213.788 165.462 212.604 166.709 211.18C169.187 208.316 172.762 204.495 176.855 200.417C178.898 198.382 180.881 196.468 182.691 194.742C183.493 193.84 184.437 193.077 185.485 192.481C186.574 192.149 187.528 191.825 188.429 191.516C190.217 190.906 191.681 190.446 192.71 190.19C193.104 190.083 193.506 190.008 193.912 189.964C194.019 189.946 194.128 189.946 194.235 189.964L194.34 190.054Z" fill="#455A64"/>
<path d="M145.266 224.098C145.103 223.788 144.965 223.466 144.853 223.133C144.733 222.817 144.582 222.433 144.38 222.003C144.177 221.573 143.974 221.061 143.681 220.541C143.388 220.021 143.103 219.418 142.727 218.822C142.352 218.227 141.976 217.586 141.503 216.931C139.513 214.112 137.039 211.672 134.195 209.725C133.534 209.296 132.911 208.866 132.288 208.535C131.664 208.203 131.093 207.879 130.56 207.615C130.027 207.351 129.524 207.14 129.058 206.944C128.592 206.748 128.239 206.605 127.924 206.492C127.591 206.385 127.267 206.252 126.955 206.093C127.3 206.158 127.639 206.251 127.969 206.372C128.364 206.486 128.753 206.621 129.133 206.779C129.576 206.959 130.095 207.14 130.635 207.412C131.176 207.683 131.784 207.947 132.4 208.308C133.016 208.67 133.67 209.062 134.346 209.492C137.242 211.432 139.749 213.902 141.736 216.772C142.179 217.443 142.607 218.069 142.945 218.702C143.283 219.335 143.606 219.908 143.869 220.458C144.132 221.008 144.342 221.513 144.53 221.965C144.694 222.344 144.837 222.731 144.958 223.126C145.086 223.441 145.189 223.767 145.266 224.098V224.098Z" fill="#455A64"/>
</g>
<defs>
<clipPath id="clip0_3_14695">
<rect width="328" height="323" rx="20" fill="white"/>
</clipPath>
</defs>
</svg>
