<svg width="327" height="343" viewBox="0 0 327 343" fill="none" xmlns="http://www.w3.org/2000/svg">
<g clip-path="url(#clip0_3_14687)">
<path d="M17.4902 156.013V161.08H16.9737V156.474H15.7803V156.013H17.4902Z" fill="#263238"/>
<path d="M18.7192 158.547C18.7192 156.935 19.5742 155.978 20.7498 155.978C21.9254 155.978 22.7804 156.935 22.7804 158.547C22.7804 160.159 21.9254 161.115 20.7498 161.115C19.5742 161.115 18.7192 160.159 18.7192 158.547ZM22.2816 158.547C22.2816 157.2 21.676 156.456 20.7854 156.456C19.8948 156.456 19.2892 157.2 19.2892 158.547C19.2892 159.893 19.8948 160.637 20.7854 160.637C21.676 160.637 22.2282 159.893 22.2282 158.547H22.2816Z" fill="#263238"/>
<path d="M19.5564 129.157V129.618H15.994V129.246L18.1137 127.191C18.6837 126.624 18.7905 126.288 18.7905 125.933C18.7905 125.579 18.3808 124.994 17.5971 124.994C17.338 124.982 17.0794 125.027 16.8394 125.125C16.5995 125.223 16.3839 125.372 16.2078 125.561L15.8337 125.313C16.0594 125.07 16.3358 124.879 16.6435 124.754C16.9512 124.628 17.2828 124.571 17.6149 124.587C18.648 124.587 19.3071 125.101 19.3071 125.951C19.2943 126.259 19.2125 126.561 19.0677 126.833C18.9228 127.106 18.7186 127.343 18.4699 127.528L16.6887 129.299L19.5564 129.157Z" fill="#263238"/>
<path d="M20.1084 127.084C20.1084 125.472 20.9634 124.516 22.139 124.516C23.3146 124.516 24.1695 125.472 24.1695 127.084C24.1695 128.696 23.3146 129.653 22.139 129.653C20.9634 129.653 20.1084 128.696 20.1084 127.084ZM23.6708 127.084C23.6708 125.738 23.0652 124.994 22.1746 124.994C21.284 124.994 20.6784 125.738 20.6784 127.084C20.6784 128.431 21.284 129.175 22.1746 129.175C23.0652 129.175 23.6708 128.431 23.6708 127.084Z" fill="#263238"/>
<path d="M19.4494 96.7027C19.4494 97.553 18.8259 98.1908 17.6682 98.1908C17.0135 98.1983 16.3791 97.9648 15.887 97.5353L16.1363 97.1279C16.5669 97.5225 17.1364 97.7325 17.7216 97.7125C18.5588 97.7125 19.0219 97.3227 19.0219 96.685C19.0219 96.0472 18.5944 95.6752 17.6503 95.6752H17.2941V95.2855L18.7013 93.5139H16.1007V93.0533H19.3781V93.4254L17.9353 95.1969C18.8972 95.3209 19.4494 95.8878 19.4494 96.7027Z" fill="#263238"/>
<path d="M20.1084 95.6221C20.1084 94.01 20.9634 93.0533 22.139 93.0533C23.3146 93.0533 24.1695 94.01 24.1695 95.6221C24.1695 97.2342 23.3146 98.1908 22.139 98.1908C20.9634 98.1908 20.1084 97.2342 20.1084 95.6221ZM23.6708 95.6221C23.6708 94.2757 23.0652 93.5317 22.1746 93.5317C21.284 93.5317 20.6784 94.2757 20.6784 95.6221C20.6784 96.9684 21.284 97.7125 22.1746 97.7125C23.0652 97.7125 23.6708 96.9684 23.6708 95.6221Z" fill="#263238"/>
<path d="M39.9509 175.146C39.9509 173.534 40.8059 172.577 41.9815 172.577C43.1571 172.577 44.0121 173.534 44.0121 175.146C44.0121 176.758 43.1571 177.715 41.9815 177.715C40.8059 177.715 39.9509 176.687 39.9509 175.146ZM43.5133 175.146C43.5133 173.8 42.9077 173.056 42.0171 173.056C41.1265 173.056 40.5209 173.8 40.5209 175.146C40.5209 176.492 41.1265 177.236 42.0171 177.236C42.9077 177.236 43.4777 176.492 43.4777 175.146H43.5133Z" fill="#263238"/>
<path d="M77.6057 172.613V177.68H77.107V173.144H75.9136V172.613H77.6057Z" fill="#263238"/>
<path d="M117.291 177.219V177.68H113.728V177.308L115.848 175.253C116.418 174.686 116.525 174.349 116.525 173.995C116.525 173.64 116.115 173.056 115.331 173.056C115.072 173.044 114.814 173.089 114.574 173.187C114.334 173.284 114.118 173.433 113.942 173.623L113.568 173.304C113.794 173.061 114.07 172.87 114.378 172.745C114.686 172.619 115.017 172.562 115.349 172.578C116.382 172.578 117.041 173.091 117.041 173.942C117.029 174.25 116.947 174.551 116.802 174.824C116.657 175.097 116.453 175.334 116.204 175.518L114.423 177.29L117.291 177.219Z" fill="#263238"/>
<path d="M154.821 176.227C154.821 177.077 154.198 177.715 153.04 177.715C152.385 177.724 151.75 177.49 151.259 177.059L151.508 176.652C151.938 177.047 152.508 177.257 153.093 177.237C153.93 177.237 154.393 176.847 154.393 176.209C154.393 175.571 153.966 175.199 153.022 175.199H152.666V174.916L154.073 173.144H151.472V172.613H154.75V172.985L153.307 174.756C154.269 174.916 154.821 175.412 154.821 176.227Z" fill="#263238"/>
<path d="M193.402 176.351H192.387V177.68H191.87V176.351H189.002V175.979L191.692 172.631H192.28L189.679 175.89H191.888V174.721H192.405V175.89H193.42L193.402 176.351Z" fill="#263238"/>
<path d="M230.148 176.192C230.148 177.06 229.542 177.733 228.367 177.733C227.712 177.742 227.077 177.508 226.586 177.077L226.728 176.688C227.152 177.081 227.716 177.291 228.296 177.272C229.151 177.272 229.614 176.847 229.614 176.245C229.614 175.642 229.204 175.182 227.833 175.182H226.746L227.013 172.648H229.792V173.144H227.458L227.28 174.757H227.939C229.578 174.686 230.148 175.288 230.148 176.192Z" fill="#263238"/>
<path d="M268.159 176.174C268.158 176.397 268.11 176.617 268.017 176.82C267.924 177.023 267.789 177.204 267.621 177.352C267.453 177.499 267.255 177.609 267.04 177.675C266.826 177.74 266.6 177.76 266.378 177.733C265.024 177.733 264.294 176.794 264.294 175.199C264.294 173.605 265.238 172.577 266.627 172.577C267.049 172.562 267.467 172.66 267.838 172.861L267.625 173.286C267.327 173.117 266.987 173.037 266.645 173.056C265.541 173.056 264.864 173.764 264.864 175.128C264.864 175.235 264.864 175.394 264.864 175.536C265.009 175.257 265.233 175.026 265.508 174.872C265.783 174.717 266.098 174.647 266.413 174.668C266.63 174.64 266.849 174.659 267.058 174.721C267.267 174.784 267.46 174.89 267.625 175.032C267.79 175.174 267.922 175.35 268.014 175.546C268.106 175.743 268.156 175.957 268.159 176.174V176.174ZM267.642 176.174C267.642 175.5 267.144 175.075 266.36 175.075C266.201 175.058 266.041 175.073 265.888 175.12C265.736 175.167 265.594 175.244 265.472 175.346C265.351 175.449 265.251 175.576 265.18 175.718C265.109 175.86 265.068 176.015 265.06 176.174C265.06 176.723 265.523 177.254 266.413 177.254C266.571 177.28 266.732 177.271 266.886 177.229C267.04 177.186 267.183 177.111 267.305 177.008C267.427 176.906 267.525 176.778 267.593 176.634C267.66 176.489 267.695 176.333 267.696 176.174H267.642Z" fill="#263238"/>
<path d="M305.546 172.613V172.985L303.409 177.679H302.839L304.941 173.073H302.322V174.012H301.806V172.595L305.546 172.613Z" fill="#263238"/>
<path d="M305.814 158.795C305.814 159.061 246.927 159.291 174.308 159.291C101.688 159.291 42.7834 159.078 42.7834 158.795C42.7834 158.511 101.652 158.299 174.308 158.299C246.963 158.299 305.814 158.511 305.814 158.795Z" fill="#263238"/>
<path d="M305.814 127.085C305.814 127.35 246.927 127.581 174.308 127.581C101.688 127.581 42.7834 127.368 42.7834 127.085C42.7834 126.801 101.652 126.589 174.308 126.589C246.963 126.589 305.814 126.89 305.814 127.085Z" fill="#263238"/>
<path d="M305.814 95.5511C305.814 95.8168 246.927 96.0471 174.308 96.0471C101.688 96.0471 42.7834 95.8345 42.7834 95.5511C42.7834 95.2676 101.652 95.0551 174.308 95.0551C246.963 95.0551 305.814 95.1968 305.814 95.5511Z" fill="#263238"/>
<path d="M307.506 144.8C307.18 144.826 306.852 144.826 306.526 144.8C305.574 144.743 304.628 144.618 303.694 144.428C300.069 143.75 296.682 142.151 293.862 139.786C291.87 138.032 290.242 135.908 289.07 133.533C287.654 130.771 285.959 128.159 284.012 125.738C281.87 122.904 278.875 120.825 275.462 119.803C273.595 119.374 271.648 119.441 269.815 119.998C267.883 120.625 266.096 121.631 264.561 122.957C261.337 125.632 258.968 129.441 255.833 132.895C254.27 134.74 252.334 136.237 250.151 137.289C247.802 138.317 245.173 138.529 242.688 137.891C241.424 137.476 240.264 136.799 239.285 135.904C238.305 135.009 237.528 133.917 237.006 132.7C235.912 130.294 235.088 127.775 234.548 125.189C234.03 122.586 233.272 120.036 232.286 117.571C231.811 116.375 230.961 115.363 229.863 114.684C228.67 114.12 227.353 113.864 226.033 113.94C223.232 114.241 220.453 114.727 217.715 115.392C216.273 115.69 214.806 115.856 213.334 115.888C211.802 115.945 210.277 115.648 208.881 115.02C207.458 114.363 206.23 113.349 205.318 112.08C204.457 110.823 203.729 109.481 203.145 108.076C201.952 105.295 201.15 102.372 200.064 99.5726C199.545 98.1762 198.876 96.8397 198.069 95.5867C197.271 94.3791 196.13 93.4354 194.791 92.8762C194.453 92.7699 194.114 92.6459 193.758 92.575L192.672 92.4688C191.97 92.4218 191.269 92.5625 190.641 92.8762C189.37 93.6362 188.325 94.7183 187.613 96.0118C186.077 98.739 184.881 101.642 184.051 104.657C183.142 107.686 182.394 110.804 181.664 113.922C180.453 119.113 179.384 124.285 178.101 129.352C177.451 131.882 176.672 134.377 175.768 136.828C174.931 139.331 173.592 141.64 171.831 143.613C170.847 144.624 169.506 145.215 168.091 145.26C166.734 145.224 165.411 144.827 164.261 144.109C162.116 142.704 160.295 140.862 158.918 138.706C156.274 134.595 154.099 130.204 152.434 125.614C150.653 121.274 148.569 116.969 145.185 114.028C143.539 112.611 141.574 111.608 139.457 111.106C137.339 110.603 135.131 110.615 133.019 111.141C130.969 111.682 129.016 112.537 127.23 113.674C125.45 114.75 123.759 115.964 122.171 117.306C119.118 119.863 116.298 122.685 113.746 125.738V125.738C109.908 129.544 105.736 133 101.278 136.066C97.307 138.863 93.0134 141.177 88.489 142.957C84.5445 144.579 80.2809 145.288 76.0205 145.03C72.4509 144.619 68.9455 143.774 65.5826 142.515C60.9139 140.804 56.3825 138.743 52.0277 136.35C50.5315 135.535 49.3915 134.879 48.6434 134.419C47.8953 133.958 47.5212 133.692 47.5212 133.692L48.6968 134.312L52.1167 136.084C56.5003 138.384 61.0418 140.373 65.7073 142.036C69.0412 143.246 72.5101 144.049 76.0383 144.428C80.2325 144.653 84.4232 143.926 88.293 142.302C92.7571 140.511 96.9905 138.198 100.904 135.411C105.31 132.355 109.435 128.917 113.23 125.136C115.774 122.054 118.587 119.203 121.637 116.615C123.251 115.241 124.973 113.997 126.785 112.895C128.642 111.705 130.672 110.808 132.805 110.237C135.059 109.68 137.415 109.673 139.673 110.216C141.931 110.759 144.023 111.836 145.772 113.355C149.335 116.473 151.454 120.902 153.289 125.278C154.938 129.805 157.089 134.137 159.701 138.192C161.012 140.236 162.742 141.98 164.778 143.312C165.783 143.941 166.94 144.289 168.127 144.321C169.264 144.288 170.347 143.826 171.155 143.028C172.804 141.151 174.057 138.965 174.842 136.598C175.732 134.181 176.499 131.722 177.139 129.228C178.475 124.197 179.544 119.024 180.702 113.833C181.432 110.698 182.198 107.562 183.106 104.497C183.928 101.412 185.124 98.4376 186.669 95.6398C187.466 94.1733 188.648 92.9489 190.089 92.0967C190.861 91.7122 191.72 91.5351 192.582 91.583L193.811 91.707C194.221 91.7956 194.613 91.9373 195.005 92.0613C196.534 92.6939 197.836 93.7676 198.745 95.1438C199.597 96.4571 200.302 97.8591 200.847 99.3246C201.952 102.194 202.753 105.1 203.911 107.81C205.069 110.521 206.529 113.125 209.13 114.276C211.792 115.23 214.685 115.341 217.412 114.595C220.197 113.923 223.023 113.438 225.873 113.143C227.353 113.06 228.831 113.352 230.166 113.993C231.43 114.763 232.411 115.919 232.962 117.288C233.969 119.81 234.739 122.419 235.26 125.083C235.814 127.604 236.644 130.058 237.736 132.399C238.202 133.515 238.903 134.519 239.79 135.344C240.678 136.169 241.733 136.795 242.884 137.182C245.185 137.768 247.616 137.575 249.795 136.633C251.885 135.618 253.736 134.175 255.227 132.399C258.309 129.033 260.714 125.207 264.133 122.443C265.743 121.066 267.615 120.023 269.637 119.378C271.582 118.797 273.646 118.736 275.622 119.201C279.182 120.255 282.306 122.423 284.528 125.384C286.484 127.85 288.179 130.509 289.587 133.32C290.688 135.647 292.231 137.74 294.129 139.485C296.882 141.848 300.19 143.481 303.747 144.233C304.67 144.441 305.603 144.595 306.544 144.694C307.185 144.8 307.506 144.8 307.506 144.8Z" fill="#AEC2FC"/>
<path d="M41.1089 159.999C42.0434 159.999 42.8011 159.246 42.8011 158.316C42.8011 157.387 42.0434 156.633 41.1089 156.633C40.1743 156.633 39.4167 157.387 39.4167 158.316C39.4167 159.246 40.1743 159.999 41.1089 159.999Z" fill="#051BAF"/>
<path d="M78.9239 159.999C79.8584 159.999 80.616 159.246 80.616 158.316C80.616 157.387 79.8584 156.633 78.9239 156.633C77.9893 156.633 77.2317 157.387 77.2317 158.316C77.2317 159.246 77.9893 159.999 78.9239 159.999Z" fill="#051BAF"/>
<path d="M116.739 159.999C117.673 159.999 118.431 159.246 118.431 158.316C118.431 157.387 117.673 156.633 116.739 156.633C115.804 156.633 115.046 157.387 115.046 158.316C115.046 159.246 115.804 159.999 116.739 159.999Z" fill="#051BAF"/>
<path d="M154.554 159.999C155.488 159.999 156.246 159.246 156.246 158.316C156.246 157.387 155.488 156.633 154.554 156.633C153.619 156.633 152.862 157.387 152.862 158.316C152.862 159.246 153.619 159.999 154.554 159.999Z" fill="#051BAF"/>
<path d="M192.368 159.999C193.303 159.999 194.061 159.246 194.061 158.316C194.061 157.387 193.303 156.633 192.368 156.633C191.434 156.633 190.676 157.387 190.676 158.316C190.676 159.246 191.434 159.999 192.368 159.999Z" fill="#051BAF"/>
<path d="M268.016 159.999C268.951 159.999 269.708 159.246 269.708 158.316C269.708 157.387 268.951 156.633 268.016 156.633C267.082 156.633 266.324 157.387 266.324 158.316C266.324 159.246 267.082 159.999 268.016 159.999Z" fill="#051BAF"/>
<path d="M230.201 159.999C231.136 159.999 231.893 159.246 231.893 158.316C231.893 157.387 231.136 156.633 230.201 156.633C229.267 156.633 228.509 157.387 228.509 158.316C228.509 159.246 229.267 159.999 230.201 159.999Z" fill="#051BAF"/>
<path d="M305.831 159.999C306.766 159.999 307.523 159.246 307.523 158.316C307.523 157.387 306.766 156.633 305.831 156.633C304.897 156.633 304.139 157.387 304.139 158.316C304.139 159.246 304.897 159.999 305.831 159.999Z" fill="#051BAF"/>
<path d="M58.921 159.876C59.5309 159.876 60.0254 159.384 60.0254 158.777C60.0254 158.171 59.5309 157.679 58.921 157.679C58.3111 157.679 57.8167 158.171 57.8167 158.777C57.8167 159.384 58.3111 159.876 58.921 159.876Z" fill="#E0E0E0"/>
<path d="M96.8785 159.876C97.4884 159.876 97.9829 159.384 97.9829 158.777C97.9829 158.171 97.4884 157.679 96.8785 157.679C96.2686 157.679 95.7742 158.171 95.7742 158.777C95.7742 159.384 96.2686 159.876 96.8785 159.876Z" fill="#E0E0E0"/>
<path d="M134.836 159.876C135.446 159.876 135.94 159.384 135.94 158.777C135.94 158.171 135.446 157.679 134.836 157.679C134.226 157.679 133.731 158.171 133.731 158.777C133.731 159.384 134.226 159.876 134.836 159.876Z" fill="#E0E0E0"/>
<path d="M172.793 159.876C173.403 159.876 173.898 159.384 173.898 158.777C173.898 158.171 173.403 157.679 172.793 157.679C172.183 157.679 171.689 158.171 171.689 158.777C171.689 159.384 172.183 159.876 172.793 159.876Z" fill="#E0E0E0"/>
<path d="M210.751 159.876C211.36 159.876 211.855 159.384 211.855 158.777C211.855 158.171 211.36 157.679 210.751 157.679C210.141 157.679 209.646 158.171 209.646 158.777C209.646 159.384 210.141 159.876 210.751 159.876Z" fill="#E0E0E0"/>
<path d="M248.726 159.876C249.336 159.876 249.83 159.384 249.83 158.777C249.83 158.171 249.336 157.679 248.726 157.679C248.116 157.679 247.622 158.171 247.622 158.777C247.622 159.384 248.116 159.876 248.726 159.876Z" fill="#E0E0E0"/>
<path d="M286.683 159.876C287.293 159.876 287.788 159.384 287.788 158.777C287.788 158.171 287.293 157.679 286.683 157.679C286.074 157.679 285.579 158.171 285.579 158.777C285.579 159.384 286.074 159.876 286.683 159.876Z" fill="#E0E0E0"/>
<path d="M78.9236 148.927C81.2157 148.927 83.0739 147.079 83.0739 144.8C83.0739 142.52 81.2157 140.672 78.9236 140.672C76.6316 140.672 74.7734 142.52 74.7734 144.8C74.7734 147.079 76.6316 148.927 78.9236 148.927Z" fill="#051BAF"/>
<path d="M111.912 129.565C114.204 129.565 116.062 127.717 116.062 125.437C116.062 123.157 114.204 121.309 111.912 121.309C109.62 121.309 107.761 123.157 107.761 125.437C107.761 127.717 109.62 129.565 111.912 129.565Z" fill="#051BAF"/>
<path d="M152.862 131.283C155.154 131.283 157.012 129.435 157.012 127.155C157.012 124.876 155.154 123.028 152.862 123.028C150.57 123.028 148.711 124.876 148.711 127.155C148.711 129.435 150.57 131.283 152.862 131.283Z" fill="#051BAF"/>
<path d="M192.85 96.0827C195.142 96.0827 197 94.2347 197 91.9551C197 89.6754 195.142 87.8274 192.85 87.8274C190.558 87.8274 188.699 89.6754 188.699 91.9551C188.699 94.2347 190.558 96.0827 192.85 96.0827Z" fill="#051BAF"/>
<path d="M230.202 118.475C232.494 118.475 234.352 116.627 234.352 114.347C234.352 112.068 232.494 110.219 230.202 110.219C227.909 110.219 226.051 112.068 226.051 114.347C226.051 116.627 227.909 118.475 230.202 118.475Z" fill="#051BAF"/>
<path d="M268.016 124.445C270.308 124.445 272.167 122.597 272.167 120.317C272.167 118.037 270.308 116.189 268.016 116.189C265.724 116.189 263.866 118.037 263.866 120.317C263.866 122.597 265.724 124.445 268.016 124.445Z" fill="#051BAF"/>
<path d="M268.096 226.205C260.615 226.205 253.302 228.412 247.082 232.545C240.862 236.679 236.014 242.554 233.151 249.428C230.288 256.301 229.539 263.865 230.999 271.162C232.458 278.46 236.061 285.163 241.35 290.424C246.64 295.685 253.379 299.267 260.717 300.719C268.054 302.17 275.659 301.425 282.57 298.578C289.481 295.731 295.389 290.909 299.545 284.723C303.701 278.537 305.919 271.264 305.919 263.823C305.919 253.847 301.934 244.278 294.841 237.223C287.748 230.169 278.127 226.205 268.096 226.205ZM268.67 286.274C264.086 286.262 259.608 284.899 255.801 282.357C251.995 279.815 249.032 276.208 247.286 271.992C245.54 267.776 245.089 263.14 245.991 258.67C246.892 254.199 249.106 250.094 252.352 246.874C255.598 243.654 259.731 241.463 264.228 240.578C268.726 239.693 273.386 240.153 277.621 241.901C281.855 243.648 285.474 246.605 288.02 250.397C290.566 254.189 291.924 258.647 291.924 263.207C291.924 266.241 291.322 269.245 290.153 272.048C288.984 274.851 287.27 277.396 285.11 279.539C282.95 281.682 280.386 283.38 277.565 284.535C274.744 285.691 271.721 286.282 268.67 286.274Z" fill="#AEC2FC"/>
<path d="M268.686 226.22C268.686 230.223 268.686 235.61 268.686 240.124C272.337 240.125 275.936 240.983 279.191 242.628C282.446 244.273 285.265 246.658 287.419 249.591C289.573 252.523 291 255.919 291.586 259.503C292.172 263.088 291.899 266.759 290.79 270.218L304.406 273.905C305.95 268.372 306.199 262.56 305.136 256.916C304.072 251.272 301.723 245.945 298.269 241.344C294.815 236.742 290.348 232.988 285.209 230.369C280.071 227.75 274.398 226.336 268.625 226.235L268.686 226.22Z" fill="#274DED"/>
<path d="M245.478 263.207C245.478 258.749 246.778 254.387 249.218 250.649C251.659 246.91 255.136 243.955 259.23 242.14L253.42 229.17C246.584 232.049 240.751 236.867 236.648 243.021C232.545 249.175 230.354 256.394 230.348 263.778C230.348 264.305 230.348 264.832 230.348 265.283H245.478C245.508 264.636 245.478 263.929 245.478 263.207Z" fill="#AEC2FC"/>
<path d="M268.671 286.274C267.023 286.271 265.379 286.095 263.769 285.747C263.179 289.088 262.089 295.588 261.212 300.689C270.485 302.408 280.069 300.61 288.076 295.649C296.082 290.689 301.93 282.926 304.467 273.89L290.85 270.203C289.351 274.879 286.393 278.958 282.404 281.848C278.416 284.738 273.605 286.288 268.671 286.274Z" fill="#274DED"/>
<path d="M261.34 265.072H259.948V266.863H258.011V265.072H253.397V263.748L257.436 258.331H259.524L255.772 263.462H258.072V261.867H259.948V263.462H261.34V265.072Z" fill="#263238"/>
<path d="M261.93 262.62C261.93 259.806 263.443 258.211 265.606 258.211C267.77 258.211 269.283 259.806 269.283 262.62C269.283 265.433 267.77 267.028 265.606 267.028C263.443 267.028 261.93 265.403 261.93 262.62ZM267.286 262.62C267.286 260.679 266.605 259.881 265.606 259.881C264.608 259.881 263.942 260.694 263.942 262.62C263.942 264.546 264.623 265.358 265.606 265.358C266.59 265.358 267.286 264.531 267.286 262.62Z" fill="#263238"/>
<path d="M270.1 260.573C270.143 260.166 270.305 259.78 270.564 259.462C270.823 259.144 271.17 258.908 271.561 258.781C271.953 258.655 272.373 258.644 272.771 258.749C273.169 258.855 273.527 259.073 273.803 259.376C274.079 259.68 274.261 260.057 274.327 260.461C274.392 260.866 274.339 261.28 274.173 261.655C274.007 262.029 273.735 262.348 273.391 262.573C273.047 262.798 272.644 262.918 272.233 262.921C271.932 262.922 271.635 262.861 271.36 262.741C271.086 262.62 270.839 262.443 270.638 262.222C270.437 262 270.285 261.739 270.192 261.455C270.099 261.171 270.068 260.87 270.1 260.573V260.573ZM273.125 260.573C273.125 259.655 272.762 259.219 272.233 259.219C271.703 259.219 271.34 259.671 271.34 260.573C271.34 261.476 271.703 261.928 272.233 261.928C272.762 261.928 273.125 261.491 273.125 260.573ZM277.347 258.316H278.859L272.959 266.863H271.446L277.347 258.316ZM275.939 264.591C275.983 264.183 276.145 263.797 276.405 263.479C276.665 263.16 277.013 262.924 277.405 262.798C277.797 262.672 278.218 262.661 278.616 262.768C279.014 262.875 279.373 263.094 279.648 263.4C279.924 263.705 280.104 264.083 280.168 264.488C280.232 264.893 280.176 265.308 280.008 265.683C279.84 266.057 279.566 266.375 279.22 266.598C278.874 266.821 278.47 266.939 278.058 266.938C277.764 266.932 277.475 266.864 277.208 266.741C276.942 266.618 276.704 266.441 276.509 266.222C276.315 266.003 276.168 265.747 276.077 265.469C275.987 265.191 275.956 264.897 275.985 264.606L275.939 264.591ZM278.965 264.591C278.965 263.688 278.617 263.237 278.073 263.237C277.528 263.237 277.18 263.673 277.18 264.591C277.18 265.509 277.543 265.945 278.073 265.945C278.602 265.945 279.011 265.509 279.011 264.606L278.965 264.591Z" fill="#263238"/>
<path d="M59.5189 145.448C61.1333 141.75 59.2823 137.138 56.2901 134.368C54.757 133.04 52.881 132.164 50.8741 131.841C48.8673 131.518 46.8096 131.76 44.9338 132.54C43.2927 133.174 41.9181 134.347 41.037 135.864C40.4561 137.153 40.2601 138.582 40.4723 139.979C40.6845 141.376 41.296 142.683 42.2339 143.744C44.1582 145.838 46.6858 147.29 49.4707 147.899C51.4079 148.497 53.4631 148.611 55.4551 148.232C56.4467 148.032 57.3743 147.594 58.1576 146.957C58.9409 146.32 59.5562 145.502 59.9503 144.575" fill="#263238"/>
<path d="M134.607 195.044C131.83 195.95 128.846 193.549 128.194 190.777C127.541 188.006 128.569 185.139 129.79 182.546C131.011 179.953 132.441 177.374 132.649 174.534C133.01 169.691 129.776 165.383 128.374 160.733C125.445 151.061 130.373 139.729 125.251 130.976C122.902 126.764 119.172 123.469 114.674 121.633C112.212 120.622 109.56 120.143 106.896 120.228C104.231 120.314 101.616 120.961 99.2253 122.127C95.9658 120.101 92.3233 118.753 88.5195 118.163C84.7158 117.573 80.8304 117.755 77.1 118.697C73.3903 119.676 69.9244 121.399 66.9178 123.759C63.9113 126.12 61.4287 129.067 59.6245 132.416C57.251 136.889 56.1683 142.02 53.3367 146.232C51.1852 149.469 47.9511 152.35 47.6318 156.192C47.2293 161.062 51.6988 165.15 52.1429 170.02C52.6704 175.769 47.5346 181.49 49.6722 186.868C51.1436 190.585 55.7658 192.808 56.2377 196.773C56.175 197.9 56.3402 199.029 56.7235 200.093C57.436 201.027 58.3651 201.779 59.4327 202.285C60.5003 202.792 61.6752 203.037 62.8586 203.001C87.427 201.52 108.248 205.155 130.165 199.585C131.339 199.364 132.452 198.897 133.427 198.213C133.921 197.861 134.297 197.372 134.507 196.807C134.717 196.242 134.752 195.628 134.607 195.044Z" fill="#263238"/>
<path d="M66.7344 152.637C66.9342 148.939 68.3159 145.4 70.6783 142.537C73.0408 139.674 76.2605 137.636 79.8687 136.719L103.633 130.696C113.854 129.603 120.669 142.048 121.376 152.205C122.117 163.489 122.577 175.391 121.248 183.812C118.565 200.755 105.447 202.932 105.447 202.932C105.447 202.932 105.447 206.838 105.447 211.785L105.183 212.412C99.1017 226.601 78.9999 227.254 71.9642 213.488L66.6747 152.866C66.6662 152.586 66.7088 153.094 66.7344 152.637Z" fill="#FFBF9D"/>
<path d="M118.088 164.921C118.092 165.488 117.874 166.035 117.48 166.445C117.085 166.855 116.545 167.095 115.975 167.115C115.697 167.138 115.417 167.106 115.152 167.02C114.887 166.934 114.641 166.796 114.43 166.615C114.219 166.433 114.047 166.211 113.923 165.963C113.799 165.714 113.727 165.443 113.709 165.166C113.705 164.599 113.923 164.052 114.317 163.642C114.712 163.233 115.252 162.992 115.822 162.972C116.1 162.949 116.38 162.982 116.645 163.068C116.91 163.153 117.156 163.291 117.367 163.473C117.578 163.654 117.75 163.876 117.874 164.124C117.998 164.373 118.07 164.644 118.088 164.921Z" fill="#263238"/>
<path d="M118.795 158.855C118.522 159.144 116.853 157.924 114.536 157.941C112.219 157.958 110.447 159.127 110.183 158.839C110.055 158.711 110.337 158.203 111.086 157.653C112.109 156.949 113.326 156.576 114.57 156.585C115.792 156.581 116.984 156.96 117.977 157.669C118.684 158.22 118.931 158.728 118.795 158.855Z" fill="#263238"/>
<path d="M96.5719 164.624C96.5767 165.192 96.3586 165.739 95.9641 166.148C95.5695 166.558 95.0297 166.799 94.4596 166.818C94.1815 166.842 93.9017 166.809 93.6364 166.723C93.3711 166.637 93.1258 166.5 92.9147 166.318C92.7037 166.137 92.5312 165.915 92.4074 165.666C92.2836 165.418 92.211 165.147 92.1938 164.87C92.189 164.303 92.4072 163.756 92.8017 163.346C93.1963 162.936 93.7361 162.696 94.3063 162.676C94.5843 162.653 94.8641 162.685 95.1294 162.771C95.3947 162.857 95.64 162.995 95.8511 163.176C96.0621 163.358 96.2346 163.579 96.3584 163.828C96.4822 164.077 96.5548 164.347 96.5719 164.624V164.624Z" fill="#263238"/>
<path d="M96.3505 158.855C96.078 159.135 94.4085 157.924 92.0491 157.941C89.6897 157.958 87.9606 159.127 87.6965 158.839C87.5688 158.711 87.8413 158.203 88.5994 157.653C89.6226 156.949 90.8392 156.576 92.0832 156.585C93.3052 156.582 94.4972 156.961 95.4902 157.669C96.2398 158.22 96.4868 158.728 96.3505 158.855Z" fill="#263238"/>
<path d="M103.718 177.204C103.718 177.069 105.175 176.815 107.551 176.51C108.156 176.45 108.727 176.323 108.829 175.917C108.879 175.299 108.736 174.681 108.42 174.146L106.623 169.605C104.127 163.142 102.364 157.83 102.586 157.745C102.807 157.661 105.081 162.828 107.577 169.267L109.28 173.833C109.66 174.551 109.772 175.379 109.596 176.171C109.505 176.377 109.369 176.56 109.198 176.706C109.027 176.853 108.825 176.959 108.608 177.018C108.274 177.109 107.931 177.157 107.585 177.162C105.235 177.289 103.718 177.34 103.718 177.204Z" fill="#263238"/>
<path d="M82.7221 196.926C82.7221 196.926 88.2927 208.557 105.422 206.939V202.958C97.4413 203.064 89.5862 200.976 82.7221 196.926V196.926Z" fill="#FF9A6C"/>
<path d="M95.6095 150.418C95.3795 151.053 93.0542 150.757 90.2433 151.095C87.4325 151.434 85.2264 152.188 84.8601 151.612C84.6983 151.341 85.0816 150.765 85.9844 150.121C87.1908 149.364 88.554 148.888 89.9717 148.73C91.3893 148.571 92.8247 148.734 94.17 149.206C95.2006 149.613 95.7117 150.113 95.6095 150.418Z" fill="#263238"/>
<path d="M118.028 151.714C117.61 152.247 115.984 151.714 114.024 151.714C112.065 151.714 110.413 152.078 110.03 151.527C109.859 151.256 110.123 150.723 110.881 150.223C111.855 149.618 112.986 149.313 114.134 149.346C115.281 149.379 116.393 149.749 117.329 150.409C117.977 150.909 118.198 151.451 118.028 151.714Z" fill="#263238"/>
<path d="M69.0767 164.946C68.8978 164.463 59.9627 161.27 59.8434 170.656C59.7327 179.771 69.034 177.984 69.0511 177.721C69.0681 177.459 69.0767 164.946 69.0767 164.946Z" fill="#FFBF9D"/>
<path d="M96.5979 177.459C96.9812 177.459 96.8875 180 98.9998 181.847C101.112 183.694 103.838 183.541 103.846 183.897C103.846 184.058 103.225 184.363 102.075 184.346C100.583 184.311 99.1514 183.756 98.0288 182.779C96.9563 181.842 96.2932 180.526 96.1805 179.111C96.1123 178.052 96.4275 177.442 96.5979 177.459Z" fill="#263238"/>
<path d="M94.0177 125.331C85.0824 126.839 76.2584 128.93 67.6038 131.591C66.2291 131.862 64.9847 132.577 64.0659 133.622C63.405 134.869 63.1725 136.295 63.4034 137.684C63.8401 146.101 63.4768 154.54 62.3181 162.89C61.8184 166.712 61.9949 170.591 62.8397 174.353C64.376 181.489 63.2907 202.842 69.0273 202.522C90.5362 198.001 75.6942 182.324 73.4813 174.979C73.158 173.719 73.1548 172.399 73.472 171.137C73.7892 169.875 74.4169 168.71 75.2996 167.745C76.5963 166.354 78.4287 165.394 79.7959 164.003C81.2207 162.521 82.062 160.585 82.168 158.544C82.2739 156.504 81.6376 154.493 80.3738 152.874C79.3019 151.72 78.6305 150.258 78.4568 148.701C78.189 144.653 82.2484 143.985 85.3493 143.012C91.833 140.967 104.318 133.739 102.458 127.395L94.0177 125.331Z" fill="#263238"/>
<path d="M56.2682 142.459C58.5804 143.158 60.975 143.561 63.3926 143.659C69.2415 143.644 74.9998 142.242 80.1738 139.57C85.3491 136.882 90.1206 133.506 94.353 129.539C96.0089 128.04 97.2751 126.814 98.1796 125.887C98.5976 125.39 99.0636 124.933 99.5711 124.524C99.2181 125.065 98.8127 125.572 98.3605 126.037C97.5256 126.963 96.3011 128.299 94.687 129.853C90.5163 133.972 85.7306 137.446 80.4939 140.156C75.2254 142.895 69.3279 144.265 63.3648 144.136C61.5626 144.056 59.7795 143.739 58.0632 143.195C57.5888 143.051 57.1241 142.878 56.6717 142.677C56.4074 142.568 56.2543 142.487 56.2682 142.459Z" fill="#455A64"/>
<path d="M97.6464 121.177C97.3758 121.744 97.0435 122.274 96.6566 122.757C95.6801 124.131 94.6192 125.433 93.481 126.655C85.8549 134.87 75.5615 139.591 64.7631 139.826C63.1518 139.868 61.5398 139.794 59.9378 139.605C59.3459 139.571 58.7599 139.461 58.1919 139.28C58.1919 139.132 60.7076 139.501 64.7356 139.28C75.3251 138.732 85.3774 134.109 93.0548 126.256C96.0517 123.274 97.5364 121.088 97.6464 121.177Z" fill="#455A64"/>
<path d="M126.516 134.53C126.149 134.587 125.776 134.587 125.41 134.53C124.402 134.505 123.397 134.423 122.399 134.285C119.094 133.832 115.878 132.899 112.861 131.519C109.863 130.117 107.053 128.367 104.495 126.307C103.522 125.523 102.75 124.853 102.243 124.364C101.737 123.875 101.471 123.605 101.497 123.567C102.641 124.294 103.739 125.084 104.788 125.934C107.4 127.856 110.202 129.524 113.154 130.914C116.123 132.257 119.256 133.23 122.479 133.809C124.89 134.298 126.516 134.414 126.516 134.53Z" fill="#455A64"/>
<path d="M106.98 218.191L105.316 210.773L79.5198 224.784L82.8483 231.377L103.651 238.795L106.98 218.191Z" fill="#FFBF9D"/>
<path d="M146.079 284.305L127.04 296.592L125.302 315.727C125.302 315.727 130.904 318.387 139.127 310.9C147.349 303.414 158.059 288.387 158.059 288.387L146.079 284.305Z" fill="#FFBE9D"/>
<path d="M145.237 292.164L139.006 260.675L122.347 267.244L126.612 308.693L145.237 292.164Z" fill="#FFBE9D"/>
<path d="M190.361 252.311C190.244 251.975 190.041 251.676 189.771 251.442C189.501 251.209 189.175 251.05 188.824 250.981L176.791 248.681C176.269 248.59 175.734 248.609 175.22 248.737C174.706 248.865 174.226 249.1 173.809 249.425L137.709 277.696L139.194 279.332L151.975 283.201L190.548 252.843L190.361 252.311Z" fill="#263238"/>
<path d="M181.678 254.459C182.075 254.231 182.258 253.809 182.089 253.517C181.919 253.224 181.46 253.172 181.063 253.399C180.667 253.627 180.483 254.048 180.653 254.341C180.822 254.634 181.281 254.686 181.678 254.459Z" fill="white"/>
<path d="M190.562 252.883C189.77 252.843 188.983 252.741 188.209 252.577L181.831 251.46L177.432 250.662C177.067 250.572 176.687 250.564 176.319 250.64C175.951 250.716 175.605 250.874 175.306 251.101L173.261 252.723L164.022 259.97C157.457 265.103 151.481 269.704 147.135 273.015L141.961 276.925C141.347 277.419 140.694 277.864 140.009 278.255C140.559 277.685 141.153 277.161 141.787 276.685L146.814 272.616C151.08 269.199 157.003 264.531 163.567 259.399L172.846 252.191L174.945 250.582C175.315 250.31 175.74 250.122 176.191 250.032C176.641 249.943 177.106 249.953 177.553 250.064L181.938 250.955L188.275 252.284C189.052 252.423 189.817 252.624 190.562 252.883Z" fill="#455A64"/>
<path d="M173.448 261.566C173.448 261.566 172.485 261.034 170.988 263.627C169.49 266.22 164.971 273.561 164.971 273.561L160.599 268.946L153.62 267.617C153.62 267.617 151.708 268.468 152.524 269.558C153.987 270.825 155.593 271.919 157.31 272.816L158.901 278.321L151.427 271.021C151.427 271.021 148.178 270.781 148.432 272.896C148.686 275.01 152.778 282.696 152.778 282.696L148.419 280.848L144.194 275.835C144.194 275.835 142.536 275.356 142.67 276.952C142.803 278.547 146.681 285.409 146.681 285.409L152.283 290.914C152.283 290.914 156.04 291.872 156.762 290.914C157.293 290.147 157.741 289.327 158.099 288.467C158.099 288.467 160.225 288.6 160.907 287.789C161.392 287.072 161.72 286.261 161.869 285.409C161.869 285.409 164.744 286.978 165.693 285.409C166.682 283.392 167.328 281.226 167.605 278.999C167.739 277.59 173.488 266.034 173.488 265.622C173.488 265.21 175.641 261.42 173.448 261.566Z" fill="#FFBE9D"/>
<path d="M156.963 290.927C156.327 291.09 155.66 291.09 155.024 290.927C151.903 290.347 149.121 288.607 147.242 286.06C146.547 285.09 146.28 284.385 146.36 284.345C148.969 287.764 152.736 290.126 156.963 290.994V290.927Z" fill="#EB996E"/>
<path d="M156.187 288.002C156.027 288.121 155.051 287.097 154.141 285.635C153.484 284.802 153.059 283.811 152.911 282.762C153.099 282.669 153.861 283.826 154.756 285.262C155.652 286.699 156.348 287.869 156.187 288.002Z" fill="#EB996E"/>
<path d="M161.682 283.427C161.522 283.547 160.559 282.536 159.744 281.047C159.144 280.186 158.814 279.168 158.794 278.122C158.981 278.055 159.596 279.252 160.385 280.701C161.174 282.151 161.856 283.308 161.682 283.427Z" fill="#EB996E"/>
<path d="M166.99 280.036C166.539 279.008 166.185 277.939 165.934 276.845C165.462 275.827 165.086 274.767 164.811 273.68C165.626 274.512 166.245 275.514 166.622 276.614C166.999 277.713 167.124 278.882 166.99 280.036V280.036Z" fill="#EB996E"/>
<path d="M115.381 216.567C115.381 216.567 126.679 221.593 130.556 227.963C134.434 234.333 144.956 270.728 144.956 270.728L130.169 273.64L115.381 216.567Z" fill="#274DED"/>
<path d="M130.81 257.178C127.896 247.178 115.381 216.554 115.381 216.554L105.755 213.681C105.755 213.681 105.755 223.668 102.198 224.32C98.6417 224.971 81.5145 225.077 73.118 214.293L71.5804 211.527L47.6611 226.766C43.65 229.2 37.8073 234.891 36.9649 246.526C36.1895 257.165 34.8926 285.316 34.8926 285.316L58.277 284.504L60.189 294.903L58.5712 307.15C58.5712 307.15 55.3356 324.437 57.2342 327.097C58.5188 328.704 60.3768 329.756 62.4218 330.035L125.262 325.195L127.347 290.768C127.347 290.768 133.725 267.178 130.81 257.178Z" fill="#274DED"/>
<path d="M39.4117 285.329C39.4117 285.329 37.1655 306.858 39.6657 316.738C42.2462 326.95 47.3269 326.804 51.6321 327.11C55.9373 327.416 123.537 292.164 123.537 292.164L116.036 278.866L65.1226 294.212L65.5906 284.332L39.4117 285.329Z" fill="#FFBE9D"/>
<path d="M115.608 279.305L127.802 264.106L138.819 261.566L152.189 263.029C152.334 263.649 152.25 264.299 151.953 264.863C151.656 265.427 151.166 265.866 150.571 266.101L155.278 266.367C155.404 266.708 155.459 267.072 155.439 267.435C155.418 267.799 155.323 268.154 155.159 268.48C154.995 268.805 154.765 269.093 154.484 269.327C154.203 269.56 153.877 269.734 153.526 269.837L156.882 270.422C156.441 271.395 155.686 272.194 154.736 272.693C153.787 273.192 152.698 273.361 151.641 273.175C148.349 272.729 145.03 272.507 141.707 272.51L135.129 276.114L144.929 275.715L152.042 277.045C152.042 277.045 152.978 278.853 151.374 279.292C148.78 279.513 146.172 279.513 143.579 279.292L134.22 281.725C134.22 281.725 132.201 287.736 130.998 289.066C129.794 290.395 123.069 292.137 123.069 292.137L115.608 279.305Z" fill="#FFBE9D"/>
<path d="M155.345 266.38C154.127 266.457 152.904 266.412 151.695 266.247C149.448 266.074 146.346 265.781 142.937 265.409L139.661 265.05H139.795C137.255 265.768 135.049 266.38 133.471 266.752C132.643 267.02 131.786 267.19 130.917 267.257C131.689 266.852 132.505 266.54 133.351 266.326C134.902 265.821 137.081 265.143 139.608 264.385H139.742L143.031 264.717C146.453 265.09 149.542 265.462 151.775 265.768C152.982 265.854 154.178 266.059 155.345 266.38Z" fill="#EB996E"/>
<path d="M156.16 270.276C155.05 270.323 153.938 270.247 152.844 270.05C150.812 269.824 148.018 269.452 144.929 268.999L141.854 268.534H142.028C139.52 269.606 136.937 270.495 134.3 271.194C136.706 269.897 139.204 268.777 141.774 267.843H141.854H141.948L145.023 268.281C148.111 268.733 150.892 269.172 152.911 269.531C154.018 269.659 155.108 269.909 156.16 270.276V270.276Z" fill="#EB996E"/>
<path d="M123.109 292.164C123.457 292.021 123.815 291.901 124.179 291.805C124.887 291.579 125.944 291.26 127.281 290.768C127.949 290.528 128.684 290.236 129.473 289.877C129.88 289.695 130.269 289.477 130.636 289.225C130.99 288.916 131.272 288.535 131.465 288.108C132.477 286.028 133.335 283.877 134.033 281.672V281.552H134.153L143.512 279.066H143.606C145.21 279.159 146.908 279.239 148.66 279.239C149.555 279.263 150.45 279.2 151.334 279.053C151.504 279.027 151.663 278.952 151.789 278.836C151.915 278.719 152.004 278.568 152.042 278.401C152.084 278.007 152.009 277.61 151.828 277.257L152.056 277.43L144.929 276.1H145.009L135.209 276.513H133.698L135.035 275.795L141.613 272.178H141.694H141.787C144.274 272.178 146.895 272.284 149.555 272.55C150.291 272.63 151.013 272.723 151.748 272.843C152.405 272.981 153.083 272.981 153.74 272.843C154.374 272.657 154.961 272.34 155.461 271.911C155.961 271.482 156.364 270.952 156.642 270.356L156.909 270.848L153.553 270.263L152.323 270.05L153.486 269.585C154.104 269.372 154.623 268.942 154.943 268.375C155.21 267.807 155.244 267.158 155.037 266.566L155.345 266.792L150.638 266.513L149.301 266.433L150.451 265.861C150.965 265.626 151.391 265.235 151.668 264.744C151.92 264.267 152 263.718 151.895 263.189L152.189 263.441L138.819 261.939H138.926L127.896 264.425L128.029 264.332L118.991 275.396L116.504 278.255L115.849 279.013C115.702 279.186 115.622 279.265 115.608 279.252C115.657 279.146 115.72 279.048 115.796 278.959L116.397 278.162L118.764 275.103L127.615 263.893V263.827H127.708L138.712 261.247H138.819L152.189 262.683H152.43V262.909C152.586 263.602 152.491 264.327 152.163 264.957C151.818 265.571 151.29 266.064 150.652 266.367L150.518 265.715L155.224 265.981H155.465L155.532 266.194C155.671 266.579 155.733 266.987 155.712 267.396C155.691 267.805 155.589 268.205 155.411 268.574C155.01 269.293 154.359 269.841 153.58 270.117L153.513 269.438L156.869 270.023L157.337 270.103L157.136 270.515C156.816 271.213 156.347 271.832 155.764 272.333C155.18 272.833 154.494 273.202 153.754 273.414C152.995 273.574 152.212 273.574 151.454 273.414C150.745 273.295 150.037 273.202 149.315 273.122C146.641 272.856 144.087 272.776 141.627 272.749H141.801L135.222 276.353L135.035 275.688L144.836 275.303H144.916L152.029 276.632H152.189V276.765C152.435 277.245 152.528 277.788 152.457 278.321C152.392 278.603 152.246 278.86 152.037 279.06C151.828 279.261 151.565 279.397 151.28 279.451C150.366 279.604 149.439 279.667 148.512 279.638C146.734 279.638 145.036 279.531 143.418 279.425H143.512L134.153 281.805L134.313 281.659C133.588 283.877 132.694 286.038 131.639 288.122C131.414 288.588 131.09 289.001 130.69 289.332C130.302 289.591 129.89 289.813 129.46 289.996C128.658 290.356 127.896 290.621 127.227 290.848C125.89 291.3 124.807 291.579 124.085 291.765L123.256 291.965L123.109 292.164Z" fill="#EB996E"/>
<path d="M34.2107 285.329C34.4249 285.275 34.645 285.249 34.8658 285.249L36.7778 285.129L43.9041 284.797L68.3047 283.866L67.9704 284.212C68.064 280.808 67.9705 277.177 67.81 273.454C67.5025 267.297 66.9677 261.486 66.62 256.087C66.4329 253.428 66.3527 250.875 66.1387 248.508C65.9603 246.323 65.6206 244.154 65.1226 242.019C64.4275 238.915 63.1334 235.975 61.3121 233.362C59.9751 231.54 58.999 230.702 59.0525 230.702C59.311 230.864 59.5489 231.056 59.7611 231.274C60.4023 231.872 60.9926 232.521 61.526 233.216C63.4664 235.808 64.8541 238.767 65.6039 241.912C66.1405 244.066 66.5114 246.258 66.7136 248.468C66.9543 250.848 67.0613 253.388 67.2618 256.048C67.6496 261.367 68.1977 267.244 68.5186 273.414C68.7058 277.151 68.7593 280.808 68.6523 284.225V284.558H68.3181L43.9175 285.236L36.7911 285.369H34.8792C34.6556 285.383 34.431 285.37 34.2107 285.329Z" fill="#263238"/>
<path d="M119.325 356.085C117.794 353.443 115.451 351.36 112.64 350.141L112.266 326.206L62.4485 330.035C62.4485 330.035 44.6394 354.21 44.6394 363.878C44.6394 373.545 44.6394 392.853 66.1253 406.776L115.969 371.338C115.969 371.338 121.946 360.54 119.325 356.085Z" fill="#263238"/>
<path d="M158.54 417.76L115.381 374.144L100.688 327.097L125.315 325.208L128.324 350.687" fill="#263238"/>
<path d="M84.1618 329.091C84.3686 329.576 84.5081 330.086 84.5763 330.607C84.8517 332.007 85.0259 333.425 85.0977 334.849C85.2154 336.974 85.0626 339.105 84.6431 341.192C84.1217 343.769 83.0751 346.213 81.568 348.373C80.0601 350.556 77.9982 352.304 75.5915 353.439C73.6153 354.333 71.447 354.726 69.2808 354.583C67.8283 354.487 66.4099 354.103 65.1092 353.452C64.7586 353.276 64.4232 353.072 64.1065 352.841C63.8925 352.681 63.7856 352.588 63.799 352.575C65.5098 353.452 67.3861 353.964 69.3075 354.077C71.3788 354.144 73.4364 353.72 75.3107 352.841C77.5846 351.722 79.5319 350.042 80.9663 347.961C83.5227 344.085 84.7859 339.506 84.5763 334.876C84.5094 331.299 84.028 329.118 84.1618 329.091Z" fill="#263238"/>
<path d="M116.371 329.291C116.371 329.224 117.226 328.985 118.309 329.796C118.624 330.04 118.877 330.353 119.049 330.711C119.22 331.068 119.306 331.461 119.299 331.857C119.292 332.354 119.146 332.839 118.877 333.257C118.607 333.676 118.225 334.011 117.775 334.224C117.306 334.41 116.791 334.45 116.299 334.338C115.808 334.227 115.361 333.969 115.02 333.599C114.741 333.297 114.561 332.918 114.504 332.512C114.446 332.106 114.515 331.692 114.699 331.325C114.808 331.087 114.963 330.872 115.156 330.694C115.349 330.516 115.575 330.378 115.822 330.288C116.17 330.182 116.384 330.288 116.384 330.288C116.384 330.288 115.568 330.501 115.181 331.538C115.07 331.811 115.043 332.111 115.103 332.399C115.162 332.688 115.306 332.952 115.515 333.16C115.77 333.41 116.093 333.582 116.444 333.655C116.794 333.728 117.159 333.7 117.494 333.573C117.823 333.412 118.103 333.168 118.305 332.864C118.507 332.56 118.624 332.208 118.644 331.844C118.659 331.537 118.608 331.231 118.492 330.946C118.377 330.661 118.2 330.405 117.975 330.195C117.106 329.397 116.357 329.411 116.371 329.291Z" fill="#455A64"/>
<path d="M86.8224 331.445C86.8184 331.839 86.7507 332.229 86.6219 332.602C86.3639 333.641 86.015 334.655 85.579 335.634C84.9442 337.092 84.1696 338.486 83.2659 339.796C81.0418 343.022 78.1233 345.716 74.7223 347.681C73.3413 348.479 71.8861 349.143 70.377 349.663C69.3644 350.023 68.322 350.294 67.2618 350.474C66.8786 350.576 66.4813 350.617 66.0852 350.593C66.0852 350.461 67.703 350.155 70.1899 349.184C71.6399 348.608 73.0396 347.914 74.3747 347.11C77.651 345.131 80.4893 342.512 82.7177 339.41C83.6246 338.148 84.4251 336.814 85.111 335.421C86.2742 332.987 86.7021 331.365 86.8224 331.445Z" fill="#455A64"/>
</g>
<line x1="2.63013" y1="342.25" x2="324.37" y2="342.25" stroke="#263238" stroke-width="1.5"/>
<defs>
<clipPath id="clip0_3_14687">
<rect width="327" height="343" fill="white"/>
</clipPath>
</defs>
</svg>
