<svg width="327" height="230" viewBox="0 0 327 230" fill="none" xmlns="http://www.w3.org/2000/svg">
<path d="M193.617 94.1984C192.666 90.4162 193.916 86.4837 194.58 82.6403C195.547 77.0367 195.249 71.2994 195.033 65.6123C194.817 59.9251 194.701 54.16 196.012 48.6288C197.322 43.0976 200.225 37.728 204.925 34.592C209.625 31.456 216.316 31.0215 220.812 34.4638L218.6 49.0577C220.661 69.612 220.375 90.3366 217.748 110.825C211.641 111.836 205.436 112.121 199.263 111.672C197.997 111.577 196.526 111.321 195.945 110.19C195.232 108.815 196.316 107.244 196.758 105.734C197.344 103.779 196.758 101.662 195.968 99.7964C195.177 97.9304 194.115 96.1591 193.617 94.1984Z" fill="#263238"/>
<path d="M212.506 38.2293C214.283 36.3962 216.48 35.0322 218.904 34.2577C219.873 33.878 220.932 33.7985 221.945 34.0293C222.935 34.3301 223.787 35.2826 223.67 36.3131L217.765 44.9413C216.598 46.0554 214.674 45.9161 213.214 45.2087C212.108 44.6517 211.036 43.7437 210.759 42.5127C210.4 40.9531 211.389 39.3934 212.506 38.2293Z" fill="#AEC2FC"/>
<path d="M257.705 62.4372C256.499 50.0603 245.894 40.2457 233.342 40.7136C220.021 41.2316 209.935 52.5112 210.87 65.512L215.946 117.805C216.046 118.816 216.478 119.764 217.173 120.501C220.889 124.467 226.911 127.068 231.898 126.973C236.731 126.879 241.337 124.879 245.003 121.96C245.612 121.474 246.084 120.836 246.37 120.108C246.657 119.381 246.748 118.59 246.634 117.816L245.02 106.185C245.017 106.175 245.017 106.164 245.019 106.154C245.022 106.143 245.026 106.134 245.032 106.125C245.039 106.117 245.047 106.11 245.056 106.105C245.065 106.1 245.076 106.097 245.086 106.096C246.175 106.006 247.252 105.802 248.299 105.489C251.229 104.258 258.512 100.014 259.314 88.1269C259.579 84.2278 258.761 73.2879 257.705 62.4372Z" fill="#FFBE9D"/>
<path d="M243.455 82.0721C243.455 81.9551 244.688 81.6265 246.734 81.1808C247.254 81.0806 247.74 80.9358 247.796 80.5737C247.79 80.0332 247.618 79.5079 247.304 79.0697L245.39 75.2597C242.72 69.8288 240.734 65.3448 240.967 65.2334C241.199 65.122 243.532 69.4445 246.203 74.8754L248.056 78.7244C248.31 79.2814 248.708 79.9331 248.514 80.7352C248.454 80.9259 248.352 81.1003 248.215 81.2451C248.078 81.3899 247.91 81.5013 247.724 81.5707C247.44 81.6742 247.145 81.7416 246.845 81.7713C244.738 82.0609 243.477 82.189 243.455 82.0721Z" fill="#263238"/>
<path d="M255.797 71.3774C255.62 71.7172 253.945 70.6588 251.926 70.9986C249.908 71.3384 248.609 72.8145 248.354 72.5471C248.222 72.4302 248.354 71.8509 248.907 71.1713C249.605 70.3159 250.588 69.7441 251.672 69.5615C252.771 69.3957 253.892 69.6351 254.829 70.2355C255.592 70.7145 255.908 71.2214 255.797 71.3774Z" fill="#263238"/>
<path d="M235.548 72.6697C235.305 72.9816 233.679 71.7116 231.456 71.7729C229.233 71.8342 227.652 73.132 227.398 72.8312C227.276 72.6975 227.508 72.1405 228.199 71.5389C229.105 70.7709 230.245 70.3391 231.428 70.3158C232.612 70.2925 233.767 70.679 234.702 71.4108C235.41 71.9846 235.67 72.5304 235.548 72.6697Z" fill="#263238"/>
<path d="M245.009 106.146C245.009 106.146 237.146 107.489 226.695 102.47C226.695 102.47 230.776 112.558 245.529 109.862L245.009 106.146Z" fill="#EB996E"/>
<path d="M243.394 86.9238C242.704 86.7056 241.97 86.6651 241.26 86.8062C240.55 86.9473 239.886 87.2654 239.33 87.7315C238.919 88.0561 238.577 88.4605 238.325 88.9208C238.072 89.381 237.914 89.8877 237.859 90.4107C237.808 90.9104 237.914 91.4135 238.161 91.8498C238.408 92.2862 238.783 92.6341 239.236 92.8449C240.259 93.2348 241.492 92.6666 242.266 91.7754C242.987 90.8326 243.515 89.7554 243.82 88.606C243.941 88.3032 244.005 87.9801 244.008 87.6535C244.009 87.4981 243.964 87.3459 243.878 87.2168C243.792 87.0876 243.67 86.9875 243.527 86.9294" fill="#EB996E"/>
<path d="M236.549 69.1549C236.073 69.5002 234.519 68.1132 232.363 66.9825C230.206 65.8517 228.232 65.2836 228.243 64.6876C228.243 64.4091 228.829 64.1696 229.775 64.1696C231.016 64.2088 232.231 64.5428 233.319 65.1443C234.416 65.7264 235.362 66.5579 236.084 67.5729C236.643 68.3695 236.77 68.9877 236.549 69.1549Z" fill="#263238"/>
<path d="M253.834 63.49C253.773 64.1194 252.142 64.7711 250.516 65.9966C248.891 67.222 247.752 68.5366 247.121 68.3973C246.839 68.3193 246.773 67.7846 247.121 66.9769C247.613 65.9086 248.376 64.9901 249.333 64.3144C250.264 63.6059 251.365 63.1598 252.524 63.0221C253.37 62.9664 253.845 63.1948 253.834 63.49Z" fill="#263238"/>
<path d="M234.741 37.8561C233.392 36.185 231.285 35.6893 229.023 35.706C219.8 35.7672 210.604 42.8358 206.756 51.3025C202.907 59.7691 204.434 71.188 209.449 78.9862L212.921 79.0419C219.894 77.4934 228.625 55.8589 236.776 43.3928C237.788 41.7997 235.891 39.2876 234.741 37.8561Z" fill="#263238"/>
<path d="M214.508 74.5245C214.281 74.441 205.44 72.4524 206.297 81.3535C207.154 90.2547 215.846 87.5531 215.841 87.2969C215.835 87.0407 214.508 74.5245 214.508 74.5245Z" fill="#FFBE9D"/>
<path d="M212.816 84.1888C212.777 84.1888 212.672 84.3113 212.424 84.4561C212.072 84.6489 211.66 84.6968 211.273 84.5898C210.306 84.3336 209.377 82.9188 209.178 81.3201C209.081 80.5595 209.155 79.7869 209.393 79.0586C209.454 78.7746 209.583 78.5097 209.768 78.2866C209.953 78.0635 210.189 77.8888 210.455 77.7775C210.627 77.712 210.817 77.7096 210.991 77.7707C211.165 77.8318 211.312 77.9525 211.406 78.1117C211.55 78.3512 211.511 78.5295 211.555 78.5406C211.6 78.5518 211.732 78.3735 211.622 78.0114C211.551 77.7954 211.408 77.6106 211.218 77.4878C210.957 77.3258 210.643 77.2738 210.344 77.343C209.988 77.4507 209.666 77.6485 209.407 77.9177C209.149 78.1869 208.963 78.5183 208.868 78.8804C208.566 79.6884 208.466 80.5586 208.575 81.4148C208.802 83.2028 209.88 84.7903 211.19 85.041C211.435 85.0876 211.686 85.0782 211.927 85.0136C212.167 84.949 212.39 84.8308 212.578 84.6678C212.822 84.406 212.849 84.1999 212.816 84.1888Z" fill="#EB996E"/>
<path d="M217.748 70.9651C217.721 70.837 219.872 70.7367 222.907 69.2941C226.824 67.3241 230.09 64.2513 232.307 60.4486C234.475 56.6102 235.919 52.4006 236.565 48.0327C236.842 46.3617 237.002 44.9914 237.118 44.05C237.142 43.5565 237.211 43.0662 237.323 42.5851C237.374 43.0776 237.374 43.5742 237.323 44.0667C237.284 45.0192 237.185 46.4007 236.952 48.094C236.408 52.5444 234.989 56.841 232.778 60.7327C230.09 65.2724 226.181 68.3081 223.046 69.645C221.81 70.2035 220.51 70.6021 219.175 70.8314C218.809 70.8978 218.44 70.9424 218.069 70.9651C217.881 70.9818 217.748 70.9818 217.748 70.9651Z" fill="#263238"/>
<path d="M216.631 103.228C216.723 103.137 216.801 103.034 216.864 102.921C217.077 102.618 217.262 102.295 217.417 101.958C217.973 100.717 218.232 99.3627 218.174 98.0029C218.134 97.0603 217.948 96.1298 217.621 95.2456C217.197 94.2717 216.684 93.3394 216.089 92.4605C215.536 91.5303 215.066 90.3717 215.57 89.3134C216.073 88.2551 217.118 87.5031 217.781 86.2888C217.951 85.9781 218.04 85.6295 218.04 85.275C218.04 84.9206 217.951 84.5719 217.781 84.2612C217.421 83.7274 217.003 83.2343 216.537 82.7907C216.179 82.3672 215.933 81.8584 215.824 81.3126C215.714 80.7669 215.745 80.202 215.912 79.6714C216.198 78.6711 216.655 77.7287 217.262 76.8863C217.795 76.1238 218.263 75.317 218.661 74.4745C218.969 73.8564 219.119 73.1708 219.099 72.4795C219.079 71.7882 218.888 71.1128 218.545 70.5141C218.346 70.1956 218.07 69.933 217.743 69.7509C217.635 69.6817 217.515 69.6344 217.389 69.6117C217.805 69.851 218.156 70.1896 218.412 70.5976C218.712 71.1771 218.869 71.8211 218.869 72.4748C218.869 73.1285 218.712 73.7725 218.412 74.3519C218.002 75.1692 217.527 75.9516 216.991 76.6914C216.348 77.5602 215.863 78.5372 215.559 79.5767C215.403 80.1573 215.364 80.7631 215.442 81.3592C215.542 81.9831 215.821 82.564 216.244 83.0302C216.676 83.4503 217.065 83.9131 217.405 84.4116C217.546 84.6623 217.62 84.9453 217.62 85.2332C217.62 85.5211 217.546 85.8041 217.405 86.0548C216.853 87.1355 215.747 87.9041 215.194 89.1017C214.931 89.6934 214.878 90.3582 215.044 90.9844C215.2 91.5567 215.439 92.1028 215.752 92.6054C216.347 93.4704 216.863 94.3876 217.295 95.3459C217.612 96.1942 217.799 97.0865 217.848 97.9917C217.93 99.3216 217.719 100.653 217.229 101.891C216.891 102.765 216.598 103.205 216.631 103.228Z" fill="#263238"/>
<path d="M188.365 102.286C188.321 102.403 188.503 102.671 189.073 102.843C189.494 102.93 189.929 102.925 190.349 102.829C190.768 102.733 191.163 102.548 191.506 102.286C192.022 101.923 192.452 101.449 192.766 100.899C192.958 100.57 193.105 100.216 193.203 99.8465C193.3 99.4675 193.358 99.0791 193.374 98.6879C193.361 96.9841 192.905 95.3135 192.053 93.8419C191.273 92.3268 190.361 90.8507 190.178 89.4526C189.996 88.0545 190.449 86.4503 191.367 84.6622C192.285 82.8742 193.579 80.9135 194.508 78.4459C195.409 75.999 195.981 73.4421 196.211 70.8426C196.725 65.6178 196.36 60.8163 196.526 56.6554C196.596 53.0192 197.273 49.4207 198.528 46.0108C199.388 43.7445 200.706 41.6828 202.399 39.956C203.023 39.3656 203.505 38.881 203.886 38.569C204.268 38.2571 204.4 38.012 204.345 37.8616C204.29 37.7112 204.008 37.7224 203.505 37.8282C202.778 38.005 202.081 38.2884 201.437 38.6693C199.066 40.1428 197.152 42.2532 195.907 44.7631C194.098 48.3835 193.028 52.3326 192.761 56.3769C192.379 60.833 192.617 65.6234 192.136 70.3692C191.941 72.6235 191.475 74.8456 190.748 76.9865C190.079 78.9695 188.912 80.8411 187.983 82.9745C187.487 84.0608 187.116 85.2009 186.877 86.3723C186.623 87.5862 186.623 88.8402 186.877 90.0542C187.14 91.1247 187.571 92.1459 188.155 93.0788C188.658 93.9143 189.161 94.6217 189.592 95.2678C190.354 96.2761 190.877 97.4457 191.124 98.6879C191.156 98.926 191.165 99.1666 191.152 99.4065C191.14 99.6109 191.103 99.813 191.041 100.008C190.924 100.382 190.736 100.73 190.488 101.033C189.515 102.203 188.453 101.974 188.365 102.286Z" fill="#263238"/>
<path d="M242.266 93.0286C242.266 93.0676 242.062 93.1121 241.713 93.1901C241.178 93.3066 240.634 93.3737 240.087 93.3906C239.901 93.3893 239.715 93.3631 239.535 93.3127C239.329 93.2625 239.131 93.1877 238.943 93.0899C238.732 92.9786 238.544 92.8273 238.39 92.6442C237.952 92.0359 237.647 91.3411 237.494 90.6056C237.488 90.4581 237.5 90.3104 237.527 90.1655L237.61 89.7867C237.672 89.5266 237.748 89.2699 237.837 89.0181C238.013 88.4962 238.3 88.0191 238.677 87.62C239.041 87.2576 239.479 86.98 239.96 86.8067C240.75 86.5324 241.595 86.4578 242.421 86.5895C243.798 86.8123 244.566 87.1465 244.555 87.2133C244.544 87.2802 243.704 87.1075 242.382 86.9961C241.632 86.9323 240.876 87.037 240.17 87.3025C239.769 87.462 239.405 87.705 239.103 88.0154C238.788 88.3606 238.549 88.7686 238.401 89.213C238.317 89.445 238.245 89.6811 238.185 89.9204L238.102 90.2769C238.082 90.3759 238.073 90.4767 238.075 90.5777C238.128 91.0069 238.273 91.4193 238.5 91.7864C238.629 92.1483 238.872 92.4576 239.192 92.6665C239.482 92.8395 239.807 92.946 240.143 92.9785C240.79 93.023 241.343 92.9785 241.724 92.9785C242.106 92.9785 242.266 92.9896 242.266 93.0286Z" fill="#263238"/>
<path d="M254.603 110.814L242.399 115.148C242.399 115.148 243.803 127.113 243.864 126.366C243.925 125.62 254.603 110.814 254.603 110.814Z" fill="#FFBE9D"/>
<path d="M242.266 93.0286C242.266 93.0676 242.062 93.1121 241.713 93.1901C241.178 93.3066 240.634 93.3737 240.087 93.3906C239.901 93.3893 239.715 93.3631 239.535 93.3127C239.329 93.2625 239.131 93.1877 238.943 93.0899C238.732 92.9786 238.544 92.8273 238.39 92.6442C237.952 92.0359 237.647 91.3411 237.494 90.6056C237.488 90.4581 237.5 90.3104 237.527 90.1655L237.61 89.7867C237.672 89.5266 237.748 89.2699 237.837 89.0181C238.013 88.4962 238.3 88.0191 238.677 87.62C239.041 87.2576 239.479 86.98 239.96 86.8067C240.75 86.5324 241.595 86.4578 242.421 86.5895C243.798 86.8123 244.566 87.1465 244.555 87.2133C244.544 87.2802 243.704 87.1075 242.382 86.9961C241.632 86.9323 240.876 87.037 240.17 87.3025C239.769 87.462 239.405 87.705 239.103 88.0154C238.788 88.3606 238.549 88.7686 238.401 89.213C238.317 89.445 238.245 89.6811 238.185 89.9204L238.102 90.2769C238.082 90.3759 238.073 90.4767 238.075 90.5777C238.128 91.0069 238.273 91.4193 238.5 91.7864C238.629 92.1483 238.872 92.4576 239.192 92.6665C239.482 92.8395 239.807 92.946 240.143 92.9785C240.79 93.023 241.343 92.9785 241.724 92.9785C242.106 92.9785 242.266 92.9896 242.266 93.0286Z" fill="#263238"/>
<path d="M260.829 52.0718L255.476 62.0981L285.739 81.382L294.697 65.3789L260.829 52.0718Z" fill="#FFBE9D"/>
<path d="M193.955 94.5437C193.955 94.5437 200.187 54.873 201.652 50.8068C203.117 46.7405 212.772 36.3243 218.633 37.611C224.494 38.8977 228.647 44.5682 228.99 53.3245C229.333 62.0808 217.848 125.007 217.848 125.007C217.848 125.007 201.038 138.019 194.569 130.065C188.099 122.111 190.029 114.056 193.955 94.5437Z" fill="#AEC2FC"/>
<path d="M205.534 118.039C205.534 118.039 234.508 126.427 236.621 125.987C245.495 124.132 254.603 110.814 254.603 110.814L260.298 109.199C260.298 109.199 270.124 140.615 266.989 157.058C263.853 173.501 260.187 183.271 260.187 183.271L265.357 229.286H180.955L198.168 179.472L193.64 128.817L205.534 118.039Z" fill="#AEC2FC"/>
<path d="M282.985 81.755L287.248 85.6541L258.694 110.107L265.009 146.809C265.009 146.809 289.521 123.414 299.231 113.817C314.625 98.5769 320.187 87.7151 318.711 83.6322C316.234 76.7976 294.254 63.301 294.254 63.301L282.985 81.755Z" fill="#AEC2FC"/>
<path d="M216.659 143.907C216.598 143.907 216.134 142.932 215.658 141.222C215.385 140.218 215.173 139.199 215.023 138.169C214.651 135.642 214.634 133.075 214.973 130.544C215.11 129.513 215.31 128.492 215.57 127.486C216.023 125.77 216.471 124.768 216.532 124.79C216.72 124.834 215.244 129.001 215.305 134.359C215.365 139.718 216.847 143.862 216.659 143.907Z" fill="#263238"/>
<path d="M245.435 154.184C245.539 154.587 245.587 155.003 245.578 155.42C245.624 156.551 245.574 157.684 245.429 158.807C244.969 162.547 243.602 166.116 241.448 169.198C239.295 172.281 236.422 174.782 233.082 176.481C232.08 176.996 231.037 177.425 229.963 177.762C229.578 177.912 229.174 178.007 228.763 178.046C228.73 177.94 230.422 177.489 232.894 176.119C236.107 174.361 238.874 171.878 240.978 168.866C243.082 165.853 244.467 162.392 245.025 158.751C245.468 155.955 245.324 154.184 245.435 154.184Z" fill="#263238"/>
<path d="M275.897 127.603C275.963 127.664 275.134 128.628 273.895 130.26C270.664 134.508 268.122 139.246 266.364 144.297C265.684 146.235 265.341 147.46 265.258 147.438C265.175 147.416 265.396 146.157 265.982 144.168C267.549 138.981 270.134 134.164 273.585 130.004C274.901 128.422 275.847 127.553 275.897 127.603Z" fill="#263238"/>
<path d="M266.983 154.93C266.751 155.004 266.512 155.052 266.27 155.075C265.8 155.142 265.109 155.27 264.207 155.353C261.67 155.636 259.118 155.768 256.566 155.749C252.779 155.706 248.998 155.445 245.241 154.969C241 154.479 236.361 153.688 231.5 153.008C223.171 151.962 214.742 152.027 206.43 153.203C203.239 153.654 200.684 154.172 198.921 154.551L196.891 155.002C196.657 155.069 196.416 155.11 196.172 155.125C196.392 155.023 196.622 154.944 196.858 154.891C197.317 154.757 197.964 154.551 198.865 154.334C200.618 153.883 203.167 153.303 206.363 152.802C210.107 152.215 213.884 151.867 217.671 151.761C219.811 151.699 222.056 151.722 224.384 151.822C226.712 151.922 229.112 152.139 231.572 152.44C236.466 153.12 241.072 153.927 245.302 154.445C249.04 154.942 252.802 155.242 256.571 155.342C259.789 155.398 262.394 155.281 264.191 155.13C265.092 155.08 265.783 154.991 266.259 154.958C266.499 154.923 266.741 154.914 266.983 154.93V154.93Z" fill="white"/>
<path d="M289.007 124.205C288.891 124.205 288.924 122.35 288.393 119.437L288.167 118.323C288.084 117.927 287.956 117.526 287.851 117.103C287.652 116.256 287.332 115.382 287.016 114.457C285.553 110.47 283.295 106.826 280.381 103.751C279.69 103.066 279.054 102.392 278.385 101.841C278.059 101.562 277.755 101.284 277.434 101.022L276.516 100.32C274.149 98.5598 272.474 97.7855 272.529 97.6797C272.944 97.8013 273.343 97.9714 273.718 98.1866L274.343 98.4874C274.564 98.6043 274.802 98.7547 275.056 98.9051C275.641 99.2365 276.207 99.5991 276.754 99.9913L277.71 100.676C278.042 100.916 278.357 101.206 278.695 101.484C279.415 102.084 280.105 102.72 280.763 103.389C283.78 106.48 286.088 110.199 287.525 114.284C287.835 115.173 288.101 116.076 288.321 116.991C288.421 117.42 288.537 117.833 288.609 118.239L288.802 119.403C288.914 120.069 288.989 120.74 289.029 121.414C289.029 121.709 289.079 121.971 289.09 122.244C289.101 122.517 289.09 122.729 289.09 122.94C289.11 123.364 289.082 123.788 289.007 124.205V124.205Z" fill="white"/>
<path d="M226.363 75.0425C226.044 75.2725 225.697 75.4597 225.329 75.5995C224.92 75.8089 224.499 75.9949 224.069 76.1565C223.566 76.3404 223.002 76.5743 222.355 76.7526C221.708 76.9308 221.005 77.1648 220.226 77.3096C219.446 77.4544 218.617 77.6326 217.737 77.7775C213.896 78.3231 209.986 78.1342 206.214 77.2205C205.351 76.9921 204.555 76.786 203.781 76.5186C203.007 76.2512 202.338 76.0062 201.718 75.7499C201.099 75.4937 200.552 75.2208 200.06 74.9924C199.646 74.7995 199.244 74.5838 198.854 74.3462C198.502 74.1744 198.173 73.9572 197.875 73.7001C197.925 73.6054 199.374 74.4242 201.862 75.3712C202.487 75.5995 203.167 75.8558 203.919 76.0674C204.671 76.2791 205.473 76.4963 206.325 76.708C210.043 77.5501 213.878 77.7386 217.66 77.265C218.528 77.1369 219.358 77.0311 220.115 76.8584C220.873 76.6857 221.586 76.5353 222.227 76.3626C224.832 75.6274 226.325 74.9423 226.363 75.0425Z" fill="white"/>
<path d="M201.094 49.8765C201.196 49.5326 201.349 49.2059 201.547 48.9073C202.047 48.0676 202.619 47.2736 203.256 46.5344C204.848 44.6406 207.536 42.4849 210.698 40.5075C211.484 40.0062 212.258 39.5271 213.01 39.0704C213.735 38.6119 214.497 38.2151 215.288 37.8839C216.023 37.577 216.809 37.4144 217.605 37.4049C218.294 37.4092 218.979 37.5297 219.629 37.7614C220.547 38.0961 221.42 38.5452 222.228 39.0982C222.54 39.2713 222.826 39.491 223.074 39.7499C222.734 39.6405 222.411 39.487 222.111 39.2932C221.281 38.8378 220.409 38.4647 219.507 38.1792C218.895 37.9907 218.256 37.9023 217.616 37.9174C216.884 37.9486 216.164 38.1167 215.493 38.4131C214.726 38.7455 213.986 39.1384 213.281 39.5884L211.008 41.0144C208.294 42.6317 205.792 44.5853 203.56 46.8296C201.907 48.5842 201.182 49.9267 201.094 49.8765Z" fill="#263238"/>
<path d="M262.521 75.633C262.182 75.7679 261.804 75.7679 261.465 75.633C261.08 75.4533 260.763 75.1522 260.563 74.7752C260.435 74.5285 260.358 74.2577 260.338 73.9797C260.318 73.7017 260.355 73.4226 260.447 73.1598C260.675 72.5027 261.02 71.893 261.465 71.3606C262.007 70.7336 262.487 70.0545 262.897 69.3331C263.115 68.9165 263.246 68.4599 263.284 67.9907C263.31 67.4942 263.216 66.9988 263.008 66.548C262.55 65.6539 261.902 64.8723 261.111 64.2587C260.358 63.682 259.692 62.997 259.137 62.2256C258.695 61.475 258.49 60.6064 258.551 59.7357C258.623 58.0646 259.176 56.5384 259.203 55.196C259.31 54.134 259.069 53.0661 258.518 52.1547C258.356 51.9167 258.156 51.7077 257.926 51.5364C257.766 51.425 257.677 51.3749 257.666 51.3916C257.934 51.6488 258.173 51.9346 258.379 52.2438C258.86 53.1415 259.053 54.1668 258.932 55.1793C258.871 56.466 258.291 57.9644 258.191 59.719C258.118 60.6682 258.336 61.6172 258.816 62.4372C259.388 63.2481 260.077 63.9673 260.862 64.5706C261.608 65.1465 262.221 65.8781 262.659 66.7151C262.836 67.1017 262.921 67.5248 262.907 67.9505C262.893 68.3761 262.779 68.7924 262.576 69.166C262.186 69.872 261.73 70.5396 261.216 71.1601C260.756 71.7319 260.407 72.3857 260.187 73.0874C260.094 73.3853 260.063 73.6996 260.096 74.0102C260.129 74.3209 260.226 74.6212 260.381 74.8921C260.617 75.2992 260.984 75.6134 261.421 75.7834C261.697 75.8871 262.001 75.8871 262.278 75.7834C262.37 75.7555 262.454 75.7037 262.521 75.633V75.633Z" fill="#263238"/>
<path d="M252.916 41.0589C248.492 37.3436 241.52 33.0545 234.171 37.299C233.364 39.6886 236.139 42.1841 238.335 43.5488C241.558 45.5484 244.295 46.8073 246.435 48.2611C250.759 51.2077 256.344 56.3267 257.732 62.7714C257.821 63.178 258.136 63.1836 258.534 63.0555C259.048 62.8884 259.844 60.042 259.911 56.4103C260.054 48.6677 257.367 44.7742 252.916 41.0589Z" fill="#263238"/>
<path d="M52.3107 62.6602L44.6634 76.0286L42.9547 85.5368L28.3568 109.082L26.3828 112.268L41.5171 122.896C41.5171 122.896 51.0223 101.172 52.0784 99.1058C53.1346 97.0393 57.4365 95.708 57.4365 95.708L64.2654 83.5929L52.3107 62.6602Z" fill="#FFBE9D"/>
<path d="M53.7208 93.2404C53.6378 93.2404 53.7208 92.182 53.8977 90.4998C54.1515 88.3288 54.1756 86.1367 53.9696 83.9605C53.7408 81.7995 53.0013 79.7252 51.8131 77.9112C50.8731 76.541 50.0105 75.9227 50.0768 75.8391C50.1432 75.7556 50.3312 75.9338 50.7127 76.2235C51.2477 76.6429 51.7271 77.1296 52.1393 77.6717C53.4848 79.4932 54.3177 81.6465 54.5502 83.9047C54.769 86.1339 54.6853 88.3826 54.3014 90.589C54.036 92.2322 53.7927 93.2515 53.7208 93.2404Z" fill="#EB996E"/>
<path d="M70.1709 115.098L133.97 126.238C133.97 126.238 80.1129 131.936 80.0908 131.19C80.0687 130.443 70.1709 115.098 70.1709 115.098Z" fill="#FFBE9D"/>
<path d="M124.675 87.854C124.52 83.9549 122.215 80.5404 120.495 77.0423C117.99 71.9456 116.657 66.3587 115.264 60.8442C113.871 55.3298 112.355 49.7707 109.541 44.8356C106.726 39.9004 102.43 35.5891 97.0277 33.9292C91.6254 32.2693 85.1006 33.7621 81.7607 38.3463L87.9704 51.7147C91.7834 72.0142 97.8947 91.8061 106.185 110.703C112.326 109.932 118.356 108.436 124.15 106.247C125.339 105.796 126.677 105.133 126.915 103.879C127.213 102.353 125.731 101.156 124.885 99.8577C123.779 98.1532 123.719 95.9586 123.973 93.9366C124.227 91.9147 124.747 89.8927 124.675 87.854Z" fill="#263238"/>
<path d="M90.8126 39.6107C88.5944 38.3603 86.1048 37.6792 83.5634 37.6277C82.5277 37.5409 81.4898 37.7678 80.583 38.2794C79.7204 38.8364 79.1675 40.0062 79.5711 40.9643L87.6663 47.5482C89.104 48.2946 90.9066 47.5983 92.0899 46.501C93.0189 45.6543 93.7488 44.4735 93.6879 43.2146C93.5939 41.6048 92.206 40.3961 90.8126 39.6107Z" fill="#AEC2FC"/>
<path d="M54.1135 75.7278C51.7856 63.5124 59.1896 51.0742 71.3656 47.9549C84.2881 44.6462 97.1331 52.5781 99.8978 65.3171L109.757 116.914C109.95 117.911 111.875 122.233 111.416 123.141C108.966 128.004 101.85 128.928 97.0391 130.265C92.3777 131.558 87.3956 130.95 83.066 129.224C82.3448 128.932 81.7127 128.454 81.2331 127.838C80.7536 127.222 80.4436 126.49 80.3345 125.714L78.6037 114.101C78.6032 114.09 78.6004 114.08 78.5954 114.07C78.5905 114.061 78.5835 114.053 78.5751 114.046C78.5666 114.04 78.5569 114.036 78.5465 114.033C78.5362 114.031 78.5255 114.031 78.5153 114.034C77.446 114.26 76.3564 114.373 75.2639 114.374C72.1066 114.028 63.9284 112.04 59.8089 100.872C58.4487 97.1618 56.1816 86.4336 54.1135 75.7278Z" fill="#FFBE9D"/>
<path d="M73.472 90.4831C73.472 90.3661 72.1615 90.4107 70.0769 90.5666C69.5239 90.6167 69.0428 90.6167 68.888 90.2881C68.7422 89.7683 68.7596 89.2157 68.9378 88.7062L69.7008 84.5063C70.7349 78.535 71.3597 73.6723 71.1275 73.6333C70.8952 73.5943 69.8557 78.4069 68.8217 84.3782C68.5784 85.8635 68.348 87.2672 68.1305 88.5892C68.0475 89.2075 67.8429 89.9372 68.2576 90.6502C68.371 90.8127 68.5194 90.9473 68.6918 91.0438C68.8642 91.1403 69.0561 91.1961 69.253 91.2072C69.5545 91.2266 69.8573 91.2078 70.1543 91.1515C72.2168 90.8507 73.4886 90.5889 73.472 90.4831Z" fill="#263238"/>
<path d="M65.7974 82.1167C65.5485 81.827 64.1385 83.2307 62.0871 83.3365C60.0356 83.4424 58.4763 82.2838 58.2662 82.6069C58.1611 82.7517 58.421 83.2864 59.1011 83.8323C59.9759 84.5182 61.0691 84.8589 62.1755 84.7904C63.2835 84.7119 64.326 84.2332 65.1117 83.4424C65.7255 82.7907 65.919 82.2336 65.7974 82.1167Z" fill="#263238"/>
<path d="M85.1672 77.0813C84.8077 76.9198 83.9562 78.8025 81.9545 79.7884C79.9528 80.7743 77.9567 80.3454 77.8737 80.7465C77.824 80.9247 78.2885 81.3035 79.1787 81.5152C80.3343 81.7736 81.5429 81.6248 82.6026 81.0935C83.6624 80.5623 84.5091 79.6808 85.0013 78.5964C85.3607 77.7776 85.3386 77.1481 85.1672 77.0813Z" fill="#263238"/>
<path d="M78.7637 114.012C78.7637 114.012 86.6819 113.053 95.2914 105.255C95.2914 105.255 94.2186 116.095 79.3111 117.727L78.7637 114.012Z" fill="#EB996E"/>
<path d="M84.6308 71.89C84.4594 71.3329 82.3913 71.4778 79.9971 71.0656C77.6028 70.6534 75.684 69.8958 75.3357 70.3749C75.1809 70.6033 75.4905 71.1436 76.2425 71.7229C77.2537 72.4489 78.4207 72.9241 79.6487 73.1098C80.8757 73.3221 82.135 73.242 83.3258 72.8759C84.2327 72.5695 84.7027 72.1573 84.6308 71.89Z" fill="#263238"/>
<path d="M63.1487 73.0651C62.5515 72.8702 61.3129 74.1235 59.5545 75.1484C57.7961 76.1733 56.1373 76.7248 56.0267 77.343C55.988 77.6327 56.4469 77.9001 57.3151 77.9001C58.4896 77.8676 59.6345 77.5216 60.6328 76.8974C61.6448 76.3143 62.4845 75.4703 63.0657 74.4521C63.4473 73.7002 63.4252 73.1654 63.1487 73.0651Z" fill="#263238"/>
<path d="M69.3802 45.593C70.2097 43.6268 72.0842 42.5295 74.2517 41.8945C83.0989 39.321 93.9202 43.4708 99.9861 50.4669C106.052 57.4631 107.816 68.8485 105.2 77.7608L101.883 78.808C94.7607 79.3149 80.3176 61.0614 68.9655 51.425C67.5666 50.2441 68.6614 47.3031 69.3802 45.593Z" fill="#263238"/>
<path d="M52.8637 53.8592C56.0819 49.0243 61.534 42.9249 69.7785 44.8968C71.2217 46.9577 69.2698 50.1439 67.5667 52.0767C65.0397 54.912 62.7671 56.9061 61.1304 58.9113C57.8127 62.972 53.9033 69.4947 54.3844 76.0563C54.412 76.4685 54.1134 76.5688 53.6932 76.5576C53.1402 76.5576 51.5864 74.0399 50.5026 70.5753C48.1526 63.1948 49.6345 58.6885 52.8637 53.8592Z" fill="#263238"/>
<path d="M99.1069 74.9924C99.3005 74.8476 107.219 70.4137 108.905 79.1979C110.592 87.982 101.49 87.8706 101.429 87.62C101.368 87.3693 99.1069 74.9924 99.1069 74.9924Z" fill="#FFBE9D"/>
<path d="M103.453 83.7544C103.486 83.721 103.624 83.8324 103.906 83.8992C104.297 83.9847 104.705 83.9149 105.046 83.7043C105.903 83.1862 106.395 81.5597 106.151 79.9722C106.029 79.2157 105.74 78.4963 105.305 77.8667C105.171 77.6084 104.977 77.3867 104.739 77.2208C104.501 77.0549 104.227 76.9496 103.94 76.9142C103.756 76.9021 103.575 76.9551 103.426 77.064C103.278 77.1729 103.172 77.3308 103.127 77.5102C103.055 77.7776 103.127 77.9447 103.127 77.967C103.127 77.9893 102.911 77.8556 102.911 77.4824C102.918 77.2549 103.002 77.0366 103.149 76.8641C103.354 76.6358 103.64 76.4978 103.945 76.4797C104.317 76.4816 104.681 76.5793 105.005 76.7636C105.328 76.9479 105.599 77.2126 105.792 77.5325C106.309 78.2206 106.65 79.0257 106.787 79.8775C107.069 81.66 106.489 83.487 105.3 84.0997C105.079 84.2136 104.836 84.2763 104.588 84.283C104.34 84.2898 104.094 84.2405 103.868 84.1387C103.508 83.9661 103.425 83.7767 103.453 83.7544Z" fill="#EB996E"/>
<path d="M51.3101 55.9035C51.3101 55.9703 52.3109 55.9982 53.9145 55.8534C58.1053 55.4526 62.1952 54.3217 66.002 52.5113C67.4562 51.8039 68.2967 51.2636 68.2635 51.2079C68.2304 51.1522 67.3235 51.5476 65.8471 52.1548C62.0048 53.756 57.9828 54.8783 53.8702 55.4969C52.3109 55.7085 51.3046 55.8144 51.3101 55.9035Z" fill="#455A64"/>
<path d="M49.3028 62.6823C49.9455 62.8674 50.618 62.9241 51.2823 62.8494C54.5193 62.7138 57.6245 61.5212 60.1295 59.4516C60.674 59.063 61.138 58.5711 61.4953 58.0034C61.3847 57.8641 59.2338 60.0643 55.7889 61.3455C52.344 62.6266 49.2917 62.5041 49.3028 62.6823Z" fill="#455A64"/>
<path d="M101.556 53.3134C101.523 53.2019 99.6874 53.8314 96.613 54.2102C94.8133 54.4259 93.0005 54.5116 91.1886 54.4664C88.9637 54.3855 86.7468 54.1528 84.5532 53.7701C82.3802 53.3665 80.2343 52.827 78.1279 52.1548C76.4039 51.5859 74.7129 50.9202 73.0629 50.1606C70.2428 48.8572 68.6393 47.8045 68.5674 47.8936C68.9068 48.198 69.2775 48.465 69.6733 48.6901C70.1126 48.9896 70.5666 49.2666 71.0335 49.5201C71.5865 49.8264 72.1892 50.1829 72.897 50.5171C74.5397 51.3346 76.2334 52.0435 77.9675 52.6394C80.0979 53.3471 82.2744 53.9055 84.4813 54.3104C86.6958 54.6984 88.9359 54.92 91.1831 54.9733C93.0186 54.9959 94.853 54.8692 96.6683 54.5945C97.3663 54.4992 98.0585 54.3654 98.7419 54.1934C99.2628 54.0904 99.7763 53.9527 100.279 53.7812C100.72 53.6715 101.148 53.5146 101.556 53.3134V53.3134Z" fill="#455A64"/>
<path d="M69.6128 50.8793C69.8696 51.2797 70.166 51.653 70.4975 51.9933C70.8449 52.4243 71.214 52.837 71.6034 53.2299C72.0679 53.6866 72.5656 54.2436 73.1959 54.7728C74.6223 56.072 76.1475 57.2565 77.7578 58.3154C79.7383 59.6009 81.8295 60.7046 84.0061 61.613C86.1962 62.4907 88.4618 63.1638 90.7742 63.6238C92.6779 63.9913 94.6091 64.1963 96.547 64.2365C97.3654 64.2867 98.1063 64.2365 98.7588 64.2031C99.3138 64.19 99.8676 64.1453 100.418 64.0694C100.892 64.0433 101.363 63.9686 101.822 63.8466C101.822 63.7352 99.7984 63.9914 96.5581 63.8466C94.6613 63.7536 92.7741 63.5171 90.9124 63.1392C88.6477 62.6561 86.4279 61.9796 84.277 61.1172C82.1313 60.2209 80.0635 59.1458 78.0951 57.9032C76.4922 56.8774 74.9623 55.7402 73.5166 54.4999C71.0118 52.3609 69.6957 50.8068 69.6128 50.8793Z" fill="#455A64"/>
<path d="M94.9986 72.4859C94.9986 72.3522 92.9029 72.8758 89.5797 72.3522C85.2605 71.5878 81.255 69.5751 78.0507 66.5593C74.8903 63.4982 72.32 59.874 70.4697 55.8701C69.7343 54.3439 69.1979 53.085 68.8109 52.2049C68.6489 51.738 68.4453 51.2869 68.2026 50.8569C68.2892 51.3453 68.4263 51.8233 68.6118 52.2829C68.9159 53.1853 69.4025 54.4831 70.0993 56.0428C71.8732 60.1553 74.4428 63.8706 77.6581 66.9714C81.5287 70.5531 86.1182 72.3522 89.5023 72.7421C90.839 72.9259 92.1933 72.939 93.5333 72.7811C93.9052 72.7419 94.2745 72.6805 94.6392 72.5973C94.888 72.5416 95.0041 72.5026 94.9986 72.4859Z" fill="#263238"/>
<path d="M53.3833 89.7535C53.7484 89.7813 54.1103 89.6678 54.3952 89.436C54.7126 89.1531 54.93 88.7738 55.0145 88.3554C55.0678 88.083 55.0649 87.8025 55.006 87.5313C54.947 87.2601 54.8332 87.004 54.6717 86.779C54.2681 86.2151 53.766 85.73 53.1898 85.3475C52.4945 84.9002 51.8444 84.3853 51.2489 83.8101C50.924 83.473 50.6701 83.0733 50.5024 82.6348C50.337 82.1675 50.2877 81.6664 50.3587 81.1754C50.5455 80.1882 50.9458 79.2545 51.5309 78.4405C52.0911 77.6728 52.5364 76.8264 52.8525 75.9283C53.0659 75.0818 53.0176 74.1898 52.7142 73.3716C52.1613 71.7674 51.2157 70.4863 50.8121 69.2051C50.4116 68.2185 50.3417 67.1272 50.613 66.097C50.7006 65.8223 50.8333 65.5643 51.0056 65.3339C51.1328 65.1835 51.1991 65.1111 51.2102 65.1166C51.0263 65.4411 50.878 65.7848 50.7678 66.1415C50.5668 67.1403 50.6769 68.1771 51.083 69.1104C51.5033 70.3247 52.4765 71.578 53.0736 73.2547C53.4113 74.1439 53.4692 75.1162 53.2395 76.0397C52.9183 76.9804 52.4579 77.8668 51.8737 78.6689C51.3261 79.4347 50.9488 80.3106 50.7678 81.2367C50.7062 81.6583 50.7436 82.0886 50.8771 82.493C51.0106 82.8974 51.2364 83.2646 51.5364 83.565C52.1109 84.1296 52.7367 84.6387 53.4054 85.0857C54.0061 85.503 54.5238 86.0302 54.9316 86.6398C55.1051 86.8991 55.2233 87.192 55.2785 87.4998C55.3337 87.8076 55.3248 88.1237 55.2523 88.4278C55.1392 88.8842 54.8761 89.2886 54.5058 89.5753C54.2732 89.7589 53.9826 89.8519 53.6874 89.8371C53.5801 89.8395 53.4745 89.8105 53.3833 89.7535Z" fill="#263238"/>
<path d="M106.234 73.9842C106.216 73.827 106.216 73.6681 106.234 73.5108C106.234 73.2044 106.29 72.7477 106.301 72.1628C106.369 70.5155 106.338 68.8655 106.207 67.222C106.021 64.7859 105.576 62.3768 104.879 60.0365C104.038 57.1713 102.758 54.4558 101.086 51.9876C100.21 50.7257 99.2053 49.559 98.0893 48.5063C97.0371 47.5353 95.9009 46.661 94.6941 45.8939C92.6353 44.604 90.4273 43.5733 88.1196 42.8247C86.5641 42.3113 84.9799 41.8909 83.3752 41.5658C82.8223 41.4377 82.3633 41.3709 82.0647 41.304C81.9096 41.2828 81.7575 41.2435 81.6113 41.1871C81.7688 41.1796 81.9265 41.1908 82.0813 41.2205C82.3855 41.2595 82.8389 41.304 83.4084 41.4043C85.0341 41.6618 86.6397 42.0341 88.2136 42.5183C90.5584 43.2475 92.8012 44.2751 94.8877 45.5764C96.1205 46.3464 97.281 47.2283 98.3547 48.2111C99.4972 49.2816 100.524 50.471 101.418 51.7592C103.117 54.2678 104.407 57.034 105.239 59.953C105.927 62.3116 106.35 64.7406 106.5 67.1942C106.608 68.8509 106.596 70.5133 106.466 72.1684C106.428 72.7532 106.356 73.2044 106.323 73.5108C106.312 73.6716 106.282 73.8305 106.234 73.9842V73.9842Z" fill="#455A64"/>
<path d="M105.156 103.1C105.043 103.041 104.939 102.966 104.846 102.877C104.564 102.645 104.303 102.387 104.067 102.108C103.184 101.078 102.553 99.8528 102.225 98.532C101.997 97.6227 101.911 96.683 101.971 95.7469C102.101 94.6845 102.329 93.6365 102.651 92.6165C102.917 91.5693 103.044 90.3216 102.264 89.4527C101.485 88.5837 100.268 88.1604 99.2948 87.1856C99.049 86.9349 98.8696 86.6261 98.773 86.2874C98.6764 85.9488 98.6657 85.5911 98.7419 85.2472C98.9327 84.6425 99.1866 84.06 99.4994 83.5093C99.7245 83.0009 99.8173 82.443 99.7689 81.8885C99.7205 81.3339 99.5326 80.8009 99.2229 80.3399C98.6674 79.4607 97.9638 78.686 97.1438 78.0505C96.4166 77.4727 95.7396 76.8335 95.12 76.1399C94.6518 75.6354 94.3153 75.0216 94.1406 74.3537C93.9659 73.6858 93.9585 72.9847 94.1192 72.3132C94.2205 71.9521 94.4107 71.6225 94.6722 71.3552C94.7573 71.2578 94.8606 71.1783 94.9763 71.1212C94.6453 71.4693 94.4042 71.8939 94.274 72.3578C94.1514 73.0003 94.1849 73.6631 94.3717 74.2897C94.5585 74.9162 94.8931 75.488 95.3468 75.9561C95.969 76.6229 96.644 77.2376 97.365 77.7943C98.2356 78.4409 98.9846 79.2388 99.5768 80.1505C99.8887 80.6613 100.097 81.2292 100.191 81.8215C100.277 82.4554 100.175 83.1009 99.8975 83.6764C99.6007 84.2073 99.358 84.7672 99.1732 85.3474C99.1115 85.6283 99.1229 85.9205 99.2062 86.1957C99.2895 86.4709 99.4419 86.7198 99.6487 86.9182C100.495 87.7927 101.778 88.2105 102.624 89.2076C103.04 89.7 103.276 90.3212 103.293 90.9677C103.303 91.5606 103.226 92.1518 103.066 92.7223C102.739 93.722 102.502 94.7491 102.358 95.7915C102.287 96.697 102.354 97.6081 102.557 98.493C102.845 99.7823 103.412 100.992 104.216 102.036C104.775 102.738 105.184 103.072 105.156 103.1Z" fill="#263238"/>
<path d="M131.991 94.0982C132.068 94.1985 131.991 94.5104 131.466 94.8223C131.083 95.0248 130.663 95.1425 130.232 95.1675C129.8 95.1924 129.369 95.1241 128.966 94.9672C128.367 94.767 127.82 94.436 127.363 93.998C127.087 93.7364 126.847 93.4385 126.649 93.1123C126.449 92.7761 126.284 92.4195 126.157 92.0484C125.692 90.4145 125.657 88.6866 126.058 87.0352C126.379 85.3642 126.837 83.6931 126.611 82.2895C126.384 80.8858 125.505 79.5044 124.122 78.0338C122.74 76.5633 120.937 75.0761 119.362 72.9706C117.808 70.8809 116.538 68.5918 115.585 66.1638C113.622 61.301 112.621 56.611 111.283 52.6506C110.193 49.1833 108.531 45.9257 106.367 43.0142C104.912 41.0871 103.076 39.4845 100.976 38.3074C100.213 37.923 99.5936 37.6 99.1623 37.405C98.731 37.2101 98.5043 36.9984 98.5209 36.848C98.5375 36.6976 98.8029 36.614 99.3171 36.5806C100.061 36.5439 100.806 36.6171 101.529 36.7979C104.209 37.5404 106.631 39.0197 108.524 41.0702C111.286 44.0355 113.428 47.5305 114.822 51.3471C116.448 55.5248 117.587 60.1703 119.362 64.5874C120.19 66.6948 121.271 68.6925 122.58 70.5364C123.78 72.2464 125.427 73.7114 126.943 75.4827C127.732 76.3793 128.416 77.3643 128.983 78.4182C129.564 79.5109 129.912 80.7137 130.006 81.9497C130.057 83.0507 129.931 84.1527 129.635 85.2138C129.392 86.1607 129.082 86.9795 128.872 87.7259C128.427 88.91 128.255 90.1804 128.369 91.4412C128.406 91.6784 128.466 91.9115 128.546 92.1375C128.614 92.3343 128.707 92.5216 128.823 92.6945C129.04 93.0199 129.318 93.2999 129.641 93.5189C130.868 94.3712 131.82 93.8476 131.991 94.0982Z" fill="#263238"/>
<path d="M82.7836 94.9949C82.7449 95.0729 82.3081 94.8891 81.5892 94.7777C80.6605 94.6187 79.7061 94.7285 78.8369 95.0943C77.9677 95.4601 77.2194 96.0669 76.679 96.8442C76.2477 97.4402 76.0763 97.8803 75.9934 97.8524C75.9104 97.8246 75.9602 97.3344 76.3362 96.6214C76.844 95.6951 77.6492 94.9701 78.6197 94.5653C79.5902 94.1605 80.6685 94.0999 81.6777 94.3933C82.4352 94.605 82.8168 94.9337 82.7836 94.9949Z" fill="#263238"/>
<path d="M86.0406 79.8775C86.1069 79.9109 86.0406 80.2228 85.7752 80.6573C85.4108 81.2128 84.9192 81.6717 84.3418 81.9956C83.7643 82.3194 83.1181 82.4985 82.4575 82.5177C81.9487 82.5177 81.6557 82.4008 81.6612 82.3284C81.6612 82.1612 82.8556 82.1835 84.0721 81.4873C85.2886 80.791 85.9023 79.7939 86.0406 79.8775Z" fill="#EB996E"/>
<path d="M63.9723 85.6704C64.022 85.7206 63.8838 85.9935 63.5078 86.3054C63.0051 86.7011 62.4085 86.9576 61.777 87.0494C61.1456 87.1413 60.5014 87.0653 59.9081 86.829C59.4602 86.6341 59.2445 86.4113 59.2832 86.35C59.3606 86.1996 60.3891 86.6842 61.6941 86.4781C62.9991 86.272 63.8561 85.5757 63.9723 85.6704Z" fill="#EB996E"/>
<path d="M58.6588 97.5239C58.5759 97.5239 58.3492 96.4098 57.9953 94.5661C57.6414 92.7224 57.1437 90.2047 56.53 87.4252C55.9162 84.6456 55.2969 82.1446 54.8711 80.3343C54.4453 78.524 54.1467 77.3988 54.2297 77.3766C54.3126 77.3543 54.7163 78.4349 55.2637 80.2285C55.8111 82.0221 56.4968 84.5119 57.1161 87.3082C57.7354 90.1044 58.1667 92.65 58.4211 94.5048C58.6754 96.3597 58.7362 97.5127 58.6588 97.5239Z" fill="#EB996E"/>
<path d="M91.2107 80.4011C90.9639 80.1265 90.6518 79.9195 90.3039 79.7995C89.3236 79.4142 88.2472 79.3518 87.2295 79.6213L87.5723 79.8274L88.8054 81.0417C89.1508 81.4402 89.5873 81.748 90.0772 81.9385C90.3237 82.0272 90.5935 82.0249 90.8385 81.9321C91.0835 81.8393 91.2879 81.662 91.4153 81.4316C91.4744 81.2569 91.4866 81.0696 91.4506 80.8886C91.4147 80.7077 91.332 80.5395 91.2107 80.4011V80.4011Z" fill="#AEC2FC"/>
<path d="M90.6576 84.679C90.6451 84.3659 90.5538 84.0611 90.3922 83.7933C89.9649 83.0066 89.3008 82.3767 88.4956 81.9941L88.6062 82.3172L88.75 83.7822C88.7584 84.2303 88.8741 84.6698 89.0873 85.0633C89.2004 85.2554 89.3774 85.401 89.5868 85.4744C89.7963 85.5478 90.0248 85.5443 90.2319 85.4644C90.3657 85.3833 90.4756 85.2678 90.5505 85.1298C90.6253 84.9918 90.6623 84.8362 90.6576 84.679Z" fill="#AEC2FC"/>
<path d="M80.5207 126.186C80.6779 126.163 80.4666 123.72 80.0488 120.729C79.6309 117.737 79.1646 115.33 79.0074 115.353C78.8501 115.375 79.0614 117.818 79.4793 120.81C79.8972 123.801 80.3634 126.208 80.5207 126.186Z" fill="#EB996E"/>
<path d="M130.786 229.286L128.358 188.897L139.655 144.892L133.97 126.238C133.97 126.238 89.7842 130.299 87.5835 130.527C80.5112 131.251 70.1711 115.098 70.1711 115.098H64.4259C64.4259 115.098 58.7803 114.329 53.2674 119.264C47.7544 124.199 38.1718 132.488 38.1718 132.488L45.3602 118.323L24.0439 108.413C24.0439 108.413 11.2542 131.251 7.74294 139.289C5.42055 144.592 1.79319 153.938 10.0819 162.89C15.1525 168.365 30.1209 170.281 34.9647 168.677C38.2824 167.563 48.7885 161.753 55.1916 158.15C55.2414 159.002 55.3188 159.821 55.4294 160.623C57.7131 177.205 60.876 187.153 60.876 187.153L55.1142 229.286H130.786Z" fill="#AEC2FC"/>
<path d="M37.0161 136.032C41.6996 126.367 45.3807 118.476 45.238 118.405C45.0953 118.335 41.1829 126.113 36.4993 135.778C31.8158 145.443 28.1347 153.334 28.2774 153.405C28.4201 153.475 32.3326 145.697 37.0161 136.032Z" fill="#263238"/>
<path d="M61.8489 188.178C61.5719 187.585 61.3408 186.97 61.1578 186.34C60.743 185.143 60.1956 183.399 59.5542 181.227C58.2714 176.888 56.712 170.822 55.4126 164.032C54.1132 157.242 53.328 151.025 52.9133 146.513C52.7031 144.285 52.5704 142.431 52.5151 141.166C52.4519 140.513 52.439 139.855 52.4764 139.2C52.6127 139.842 52.6996 140.494 52.7363 141.149C52.8635 142.408 53.057 144.23 53.2893 146.474C53.8035 150.964 54.6551 157.153 55.949 163.926C57.2429 170.699 58.7137 176.737 59.9191 181.121C60.5053 183.304 61.0251 185.065 61.3458 186.279C61.5617 186.898 61.7299 187.533 61.8489 188.178V188.178Z" fill="#263238"/>
<path d="M133.971 126.238C133.971 126.238 144.654 133.858 147.241 143.89C149.829 153.922 163.399 229.286 163.399 229.286H139.677L122.69 167.457L133.971 126.238Z" fill="#455A64"/>
<path d="M132.267 170.242C132.013 170.338 131.75 170.409 131.482 170.454C130.962 170.566 130.205 170.761 129.21 170.928C126.406 171.445 123.576 171.8 120.733 171.992C116.515 172.279 112.283 172.279 108.065 171.992C102.899 171.645 97.7591 170.973 92.6762 169.981C81.8605 167.858 72.3442 164.806 65.5042 162.55C62.0814 161.436 59.3277 160.456 57.4311 159.765L55.247 158.974C54.9889 158.894 54.739 158.79 54.5005 158.662C54.7679 158.704 55.0309 158.771 55.2857 158.863L57.4975 159.553L65.6258 162.149C72.4935 164.305 82.0042 167.285 92.7812 169.39C97.8381 170.382 102.949 171.07 108.087 171.451C112.283 171.759 116.494 171.798 120.694 171.568C124.283 171.362 127.169 171.011 129.16 170.694C130.155 170.56 130.924 170.398 131.449 170.326C131.719 170.272 131.993 170.244 132.267 170.242Z" fill="white"/>
<path d="M152.71 173.685C152.71 173.785 151.14 173.83 148.64 174.18C148.015 174.27 147.33 174.375 146.605 174.526C145.881 174.676 145.107 174.843 144.294 175.033C140.781 175.912 137.396 177.247 134.225 179.004C133.501 179.422 132.804 179.806 132.185 180.213C131.565 180.62 130.979 180.993 130.459 181.327C128.386 182.775 127.202 183.822 127.142 183.744C127.359 183.442 127.615 183.17 127.905 182.937C128.159 182.686 128.458 182.38 128.878 182.073C129.298 181.767 129.707 181.366 130.227 180.993C130.747 180.62 131.3 180.191 131.936 179.784C132.572 179.377 133.246 178.949 133.976 178.514C137.163 176.677 140.6 175.32 144.178 174.487C145.002 174.309 145.787 174.13 146.528 174.025C147.269 173.919 147.96 173.813 148.596 173.746C149.232 173.679 149.807 173.646 150.31 173.618C150.813 173.59 151.25 173.579 151.61 173.584C151.979 173.568 152.349 173.601 152.71 173.685V173.685Z" fill="white"/>
<path d="M47.334 161.33C47.2345 161.33 47.052 159.904 46.5046 157.643C46.1804 156.324 45.7892 155.022 45.3324 153.744C44.2103 150.608 42.682 147.636 40.7871 144.904C40.0131 143.788 39.1825 142.714 38.2988 141.684C36.7838 139.93 35.7276 138.949 35.794 138.899C36.0934 139.062 36.3673 139.268 36.6068 139.512C36.8612 139.718 37.1598 139.985 37.4915 140.314C37.8233 140.642 38.2159 140.999 38.5974 141.428C39.5495 142.433 40.436 143.499 41.2516 144.62C43.2263 147.361 44.7809 150.386 45.8632 153.593C46.305 154.898 46.6633 156.23 46.9359 157.581C47.0686 158.138 47.135 158.695 47.2069 159.147C47.2788 159.598 47.323 160.01 47.3451 160.333C47.389 160.664 47.3853 161 47.334 161.33V161.33Z" fill="white"/>
<path d="M200.043 92.4662C200.662 88.6172 199.08 84.8072 198.085 81.0362C196.642 75.5385 196.426 69.7956 196.166 64.114C195.906 58.4325 195.514 52.6785 193.733 47.2754C191.953 41.8723 188.596 36.7868 183.631 34.0741C178.665 31.3614 171.975 31.5118 167.794 35.3385L171.234 49.6873C170.95 70.3426 173.019 90.9625 177.399 111.143C183.572 111.616 189.778 111.356 195.89 110.369C197.14 110.168 198.583 109.784 199.069 108.603C199.661 107.171 198.45 105.695 197.875 104.253C197.123 102.359 197.504 100.198 198.151 98.2703C198.798 96.343 199.716 94.4882 200.043 92.4662Z" fill="#263238"/>
<path d="M176.41 38.3854C174.483 36.7148 172.177 35.5478 169.697 34.9876C168.7 34.6947 167.639 34.7083 166.65 35.0266C165.693 35.4109 164.919 36.4358 165.129 37.4496L171.765 45.5263C173.026 46.5457 174.928 46.2226 176.321 45.3927C177.399 44.7465 178.367 43.7216 178.533 42.4906C178.738 40.8975 177.621 39.4381 176.41 38.3854Z" fill="#274DED"/>
<path d="M133.468 66.4368C133.6 53.9986 143.321 43.2983 155.873 42.6855C169.188 42.0394 180.203 52.3943 180.396 65.4286L179.844 117.966C179.827 118.98 179.477 119.96 178.848 120.752C175.486 125.024 169.713 128.149 164.737 128.488C159.91 128.817 155.154 127.224 151.25 124.662C150.602 124.231 150.077 123.635 149.73 122.935C149.382 122.235 149.224 121.455 149.271 120.674L149.868 108.971C149.87 108.96 149.869 108.95 149.866 108.939C149.863 108.929 149.858 108.92 149.851 108.912C149.844 108.904 149.836 108.898 149.826 108.893C149.817 108.889 149.807 108.887 149.796 108.887C148.704 108.892 147.615 108.784 146.545 108.564C143.52 107.589 135.895 104.002 134.076 92.2267C133.473 88.3108 133.346 77.3432 133.468 66.4368Z" fill="#FFBE9D"/>
<path d="M149.348 84.7515C149.348 84.6345 148.082 84.4173 146.031 84.1499C145.478 84.0942 145.008 83.994 144.925 83.6375C144.883 83.0981 145.009 82.5591 145.284 82.0945L146.86 78.1286C149.072 72.486 150.642 67.846 150.415 67.7625C150.189 67.6789 148.204 72.1852 146.031 77.8278L144.515 81.816C144.311 82.4065 143.962 83.0805 144.233 83.8603C144.31 84.0453 144.427 84.2103 144.577 84.3425C144.726 84.4748 144.904 84.5709 145.096 84.6234C145.387 84.7014 145.686 84.7425 145.986 84.7459C148.043 84.8573 149.343 84.8685 149.348 84.7515Z" fill="#263238"/>
<path d="M139.677 75.4326C139.674 75.9297 139.864 76.4082 140.207 76.7654C140.551 77.1226 141.019 77.3301 141.513 77.3432C141.754 77.3645 141.998 77.3371 142.229 77.2627C142.46 77.1883 142.675 77.0682 142.859 76.9096C143.044 76.751 143.196 76.5569 143.305 76.3388C143.415 76.1206 143.48 75.8826 143.498 75.6387C143.502 75.1416 143.313 74.6624 142.971 74.3042C142.629 73.9459 142.161 73.7371 141.667 73.7226C141.425 73.7005 141.18 73.7274 140.948 73.8019C140.716 73.8763 140.501 73.9967 140.315 74.1559C140.13 74.3152 139.978 74.5102 139.868 74.7294C139.759 74.9486 139.693 75.1877 139.677 75.4326V75.4326Z" fill="#263238"/>
<path d="M137.15 68.8654C137.36 69.1884 138.931 67.9909 140.988 68.1524C143.045 68.3139 144.427 69.673 144.681 69.3834C144.803 69.2553 144.615 68.6927 144.018 68.0577C143.241 67.2618 142.203 66.7785 141.098 66.6986C139.988 66.6284 138.89 66.9647 138.007 67.6455C137.316 68.1969 137.051 68.7317 137.15 68.8654Z" fill="#263238"/>
<path d="M159.207 76.1958C159.204 76.6929 159.395 77.1714 159.738 77.5286C160.081 77.8858 160.55 78.0933 161.043 78.1064C161.285 78.1277 161.528 78.1003 161.759 78.0259C161.991 77.9515 162.205 77.8314 162.39 77.6728C162.574 77.5142 162.726 77.3201 162.836 77.102C162.945 76.8838 163.011 76.6458 163.028 76.4019C163.033 75.9047 162.843 75.4256 162.501 75.0674C162.159 74.7091 161.691 74.5003 161.198 74.4857C160.955 74.4637 160.71 74.4906 160.478 74.565C160.246 74.6395 160.031 74.7598 159.845 74.9191C159.66 75.0784 159.508 75.2734 159.398 75.4926C159.289 75.7118 159.224 75.9509 159.207 76.1958Z" fill="#263238"/>
<path d="M156.586 69.105C156.857 69.3946 158.361 67.9909 160.584 67.8517C162.807 67.7124 164.488 68.871 164.72 68.5479C164.831 68.4031 164.549 67.8684 163.808 67.3336C162.839 66.6469 161.666 66.3159 160.485 66.396C159.303 66.4761 158.184 66.9625 157.316 67.7737C156.664 68.4143 156.453 68.9768 156.586 69.105Z" fill="#263238"/>
<path d="M149.873 108.876C149.873 108.876 157.819 109.528 167.8 103.618C167.8 103.618 164.604 114.023 149.674 112.63L149.873 108.876Z" fill="#EB996E"/>
<path d="M154.053 61.2844C154.241 61.8414 156.304 61.6186 158.715 61.9528C161.126 62.287 163.061 62.9722 163.393 62.5099C163.542 62.2759 163.216 61.7467 162.436 61.1953C161.401 60.5042 160.219 60.0691 158.986 59.9253C157.753 59.7543 156.497 59.8764 155.32 60.2818C154.429 60.5937 153.976 61.0226 154.053 61.2844Z" fill="#263238"/>
<path d="M136.851 64.2087C137.294 64.6599 138.969 64.1307 140.998 64.0472C143.028 63.9636 144.753 64.2477 145.135 63.752C145.3 63.5124 145.018 63.0557 144.261 62.6379C143.209 62.1195 142.039 61.8908 140.871 61.9751C139.706 62.0169 138.572 62.3706 137.587 63C136.885 63.5069 136.658 63.9859 136.851 64.2087Z" fill="#263238"/>
<path d="M154.225 39.9451C155.425 38.1849 157.482 37.4831 159.755 37.3048C168.95 36.564 178.721 42.797 183.277 50.8738C187.833 58.9505 187.303 70.4808 182.978 78.6856L179.528 79.0477C172.45 78.1175 161.889 57.324 152.693 45.5988C151.527 44.1394 153.186 41.4713 154.225 39.9451Z" fill="#263238"/>
<path d="M136.392 44.7187C140.501 40.6302 147.059 35.7452 154.745 39.338C155.751 41.6496 153.208 44.3511 151.134 45.9275C148.098 48.2001 145.477 49.6929 143.47 51.3305C139.417 54.6448 134.297 60.2428 133.467 66.7766C133.418 67.1888 133.097 67.2222 132.693 67.1331C132.14 67.0106 131.128 64.2422 130.752 60.6327C129.939 52.9292 132.284 48.8128 136.392 44.7187Z" fill="#263238"/>
<path d="M177.538 74.7085C177.759 74.6083 186.385 71.8566 186.307 80.7967C186.23 89.7369 177.327 87.804 177.311 87.5478C177.294 87.2916 177.538 74.7085 177.538 74.7085Z" fill="#FFBE9D"/>
<path d="M180.042 84.1834C180.081 84.1555 180.197 84.2948 180.457 84.4173C180.824 84.5784 181.238 84.5904 181.613 84.4508C182.553 84.111 183.36 82.6237 183.415 81.0084C183.445 80.2443 183.305 79.4832 183.006 78.7803C182.926 78.5 182.78 78.2435 182.579 78.033C182.379 77.8224 182.131 77.6641 181.856 77.5716C181.679 77.5218 181.49 77.5363 181.322 77.6127C181.154 77.689 181.018 77.8224 180.938 77.9894C180.817 78.24 180.872 78.4183 180.822 78.435C180.772 78.4517 180.634 78.2846 180.706 77.9169C180.757 77.6959 180.882 77.4993 181.06 77.3599C181.306 77.1771 181.614 77.0991 181.917 77.1427C182.281 77.2188 182.62 77.3879 182.901 77.6337C183.181 77.8795 183.395 78.1937 183.521 78.5464C183.891 79.3235 184.068 80.1802 184.035 81.0418C183.963 82.841 183.028 84.5176 181.74 84.8797C181.501 84.9466 181.251 84.9588 181.007 84.9155C180.763 84.8721 180.532 84.7742 180.33 84.629C180.07 84.4006 180.042 84.2001 180.042 84.1834Z" fill="#EB996E"/>
<path d="M134.479 46.412C134.479 46.4789 135.442 46.7072 137.045 46.8911C141.233 47.3349 145.465 47.0428 149.553 46.0277C151.118 45.6266 152.047 45.2701 152.03 45.2033C152.014 45.1365 151.04 45.3481 149.47 45.6489C145.388 46.4422 141.224 46.7303 137.073 46.5067C135.48 46.4176 134.491 46.3285 134.479 46.412Z" fill="#455A64"/>
<path d="M131.167 52.6561C131.759 52.9645 132.405 53.1537 133.069 53.2131C136.265 53.728 139.541 53.1826 142.403 51.659C143.014 51.3869 143.566 50.9971 144.029 50.5116C143.946 50.3501 141.402 52.0768 137.769 52.6561C134.136 53.2354 131.195 52.4779 131.167 52.6561Z" fill="#455A64"/>
<path d="M184.228 53.9764C184.228 53.865 182.298 54.1045 179.207 53.8594C177.402 53.7103 175.61 53.431 173.844 53.0239C171.687 52.4982 169.568 51.8264 167.501 51.0131C165.443 50.1727 163.44 49.2035 161.502 48.111C159.926 47.2081 158.401 46.2169 156.935 45.1421C154.43 43.2984 153.064 41.9392 152.981 42.0172C153.253 42.3835 153.562 42.7197 153.904 43.0199C154.277 43.4016 154.668 43.7641 155.077 44.106C155.547 44.5182 156.077 44.9861 156.708 45.454C158.156 46.5867 159.676 47.623 161.259 48.5566C163.21 49.6866 165.237 50.6786 167.324 51.5255C169.418 52.35 171.569 53.0166 173.761 53.5196C175.556 53.9103 177.379 54.1543 179.213 54.2493C179.916 54.2884 180.622 54.2884 181.325 54.2493C181.858 54.2533 182.39 54.2217 182.918 54.1546C183.359 54.141 183.799 54.0813 184.228 53.9764V53.9764Z" fill="#455A64"/>
<path d="M153.407 45.1698C153.577 45.6158 153.792 46.0432 154.048 46.4454C154.311 46.9391 154.599 47.4188 154.911 47.8825C155.276 48.4395 155.657 49.069 156.166 49.7151C157.306 51.2732 158.565 52.7389 159.932 54.0988C161.617 55.7574 163.448 57.2599 165.4 58.5884C167.373 59.8928 169.461 61.0115 171.638 61.9305C173.418 62.6634 175.257 63.2447 177.134 63.6684C177.925 63.8801 178.666 63.9636 179.307 64.0806C179.856 64.1808 180.409 64.2496 180.966 64.2867C181.436 64.3556 181.912 64.3761 182.387 64.348C182.387 64.2365 180.38 64.0862 177.228 63.2896C175.388 62.8174 173.586 62.2067 171.837 61.4626C169.703 60.5266 167.654 59.4085 165.71 58.1205C163.784 56.8101 161.969 55.34 160.285 53.7256C158.919 52.398 157.646 50.976 156.476 49.47C154.485 46.8966 153.501 45.1141 153.407 45.1698Z" fill="#455A64"/>
<path d="M159.738 37.2992C159.738 37.2435 159.052 37.1098 157.952 37.3271C156.522 37.6567 155.217 38.3934 154.192 39.4493C153.897 39.7515 153.632 40.0817 153.401 40.4352C153.198 40.7723 153.033 41.131 152.909 41.5047C152.66 42.1037 152.46 42.7222 152.312 43.354C152.074 44.468 152.312 45.1699 152.351 45.1532C152.389 45.1365 152.351 44.468 152.688 43.4543C152.886 42.8569 153.116 42.2711 153.379 41.6997C153.504 41.361 153.664 41.0363 153.855 40.7305C154.074 40.4125 154.32 40.1143 154.59 39.8392C155.556 38.8579 156.744 38.1277 158.051 37.7114C159.063 37.4051 159.738 37.3939 159.738 37.2992Z" fill="#455A64"/>
<path d="M174.004 71.4388C174.004 71.3052 171.869 71.3998 168.718 70.219C164.639 68.6029 161.114 65.8279 158.571 62.2313C156.08 58.5984 154.279 54.5324 153.257 50.2388C152.837 48.5956 152.56 47.2476 152.378 46.3396C152.311 45.8497 152.2 45.3668 152.046 44.897C152.035 45.3938 152.076 45.8904 152.168 46.3786C152.29 47.3256 152.505 48.6903 152.881 50.3613C153.803 54.7572 155.587 58.9234 158.129 62.6157C161.198 66.8992 165.356 69.584 168.591 70.6479C169.864 71.096 171.189 71.3805 172.533 71.4945C172.901 71.5292 173.27 71.5423 173.639 71.5335C173.871 71.4723 174.004 71.4611 174.004 71.4388Z" fill="#263238"/>
<path d="M129.801 80.0058C130.152 80.106 130.528 80.0682 130.852 79.9C131.219 79.6881 131.509 79.3616 131.676 78.9697C131.786 78.7149 131.843 78.44 131.843 78.1621C131.843 77.8841 131.786 77.6092 131.676 77.3544C131.391 76.719 130.994 76.1414 130.504 75.6499C129.91 75.071 129.375 74.4348 128.906 73.7505C128.654 73.3542 128.485 72.9109 128.408 72.4471C128.339 71.9556 128.39 71.4546 128.557 70.9877C128.936 70.0574 129.514 69.2225 130.249 68.5424C130.95 67.9031 131.553 67.1636 132.041 66.3477C132.417 65.5623 132.546 64.6802 132.411 63.8189C132.196 62.1478 131.515 60.6884 131.372 59.3627C131.175 58.3155 131.322 57.232 131.792 56.2769C131.937 56.0241 132.124 55.7981 132.345 55.6084C132.5 55.4859 132.583 55.4302 132.588 55.4413C132.344 55.7218 132.131 56.0281 131.952 56.3548C131.559 57.2923 131.463 58.329 131.676 59.3237C131.847 60.5993 132.549 62.0197 132.782 63.7799C132.942 64.7262 132.807 65.6993 132.395 66.565C131.894 67.4217 131.267 68.1973 130.537 68.8655C129.845 69.5034 129.298 70.2843 128.933 71.1548C128.79 71.5554 128.742 71.9842 128.792 72.407C128.843 72.8297 128.992 73.2345 129.226 73.589C129.676 74.2575 130.187 74.8822 130.752 75.455C131.25 75.9659 131.651 76.5644 131.936 77.2207C132.054 77.5096 132.112 77.8201 132.106 78.1327C132.099 78.4453 132.028 78.7531 131.897 79.0366C131.696 79.4609 131.359 79.8044 130.94 80.0114C130.675 80.1463 130.371 80.1799 130.083 80.1061C129.982 80.0994 129.884 80.0647 129.801 80.0058Z" fill="#263238"/>
<path d="M184.72 75.1708C184.734 75.0136 184.765 74.8584 184.814 74.7085C184.881 74.4077 185.019 73.9732 185.146 73.4051C185.539 71.8038 185.834 70.1798 186.031 68.5423C186.322 66.1167 186.354 63.6666 186.125 61.2342C185.867 58.2571 185.151 55.3386 184.001 52.5838C183.391 51.1701 182.637 49.8242 181.751 48.5677C180.912 47.4049 179.972 46.32 178.942 45.3258C177.186 43.6558 175.234 42.208 173.13 41.0145C171.7 40.1972 170.223 39.4663 168.707 38.8254C168.154 38.5859 167.75 38.43 167.474 38.3074C167.324 38.2556 167.181 38.1865 167.048 38.1013C167.203 38.126 167.356 38.169 167.501 38.2294C167.789 38.3297 168.226 38.4634 168.768 38.6806C170.309 39.2682 171.808 39.9643 173.252 40.7639C175.409 41.9384 177.408 43.3853 179.202 45.0696C180.257 46.0727 181.22 47.1709 182.077 48.3504C182.985 49.6278 183.756 50.9982 184.377 52.4389C185.544 55.2327 186.261 58.1962 186.501 61.2175C186.706 63.676 186.635 66.1499 186.291 68.5924C186.068 70.2378 185.728 71.8648 185.273 73.4608C185.124 74.0178 184.963 74.4578 184.869 74.7475C184.835 74.8937 184.785 75.0357 184.72 75.1708Z" fill="#455A64"/>
<path d="M177.897 103.484C177.897 103.484 177.797 103.395 177.637 103.2C177.407 102.914 177.204 102.609 177.029 102.286C176.36 101.093 175.981 99.7567 175.923 98.3873C175.879 97.4487 175.982 96.5089 176.227 95.6022C176.564 94.5877 176.993 93.6068 177.51 92.6723C177.974 91.7031 178.345 90.5055 177.759 89.4918C177.173 88.478 176.056 87.8207 175.298 86.6733C175.102 86.3797 174.982 86.041 174.95 85.6886C174.918 85.3362 174.975 84.9813 175.116 84.6569C175.428 84.1025 175.799 83.5834 176.221 83.1084C176.543 82.6548 176.744 82.1263 176.806 81.5727C176.868 81.019 176.788 80.4586 176.575 79.9445C176.204 78.9707 175.667 78.0696 174.988 77.2819C174.398 76.5654 173.869 75.7995 173.407 74.9926C173.047 74.404 172.837 73.7344 172.798 73.044C172.758 72.3537 172.89 71.6643 173.18 71.0378C173.35 70.7036 173.601 70.4181 173.91 70.2078C174.012 70.1281 174.128 70.0694 174.253 70.0352C173.859 70.3094 173.539 70.6766 173.318 71.1046C173.072 71.7089 172.973 72.3643 173.032 73.0151C173.091 73.6659 173.305 74.2927 173.656 74.8422C174.133 75.628 174.673 76.3732 175.27 77.0703C175.98 77.8816 176.542 78.8132 176.929 79.8219C177.133 80.3871 177.223 80.9872 177.195 81.5877C177.155 82.2265 176.928 82.839 176.542 83.3479C176.147 83.8035 175.799 84.2981 175.503 84.824C175.387 85.0865 175.341 85.3746 175.368 85.6604C175.395 85.9463 175.495 86.2203 175.657 86.456C176.315 87.4809 177.488 88.1271 178.118 89.2968C178.43 89.8629 178.539 90.5197 178.428 91.1572C178.325 91.7384 178.139 92.3013 177.875 92.8283C177.357 93.7415 176.923 94.6997 176.575 95.6914C176.325 96.5652 176.209 97.4726 176.232 98.3818C176.267 99.7068 176.592 101.008 177.184 102.192C177.593 103.05 177.93 103.456 177.897 103.484Z" fill="#263238"/>
<path d="M205.97 100.058C206.026 100.17 205.865 100.454 205.312 100.666C204.898 100.787 204.462 100.817 204.035 100.755C203.607 100.692 203.198 100.538 202.835 100.303C202.288 99.9856 201.818 99.55 201.458 99.0279C201.239 98.7171 201.062 98.378 200.933 98.0197C200.805 97.6587 200.714 97.2854 200.662 96.9057C200.527 95.2064 200.836 93.5012 201.558 91.9594C202.205 90.383 202.984 88.8289 203.051 87.4197C203.117 86.0104 202.498 84.4563 201.458 82.7519C200.419 81.0474 198.92 79.2148 197.792 76.8363C196.685 74.4775 195.894 71.9805 195.442 69.4113C194.48 64.2533 194.43 59.4574 193.905 55.3076C193.523 51.6921 192.54 48.1671 190.996 44.8803C189.951 42.7005 188.47 40.7622 186.645 39.1876C185.97 38.6305 185.434 38.2183 185.041 37.9398C184.649 37.6613 184.488 37.4107 184.521 37.277C184.555 37.1433 184.848 37.1099 185.356 37.1712C186.094 37.2842 186.811 37.5057 187.485 37.8284C189.962 39.0882 192.043 41.0167 193.496 43.3986C195.615 46.8593 197.022 50.7142 197.632 54.7339C198.395 59.1566 198.572 63.9358 199.457 68.6203C199.845 70.8477 200.5 73.0193 201.408 75.0873C202.243 77.0035 203.57 78.7692 204.726 80.8079C205.321 81.8452 205.796 82.9479 206.142 84.0943C206.495 85.2814 206.599 86.5297 206.446 87.7595C206.277 88.8489 205.935 89.904 205.434 90.8843C205.008 91.7588 204.566 92.5052 204.19 93.1904C203.519 94.2622 203.099 95.4736 202.962 96.733C202.951 96.973 202.962 97.2136 202.995 97.4516C203.024 97.6525 203.078 97.849 203.156 98.0364C203.303 98.3996 203.519 98.7306 203.792 99.0112C204.82 100.097 205.86 99.7743 205.97 100.058Z" fill="#263238"/>
<path d="M156.935 89.6366C156.935 89.8149 155.115 89.8539 152.964 90.3663C150.814 90.8788 149.221 91.7366 149.133 91.5973C149.044 91.4581 150.576 90.3273 152.832 89.8037C155.088 89.2801 156.946 89.4751 156.935 89.6366Z" fill="#263238"/>
<path d="M137.531 118.334L154.971 116.869L179.837 117.972L196.454 121.03L170.05 136.515L150.409 133.975L137.531 118.334Z" fill="#FFBE9D"/>
<path d="M137.288 118.34C137.288 118.34 123.464 121.559 118.798 126.261C114.131 130.962 109.287 147.778 108.291 152.73C107.296 157.682 104.117 199.486 106.08 205.424C108.043 211.362 115.679 216.308 124.747 218.285C133.816 220.263 149.077 221.75 149.077 221.75L156.691 197.503L131.084 190.574L137.288 118.34Z" fill="#274DED"/>
<path d="M167.43 192.557L188.779 193.426C188.779 193.426 194.795 186.691 196.299 177.935C197.803 169.179 197.134 162.946 197.134 162.946L203.15 122.84C203.15 122.84 211.677 122.506 215.188 132.945C218.699 143.383 215.536 174.064 215.188 182.118C214.906 188.663 211.456 204.031 206.457 213.033C204.323 216.882 200.607 218.775 198.306 218.904C190.615 219.332 168.552 215.795 168.552 215.795L167.446 193.231" fill="#274DED"/>
<path d="M137.288 118.34C137.288 118.34 151.488 125.247 171.51 124.3C191.533 123.353 192.036 120.027 192.036 120.027L204.273 122.974L201.193 184.803L195.204 211.233L200.258 229.565L112.029 229.286L123.453 196.183L137.288 118.34Z" fill="#274DED"/>
<path d="M170.908 191.197C171.249 191.094 171.599 191.022 171.953 190.98C172.644 190.869 173.656 190.724 174.961 190.579C177.565 190.267 181.336 190.117 185.843 189.465L185.644 189.682C185.937 183.733 185.948 176.314 186.236 168.298C186.424 163.246 186.788 158.434 187.341 154.089C187.842 150.236 188.607 146.422 189.631 142.676C190.329 140.152 191.19 137.678 192.207 135.267C192.567 134.415 192.876 133.763 193.092 133.329C193.187 133.1 193.306 132.882 193.446 132.677C193.387 132.919 193.304 133.154 193.197 133.379C193.015 133.83 192.738 134.493 192.412 135.356C191.481 137.787 190.683 140.268 190.023 142.787C189.063 146.53 188.345 150.331 187.872 154.167C187.319 158.495 186.982 163.285 186.766 168.326C186.479 176.331 186.429 183.75 186.07 189.71V189.905H185.882C181.331 190.535 177.56 190.618 174.955 190.847C173.65 190.947 172.633 191.053 171.942 191.119C171.6 191.174 171.254 191.2 170.908 191.197V191.197Z" fill="#263238"/>
<path d="M125.643 170.476C125.526 170.087 125.457 169.685 125.439 169.279C125.345 168.505 125.24 167.379 125.14 165.987C124.941 163.202 124.808 159.342 124.913 155.086C125.018 150.83 125.35 146.976 125.688 144.207C125.853 142.821 126.014 141.706 126.152 140.938C126.191 140.533 126.28 140.134 126.417 139.751C126.454 140.156 126.441 140.564 126.379 140.966L126.097 144.252C125.864 147.037 125.599 150.858 125.494 155.103C125.389 159.347 125.455 163.191 125.549 165.97L125.665 169.268C125.707 169.67 125.7 170.076 125.643 170.476V170.476Z" fill="#263238"/>
<path d="M167.236 214.069C167.061 214.152 166.875 214.21 166.683 214.241C166.329 214.336 165.809 214.464 165.135 214.626C163.78 214.932 161.817 215.361 159.384 215.807C153.028 216.975 146.613 217.797 140.169 218.269C136.392 218.536 132.798 218.725 129.503 218.72C126.592 218.757 123.69 218.395 120.877 217.645C119.794 217.331 118.742 216.917 117.736 216.408C116.984 216.009 116.268 215.545 115.596 215.021L114.888 214.42C114.695 214.23 114.54 214.063 114.413 213.929C114.274 213.804 114.153 213.659 114.053 213.5C114.215 213.595 114.364 213.711 114.496 213.846L114.999 214.291L115.729 214.848C116.412 215.329 117.131 215.756 117.88 216.124C118.881 216.586 119.921 216.959 120.987 217.238C123.788 217.924 126.665 218.239 129.547 218.174C132.804 218.174 136.403 217.945 140.169 217.678C147.695 217.121 154.474 216.191 159.356 215.389C161.8 214.993 163.78 214.626 165.135 214.392C165.815 214.264 166.346 214.174 166.705 214.119C166.879 214.079 167.058 214.062 167.236 214.069V214.069Z" fill="#263238"/>
<path d="M191.179 196.021C191.013 196.077 190.438 194.105 188.795 192.3C187.153 190.496 185.29 189.688 185.367 189.515C185.367 189.448 185.92 189.549 186.65 189.916C188.612 190.916 190.133 192.616 190.919 194.684C191.201 195.481 191.25 196.005 191.179 196.021Z" fill="#263238"/>
<g opacity="0.3">
<path d="M107.429 196.239C112.14 199.681 117.144 203.24 122.911 203.864C126.998 204.304 131.101 203.235 135.203 203.352C140.656 203.508 145.848 205.758 150.559 208.532C155.27 211.306 159.649 214.631 164.449 217.249C169.647 220.09 175.353 222.09 181.248 222.569C187.142 223.048 193.225 221.95 198.345 218.965C191.156 219.834 181.613 219.561 174.103 217.11C165.743 214.381 164.311 212.175 159.506 209.468C153.279 205.959 147.794 201.085 141.175 198.416C135.557 196.162 129.408 195.607 123.481 196.818C120.523 197.425 117.365 198.455 114.6 197.236C113.373 196.679 112.344 195.743 111.1 195.241C109.856 194.74 108.148 194.891 107.523 196.088" fill="black"/>
</g>
<path d="M173.811 178.821C173.508 178.924 173.19 178.978 172.871 178.982C172.504 179.03 172.135 179.054 171.765 179.054C171.271 179.08 170.776 179.08 170.283 179.054C169.683 179.03 169.085 178.972 168.491 178.882C167.844 178.815 167.17 178.659 166.456 178.509C163.363 177.774 160.456 176.395 157.924 174.459C157.371 174.002 156.818 173.579 156.343 173.122C155.896 172.719 155.471 172.291 155.071 171.841C154.734 171.486 154.414 171.115 154.114 170.727C153.876 170.439 153.656 170.136 153.457 169.819C153.255 169.568 153.095 169.286 152.981 168.984C153.069 168.922 153.838 170.042 155.364 171.579C155.746 171.964 156.171 172.376 156.658 172.782C157.145 173.189 157.676 173.612 158.24 174.052C160.744 175.887 163.572 177.225 166.572 177.996C167.264 178.158 167.922 178.325 168.552 178.414C169.182 178.503 169.763 178.598 170.299 178.653C172.456 178.832 173.805 178.715 173.811 178.821Z" fill="#263238"/>
<path d="M211.422 200.784C211.319 201.478 211.143 202.16 210.897 202.817C210.493 204.109 209.88 205.964 209.023 208.226C208.566 209.469 208.044 210.687 207.458 211.874C206.259 214.111 204.512 216.003 202.382 217.367C200.253 218.732 197.812 219.526 195.293 219.672C191.839 219.824 188.378 219.684 184.947 219.255C181.79 218.876 178.97 218.363 176.62 217.84C174.27 217.316 172.401 216.781 171.118 216.369C170.476 216.169 170.012 215.99 169.652 215.868C169.477 215.82 169.31 215.746 169.155 215.651C169.839 215.78 170.514 215.949 171.179 216.157C172.472 216.503 174.353 216.971 176.708 217.439C179.064 217.907 181.867 218.374 185.002 218.725C188.405 219.12 191.833 219.243 195.254 219.093C198.655 218.903 201.878 217.504 204.35 215.144C205.424 214.121 206.338 212.939 207.06 211.64C207.655 210.478 208.192 209.286 208.669 208.07C209.57 205.842 210.245 204.003 210.709 202.739L211.262 201.28C211.297 201.109 211.35 200.942 211.422 200.784V200.784Z" fill="#263238"/>
<path d="M114.296 161.185C114.296 161.185 126.766 170.922 127.186 172.053C127.606 173.183 131.808 179.812 135.309 182.636C138.809 185.46 170.908 192.061 170.908 192.061L169.066 215.183C169.066 215.183 142.729 199.146 134.888 199.586C127.048 200.026 120.882 201.563 117.52 200.433C114.158 199.302 105.72 193.943 105.72 193.943C105.72 193.943 104.266 190.975 105.847 189.565C105.847 189.565 104.885 186.463 105.106 185.053C105.106 185.053 103.829 181.817 105.073 180.536C105.073 180.536 104.769 175.74 107.434 175.74C110.1 175.74 115.137 176.587 117.52 176.448C118.168 176.443 118.804 176.273 119.368 175.952C119.932 175.632 120.406 175.171 120.744 174.615C120.744 174.615 120.744 173.345 118.781 171.936C116.818 170.526 109.392 164.711 114.296 161.185Z" fill="#FFBE9D"/>
<path d="M112.029 185.148C111.974 185.288 110.138 184.625 108.159 183.305C106.179 181.984 104.808 180.575 104.913 180.464C105.018 180.352 106.511 181.539 108.474 182.82C110.437 184.101 112.123 184.992 112.029 185.148Z" fill="#EB996E"/>
<path d="M112.582 190.173C112.549 190.312 110.37 189.71 108.092 188.073C105.814 186.435 104.553 184.541 104.675 184.458C104.797 184.374 106.24 186.034 108.43 187.599C110.619 189.164 112.66 190.011 112.582 190.173Z" fill="#EB996E"/>
<path d="M113.174 194.116C113.174 194.261 111.034 193.927 108.839 192.523C106.644 191.12 105.405 189.365 105.521 189.287C105.637 189.209 107.02 190.713 109.137 192.033C111.255 193.353 113.224 193.944 113.174 194.116Z" fill="#EB996E"/>
<path d="M124.797 152.039C124.797 152.229 121.225 151.421 116.856 151.961C112.488 152.502 109.226 154.083 109.154 153.905C109.121 153.844 109.895 153.348 111.25 152.791C114.818 151.361 118.696 150.898 122.497 151.449C123.951 151.683 124.808 151.972 124.797 152.039Z" fill="white"/>
<path d="M185.6 156.317C185.415 156.406 185.22 156.472 185.019 156.512L183.321 156.963C182.58 157.158 181.663 157.381 180.612 157.604C179.561 157.827 178.35 158.111 177.001 158.35C175.652 158.59 174.187 158.874 172.578 159.108C170.969 159.342 169.288 159.576 167.496 159.798C163.907 160.2 159.943 160.511 155.779 160.64C151.615 160.768 147.634 160.64 144.029 160.456C142.226 160.328 140.512 160.227 138.92 160.049C137.327 159.871 135.834 159.721 134.496 159.542C133.158 159.364 131.925 159.169 130.852 158.985C129.779 158.801 128.861 158.651 128.087 158.495L126.368 158.139C126.164 158.11 125.966 158.055 125.776 157.977C125.982 157.966 126.188 157.981 126.39 158.022L128.126 158.267C128.878 158.384 129.785 158.523 130.891 158.657C131.997 158.79 133.18 158.98 134.54 159.113C135.9 159.247 137.377 159.431 138.964 159.548C140.551 159.665 142.281 159.787 144.062 159.899C147.656 160.066 151.615 160.144 155.768 160.038C159.921 159.932 163.863 159.615 167.446 159.247C169.232 159.035 170.935 158.852 172.517 158.612C174.098 158.373 175.575 158.155 176.94 157.927C178.306 157.699 179.495 157.465 180.557 157.27C181.618 157.075 182.536 156.885 183.277 156.713L184.997 156.367C185.195 156.326 185.397 156.309 185.6 156.317Z" fill="white"/>
<path d="M214.585 154.596C214.524 154.691 213.28 153.694 210.941 152.78C207.868 151.649 204.595 151.175 201.331 151.387C198.061 151.63 194.822 152.181 191.654 153.031C189.199 153.643 187.678 154.028 187.656 153.95C187.977 153.766 188.321 153.628 188.679 153.538C189.348 153.309 190.338 152.981 191.543 152.641C194.718 151.665 197.992 151.054 201.303 150.819C204.645 150.596 207.994 151.143 211.096 152.418C212.026 152.815 212.912 153.31 213.739 153.894C214.055 154.083 214.341 154.319 214.585 154.596V154.596Z" fill="white"/>
<g opacity="0.3">
<path d="M153.407 169.491L153.578 169.992C154.341 174.86 157.598 179.333 162.116 181.227C166.633 183.121 172.268 182.185 175.718 178.698C171.513 179.543 167.153 179.119 163.185 177.482C159.217 175.844 155.816 173.065 153.407 169.491V169.491Z" fill="black"/>
</g>
<g opacity="0.3">
<path d="M197.504 196.372C196.769 194.361 194.85 193.063 192.97 192.055C190.534 190.749 187.971 189.696 185.323 188.914L185.389 189.671C188.345 191.795 190.827 194.518 192.677 197.664C193.39 198.879 194.303 200.338 195.707 200.277C196.122 200.236 196.517 200.078 196.847 199.821C197.177 199.564 197.428 199.218 197.571 198.823C197.842 198.025 197.819 197.154 197.504 196.372V196.372Z" fill="black"/>
</g>
<line x1="1.15967" y1="228.666" x2="325.319" y2="228.666" stroke="#263238" stroke-width="1.5"/>
</svg>
