<svg width="329" height="341" viewBox="0 0 329 341" fill="none" xmlns="http://www.w3.org/2000/svg">
<g clip-path="url(#clip0_3_14671)">
<path d="M78.8085 86.4463C94.4414 72.9771 96.1676 49.4174 82.6642 33.8242C69.1607 18.2309 45.5411 16.5091 29.9083 29.9783C14.2755 43.4475 12.5492 67.0073 26.0527 82.6005C39.5561 98.1937 63.1757 99.9155 78.8085 86.4463Z" fill="#AEC2FC"/>
<path d="M44.1915 47.755H50.1139C50.11 47.0834 50.2414 46.4178 50.5002 45.7978C50.759 45.1778 51.14 44.616 51.6205 44.1456C52.1011 43.6752 52.6715 43.3058 53.2978 43.0594C53.9242 42.813 54.5938 42.6945 55.2669 42.711C56.2635 42.6755 57.2465 42.9509 58.079 43.4987C58.9114 44.0465 59.552 44.8396 59.9114 45.7676C60.2237 46.5419 60.3479 47.3789 60.2739 48.2103C60.1998 49.0417 59.9297 49.8438 59.4854 50.5511C58.4823 52.2095 56.2837 53.7035 52.285 53.0045V66.3271H58.1388V58.5145C60.5496 57.8143 62.6628 56.3427 64.1526 54.3266C65.6425 52.3105 66.4263 49.8617 66.3835 47.3575C66.3835 38.7088 58.6197 36.7076 55.2944 36.7076C52.7385 36.7213 44.0815 37.3381 44.1915 47.755Z" fill="#274DED"/>
<path d="M58.2346 69.0682H52.2847V74.6056H58.2346V69.0682Z" fill="#274DED"/>
<path d="M100.956 80.198C103.468 80.198 105.504 78.1668 105.504 75.6612C105.504 73.1556 103.468 71.1244 100.956 71.1244C98.4441 71.1244 96.4077 73.1556 96.4077 75.6612C96.4077 78.1668 98.4441 80.198 100.956 80.198Z" fill="#AEC2FC"/>
<path d="M126.093 362.49C160.664 374.363 206.091 380.326 229.389 357.452L221.843 184.074H133.747L126.093 362.49Z" fill="#FAFAFA"/>
<path d="M179.021 287.005C186.66 280.137 192.747 274.454 192.617 274.311C192.488 274.168 186.191 279.62 178.553 286.488C170.915 293.356 164.828 299.04 164.957 299.182C165.086 299.325 171.383 293.873 179.021 287.005Z" fill="#263238"/>
<path opacity="0.3" d="M159.857 371.067C159.857 371.067 162.077 225.469 159.144 218.367C156.212 211.264 145.692 368.95 146.647 368.95L159.857 371.067Z" fill="black"/>
<path d="M123.362 220.846L118.95 294.268L115.722 367.971C125.286 375.248 138.307 379.04 153.844 380.273L159.924 231.258V174.145L158.848 173.421L151.423 179.813L149.728 179.987C148.544 177.548 146.661 178.46 146.661 178.46C146.352 177.899 145.835 177.481 145.221 177.294C144.68 177.231 144.131 177.305 143.626 177.509C143.121 177.713 142.675 178.04 142.329 178.46L140.984 177.012C138.778 176.383 137.514 179.103 137.514 179.103C118.103 181.247 115.48 192.611 112.439 199.82L123.362 220.846Z" fill="#274DED"/>
<path d="M129.052 222.28C128.851 222.896 127.196 264.237 127.196 264.237C127.196 264.237 131.743 268.967 130.088 275.132C128.434 281.296 125.42 295.527 117.228 296.157C105.74 297.028 94.9925 290.355 95.2078 269.785C95.423 249.215 112.224 199.82 112.224 199.82L131.985 213.784L129.052 222.28Z" fill="#274DED"/>
<path d="M195.437 171.397C195.437 171.397 202.298 175.833 204.288 179.063H209.252C210.126 178.969 211.055 177.977 212.171 178.017C212.83 178.017 213.637 179.049 214.364 179.116C215.09 179.183 215.494 178.071 216.139 178.151C217.485 178.326 218.547 179.25 220.014 179.612C225.569 180.952 231.744 182.855 234.649 184.972C242.169 190.333 244.698 199.874 244.698 199.874C244.698 199.874 224.385 221.703 225.798 222.735C227.21 223.767 226.443 278.482 226.443 278.482C226.443 278.482 233.963 361.861 231.945 364.541C229.928 367.221 209.763 379.469 190.783 378.397C190.783 378.397 190.164 367.81 191.751 342.912C194.119 305.484 193.85 291.99 194.522 278.589C195.599 256.853 194.334 215.847 194.522 209.04C194.697 204.068 194.966 171.572 195.437 171.397Z" fill="#274DED"/>
<g opacity="0.3">
<path d="M223.511 264.585C220.16 270.151 218.797 276.683 219.645 283.118C220.492 289.553 223.5 295.514 228.179 300.03V291.534L224.143 266.542L223.511 264.585Z" fill="black"/>
</g>
<path d="M244.711 199.793C244.711 199.793 251.813 253.168 255.472 258.086C259.131 263.004 257.947 269.973 256.992 276.74C255.943 284.15 252.23 301.745 238.16 300.539C230.748 299.91 226.349 294.563 223.82 286.589C219.435 272.76 225.165 256.425 225.165 252.672C225.165 248.92 220.699 220.926 221.224 219.452C221.749 217.978 244.711 199.793 244.711 199.793Z" fill="#274DED"/>
<path d="M159.628 209.16C159.325 208.809 159.059 208.427 158.835 208.021C158.166 206.958 157.396 205.962 156.534 205.046C155.941 204.423 155.25 203.898 154.49 203.492C153.596 203.063 152.628 202.808 151.638 202.741C149.296 202.512 146.941 203.028 144.912 204.216L144.132 204.671L144.401 203.814C144.737 202.755 145.073 201.643 145.396 200.504L149.432 185.843L150.71 181.408C150.836 180.854 151.021 180.315 151.261 179.8C151.224 180.367 151.124 180.929 150.965 181.475C150.737 182.547 150.373 184.074 149.903 185.964C148.961 189.743 147.643 194.969 146.002 200.705C145.679 201.844 145.329 202.969 144.993 204.041L144.482 203.639C149.096 200.959 154.718 201.978 156.763 204.738C157.614 205.702 158.345 206.764 158.942 207.901C159.229 208.287 159.46 208.711 159.628 209.16V209.16Z" fill="#263238"/>
<g opacity="0.3">
<path d="M199.338 203.907C201.563 202.979 204.046 202.865 206.347 203.586V203.693C206.991 205.457 207.442 207.286 207.692 209.147C203.818 206.882 198.881 205.944 194.913 208.021C195.925 206.227 197.471 204.789 199.338 203.907V203.907Z" fill="black"/>
</g>
<path d="M194.536 208.302C194.71 207.898 194.946 207.523 195.235 207.19C195.972 206.223 196.831 205.353 197.791 204.604C198.471 204.065 199.217 203.615 200.011 203.264C200.953 202.88 201.965 202.693 202.983 202.714C205.376 202.725 207.682 203.607 209.467 205.194L208.902 205.488C208.687 203.974 208.404 202.379 208.122 200.731L205.311 185.414L204.49 180.764C204.358 180.197 204.286 179.618 204.275 179.036C204.491 179.576 204.649 180.137 204.746 180.711C205.001 181.796 205.364 183.391 205.781 185.32C206.615 189.22 207.718 194.607 208.795 200.611C209.077 202.259 209.359 203.853 209.561 205.395L209.682 206.319L208.996 205.689C207.341 204.197 205.202 203.345 202.97 203.291C201.186 203.254 199.446 203.837 198.047 204.939C196.776 205.951 195.601 207.077 194.536 208.302V208.302Z" fill="#263238"/>
<g opacity="0.3">
<path d="M133.586 276.096C131.326 275.873 129.045 276.17 126.919 276.966C124.793 277.762 122.88 279.034 121.327 280.685C119.774 282.336 118.623 284.32 117.964 286.485C117.304 288.65 117.154 290.937 117.524 293.169C117.753 293.048 119.044 292.539 119.044 292.539L118.654 299.105C121.253 298.699 123.738 297.754 125.949 296.332C128.159 294.911 130.046 293.043 131.487 290.851C132.868 288.68 133.769 286.242 134.131 283.699C134.493 281.155 134.307 278.563 133.586 276.096V276.096Z" fill="black"/>
</g>
<path d="M117.215 296.197C121.48 295.692 125.377 293.541 128.07 290.207C130.842 286.765 132.669 282.665 133.37 278.307C134.258 273.403 133.895 267.976 131.124 263.955C128.353 259.935 124.223 258.166 119.703 256.545" fill="#274DED"/>
<path d="M119.704 256.505C120.413 256.643 121.106 256.85 121.775 257.121C123.662 257.749 125.467 258.595 127.156 259.641C129.673 261.235 131.651 263.546 132.833 266.274C134.143 269.65 134.547 273.308 134.003 276.887C133.564 280.455 132.436 283.905 130.68 287.045C129.246 289.619 127.245 291.836 124.829 293.531C123.209 294.672 121.382 295.487 119.448 295.93C118.925 296.045 118.395 296.121 117.861 296.158C117.674 296.189 117.483 296.189 117.296 296.158C117.296 296.158 118.063 296.024 119.381 295.662C121.246 295.134 123 294.276 124.56 293.129C126.868 291.426 128.774 289.239 130.142 286.723C131.821 283.642 132.903 280.274 133.33 276.794C133.86 273.333 133.495 269.795 132.268 266.515C131.149 263.879 129.278 261.629 126.887 260.043C125.264 258.981 123.538 258.083 121.735 257.363C121.037 257.128 120.358 256.841 119.704 256.505V256.505Z" fill="#263238"/>
<path d="M122.838 211.505C123.207 212.315 123.508 213.153 123.739 214.011L125.838 220.805V220.886L125.972 234.89L126.12 251.694V256.786C126.159 257.412 126.137 258.041 126.053 258.662C125.925 258.049 125.857 257.426 125.851 256.8C125.77 255.594 125.676 253.865 125.596 251.707C125.421 247.406 125.3 241.469 125.232 234.903C125.232 229.65 125.232 224.785 125.232 220.899V220.98L123.363 214.119C123.116 213.263 122.941 212.389 122.838 211.505Z" fill="#263238"/>
<path d="M231.448 213.114C231.102 213.791 230.696 214.437 230.237 215.043L226.739 220.109V219.961C226.739 224.182 226.591 229.784 226.282 235.908L225.381 253.101L225.139 258.314C225.146 258.956 225.092 259.598 224.977 260.23C224.88 259.596 224.844 258.955 224.87 258.314C224.87 257.081 224.87 255.299 224.87 253.088C224.95 248.679 225.233 242.595 225.569 235.868C225.878 229.757 226.107 224.169 226.188 219.961V219.814L229.887 214.882C230.352 214.247 230.875 213.655 231.448 213.114Z" fill="#263238"/>
<path d="M241.038 300.512C240.282 300.574 239.522 300.574 238.765 300.512C236.688 300.346 234.659 299.801 232.779 298.904C230.024 297.453 227.728 295.268 226.147 292.593C222.461 285.984 220.933 278.397 221.775 270.884C222.154 267.843 222.946 264.867 224.129 262.039C224.931 260.144 225.946 258.345 227.156 256.679C227.476 256.213 227.822 255.766 228.192 255.339C228.447 255.044 228.582 254.91 228.595 254.923C227.005 257.215 225.652 259.662 224.56 262.227C223.459 265.033 222.726 267.97 222.381 270.964C221.629 278.329 223.12 285.748 226.658 292.258C228.16 294.856 230.34 297 232.967 298.462C234.782 299.374 236.737 299.977 238.752 300.244C239.52 300.271 240.285 300.361 241.038 300.512V300.512Z" fill="#263238"/>
<g opacity="0.3">
<path d="M154.248 203.157C152.023 202.228 149.54 202.114 147.239 202.835V202.942C146.595 204.707 146.144 206.535 145.894 208.396C147.85 207.281 150.054 206.67 152.307 206.618C154.559 206.567 156.789 207.077 158.794 208.101C157.942 205.951 156.323 204.191 154.248 203.157V203.157Z" fill="black"/>
</g>
<path d="M172.838 94.0891H171.331C164.005 94.3899 157.062 97.4275 151.882 102.597C146.702 107.767 143.666 114.69 143.379 121.989C142.827 136.073 142.397 149.809 142.8 157.34C143.634 172.912 159.696 174.453 159.696 174.453C159.696 174.453 159.696 179.813 159.696 184.45C161.365 187.282 163.705 189.665 166.512 191.388C169.319 193.111 172.508 194.123 175.798 194.335C179.089 194.546 182.381 193.951 185.387 192.602C188.393 191.252 191.022 189.189 193.043 186.594L194.966 184.181L197.334 124.508C198.033 108.334 189.155 94.3705 172.838 94.0891Z" fill="#FFBF9D"/>
<path d="M159.696 174.654C166.94 174.349 173.944 171.977 179.873 167.819C179.873 167.819 175.461 179.733 159.79 178.982L159.696 174.654Z" fill="#FF9A6C"/>
<path d="M150.575 134.05C150.593 134.63 150.838 135.181 151.258 135.584C151.677 135.987 152.239 136.211 152.822 136.207C153.112 136.218 153.401 136.17 153.671 136.066C153.942 135.963 154.189 135.805 154.396 135.603C154.604 135.401 154.768 135.16 154.879 134.892C154.99 134.625 155.045 134.339 155.041 134.05C155.024 133.469 154.779 132.918 154.359 132.515C153.939 132.112 153.378 131.889 152.795 131.892C152.505 131.881 152.216 131.929 151.945 132.033C151.675 132.137 151.428 132.295 151.22 132.496C151.013 132.698 150.848 132.94 150.738 133.207C150.627 133.474 150.572 133.761 150.575 134.05Z" fill="#263238"/>
<path d="M146.984 128.797C147.266 129.078 148.908 127.751 151.315 127.671C153.723 127.591 155.526 128.703 155.781 128.395C156.037 128.086 155.607 127.751 154.813 127.215C153.742 126.541 152.487 126.213 151.221 126.277C149.973 126.324 148.771 126.765 147.791 127.537C147.078 128.14 146.849 128.689 146.984 128.797Z" fill="#263238"/>
<path d="M172.757 133.728C172.775 134.309 173.02 134.86 173.439 135.263C173.859 135.666 174.421 135.89 175.004 135.886C175.289 135.897 175.574 135.85 175.841 135.75C176.108 135.649 176.352 135.496 176.559 135.3C176.766 135.104 176.931 134.869 177.045 134.608C177.159 134.347 177.22 134.066 177.223 133.782C177.206 133.201 176.961 132.651 176.541 132.247C176.121 131.844 175.56 131.621 174.977 131.624C174.692 131.614 174.407 131.66 174.14 131.761C173.873 131.861 173.629 132.014 173.422 132.21C173.215 132.406 173.049 132.641 172.935 132.902C172.821 133.163 172.761 133.444 172.757 133.728Z" fill="#263238"/>
<path d="M170.578 128.382C170.874 128.663 172.515 127.35 174.91 127.256C177.304 127.162 179.12 128.288 179.376 127.98C179.631 127.671 179.201 127.336 178.407 126.8C177.336 126.125 176.081 125.798 174.815 125.862C173.567 125.91 172.366 126.351 171.385 127.122C170.672 127.725 170.43 128.261 170.578 128.382Z" fill="#263238"/>
<path d="M162.722 147.142C161.44 146.801 160.121 146.621 158.794 146.606C158.176 146.606 157.597 146.472 157.449 146.057C157.37 145.425 157.487 144.784 157.785 144.221L159.413 139.49C161.66 132.79 163.26 127.229 162.991 127.135C162.722 127.041 160.678 132.495 158.431 139.195L156.884 143.953C156.531 144.707 156.455 145.561 156.669 146.365C156.767 146.578 156.912 146.766 157.094 146.914C157.276 147.063 157.489 147.168 157.718 147.222C158.062 147.302 158.415 147.338 158.767 147.33C160.088 147.434 161.417 147.371 162.722 147.142V147.142Z" fill="#263238"/>
<path d="M171.197 116.468C171.466 117.112 173.887 116.71 176.685 116.937C179.483 117.165 181.837 117.835 182.187 117.246C182.349 116.964 181.918 116.361 180.976 115.771C179.718 115.046 178.311 114.616 176.861 114.514C175.412 114.412 173.957 114.64 172.609 115.182C171.574 115.637 171.076 116.173 171.197 116.468Z" fill="#263238"/>
<path d="M147.831 117.741C148.356 118.264 150.293 117.621 152.647 117.5C155.001 117.38 157.006 117.688 157.449 117.112C157.638 116.83 157.301 116.294 156.414 115.771C155.19 115.178 153.829 114.924 152.472 115.034C151.118 115.099 149.806 115.53 148.679 116.281C147.858 116.911 147.603 117.487 147.831 117.741Z" fill="#263238"/>
<path d="M196.5 136.167C196.755 136.047 207.113 132.562 207.261 143.229C207.409 153.896 195.733 152.167 195.706 151.859C195.679 151.551 196.5 136.167 196.5 136.167Z" fill="#FFBF9D"/>
<path d="M199.755 147.45C199.755 147.45 199.944 147.584 200.266 147.718C200.699 147.885 201.179 147.885 201.612 147.718C202.742 147.29 203.67 145.494 203.71 143.578C203.731 142.654 203.543 141.738 203.159 140.898C203.057 140.564 202.875 140.261 202.629 140.013C202.383 139.766 202.08 139.582 201.746 139.477C201.53 139.422 201.301 139.444 201.1 139.54C200.898 139.635 200.737 139.798 200.643 140C200.509 140.294 200.576 140.509 200.522 140.536C200.468 140.562 200.293 140.361 200.374 139.919C200.432 139.655 200.579 139.418 200.791 139.249C200.933 139.136 201.097 139.052 201.273 139.004C201.449 138.956 201.633 138.943 201.813 138.968C202.251 139.056 202.66 139.252 203.003 139.538C203.346 139.823 203.612 140.189 203.777 140.603C204.24 141.521 204.471 142.537 204.45 143.564C204.45 145.708 203.32 147.732 201.76 148.201C201.473 148.286 201.17 148.306 200.875 148.26C200.579 148.213 200.298 148.102 200.051 147.933C199.782 147.665 199.661 147.45 199.755 147.45Z" fill="#FF9A6C"/>
<path d="M121.762 108.012C121.945 107.385 122.364 106.852 122.932 106.525C124.191 105.939 125.584 105.698 126.968 105.828C130.369 105.705 133.699 104.816 136.707 103.228C135.623 102.742 134.624 102.086 133.747 101.285C132.826 100.461 132.152 99.3985 131.798 98.2162C131.445 97.034 131.425 95.7774 131.743 94.585C131.792 94.3605 131.894 94.1505 132.038 93.9715C132.183 93.7924 132.367 93.6493 132.577 93.5532C133.276 93.3387 133.922 94.0088 134.379 94.5448C135.005 95.3743 135.844 96.0202 136.808 96.4141C137.772 96.808 138.824 96.9353 139.854 96.7827C141.276 96.6744 142.656 96.2485 143.89 95.5364L144.024 95.389L145.639 93.7274C149.674 89.7072 153.051 86.9064 156.602 85.4324C161.808 83.2749 170.538 82.3234 176.013 83.6903C181.488 85.0572 186.424 89.399 187.245 94.9602C190.272 92.3471 194.859 92.2801 198.598 93.7676H198.692C202.862 95.188 205.257 99.5298 206.535 103.738C206.602 103.965 206.669 104.207 206.737 104.434C208.157 106.645 210.09 108.484 212.373 109.795C212.776 110.023 213.234 110.304 213.288 110.76C213.341 111.215 212.965 111.59 212.588 111.872C211.597 112.591 210.457 113.08 209.252 113.306C209.617 114.303 210.067 115.266 210.597 116.187C211.068 116.977 211.646 117.915 211.243 118.733C211.06 119.037 210.788 119.278 210.463 119.425C210.139 119.571 209.777 119.615 209.427 119.55C208.729 119.406 208.07 119.119 207.49 118.706L209.077 121.989C207.571 122.257 206.023 122.17 204.557 121.735C203.723 125.688 203.145 132.991 202.15 135.671C199.311 135.752 198.612 135.457 197.186 135.939C195.343 136.569 196.083 139.839 193.661 138.928C192.424 138.472 190.487 133.849 190.056 132.603C187.231 124.327 186.227 115.543 187.11 106.847C185.366 105.035 183.288 103.575 180.99 102.545L181.178 102.706C176.779 101.245 171.762 99.8112 167.726 101.902C164.525 103.523 162.669 106.887 160.288 109.567C158.283 112.015 155.781 114.012 152.945 115.426C150.109 116.839 147.004 117.638 143.836 117.768C143.271 122.485 143.177 130.19 143.002 134.586L139.128 125.875C138.819 125.366 138.563 124.844 138.307 124.334L138.227 124.174C137.848 123.322 137.426 122.49 136.962 121.681V121.681C136.479 122.214 135.803 122.534 135.082 122.571C134.362 122.607 133.657 122.357 133.122 121.875C132.587 121.394 132.265 120.72 132.229 120.003C132.192 119.285 132.443 118.583 132.927 118.049C133.303 117.537 133.757 117.085 134.272 116.709C133.738 117.237 133.075 117.619 132.349 117.816C131.623 118.013 130.858 118.02 130.129 117.835C129.405 117.625 128.771 117.183 128.326 116.577C127.881 115.971 127.649 115.236 127.667 114.485C127.72 113.979 127.906 113.496 128.205 113.084C128.505 112.672 128.909 112.347 129.375 112.14C127.431 112.315 125.478 111.909 123.766 110.974C122.488 110.411 121.399 109.393 121.762 108.012Z" fill="#263238"/>
<path d="M182.402 96.8496C182.968 97.2809 183.499 97.7559 183.99 98.2701C185.244 99.749 186.092 101.527 186.451 103.429C186.737 104.751 186.886 106.098 186.895 107.45C186.895 108.883 186.815 110.424 186.734 112.059C186.627 113.764 186.627 115.474 186.734 117.178C186.796 118.08 186.926 118.976 187.124 119.858C187.27 120.812 187.659 121.711 188.254 122.472C188.531 122.771 188.881 122.993 189.27 123.118C189.659 123.242 190.073 123.264 190.473 123.182C191.229 123.007 191.906 122.588 192.397 121.989C193.241 120.806 193.748 119.416 193.863 117.969H193.54C194.029 119.143 194.686 120.24 195.491 121.225C196.266 122.139 197.364 122.719 198.558 122.847C199.113 122.899 199.672 122.797 200.172 122.552C200.637 122.308 201.016 121.929 201.262 121.467C201.485 121.056 201.596 120.594 201.585 120.127C201.559 119.678 201.379 119.251 201.073 118.92L200.912 119.068C201.855 120.122 203.01 120.966 204.302 121.547C204.643 121.698 204.994 121.828 205.351 121.936L205.728 122.029L205.378 121.882C205.149 121.788 204.8 121.654 204.356 121.44C203.08 120.839 201.941 119.986 201.006 118.934L200.845 119.081C201.107 119.405 201.261 119.803 201.285 120.219C201.309 120.635 201.202 121.047 200.979 121.4C200.757 121.812 200.414 122.148 199.997 122.364C199.542 122.585 199.034 122.673 198.531 122.619C197.417 122.489 196.396 121.937 195.679 121.078C194.926 120.132 194.311 119.085 193.85 117.969L193.621 117.473L193.527 118.009C193.42 119.373 192.956 120.685 192.182 121.815C191.72 122.341 191.095 122.7 190.406 122.833C190.067 122.905 189.714 122.887 189.384 122.781C189.054 122.676 188.757 122.486 188.523 122.23C187.973 121.518 187.613 120.679 187.474 119.791C187.28 118.909 187.154 118.013 187.097 117.111C186.994 115.42 186.994 113.724 187.097 112.033C187.178 110.411 187.272 108.857 187.232 107.409C187.205 106.056 187.039 104.708 186.734 103.389C186.346 101.455 185.445 99.6595 184.124 98.1897C183.632 97.6474 183.05 97.194 182.402 96.8496V96.8496Z" fill="#455A64"/>
<path d="M134.083 112.609L134.205 112.716L134.595 112.998C134.808 113.153 135.033 113.292 135.267 113.413C135.575 113.598 135.894 113.764 136.222 113.909C138.336 114.834 140.647 115.221 142.948 115.034C146.369 114.768 149.64 113.521 152.364 111.443C155.666 108.894 158.412 105.703 160.436 102.063C161.552 100.16 162.467 98.2166 163.462 96.4075C164.374 94.6529 165.534 93.0373 166.906 91.6101C168.145 90.3015 169.695 89.3245 171.412 88.7692C172.185 88.5468 172.989 88.4473 173.793 88.4744C174.534 88.5078 175.266 88.6385 175.972 88.863C178.135 89.576 179.95 91.0732 181.057 93.0574C181.424 93.8003 181.704 94.5826 181.891 95.3891C181.899 95.3358 181.899 95.2816 181.891 95.2283L181.81 94.7458C181.675 94.1383 181.467 93.549 181.192 92.9904C180.734 92.1161 180.134 91.3236 179.416 90.6453C178.459 89.7384 177.316 89.0482 176.066 88.6218C175.336 88.3794 174.576 88.2352 173.807 88.1929C172.971 88.1605 172.136 88.26 171.331 88.4878C169.571 89.0269 167.975 89.9993 166.691 91.3153C165.286 92.7589 164.099 94.3974 163.166 96.1797C162.144 97.9888 161.243 99.9453 160.14 101.821C158.164 105.447 155.473 108.637 152.23 111.202C149.559 113.259 146.352 114.51 142.989 114.807C140.725 115.01 138.445 114.665 136.343 113.802C135.568 113.448 134.813 113.05 134.083 112.609V112.609Z" fill="#455A64"/>
<path d="M132.577 105.748C132.746 105.903 132.936 106.034 133.142 106.136C133.676 106.451 134.234 106.724 134.81 106.954C135.681 107.308 136.581 107.586 137.5 107.785C139.711 108.274 141.998 108.319 144.226 107.919C145.142 107.754 146.042 107.512 146.917 107.195C147.505 106.989 148.076 106.738 148.625 106.444C148.834 106.351 149.029 106.229 149.204 106.083C149.204 106.083 148.316 106.471 146.836 106.954C145.956 107.231 145.057 107.441 144.146 107.584C141.945 107.942 139.698 107.897 137.514 107.45C136.622 107.264 135.746 107.013 134.891 106.699C133.452 106.176 132.618 105.694 132.577 105.748Z" fill="#455A64"/>
<path d="M171.479 152.811C171.358 152.891 171.17 152.141 170.322 151.779C169.781 151.628 169.209 151.628 168.668 151.779C167.995 151.886 167.323 152.007 166.489 152.181C163.408 152.824 161.041 153.816 160.96 153.628C162.569 152.523 164.409 151.795 166.341 151.497C167.082 151.34 167.832 151.224 168.587 151.149C169.242 151.013 169.924 151.083 170.538 151.35C170.943 151.566 171.255 151.924 171.412 152.355C171.533 152.61 171.52 152.811 171.479 152.811Z" fill="#263238"/>
<path d="M87.3522 230.146C88.7052 231.799 89.695 233.716 90.2578 235.774C90.7151 238.36 96.5263 271.956 98.0464 276.633C99.9431 282.462 103.858 294.348 119.421 289.899C130.183 286.817 130.573 270.468 123.242 261.49C115.91 252.511 103.696 226.796 102.808 223.459C101.92 220.122 93.1903 210.058 83.1149 207.378C73.0395 204.698 67.9951 204.698 64.2824 199.82C60.5697 194.942 56.0365 192.57 53.8976 196.215C51.7588 199.86 64.2824 210.822 64.2824 210.822L81.8504 227.559L87.3522 230.146Z" fill="#FFBF9D"/>
<path d="M53.6689 210.152C53.6689 210.152 45.9072 200.772 40.8628 204.685C40.8628 204.685 47.4273 213.422 49.6334 215.807C51.8394 218.192 57.6102 219.827 57.6102 219.827C57.6102 219.827 63.3676 226.447 66.475 227.332C68.1143 227.89 69.8935 227.89 71.5328 227.332C71.5328 227.332 71.627 228.833 76.4965 229.543C81.3661 230.253 94.3067 228.926 94.3067 228.926L102.297 222.226C102.297 222.226 98.2615 215.526 92.1813 215.392C86.1011 215.258 81.541 219.894 81.541 219.894L76.1602 219.801L72.878 215.566C72.878 215.566 73.5103 204.43 66.8516 205.676C66.8516 205.676 66.6095 202.112 63.7846 201.763C62.9732 201.693 62.163 201.912 61.498 202.38C60.8331 202.849 60.3564 203.537 60.1526 204.323C60.1526 204.323 60.7445 199.941 58.3501 199.056C57.9811 198.857 57.5749 198.734 57.1566 198.697C56.7383 198.66 56.3168 198.709 55.9183 198.841C55.5198 198.973 55.1527 199.185 54.8398 199.464C54.5269 199.743 54.2749 200.083 54.0993 200.463C53.4402 201.763 53.6689 210.152 53.6689 210.152Z" fill="#FFBF9D"/>
<path d="M72.1382 227.359C71.2964 226.589 70.5511 225.72 69.9187 224.772C69.2865 223.928 68.5735 222.923 67.7799 221.744C67.3376 221.123 67.0222 220.422 66.8517 219.68C66.682 218.903 66.5651 218.115 66.5019 217.322C66.3125 214.587 66.3125 211.842 66.5019 209.107C66.5017 207.969 66.6372 206.836 66.9055 205.73C67.0368 206.855 67.0684 207.99 66.9997 209.12C66.9997 211.211 66.9996 214.105 67.2014 217.268C67.2627 218.029 67.3705 218.785 67.5243 219.533C67.6662 220.209 67.9405 220.851 68.3314 221.422C69.0443 222.601 69.6766 223.633 70.3222 224.504C71.0084 225.402 71.616 226.357 72.1382 227.359V227.359Z" fill="#FF9A6C"/>
<path d="M60.2201 222.641C59.6564 221.903 59.3158 221.02 59.2381 220.095C58.897 217.929 58.7977 215.731 58.9422 213.542C58.9807 210.45 59.4101 207.375 60.2201 204.39C60.4084 204.39 59.8973 208.517 59.6417 213.569C59.5117 215.717 59.5432 217.872 59.7358 220.015C59.8838 221.65 60.3143 222.574 60.2201 222.641Z" fill="#FF9A6C"/>
<path d="M58.0273 220.323C57.2512 219.793 56.5616 219.146 55.9826 218.407C55.6867 218.085 55.3773 217.724 55.0679 217.335C54.6836 216.909 54.3703 216.425 54.1397 215.901C53.8284 214.681 53.6436 213.433 53.5882 212.176C53.4133 209.496 53.4268 207.177 53.4806 205.475C53.4405 204.544 53.5265 203.61 53.7362 202.701C53.9514 202.701 53.9783 206.949 54.2877 212.149C54.343 213.353 54.5005 214.55 54.7585 215.727C54.9521 216.209 55.2149 216.66 55.5387 217.067L56.3727 218.179C56.9916 218.84 57.5457 219.558 58.0273 220.323V220.323Z" fill="#FF9A6C"/>
<path d="M81.5277 219.948C81.0841 220.029 80.633 220.06 80.1825 220.042H76.268H76.1604L76.0932 219.948C74.7349 218.533 73.5681 216.947 72.6226 215.231V215.231V215.164C72.7145 213.473 72.5696 211.777 72.1922 210.125C71.9579 209.257 71.5558 208.442 71.0084 207.726C70.7484 207.362 70.4159 207.056 70.0318 206.825C69.6476 206.595 69.22 206.445 68.7754 206.386C68.1936 206.324 67.6053 206.369 67.0401 206.52L66.6366 206.628V206.212C66.6165 205.384 66.39 204.573 65.9774 203.854C65.5554 203.214 64.9228 202.74 64.1883 202.514C63.8503 202.406 63.4914 202.378 63.1409 202.434C62.7903 202.49 62.4579 202.628 62.1706 202.835C61.578 203.209 61.0843 203.719 60.7312 204.323L60.2335 205.194V204.202C60.3358 202.841 59.9963 201.483 59.265 200.329C58.9031 199.966 58.4583 199.696 57.9686 199.542C57.4789 199.388 56.959 199.355 56.4536 199.445C55.7794 199.542 55.1508 199.841 54.651 200.303C54.3147 200.624 54.1802 200.852 54.1533 200.839C54.213 200.588 54.3437 200.36 54.53 200.182C55.0182 199.632 55.6759 199.26 56.3998 199.123C56.9693 198.991 57.5629 199.003 58.1266 199.157C58.6904 199.312 59.2065 199.604 59.6282 200.008C60.4845 201.225 60.9104 202.691 60.8389 204.175L60.2873 204.055C60.6743 203.351 61.2286 202.753 61.9015 202.313C62.2674 202.048 62.6904 201.873 63.1366 201.801C63.5828 201.729 64.0398 201.762 64.4708 201.897C65.3628 202.18 66.1284 202.763 66.6366 203.546C67.1183 204.359 67.3867 205.281 67.4168 206.226L66.9863 205.904C67.6392 205.73 68.3192 205.68 68.9906 205.757C69.5252 205.834 70.0387 206.017 70.5008 206.296C70.963 206.574 71.3643 206.942 71.681 207.378C72.3054 208.172 72.7628 209.084 73.0262 210.058C73.4088 211.772 73.5402 213.533 73.4162 215.284V215.15C74.3203 216.845 75.4269 218.424 76.7119 219.854L76.5371 219.76L80.4381 219.934C80.8009 219.907 81.1656 219.911 81.5277 219.948V219.948Z" fill="#FF9A6C"/>
<path d="M95.4905 215.713C93.284 215.287 91.0123 215.324 88.821 215.822C86.6297 216.321 84.5671 217.269 82.7651 218.608C82.7651 218.608 83.1821 217.925 84.191 217.174C85.5324 216.199 87.0594 215.508 88.6785 215.141C90.2976 214.775 91.9748 214.742 93.6073 215.043C94.28 215.112 94.9261 215.342 95.4905 215.713V215.713Z" fill="#FF9A6C"/>
<path d="M284.676 206.239C283.914 205.976 283.082 206 282.336 206.306C278.808 207.406 275.486 209.077 272.502 211.251L275.099 220.162C276.108 218.233 280.802 215.7 282.443 214.266C284.225 212.977 285.446 211.06 285.86 208.906C285.942 208.395 285.874 207.871 285.664 207.398C285.454 206.925 285.111 206.522 284.676 206.239V206.239Z" fill="#FF9A6C"/>
<path d="M227.157 282.797C226.41 276.2 226.352 269.545 226.982 262.937C227.722 257.014 232.645 239.486 232.995 234.018C233.344 228.551 233.506 225.978 236.949 223.405C240.393 220.832 240.38 222.065 245.195 219.13C250.011 216.195 251.033 214.172 258.257 213.77C265.481 213.368 271.144 228.832 271.144 228.832C271.144 228.832 270.794 232.089 269.422 232.946C268.05 233.804 266.328 233.978 262.037 233.804C257.746 233.63 253.441 234.661 253.105 237.221C252.88 243.385 253.513 249.55 254.988 255.54C256.71 261.878 255.338 269.235 254.127 275.399C252.917 281.564 250.442 295.018 240.555 296.103C228.946 297.363 227.157 282.797 227.157 282.797Z" fill="#FFBF9D"/>
<path d="M244.738 225.951C244.738 225.951 250.118 225.415 250.979 224.37C251.84 223.325 254.84 213.073 256.522 210.728C258.203 208.383 259.346 207.914 261.162 208.303C261.162 208.303 260.92 203.706 265.077 203.05C265.077 203.05 267.673 202.648 268.09 208.879C268.09 208.879 267.646 202.956 272.126 200.933C272.637 200.682 273.227 200.64 273.769 200.815C274.312 200.99 274.764 201.369 275.031 201.871C275.151 202.108 275.237 202.36 275.287 202.621C275.556 204.041 275.906 210.661 275.906 210.661C275.906 210.661 276.39 219.64 276.524 219.251C276.659 218.863 282.08 206.775 282.847 205.609C283.165 204.894 283.717 204.308 284.414 203.948C285.111 203.587 285.91 203.474 286.68 203.626C287.085 203.667 287.468 203.826 287.781 204.084C288.095 204.341 288.325 204.686 288.443 205.073C288.445 205.719 288.368 206.362 288.214 206.99C287.366 210.42 285.066 220.015 284.178 221.583C283.291 223.151 274.977 231.861 271.588 232.143C269.798 232.319 267.996 232.319 266.207 232.143L244.738 225.951Z" fill="#FFBF9D"/>
<path d="M255.782 230.467C255.701 230.4 256.562 229.409 257.678 227.626C258.335 226.598 258.876 225.502 259.293 224.357C259.529 223.69 259.682 222.997 259.75 222.293L259.925 219.948C260.18 216.732 260.449 213.824 260.665 211.706C260.718 210.557 260.889 209.417 261.176 208.303C261.293 209.443 261.293 210.593 261.176 211.733C261.068 213.851 260.88 216.772 260.638 220.001L260.449 222.347C260.37 223.103 260.193 223.846 259.925 224.558C259.467 225.737 258.861 226.853 258.122 227.881C257.509 228.879 256.715 229.756 255.782 230.467V230.467Z" fill="#FF9A6C"/>
<path d="M268.063 208.276C268.283 209.383 268.387 210.511 268.373 211.639C268.48 213.716 268.575 216.598 268.628 219.774V222.092C268.679 222.839 268.648 223.589 268.534 224.33C268.197 225.539 267.67 226.688 266.974 227.734C266.429 228.733 265.725 229.638 264.889 230.414C264.808 230.414 265.548 229.288 266.543 227.479C267.142 226.452 267.594 225.347 267.889 224.196C267.959 223.505 267.959 222.809 267.889 222.119V219.8C267.889 216.624 267.808 213.743 267.889 211.653C267.829 210.524 267.888 209.392 268.063 208.276V208.276Z" fill="#FF9A6C"/>
<path d="M276.336 218.366C276.417 218.366 276.78 218.956 276.807 220.068C276.828 220.724 276.727 221.378 276.511 221.998C276.219 222.718 275.868 223.413 275.462 224.075C274.535 225.817 273.342 227.404 271.924 228.779C272.763 227.014 273.743 225.32 274.856 223.713C275.247 223.082 275.602 222.428 275.919 221.757C276.136 221.212 276.272 220.639 276.323 220.055C276.417 219.036 276.255 218.393 276.336 218.366Z" fill="#FF9A6C"/>
<path d="M239.572 225.898C239.572 225.603 244.724 226.488 250.603 224.143L250.885 224.049L250.67 224.25C251.76 221.395 252.795 218.889 253.562 217.013C253.905 215.999 254.356 215.024 254.907 214.105C254.71 215.163 254.399 216.196 253.979 217.188C253.32 219.064 252.378 221.65 251.289 224.504V224.652H251.141L250.858 224.746C249.456 225.223 248.028 225.621 246.581 225.938C245.383 226.187 244.158 226.286 242.935 226.233C241.804 226.289 240.67 226.176 239.572 225.898V225.898Z" fill="#FF9A6C"/>
<line x1="-30.4468" y1="340.25" x2="389.397" y2="340.25" stroke="#263238" stroke-width="1.5"/>
</g>
<defs>
<clipPath id="clip0_3_14671">
<rect width="329" height="341" fill="white"/>
</clipPath>
</defs>
</svg>
