<svg width="65" height="65" viewBox="0 0 65 65" fill="none" xmlns="http://www.w3.org/2000/svg">
  <circle cx="32" cy="33" r="23" fill="#AEC2FC"/>
  <path fill="#274DED" d="M31.9962 9C18.7511 9 8 19.752 8 32.9962C8 46.2414 18.752 57 31.9962 57C45.2414 57 56 46.2414 56 32.9962C56 19.7511 45.2414 9 31.9962 9ZM31.9962 10.6552C44.3466 10.6552 54.3429 20.6467 54.3429 32.9962C54.3429 45.3466 44.3466 55.3448 31.9962 55.3448C19.6458 55.3448 9.65517 45.3476 9.65517 32.9962C9.65517 20.6458 19.6467 10.6552 31.9962 10.6552ZM18.3264 24.7289C18.278 24.73 18.23 24.7351 18.1823 24.7444C17.9658 24.7865 17.7748 24.9136 17.6521 25.0972C17.5295 25.2808 17.4851 25.5062 17.5295 25.7223C18.046 28.3278 20.3388 30.2128 22.9912 30.2128C25.6439 30.2128 27.9363 28.3282 28.4528 25.7223C28.4972 25.5058 28.4528 25.2805 28.3298 25.0969C28.2068 24.9132 28.0154 24.7861 27.7982 24.7444C27.5828 24.7023 27.3596 24.7473 27.1775 24.87C26.995 24.9923 26.869 25.1822 26.8269 25.3976C26.4615 27.24 24.8621 28.5561 22.9911 28.5561C21.1201 28.5561 19.5189 27.2405 19.154 25.3976C19.0764 25.0037 18.7276 24.7226 18.3264 24.73L18.3264 24.7289ZM36.3422 24.7289C36.2938 24.73 36.2458 24.7351 36.1981 24.7444C35.9813 24.7865 35.7906 24.9136 35.668 25.0972C35.5453 25.2808 35.501 25.5062 35.5453 25.7223C36.0618 28.3278 38.3547 30.2128 41.007 30.2128C43.6597 30.2128 45.9522 28.3282 46.4687 25.7223C46.5126 25.5058 46.4683 25.2805 46.3453 25.0969C46.2226 24.9132 46.0312 24.7861 45.814 24.7444C45.5986 24.7023 45.3751 24.7473 45.1929 24.87C45.0108 24.9923 44.8848 25.1822 44.8427 25.3976C44.4773 27.24 42.878 28.5561 41.007 28.5561C39.136 28.5561 37.5348 27.2405 37.1698 25.3976C37.0922 25.0037 36.7434 24.7226 36.3422 24.73L36.3422 24.7289ZM31.9959 36.333C28.9294 36.333 26.4308 38.8453 26.4308 41.9159C26.4308 44.9869 28.9298 47.494 31.9959 47.494C35.0624 47.494 37.5677 44.9865 37.5677 41.9159C37.5677 38.8453 35.0624 36.333 31.9959 36.333ZM31.9959 37.9882C34.1654 37.9882 35.9125 39.7376 35.9125 41.9159C35.9125 44.0946 34.1657 45.8388 31.9959 45.8388C29.8264 45.8388 28.0859 44.0947 28.0859 41.9159C28.0859 39.7376 29.8264 37.9882 31.9959 37.9882Z" />
</svg>
