<svg width="65" height="65" viewBox="0 0 65 65" fill="none" xmlns="http://www.w3.org/2000/svg">
  <circle cx="32" cy="32" r="23" fill="#AEC2FC"/>
  <mask id="mask0_3_14747" style="mask-type:alpha" maskUnits="userSpaceOnUse" x="0" y="0" width="65" height="65">
    <rect width="65" height="65" fill="#D9D9D9"/>
  </mask>
  <g mask="url(#mask0_3_14747)">
    <path fill="#274DED" d="M41 28.0583C41.7556 28.0583 42.4111 27.7917 42.9667 27.2583C43.5222 26.725 43.8 26.0583 43.8 25.2583C43.8 24.4583 43.5333 23.7917 43 23.2583C42.4667 22.725 41.8 22.4583 41 22.4583C40.2 22.4583 39.5444 22.7139 39.0333 23.225C38.5222 23.7361 38.2667 24.4139 38.2667 25.2583C38.2667 26.0583 38.5222 26.725 39.0333 27.2583C39.5444 27.7917 40.2 28.0583 41 28.0583ZM23 28.0583C23.8 28.0583 24.4556 27.7917 24.9667 27.2583C25.4778 26.725 25.7333 26.0583 25.7333 25.2583C25.7333 24.4583 25.4778 23.7917 24.9667 23.2583C24.4556 22.725 23.8 22.4583 23 22.4583C22.2444 22.4583 21.5889 22.7139 21.0333 23.225C20.4778 23.7361 20.2 24.4139 20.2 25.2583C20.2 26.0583 20.4667 26.725 21 27.2583C21.5333 27.7917 22.2 28.0583 23 28.0583ZM32 56.125C28.6667 56.125 25.5556 55.4917 22.6667 54.225C19.7778 52.9583 17.2444 51.2361 15.0667 49.0583C12.8889 46.8806 11.1667 44.3472 9.9 41.4583C8.63333 38.5694 8 35.4583 8 32.125C8 28.7917 8.63333 25.6694 9.9 22.7583C11.1667 19.8472 12.8889 17.3139 15.0667 15.1583C17.2444 13.0028 19.7778 11.2917 22.6667 10.025C25.5556 8.75833 28.6667 8.125 32 8.125C35.3333 8.125 38.4556 8.75833 41.3667 10.025C44.2778 11.2917 46.8111 13.0028 48.9667 15.1583C51.1222 17.3139 52.8333 19.8472 54.1 22.7583C55.3667 25.6694 56 28.7917 56 32.125C56 35.4583 55.3667 38.5694 54.1 41.4583C52.8333 44.3472 51.1222 46.8806 48.9667 49.0583C46.8111 51.2361 44.2778 52.9583 41.3667 54.225C38.4556 55.4917 35.3333 56.125 32 56.125ZM32 54.0583C38.0889 54.0583 43.2667 51.9139 47.5333 47.625C51.8 43.3361 53.9333 38.1694 53.9333 32.125C53.9333 26.0361 51.8 20.8583 47.5333 16.5917C43.2667 12.325 38.0889 10.1917 32 10.1917C25.9556 10.1917 20.7889 12.325 16.5 16.5917C12.2111 20.8583 10.0667 26.0361 10.0667 32.125C10.0667 38.1694 12.2111 43.3361 16.5 47.625C20.7889 51.9139 25.9556 54.0583 32 54.0583ZM21.9333 43.6583C22.1111 43.6583 22.2667 43.6139 22.4 43.525C22.5333 43.4361 22.6444 43.325 22.7333 43.1917C23.7556 41.6361 25.0667 40.425 26.6667 39.5583C28.2667 38.6917 30.0444 38.2583 32 38.2583C34 38.2583 35.7889 38.7028 37.3667 39.5917C38.9444 40.4806 40.2667 41.7028 41.3333 43.2583C41.3778 43.3472 41.4889 43.4361 41.6667 43.525C41.8444 43.6139 42 43.6583 42.1333 43.6583C42.5778 43.6583 42.8778 43.4917 43.0333 43.1583C43.1889 42.825 43.1778 42.525 43 42.2583C41.6667 40.1694 40.0111 38.6361 38.0333 37.6583C36.0556 36.6806 34.0444 36.1917 32 36.1917C29.9556 36.1917 27.9556 36.6694 26 37.625C24.0444 38.5806 22.4222 40.0583 21.1333 42.0583C20.8667 42.4583 20.8333 42.825 21.0333 43.1583C21.2333 43.4917 21.5333 43.6583 21.9333 43.6583Z" />
  </g>
</svg>
