<svg width="63" height="63" viewBox="0 0 63 63" fill="none" xmlns="http://www.w3.org/2000/svg">
  <circle cx="22.5" cy="22.5" r="22.5" transform="matrix(-1 0 0 1 54 9)" fill="#AEC2FC"/>
  <mask id="mask0_3_15004" style="mask-type:alpha" maskUnits="userSpaceOnUse" x="0" y="0" width="63" height="63">
    <rect width="63" height="63" fill="#D9D9D9"/>
  </mask>
  <g mask="url(#mask0_3_15004)">
    <path fill="#274DED" d="M31.5 55.125C28.2625 55.125 25.2109 54.5016 22.3453 53.2547C19.4797 52.0078 16.975 50.3125 14.8313 48.1688C12.6875 46.025 10.9922 43.5312 9.74531 40.6875C8.49844 37.8438 7.875 34.7812 7.875 31.5C7.875 28.2188 8.49844 25.1453 9.74531 22.2797C10.9922 19.4141 12.6875 16.9203 14.8313 14.7984C16.975 12.6766 19.4688 10.9922 22.3125 9.74531C25.1562 8.49844 28.2188 7.875 31.5 7.875C34.7812 7.875 37.8547 8.49844 40.7203 9.74531C43.5859 10.9922 46.0797 12.6766 48.2016 14.7984C50.3234 16.9203 52.0078 19.4141 53.2547 22.2797C54.5016 25.1453 55.125 28.2188 55.125 31.5C55.125 34.7375 54.5016 37.7891 53.2547 40.6547C52.0078 43.5203 50.3234 46.025 48.2016 48.1688C46.0797 50.3125 43.5859 52.0078 40.7203 53.2547C37.8547 54.5016 34.7812 55.125 31.5 55.125ZM31.5 53.0906C37.4937 53.0906 42.5906 50.9906 46.7906 46.7906C50.9906 42.5906 53.0906 37.4937 53.0906 31.5C53.0906 25.5063 50.9906 20.4094 46.7906 16.2094C42.5906 12.0094 37.4937 9.90938 31.5 9.90938C25.5063 9.90938 20.4094 12.0094 16.2094 16.2094C12.0094 20.4094 9.90938 25.5063 9.90938 31.5C9.90938 37.4937 12.0094 42.5906 16.2094 46.7906C20.4094 50.9906 25.5063 53.0906 31.5 53.0906Z" />
  </g>
  <mask id="mask1_3_15004" style="mask-type:alpha" maskUnits="userSpaceOnUse" x="14" y="14" width="35" height="35">
    <rect x="14.3181" y="14.3182" width="34.3636" height="34.3636" fill="#D9D9D9" stroke="#274DED" stroke-width="0.5"/>
  </mask>
  <g mask="url(#mask1_3_15004)">
    <path fill="#274DED" d="M34.0058 44.9593L32.9319 43.8855L38.0149 38.8025L24.1978 24.9855L19.1149 30.0684L18.041 28.9945L20.1172 26.9184L18.8285 25.6298L21.8353 22.5872L20.0814 20.8332L20.8331 20.0457L22.6228 21.8355L25.6297 18.8286L26.9183 20.1173L28.9944 18.0411L30.0683 19.115L24.9853 24.198L38.8024 38.015L43.8853 32.932L44.9592 34.0059L42.8831 36.082L44.1717 37.3707L41.1291 40.4133L42.9189 42.1673L42.1314 42.9548L40.3774 41.165L37.3706 44.1718L36.0819 42.8832L34.0058 44.9593Z" />
    <path stroke="#274DED" stroke-width="0.5" d="M34.0058 44.9593L32.9319 43.8855L38.0149 38.8025L24.1978 24.9855L19.1149 30.0684L18.041 28.9945L20.1172 26.9184L18.8285 25.6298L21.8353 22.5872L20.0814 20.8332L20.8331 20.0457L22.6228 21.8355L25.6297 18.8286L26.9183 20.1173L28.9944 18.0411L30.0683 19.115L24.9853 24.198L38.8024 38.015L43.8853 32.932L44.9592 34.0059L42.8831 36.082L44.1717 37.3707L41.1291 40.4133L42.9189 42.1673L42.1314 42.9548L40.3774 41.165L37.3706 44.1718L36.0819 42.8832L34.0058 44.9593Z" />
  </g>
</svg>
